G75*
%MOIN*%
%OFA0B0*%
%FSLAX25Y25*%
%IPPOS*%
%LPD*%
%AMOC8*
5,1,8,0,0,1.08239X$1,22.5*
%
%ADD10C,0.00600*%
%ADD11C,0.00400*%
%ADD12C,0.00300*%
%ADD13C,0.00800*%
%ADD14C,0.01000*%
%ADD15C,0.00500*%
%ADD16R,0.00591X0.01181*%
%ADD17R,0.01181X0.01181*%
%ADD18C,0.00100*%
%ADD19C,0.00200*%
%ADD20R,0.01000X0.02000*%
%ADD21R,0.00500X0.01500*%
%ADD22R,0.01000X0.01000*%
%ADD23C,0.01575*%
%ADD24C,0.02400*%
D10*
X0036750Y0020596D02*
X0037750Y0019596D01*
X0045750Y0019596D01*
X0046750Y0020596D01*
X0047750Y0019596D01*
X0055750Y0019596D01*
X0056750Y0020596D01*
X0057750Y0019596D01*
X0065750Y0019596D01*
X0066750Y0020596D01*
X0066750Y0028596D01*
X0065750Y0029596D01*
X0057750Y0029596D01*
X0056750Y0028596D01*
X0055750Y0029596D01*
X0047750Y0029596D01*
X0046750Y0028596D01*
X0045750Y0029596D01*
X0037750Y0029596D01*
X0036750Y0028596D01*
X0036750Y0020596D01*
X0052314Y0015234D02*
X0056584Y0010963D01*
X0055517Y0009896D01*
X0053382Y0009896D01*
X0052314Y0010963D01*
X0052314Y0015234D01*
X0053382Y0016301D01*
X0055517Y0016301D01*
X0056584Y0015234D01*
X0056584Y0010963D01*
X0058739Y0010963D02*
X0058739Y0009896D01*
X0059807Y0009896D01*
X0059807Y0010963D01*
X0058739Y0010963D01*
X0061982Y0010963D02*
X0063050Y0009896D01*
X0065185Y0009896D01*
X0066253Y0010963D01*
X0061982Y0015234D01*
X0061982Y0010963D01*
X0066253Y0010963D02*
X0066253Y0015234D01*
X0065185Y0016301D01*
X0063050Y0016301D01*
X0061982Y0015234D01*
X0068408Y0010963D02*
X0068408Y0009896D01*
X0069475Y0009896D01*
X0069475Y0010963D01*
X0068408Y0010963D01*
X0071650Y0009896D02*
X0075921Y0009896D01*
X0073786Y0009896D02*
X0073786Y0016301D01*
X0075921Y0014166D01*
X0078096Y0014166D02*
X0080231Y0009896D01*
X0082366Y0014166D01*
X0083250Y0019596D02*
X0084250Y0020596D01*
X0085250Y0019596D01*
X0093250Y0019596D01*
X0094250Y0020596D01*
X0095250Y0019596D01*
X0103250Y0019596D01*
X0104250Y0020596D01*
X0104250Y0028596D01*
X0103250Y0029596D01*
X0095250Y0029596D01*
X0094250Y0028596D01*
X0093250Y0029596D01*
X0085250Y0029596D01*
X0084250Y0028596D01*
X0083250Y0029596D01*
X0075250Y0029596D01*
X0074250Y0028596D01*
X0074250Y0020596D01*
X0075250Y0019596D01*
X0083250Y0019596D01*
X0090980Y0014166D02*
X0092048Y0014166D01*
X0094183Y0012031D01*
X0094183Y0009896D02*
X0094183Y0014166D01*
X0096358Y0013099D02*
X0097426Y0014166D01*
X0099561Y0014166D01*
X0100629Y0013099D01*
X0100629Y0010963D01*
X0099561Y0009896D01*
X0097426Y0009896D01*
X0096358Y0010963D01*
X0096358Y0013099D01*
X0102790Y0014166D02*
X0104926Y0014166D01*
X0103858Y0015234D02*
X0103858Y0010963D01*
X0102790Y0009896D01*
X0107101Y0009896D02*
X0107101Y0013099D01*
X0108168Y0014166D01*
X0110303Y0014166D01*
X0110303Y0012031D02*
X0107101Y0012031D01*
X0107101Y0009896D02*
X0110303Y0009896D01*
X0111371Y0010963D01*
X0110303Y0012031D01*
X0113546Y0010963D02*
X0113546Y0013099D01*
X0114614Y0014166D01*
X0117817Y0014166D01*
X0117817Y0016301D02*
X0117817Y0009896D01*
X0114614Y0009896D01*
X0113546Y0010963D01*
X0119992Y0009896D02*
X0119992Y0014166D01*
X0124262Y0014166D02*
X0124262Y0010963D01*
X0123194Y0009896D01*
X0119992Y0009896D01*
X0126437Y0009896D02*
X0129640Y0009896D01*
X0130708Y0010963D01*
X0130708Y0013099D01*
X0129640Y0014166D01*
X0126437Y0014166D01*
X0132883Y0013099D02*
X0132883Y0009896D01*
X0132883Y0013099D02*
X0133950Y0014166D01*
X0137153Y0014166D01*
X0137153Y0009896D01*
X0139315Y0009896D02*
X0141450Y0009896D01*
X0140382Y0009896D02*
X0140382Y0016301D01*
X0139315Y0016301D02*
X0141450Y0016301D01*
X0040550Y0139596D02*
X0035250Y0139596D01*
X0029250Y0139596D01*
X0024250Y0139596D01*
X0018250Y0139596D01*
X0013050Y0139596D01*
X0013050Y0143096D01*
X0013050Y0149596D01*
X0013050Y0179596D01*
X0013050Y0186096D01*
X0013050Y0189496D01*
X0018250Y0189496D01*
X0024250Y0189496D01*
X0029250Y0189496D01*
X0035250Y0189496D01*
X0040550Y0189496D01*
X0040550Y0186096D01*
X0040550Y0179596D01*
X0040550Y0149596D01*
X0040550Y0143096D01*
X0040550Y0139596D01*
X0040550Y0143096D02*
X0035250Y0143096D01*
X0035250Y0139596D01*
X0029250Y0139596D02*
X0029250Y0143096D01*
X0024250Y0143096D01*
X0024250Y0139596D01*
X0023153Y0145396D02*
X0024955Y0147197D01*
X0019550Y0147197D01*
X0019550Y0145396D02*
X0019550Y0148999D01*
X0017550Y0152896D02*
X0014250Y0154596D01*
X0015250Y0154596D01*
X0014250Y0154596D02*
X0017550Y0156296D01*
X0017550Y0152896D01*
X0013050Y0149596D02*
X0010350Y0149596D01*
X0010350Y0179596D01*
X0013050Y0179596D01*
X0013050Y0186096D02*
X0018250Y0186096D01*
X0018250Y0189496D01*
X0024250Y0189496D02*
X0024250Y0186096D01*
X0029250Y0186096D01*
X0029250Y0189496D01*
X0035250Y0189496D02*
X0035250Y0186096D01*
X0040550Y0186096D01*
X0040550Y0179596D02*
X0064250Y0179596D01*
X0059250Y0164596D01*
X0064250Y0149596D01*
X0040550Y0149596D01*
X0018250Y0143096D02*
X0018250Y0139596D01*
X0018250Y0143096D02*
X0013050Y0143096D01*
X0009132Y0199104D02*
X0036652Y0199104D01*
X0036652Y0225088D01*
X0009132Y0225088D01*
X0009132Y0199104D01*
X0134682Y0174568D02*
X0141087Y0174568D01*
X0137885Y0171365D01*
X0137885Y0175636D01*
X0135750Y0169190D02*
X0141087Y0169190D01*
X0141087Y0164920D02*
X0135750Y0164920D01*
X0134682Y0165987D01*
X0134682Y0168123D01*
X0135750Y0169190D01*
X0134682Y0162745D02*
X0134682Y0158474D01*
X0138952Y0162745D01*
X0140020Y0162745D01*
X0141087Y0161677D01*
X0141087Y0159542D01*
X0140020Y0158474D01*
X0140020Y0156299D02*
X0138952Y0156299D01*
X0137885Y0155232D01*
X0136817Y0156299D01*
X0135750Y0156299D01*
X0134682Y0155232D01*
X0134682Y0153096D01*
X0135750Y0152029D01*
X0137885Y0154164D02*
X0137885Y0155232D01*
X0140020Y0156299D02*
X0141087Y0155232D01*
X0141087Y0153096D01*
X0140020Y0152029D01*
D11*
X0155304Y0133306D02*
X0155304Y0130236D01*
X0150700Y0130236D01*
X0150700Y0128702D02*
X0153002Y0128702D01*
X0153769Y0127935D01*
X0153769Y0125633D01*
X0150700Y0125633D01*
X0151467Y0124098D02*
X0150700Y0123331D01*
X0150700Y0121796D01*
X0151467Y0121029D01*
X0154537Y0124098D01*
X0151467Y0124098D01*
X0151467Y0121029D02*
X0154537Y0121029D01*
X0155304Y0121796D01*
X0155304Y0123331D01*
X0154537Y0124098D01*
X0154537Y0119494D02*
X0151467Y0119494D01*
X0150700Y0118727D01*
X0150700Y0117192D01*
X0151467Y0116425D01*
X0154537Y0119494D01*
X0155304Y0118727D01*
X0155304Y0117192D01*
X0154537Y0116425D01*
X0151467Y0116425D01*
X0150700Y0114890D02*
X0150700Y0111821D01*
X0150700Y0113355D02*
X0155304Y0113355D01*
X0153769Y0111821D01*
X0155585Y0111900D02*
X0158654Y0111900D01*
X0158654Y0107296D01*
X0160189Y0107296D02*
X0160189Y0110365D01*
X0158654Y0109598D02*
X0157119Y0109598D01*
X0160189Y0107296D02*
X0162491Y0107296D01*
X0163258Y0108063D01*
X0163258Y0110365D01*
X0164793Y0107296D02*
X0167862Y0107296D01*
X0166327Y0107296D02*
X0166327Y0111900D01*
X0167862Y0110365D01*
X0158710Y0097575D02*
X0158710Y0092971D01*
X0160244Y0092971D02*
X0157175Y0092971D01*
X0155641Y0093738D02*
X0155641Y0096807D01*
X0154873Y0097575D01*
X0153339Y0097575D01*
X0152571Y0096807D01*
X0155641Y0093738D01*
X0154873Y0092971D01*
X0153339Y0092971D01*
X0152571Y0093738D01*
X0152571Y0096807D01*
X0151037Y0097575D02*
X0151037Y0092971D01*
X0151037Y0094505D02*
X0148735Y0096040D01*
X0147829Y0097805D02*
X0143225Y0097805D01*
X0143225Y0096271D02*
X0143225Y0099340D01*
X0143992Y0100875D02*
X0147062Y0103944D01*
X0143992Y0103944D01*
X0143225Y0103177D01*
X0143225Y0101642D01*
X0143992Y0100875D01*
X0147062Y0100875D01*
X0147829Y0101642D01*
X0147829Y0103177D01*
X0147062Y0103944D01*
X0147829Y0105479D02*
X0143225Y0105479D01*
X0144760Y0105479D02*
X0146294Y0107781D01*
X0144760Y0105479D02*
X0143225Y0107781D01*
X0137829Y0105479D02*
X0133225Y0105479D01*
X0134760Y0105479D02*
X0136294Y0107781D01*
X0134760Y0105479D02*
X0133225Y0107781D01*
X0133992Y0103944D02*
X0133225Y0103177D01*
X0133225Y0101642D01*
X0133992Y0100875D01*
X0137062Y0103944D01*
X0133992Y0103944D01*
X0137062Y0103944D02*
X0137829Y0103177D01*
X0137829Y0101642D01*
X0137062Y0100875D01*
X0133992Y0100875D01*
X0133225Y0099340D02*
X0133225Y0096271D01*
X0133225Y0097805D02*
X0137829Y0097805D01*
X0136294Y0096271D01*
X0146294Y0096271D02*
X0147829Y0097805D01*
X0151037Y0094505D02*
X0148735Y0092971D01*
X0158710Y0097575D02*
X0160244Y0096040D01*
X0169450Y0093806D02*
X0170985Y0091504D01*
X0172519Y0093806D01*
X0174054Y0091504D02*
X0169450Y0091504D01*
X0170217Y0089969D02*
X0169450Y0089202D01*
X0169450Y0087667D01*
X0170217Y0086900D01*
X0173287Y0089969D01*
X0170217Y0089969D01*
X0173287Y0089969D02*
X0174054Y0089202D01*
X0174054Y0087667D01*
X0173287Y0086900D01*
X0170217Y0086900D01*
X0169450Y0085365D02*
X0169450Y0082296D01*
X0169450Y0083830D02*
X0174054Y0083830D01*
X0172519Y0082296D01*
X0193085Y0082865D02*
X0195387Y0081330D01*
X0193085Y0079796D01*
X0195387Y0079796D02*
X0195387Y0084400D01*
X0196921Y0084400D02*
X0196921Y0083632D01*
X0199991Y0080563D01*
X0199991Y0079796D01*
X0201525Y0079796D02*
X0202293Y0079796D01*
X0202293Y0080563D01*
X0201525Y0080563D01*
X0201525Y0079796D01*
X0204594Y0079796D02*
X0204594Y0084400D01*
X0206896Y0082098D01*
X0203827Y0082098D01*
X0199991Y0084400D02*
X0196921Y0084400D01*
X0213900Y0096271D02*
X0213900Y0099340D01*
X0213900Y0097805D02*
X0218504Y0097805D01*
X0216969Y0096271D01*
X0217737Y0100875D02*
X0214667Y0100875D01*
X0217737Y0103944D01*
X0214667Y0103944D01*
X0213900Y0103177D01*
X0213900Y0101642D01*
X0214667Y0100875D01*
X0217737Y0100875D02*
X0218504Y0101642D01*
X0218504Y0103177D01*
X0217737Y0103944D01*
X0218504Y0105479D02*
X0213900Y0105479D01*
X0215435Y0105479D02*
X0216969Y0107781D01*
X0215435Y0105479D02*
X0213900Y0107781D01*
X0222550Y0107781D02*
X0224085Y0105479D01*
X0225619Y0107781D01*
X0227154Y0105479D02*
X0222550Y0105479D01*
X0223317Y0103944D02*
X0222550Y0103177D01*
X0222550Y0101642D01*
X0223317Y0100875D01*
X0226387Y0103944D01*
X0223317Y0103944D01*
X0226387Y0103944D02*
X0227154Y0103177D01*
X0227154Y0101642D01*
X0226387Y0100875D01*
X0223317Y0100875D01*
X0222550Y0099340D02*
X0222550Y0096271D01*
X0222550Y0097805D02*
X0227154Y0097805D01*
X0225619Y0096271D01*
X0232900Y0095971D02*
X0232900Y0099040D01*
X0232900Y0097505D02*
X0237504Y0097505D01*
X0235969Y0095971D01*
X0236737Y0100575D02*
X0237504Y0101342D01*
X0237504Y0102877D01*
X0236737Y0103644D01*
X0233667Y0100575D01*
X0232900Y0101342D01*
X0232900Y0102877D01*
X0233667Y0103644D01*
X0236737Y0103644D01*
X0237504Y0105179D02*
X0232900Y0105179D01*
X0234435Y0105179D02*
X0232900Y0107481D01*
X0234435Y0105179D02*
X0235969Y0107481D01*
X0236737Y0100575D02*
X0233667Y0100575D01*
X0249300Y0094281D02*
X0250835Y0091979D01*
X0252369Y0094281D01*
X0253904Y0091979D02*
X0249300Y0091979D01*
X0250067Y0090444D02*
X0249300Y0089677D01*
X0249300Y0088142D01*
X0250067Y0087375D01*
X0253137Y0090444D01*
X0250067Y0090444D01*
X0250067Y0087375D02*
X0253137Y0087375D01*
X0253904Y0088142D01*
X0253904Y0089677D01*
X0253137Y0090444D01*
X0249300Y0085840D02*
X0249300Y0082771D01*
X0249300Y0084305D02*
X0253904Y0084305D01*
X0252369Y0082771D01*
X0259948Y0038250D02*
X0263017Y0038250D01*
X0263017Y0033646D01*
X0264552Y0033646D02*
X0264552Y0036715D01*
X0263017Y0035948D02*
X0261483Y0035948D01*
X0264552Y0033646D02*
X0266854Y0033646D01*
X0267621Y0034413D01*
X0267621Y0036715D01*
X0270690Y0038250D02*
X0270690Y0033646D01*
X0269156Y0033646D02*
X0272225Y0033646D01*
X0272225Y0036715D02*
X0270690Y0038250D01*
X0225362Y0007471D02*
X0225362Y0003634D01*
X0224594Y0002867D01*
X0223060Y0002867D01*
X0222293Y0003634D01*
X0222293Y0007471D01*
X0220758Y0006703D02*
X0219991Y0007471D01*
X0218456Y0007471D01*
X0217689Y0006703D01*
X0218456Y0005169D02*
X0219991Y0005169D01*
X0220758Y0005936D01*
X0220758Y0006703D01*
X0219223Y0008238D02*
X0219223Y0002099D01*
X0218456Y0002867D02*
X0217689Y0003634D01*
X0217689Y0004401D01*
X0218456Y0005169D01*
X0216154Y0005169D02*
X0213852Y0007471D01*
X0213852Y0002867D01*
X0213085Y0005169D02*
X0216154Y0005169D01*
X0218456Y0002867D02*
X0219991Y0002867D01*
X0220758Y0003634D01*
X0137862Y0003634D02*
X0137094Y0002867D01*
X0135560Y0002867D01*
X0134793Y0003634D01*
X0134793Y0007471D01*
X0133258Y0006703D02*
X0132491Y0007471D01*
X0130956Y0007471D01*
X0130189Y0006703D01*
X0128654Y0006703D02*
X0127887Y0007471D01*
X0126352Y0007471D01*
X0125585Y0006703D01*
X0125585Y0005936D01*
X0126352Y0005169D01*
X0125585Y0004401D01*
X0125585Y0003634D01*
X0126352Y0002867D01*
X0127887Y0002867D01*
X0128654Y0003634D01*
X0130189Y0003634D02*
X0130189Y0004401D01*
X0130956Y0005169D01*
X0132491Y0005169D01*
X0133258Y0005936D01*
X0133258Y0006703D01*
X0131723Y0008238D02*
X0131723Y0002099D01*
X0130956Y0002867D02*
X0130189Y0003634D01*
X0130956Y0002867D02*
X0132491Y0002867D01*
X0133258Y0003634D01*
X0137862Y0003634D02*
X0137862Y0007471D01*
X0127119Y0005169D02*
X0126352Y0005169D01*
X0089248Y0029796D02*
X0089248Y0034400D01*
X0091550Y0032098D01*
X0088481Y0032098D01*
X0086946Y0030563D02*
X0086179Y0030563D01*
X0086179Y0029796D01*
X0086946Y0029796D01*
X0086946Y0030563D01*
X0084644Y0030563D02*
X0084644Y0029796D01*
X0084644Y0030563D02*
X0081575Y0033632D01*
X0081575Y0034400D01*
X0084644Y0034400D01*
X0080040Y0034400D02*
X0080040Y0029796D01*
X0080040Y0031330D02*
X0077738Y0029796D01*
X0080040Y0031330D02*
X0077738Y0032865D01*
X0054050Y0032098D02*
X0050981Y0032098D01*
X0049446Y0030563D02*
X0048679Y0030563D01*
X0048679Y0029796D01*
X0049446Y0029796D01*
X0049446Y0030563D01*
X0047144Y0030563D02*
X0047144Y0029796D01*
X0047144Y0030563D02*
X0044075Y0033632D01*
X0044075Y0034400D01*
X0047144Y0034400D01*
X0042540Y0034400D02*
X0042540Y0029796D01*
X0042540Y0031330D02*
X0040238Y0032865D01*
X0042540Y0031330D02*
X0040238Y0029796D01*
X0051748Y0029796D02*
X0051748Y0034400D01*
X0054050Y0032098D01*
X0034254Y0051776D02*
X0029650Y0051776D01*
X0029650Y0054078D01*
X0030417Y0054845D01*
X0031185Y0054845D01*
X0031952Y0054078D01*
X0031952Y0051776D01*
X0034254Y0051776D02*
X0034254Y0054078D01*
X0033487Y0054845D01*
X0032719Y0054845D01*
X0031952Y0054078D01*
X0032719Y0056380D02*
X0031952Y0057147D01*
X0031952Y0058682D01*
X0031185Y0059449D01*
X0030417Y0059449D01*
X0029650Y0058682D01*
X0029650Y0057147D01*
X0030417Y0056380D01*
X0032719Y0056380D02*
X0033487Y0056380D01*
X0034254Y0057147D01*
X0034254Y0058682D01*
X0033487Y0059449D01*
X0034254Y0060984D02*
X0034254Y0063286D01*
X0033487Y0064053D01*
X0031952Y0064053D01*
X0031185Y0063286D01*
X0031185Y0060984D01*
X0029650Y0060984D02*
X0034254Y0060984D01*
X0034254Y0065588D02*
X0034254Y0068657D01*
X0033487Y0068657D01*
X0030417Y0065588D01*
X0029650Y0065588D01*
X0030417Y0070192D02*
X0029650Y0070959D01*
X0029650Y0072494D01*
X0030417Y0073261D01*
X0031952Y0073261D01*
X0032719Y0072494D01*
X0032719Y0071726D01*
X0031952Y0070192D01*
X0034254Y0070192D01*
X0034254Y0073261D01*
X0084650Y0072494D02*
X0084650Y0070959D01*
X0085417Y0070192D01*
X0086952Y0070192D02*
X0087719Y0071726D01*
X0087719Y0072494D01*
X0086952Y0073261D01*
X0085417Y0073261D01*
X0084650Y0072494D01*
X0086952Y0070192D02*
X0089254Y0070192D01*
X0089254Y0073261D01*
X0089254Y0068657D02*
X0088487Y0068657D01*
X0085417Y0065588D01*
X0084650Y0065588D01*
X0086952Y0064053D02*
X0086185Y0063286D01*
X0086185Y0060984D01*
X0086185Y0059449D02*
X0085417Y0059449D01*
X0084650Y0058682D01*
X0084650Y0057147D01*
X0085417Y0056380D01*
X0085417Y0054845D02*
X0084650Y0054078D01*
X0084650Y0051776D01*
X0089254Y0051776D01*
X0089254Y0054078D01*
X0088487Y0054845D01*
X0087719Y0054845D01*
X0086952Y0054078D01*
X0086952Y0051776D01*
X0086952Y0054078D02*
X0086185Y0054845D01*
X0085417Y0054845D01*
X0087719Y0056380D02*
X0086952Y0057147D01*
X0086952Y0058682D01*
X0086185Y0059449D01*
X0084650Y0060984D02*
X0089254Y0060984D01*
X0089254Y0063286D01*
X0088487Y0064053D01*
X0086952Y0064053D01*
X0089254Y0065588D02*
X0089254Y0068657D01*
X0088487Y0059449D02*
X0089254Y0058682D01*
X0089254Y0057147D01*
X0088487Y0056380D01*
X0087719Y0056380D01*
X0153002Y0130236D02*
X0153002Y0131771D01*
X0107469Y0158827D02*
X0107469Y0160361D01*
X0106701Y0161129D01*
X0105934Y0161129D01*
X0105167Y0160361D01*
X0105167Y0158827D01*
X0105934Y0158060D01*
X0106701Y0158060D01*
X0107469Y0158827D01*
X0105167Y0158827D02*
X0104399Y0158060D01*
X0103632Y0158060D01*
X0102865Y0158827D01*
X0102865Y0160361D01*
X0103632Y0161129D01*
X0104399Y0161129D01*
X0105167Y0160361D01*
X0107469Y0162663D02*
X0105934Y0164198D01*
X0107469Y0165733D01*
X0102865Y0165733D01*
X0102865Y0167267D02*
X0107469Y0167267D01*
X0105167Y0167267D02*
X0105167Y0170337D01*
X0105934Y0171871D02*
X0105934Y0174941D01*
X0102865Y0171871D01*
X0102865Y0174941D01*
X0102865Y0170337D02*
X0107469Y0170337D01*
X0107469Y0162663D02*
X0102865Y0162663D01*
X0086809Y0161992D02*
X0082205Y0161992D01*
X0082205Y0160458D02*
X0082205Y0163527D01*
X0082205Y0165062D02*
X0086809Y0165062D01*
X0085275Y0166596D01*
X0086809Y0168131D01*
X0082205Y0168131D01*
X0076686Y0168285D02*
X0076686Y0166751D01*
X0075919Y0165984D01*
X0077277Y0164539D02*
X0077277Y0161470D01*
X0072673Y0161470D01*
X0073441Y0159935D02*
X0072673Y0159168D01*
X0072673Y0156866D01*
X0071139Y0156866D02*
X0075743Y0156866D01*
X0075743Y0159168D01*
X0074975Y0159935D01*
X0073441Y0159935D01*
X0074975Y0161470D02*
X0074975Y0163004D01*
X0072082Y0165984D02*
X0075152Y0169053D01*
X0075919Y0169053D01*
X0076686Y0168285D01*
X0075919Y0170587D02*
X0076686Y0171355D01*
X0076686Y0172889D01*
X0075919Y0173657D01*
X0075152Y0173657D01*
X0072082Y0170587D01*
X0072082Y0173657D01*
X0072082Y0175191D02*
X0072082Y0177493D01*
X0072850Y0178261D01*
X0074384Y0178261D01*
X0075152Y0177493D01*
X0075152Y0175191D01*
X0070548Y0175191D01*
X0072082Y0179795D02*
X0076686Y0179795D01*
X0076686Y0182865D01*
X0074384Y0181330D02*
X0074384Y0179795D01*
X0072082Y0169053D02*
X0072082Y0165984D01*
X0072673Y0155331D02*
X0072673Y0152262D01*
X0075743Y0155331D01*
X0076510Y0155331D01*
X0077277Y0154564D01*
X0077277Y0153029D01*
X0076510Y0152262D01*
X0076510Y0150727D02*
X0077277Y0149960D01*
X0077277Y0148425D01*
X0076510Y0147658D01*
X0076510Y0150727D02*
X0075743Y0150727D01*
X0072673Y0147658D01*
X0072673Y0150727D01*
X0085275Y0160458D02*
X0086809Y0161992D01*
X0089450Y0143806D02*
X0090985Y0141504D01*
X0092519Y0143806D01*
X0094054Y0141504D02*
X0089450Y0141504D01*
X0090217Y0139969D02*
X0089450Y0139202D01*
X0089450Y0137667D01*
X0090217Y0136900D01*
X0093287Y0139969D01*
X0090217Y0139969D01*
X0090217Y0136900D02*
X0093287Y0136900D01*
X0094054Y0137667D01*
X0094054Y0139202D01*
X0093287Y0139969D01*
X0089450Y0135365D02*
X0089450Y0132296D01*
X0089450Y0133830D02*
X0094054Y0133830D01*
X0092519Y0132296D01*
X0009054Y0150563D02*
X0008287Y0149796D01*
X0007519Y0149796D01*
X0006752Y0150563D01*
X0006752Y0152098D01*
X0005985Y0152865D01*
X0005217Y0152865D01*
X0004450Y0152098D01*
X0004450Y0150563D01*
X0005217Y0149796D01*
X0009054Y0150563D02*
X0009054Y0152098D01*
X0008287Y0152865D01*
X0009054Y0154400D02*
X0004450Y0154400D01*
X0005985Y0154400D02*
X0005985Y0156702D01*
X0006752Y0157469D01*
X0008287Y0157469D01*
X0009054Y0156702D01*
X0009054Y0154400D01*
X0009054Y0159004D02*
X0009054Y0160538D01*
X0009054Y0159771D02*
X0004450Y0159771D01*
X0004450Y0159004D02*
X0004450Y0160538D01*
X0172540Y0182296D02*
X0174842Y0183830D01*
X0172540Y0185365D01*
X0174842Y0186900D02*
X0174842Y0182296D01*
X0176377Y0183063D02*
X0177144Y0182296D01*
X0178679Y0182296D01*
X0179446Y0183063D01*
X0176377Y0186132D01*
X0176377Y0183063D01*
X0179446Y0183063D02*
X0179446Y0186132D01*
X0178679Y0186900D01*
X0177144Y0186900D01*
X0176377Y0186132D01*
X0180981Y0182296D02*
X0184050Y0182296D01*
X0182515Y0182296D02*
X0182515Y0186900D01*
X0184050Y0185365D01*
X0210585Y0176900D02*
X0213654Y0173830D01*
X0212887Y0174598D02*
X0210585Y0172296D01*
X0213654Y0172296D02*
X0213654Y0176900D01*
X0216723Y0176900D02*
X0216723Y0172296D01*
X0215189Y0172296D02*
X0218258Y0172296D01*
X0218258Y0175365D02*
X0216723Y0176900D01*
X0227119Y0184598D02*
X0228654Y0184598D01*
X0230189Y0184598D02*
X0230189Y0182296D01*
X0228654Y0182296D02*
X0228654Y0186900D01*
X0225585Y0186900D01*
X0230189Y0184598D02*
X0230956Y0185365D01*
X0233258Y0185365D01*
X0233258Y0182296D01*
X0234793Y0183063D02*
X0235560Y0182296D01*
X0237095Y0182296D01*
X0237862Y0183063D01*
X0234793Y0186132D01*
X0234793Y0183063D01*
X0237862Y0183063D02*
X0237862Y0186132D01*
X0237095Y0186900D01*
X0235560Y0186900D01*
X0234793Y0186132D01*
X0239396Y0186132D02*
X0239396Y0183063D01*
X0240164Y0182296D01*
X0241698Y0182296D01*
X0242466Y0183063D01*
X0239396Y0186132D01*
X0240164Y0186900D01*
X0241698Y0186900D01*
X0242466Y0186132D01*
X0242466Y0183063D01*
X0244000Y0182296D02*
X0247070Y0182296D01*
X0245535Y0182296D02*
X0245535Y0186900D01*
X0247070Y0185365D01*
X0246327Y0192296D02*
X0246327Y0196900D01*
X0247862Y0195365D01*
X0247862Y0192296D02*
X0244793Y0192296D01*
X0243258Y0193063D02*
X0240189Y0196132D01*
X0240189Y0193063D01*
X0240956Y0192296D01*
X0242491Y0192296D01*
X0243258Y0193063D01*
X0243258Y0196132D01*
X0242491Y0196900D01*
X0240956Y0196900D01*
X0240189Y0196132D01*
X0238654Y0195365D02*
X0238654Y0193063D01*
X0237887Y0192296D01*
X0235585Y0192296D01*
X0235585Y0195365D01*
X0253163Y0203263D02*
X0253630Y0202796D01*
X0254564Y0202796D01*
X0255031Y0203263D01*
X0254097Y0204197D02*
X0253630Y0204197D01*
X0253163Y0203730D01*
X0253163Y0203263D01*
X0253630Y0204197D02*
X0253163Y0204664D01*
X0253163Y0205131D01*
X0253630Y0205598D01*
X0254564Y0205598D01*
X0255031Y0205131D01*
X0262263Y0205094D02*
X0262263Y0204627D01*
X0264131Y0202759D01*
X0262263Y0202759D01*
X0262263Y0205094D02*
X0262730Y0205561D01*
X0263664Y0205561D01*
X0264131Y0205094D01*
X0270775Y0202796D02*
X0272643Y0202796D01*
X0271709Y0202796D02*
X0271709Y0205598D01*
X0272643Y0204664D01*
X0272144Y0189400D02*
X0271377Y0188632D01*
X0274446Y0185563D01*
X0273679Y0184796D01*
X0272144Y0184796D01*
X0271377Y0185563D01*
X0271377Y0188632D01*
X0272144Y0189400D02*
X0273679Y0189400D01*
X0274446Y0188632D01*
X0274446Y0185563D01*
X0275981Y0184796D02*
X0279050Y0184796D01*
X0277515Y0184796D02*
X0277515Y0189400D01*
X0279050Y0187865D01*
X0269842Y0187865D02*
X0269842Y0185563D01*
X0269075Y0184796D01*
X0266773Y0184796D01*
X0266773Y0187865D01*
X0268287Y0174573D02*
X0265217Y0174573D01*
X0264450Y0173806D01*
X0264450Y0171504D01*
X0269054Y0171504D01*
X0269054Y0173806D01*
X0268287Y0174573D01*
X0269054Y0169969D02*
X0269054Y0166900D01*
X0264450Y0166900D01*
X0264450Y0169969D01*
X0266752Y0168434D02*
X0266752Y0166900D01*
X0266752Y0165365D02*
X0265985Y0164598D01*
X0265985Y0162296D01*
X0265985Y0163830D02*
X0264450Y0165365D01*
X0266752Y0165365D02*
X0268287Y0165365D01*
X0269054Y0164598D01*
X0269054Y0162296D01*
X0264450Y0162296D01*
X0243661Y0166308D02*
X0242127Y0164774D01*
X0243661Y0166308D02*
X0239057Y0166308D01*
X0239057Y0164774D02*
X0239057Y0167843D01*
X0239057Y0169378D02*
X0243661Y0169378D01*
X0242127Y0171680D02*
X0240592Y0169378D01*
X0239057Y0171680D01*
X0218258Y0166515D02*
X0216723Y0168050D01*
X0216723Y0163446D01*
X0215189Y0163446D02*
X0218258Y0163446D01*
X0213654Y0163446D02*
X0213654Y0168050D01*
X0212887Y0165748D02*
X0210585Y0163446D01*
X0213654Y0164980D02*
X0210585Y0168050D01*
X0219072Y0214616D02*
X0222141Y0217685D01*
X0222909Y0217685D01*
X0223676Y0216918D01*
X0223676Y0215383D01*
X0222909Y0214616D01*
X0219072Y0214616D02*
X0219072Y0217685D01*
X0219072Y0219220D02*
X0222141Y0222289D01*
X0222909Y0222289D01*
X0223676Y0221522D01*
X0223676Y0219987D01*
X0222909Y0219220D01*
X0219072Y0219220D02*
X0219072Y0222289D01*
X0219839Y0223824D02*
X0222909Y0226893D01*
X0219839Y0226893D01*
X0219072Y0226126D01*
X0219072Y0224591D01*
X0219839Y0223824D01*
X0222909Y0223824D01*
X0223676Y0224591D01*
X0223676Y0226126D01*
X0222909Y0226893D01*
X0237045Y0232863D02*
X0237813Y0232096D01*
X0239347Y0232096D01*
X0240115Y0232863D01*
X0237045Y0235932D01*
X0237045Y0232863D01*
X0237045Y0235932D02*
X0237813Y0236700D01*
X0239347Y0236700D01*
X0240115Y0235932D01*
X0240115Y0232863D01*
X0241649Y0232863D02*
X0242417Y0232096D01*
X0243951Y0232096D01*
X0244719Y0232863D01*
X0244719Y0234398D02*
X0243184Y0235165D01*
X0242417Y0235165D01*
X0241649Y0234398D01*
X0241649Y0232863D01*
X0244719Y0234398D02*
X0244719Y0236700D01*
X0241649Y0236700D01*
X0246253Y0234398D02*
X0249323Y0234398D01*
X0250857Y0235165D02*
X0250857Y0235932D01*
X0251624Y0236700D01*
X0253159Y0236700D01*
X0253926Y0235932D01*
X0255461Y0235932D02*
X0258530Y0232863D01*
X0257763Y0232096D01*
X0256228Y0232096D01*
X0255461Y0232863D01*
X0255461Y0235932D01*
X0256228Y0236700D01*
X0257763Y0236700D01*
X0258530Y0235932D01*
X0258530Y0232863D01*
X0260065Y0235932D02*
X0263134Y0232863D01*
X0263134Y0232096D01*
X0264669Y0232096D02*
X0267738Y0232096D01*
X0266204Y0232096D02*
X0266204Y0236700D01*
X0267738Y0235165D01*
X0269273Y0234398D02*
X0270040Y0233630D01*
X0272342Y0233630D01*
X0272342Y0232096D02*
X0272342Y0236700D01*
X0270040Y0236700D01*
X0269273Y0235932D01*
X0269273Y0234398D01*
X0263134Y0236700D02*
X0260065Y0236700D01*
X0260065Y0235932D01*
X0253926Y0232863D02*
X0253159Y0232096D01*
X0251624Y0232096D01*
X0250857Y0232863D01*
X0250857Y0233630D01*
X0251624Y0234398D01*
X0252392Y0234398D01*
X0251624Y0234398D02*
X0250857Y0235165D01*
X0250149Y0232598D02*
X0251550Y0231197D01*
X0249682Y0231197D01*
X0250149Y0229796D02*
X0250149Y0232598D01*
X0273877Y0232863D02*
X0274644Y0232096D01*
X0276179Y0232096D01*
X0276946Y0232863D01*
X0276946Y0235932D01*
X0276179Y0236700D01*
X0274644Y0236700D01*
X0273877Y0235932D01*
X0278481Y0236700D02*
X0280015Y0235165D01*
X0281550Y0236700D01*
X0281550Y0232096D01*
X0278481Y0232096D02*
X0278481Y0236700D01*
X0331208Y0154911D02*
X0332743Y0154911D01*
X0333510Y0154144D01*
X0335045Y0154144D02*
X0335812Y0154911D01*
X0337346Y0154911D01*
X0338114Y0154144D01*
X0335045Y0154144D02*
X0335045Y0153376D01*
X0338114Y0150307D01*
X0335045Y0150307D01*
X0333510Y0150307D02*
X0330441Y0153376D01*
X0330441Y0154144D01*
X0331208Y0154911D01*
X0330441Y0150307D02*
X0333510Y0150307D01*
X0332654Y0129080D02*
X0333421Y0128312D01*
X0332654Y0129080D02*
X0331119Y0129080D01*
X0330352Y0128312D01*
X0330352Y0127545D01*
X0333421Y0124476D01*
X0330352Y0124476D01*
X0334956Y0124476D02*
X0338025Y0124476D01*
X0334956Y0127545D01*
X0334956Y0128312D01*
X0335723Y0129080D01*
X0337258Y0129080D01*
X0338025Y0128312D01*
X0360557Y0126625D02*
X0360557Y0122742D01*
X0360761Y0122742D02*
X0362192Y0122742D01*
X0360761Y0126625D02*
X0368119Y0126625D01*
X0370163Y0127443D02*
X0370163Y0141749D01*
X0370163Y0141750D02*
X0370165Y0141805D01*
X0370171Y0141861D01*
X0370180Y0141916D01*
X0370193Y0141970D01*
X0370210Y0142023D01*
X0370231Y0142075D01*
X0370255Y0142126D01*
X0370282Y0142174D01*
X0370312Y0142221D01*
X0370346Y0142266D01*
X0370383Y0142308D01*
X0370422Y0142347D01*
X0370464Y0142384D01*
X0370509Y0142418D01*
X0370556Y0142448D01*
X0370604Y0142475D01*
X0370655Y0142499D01*
X0370707Y0142520D01*
X0370760Y0142537D01*
X0370814Y0142550D01*
X0370869Y0142559D01*
X0370925Y0142565D01*
X0370980Y0142567D01*
X0370981Y0142567D01*
X0370980Y0142567D02*
X0371042Y0142565D01*
X0371104Y0142560D01*
X0371165Y0142550D01*
X0371225Y0142537D01*
X0371284Y0142521D01*
X0371343Y0142501D01*
X0371400Y0142477D01*
X0371455Y0142450D01*
X0371509Y0142420D01*
X0371561Y0142386D01*
X0371610Y0142349D01*
X0371658Y0142310D01*
X0371703Y0142268D01*
X0371745Y0142223D01*
X0371784Y0142175D01*
X0371821Y0142126D01*
X0371855Y0142074D01*
X0371885Y0142020D01*
X0371912Y0141965D01*
X0371936Y0141908D01*
X0371956Y0141849D01*
X0371972Y0141790D01*
X0371985Y0141730D01*
X0371995Y0141669D01*
X0372000Y0141607D01*
X0372002Y0141545D01*
X0372002Y0127647D01*
X0372003Y0127648D02*
X0372001Y0127586D01*
X0371995Y0127525D01*
X0371986Y0127464D01*
X0371973Y0127403D01*
X0371956Y0127344D01*
X0371936Y0127286D01*
X0371913Y0127229D01*
X0371886Y0127173D01*
X0371855Y0127119D01*
X0371822Y0127068D01*
X0371785Y0127018D01*
X0371746Y0126971D01*
X0371703Y0126926D01*
X0371658Y0126883D01*
X0371611Y0126844D01*
X0371561Y0126807D01*
X0371510Y0126774D01*
X0371456Y0126743D01*
X0371400Y0126716D01*
X0371343Y0126693D01*
X0371285Y0126673D01*
X0371226Y0126656D01*
X0371165Y0126643D01*
X0371104Y0126634D01*
X0371043Y0126628D01*
X0370981Y0126626D01*
X0370980Y0126626D02*
X0370925Y0126628D01*
X0370869Y0126634D01*
X0370814Y0126643D01*
X0370760Y0126656D01*
X0370707Y0126673D01*
X0370655Y0126694D01*
X0370604Y0126718D01*
X0370556Y0126745D01*
X0370509Y0126775D01*
X0370464Y0126809D01*
X0370422Y0126846D01*
X0370383Y0126885D01*
X0370346Y0126927D01*
X0370312Y0126972D01*
X0370282Y0127019D01*
X0370255Y0127067D01*
X0370231Y0127118D01*
X0370210Y0127170D01*
X0370193Y0127223D01*
X0370180Y0127277D01*
X0370171Y0127332D01*
X0370165Y0127388D01*
X0370163Y0127443D01*
X0375477Y0131327D02*
X0375477Y0137866D01*
X0375476Y0137866D02*
X0375481Y0137923D01*
X0375490Y0137980D01*
X0375503Y0138036D01*
X0375519Y0138091D01*
X0375539Y0138145D01*
X0375562Y0138198D01*
X0375589Y0138249D01*
X0375619Y0138298D01*
X0375653Y0138345D01*
X0375689Y0138389D01*
X0375728Y0138431D01*
X0375771Y0138471D01*
X0375815Y0138507D01*
X0375862Y0138540D01*
X0375911Y0138571D01*
X0375962Y0138598D01*
X0376014Y0138621D01*
X0376068Y0138641D01*
X0376123Y0138657D01*
X0376180Y0138670D01*
X0376236Y0138679D01*
X0376294Y0138684D01*
X0392236Y0139501D01*
X0392292Y0139499D01*
X0392347Y0139493D01*
X0392402Y0139484D01*
X0392456Y0139471D01*
X0392510Y0139454D01*
X0392561Y0139433D01*
X0392612Y0139409D01*
X0392661Y0139382D01*
X0392707Y0139351D01*
X0392752Y0139318D01*
X0392794Y0139281D01*
X0392833Y0139242D01*
X0392870Y0139200D01*
X0392903Y0139155D01*
X0392934Y0139109D01*
X0392961Y0139060D01*
X0392985Y0139009D01*
X0393006Y0138958D01*
X0393023Y0138904D01*
X0393036Y0138850D01*
X0393045Y0138795D01*
X0393051Y0138740D01*
X0393053Y0138684D01*
X0393054Y0138684D02*
X0393054Y0138683D01*
X0393053Y0138683D02*
X0393051Y0138627D01*
X0393045Y0138572D01*
X0393036Y0138517D01*
X0393023Y0138463D01*
X0393006Y0138409D01*
X0392985Y0138358D01*
X0392961Y0138307D01*
X0392934Y0138258D01*
X0392903Y0138212D01*
X0392870Y0138167D01*
X0392833Y0138125D01*
X0392794Y0138086D01*
X0392752Y0138049D01*
X0392707Y0138016D01*
X0392661Y0137985D01*
X0392612Y0137958D01*
X0392561Y0137934D01*
X0392510Y0137913D01*
X0392456Y0137896D01*
X0392402Y0137883D01*
X0392347Y0137874D01*
X0392292Y0137868D01*
X0392236Y0137866D01*
X0378747Y0137049D01*
X0378747Y0132144D01*
X0392236Y0131327D01*
X0392236Y0131326D02*
X0392292Y0131324D01*
X0392347Y0131318D01*
X0392402Y0131309D01*
X0392456Y0131296D01*
X0392510Y0131279D01*
X0392561Y0131258D01*
X0392612Y0131234D01*
X0392661Y0131207D01*
X0392707Y0131176D01*
X0392752Y0131143D01*
X0392794Y0131106D01*
X0392833Y0131067D01*
X0392870Y0131025D01*
X0392903Y0130980D01*
X0392934Y0130934D01*
X0392961Y0130885D01*
X0392985Y0130834D01*
X0393006Y0130783D01*
X0393023Y0130729D01*
X0393036Y0130675D01*
X0393045Y0130620D01*
X0393051Y0130565D01*
X0393053Y0130509D01*
X0393051Y0130453D01*
X0393045Y0130398D01*
X0393036Y0130343D01*
X0393023Y0130289D01*
X0393006Y0130235D01*
X0392985Y0130184D01*
X0392961Y0130133D01*
X0392934Y0130084D01*
X0392903Y0130038D01*
X0392870Y0129993D01*
X0392833Y0129951D01*
X0392794Y0129912D01*
X0392752Y0129875D01*
X0392707Y0129842D01*
X0392661Y0129811D01*
X0392612Y0129784D01*
X0392561Y0129760D01*
X0392510Y0129739D01*
X0392456Y0129722D01*
X0392402Y0129709D01*
X0392347Y0129700D01*
X0392292Y0129694D01*
X0392236Y0129692D01*
X0392236Y0129691D02*
X0376294Y0130509D01*
X0376237Y0130514D01*
X0376180Y0130523D01*
X0376124Y0130536D01*
X0376069Y0130552D01*
X0376015Y0130572D01*
X0375963Y0130596D01*
X0375912Y0130622D01*
X0375863Y0130653D01*
X0375816Y0130686D01*
X0375771Y0130722D01*
X0375729Y0130762D01*
X0375690Y0130804D01*
X0375654Y0130848D01*
X0375620Y0130895D01*
X0375590Y0130944D01*
X0375563Y0130995D01*
X0375540Y0131047D01*
X0375520Y0131101D01*
X0375504Y0131157D01*
X0375491Y0131213D01*
X0375482Y0131270D01*
X0375477Y0131327D01*
X0381404Y0128669D02*
X0381404Y0127852D01*
X0390806Y0126830D01*
X0390806Y0124786D01*
X0381404Y0123764D01*
X0381404Y0122947D01*
X0392236Y0123764D01*
X0392302Y0123771D01*
X0392367Y0123782D01*
X0392432Y0123796D01*
X0392495Y0123814D01*
X0392558Y0123836D01*
X0392619Y0123861D01*
X0392679Y0123889D01*
X0392737Y0123921D01*
X0392793Y0123957D01*
X0392847Y0123995D01*
X0392898Y0124036D01*
X0392947Y0124080D01*
X0392994Y0124127D01*
X0393038Y0124177D01*
X0393079Y0124229D01*
X0393117Y0124283D01*
X0393152Y0124339D01*
X0393183Y0124397D01*
X0393211Y0124457D01*
X0393236Y0124519D01*
X0393257Y0124581D01*
X0393257Y0126830D02*
X0393236Y0126892D01*
X0393211Y0126954D01*
X0393183Y0127014D01*
X0393152Y0127072D01*
X0393117Y0127128D01*
X0393079Y0127182D01*
X0393038Y0127234D01*
X0392994Y0127284D01*
X0392947Y0127331D01*
X0392898Y0127375D01*
X0392847Y0127416D01*
X0392793Y0127454D01*
X0392737Y0127490D01*
X0392679Y0127522D01*
X0392619Y0127550D01*
X0392558Y0127575D01*
X0392495Y0127597D01*
X0392432Y0127615D01*
X0392367Y0127629D01*
X0392302Y0127640D01*
X0392236Y0127647D01*
X0381404Y0128669D01*
X0393257Y0126830D02*
X0393291Y0126715D01*
X0393321Y0126598D01*
X0393347Y0126481D01*
X0393369Y0126363D01*
X0393388Y0126245D01*
X0393403Y0126125D01*
X0393414Y0126006D01*
X0393422Y0125886D01*
X0393426Y0125766D01*
X0393426Y0125646D01*
X0393422Y0125526D01*
X0393414Y0125406D01*
X0393403Y0125287D01*
X0393388Y0125167D01*
X0393369Y0125049D01*
X0393347Y0124931D01*
X0393321Y0124814D01*
X0393291Y0124697D01*
X0393257Y0124582D01*
X0391630Y0119472D02*
X0397550Y0119472D01*
X0397550Y0149720D01*
X0391631Y0149720D01*
X0392236Y0145428D02*
X0381404Y0146246D01*
X0381404Y0145428D01*
X0390806Y0144406D01*
X0390806Y0142362D01*
X0381404Y0141341D01*
X0381404Y0140523D01*
X0392236Y0141545D01*
X0392302Y0141552D01*
X0392367Y0141563D01*
X0392432Y0141577D01*
X0392495Y0141595D01*
X0392558Y0141617D01*
X0392619Y0141642D01*
X0392679Y0141670D01*
X0392737Y0141702D01*
X0392793Y0141738D01*
X0392847Y0141776D01*
X0392898Y0141817D01*
X0392947Y0141861D01*
X0392994Y0141908D01*
X0393038Y0141958D01*
X0393079Y0142010D01*
X0393117Y0142064D01*
X0393152Y0142120D01*
X0393183Y0142178D01*
X0393211Y0142238D01*
X0393236Y0142300D01*
X0393257Y0142362D01*
X0393257Y0144611D02*
X0393236Y0144673D01*
X0393211Y0144735D01*
X0393183Y0144795D01*
X0393152Y0144853D01*
X0393117Y0144909D01*
X0393079Y0144963D01*
X0393038Y0145015D01*
X0392994Y0145065D01*
X0392947Y0145112D01*
X0392898Y0145156D01*
X0392847Y0145197D01*
X0392793Y0145235D01*
X0392737Y0145271D01*
X0392679Y0145303D01*
X0392619Y0145331D01*
X0392558Y0145356D01*
X0392495Y0145378D01*
X0392432Y0145396D01*
X0392367Y0145410D01*
X0392302Y0145421D01*
X0392236Y0145428D01*
X0393257Y0144611D02*
X0393291Y0144496D01*
X0393321Y0144379D01*
X0393347Y0144262D01*
X0393369Y0144144D01*
X0393388Y0144026D01*
X0393403Y0143906D01*
X0393414Y0143787D01*
X0393422Y0143667D01*
X0393426Y0143547D01*
X0393426Y0143427D01*
X0393422Y0143307D01*
X0393414Y0143187D01*
X0393403Y0143068D01*
X0393388Y0142948D01*
X0393369Y0142830D01*
X0393347Y0142712D01*
X0393321Y0142595D01*
X0393291Y0142478D01*
X0393257Y0142363D01*
X0380480Y0149720D02*
X0371389Y0149720D01*
X0371389Y0149721D02*
X0371445Y0149723D01*
X0371500Y0149729D01*
X0371555Y0149738D01*
X0371609Y0149751D01*
X0371663Y0149768D01*
X0371714Y0149789D01*
X0371765Y0149813D01*
X0371814Y0149840D01*
X0371860Y0149871D01*
X0371905Y0149904D01*
X0371947Y0149941D01*
X0371986Y0149980D01*
X0372023Y0150022D01*
X0372056Y0150067D01*
X0372087Y0150113D01*
X0372114Y0150162D01*
X0372138Y0150213D01*
X0372159Y0150264D01*
X0372176Y0150318D01*
X0372189Y0150372D01*
X0372198Y0150427D01*
X0372204Y0150482D01*
X0372206Y0150538D01*
X0372207Y0150538D02*
X0372207Y0151151D01*
X0368119Y0142567D02*
X0360761Y0142567D01*
X0360556Y0142567D02*
X0360556Y0146450D01*
X0360761Y0146450D02*
X0362192Y0146450D01*
X0371389Y0119472D02*
X0380481Y0119472D01*
X0372207Y0118655D02*
X0372207Y0118041D01*
X0372206Y0118655D02*
X0372204Y0118711D01*
X0372198Y0118766D01*
X0372189Y0118821D01*
X0372176Y0118875D01*
X0372159Y0118929D01*
X0372138Y0118980D01*
X0372114Y0119031D01*
X0372087Y0119080D01*
X0372056Y0119126D01*
X0372023Y0119171D01*
X0371986Y0119213D01*
X0371947Y0119252D01*
X0371905Y0119289D01*
X0371860Y0119322D01*
X0371814Y0119353D01*
X0371765Y0119380D01*
X0371714Y0119404D01*
X0371663Y0119425D01*
X0371609Y0119442D01*
X0371555Y0119455D01*
X0371500Y0119464D01*
X0371445Y0119470D01*
X0371389Y0119472D01*
X0371600Y0111900D02*
X0371600Y0108063D01*
X0370832Y0107296D01*
X0369298Y0107296D01*
X0368530Y0108063D01*
X0368530Y0111900D01*
X0366996Y0111132D02*
X0366996Y0110365D01*
X0366228Y0109598D01*
X0364694Y0109598D01*
X0363926Y0108830D01*
X0363926Y0108063D01*
X0364694Y0107296D01*
X0366228Y0107296D01*
X0366996Y0108063D01*
X0366996Y0111132D02*
X0366228Y0111900D01*
X0364694Y0111900D01*
X0363926Y0111132D01*
X0362392Y0111900D02*
X0362392Y0107296D01*
X0360090Y0107296D01*
X0359323Y0108063D01*
X0359323Y0108830D01*
X0360090Y0109598D01*
X0362392Y0109598D01*
X0362392Y0111900D02*
X0360090Y0111900D01*
X0359323Y0111132D01*
X0359323Y0110365D01*
X0360090Y0109598D01*
X0373134Y0109598D02*
X0376204Y0109598D01*
X0377738Y0111900D02*
X0379273Y0111900D01*
X0378506Y0111900D02*
X0378506Y0107296D01*
X0379273Y0107296D02*
X0377738Y0107296D01*
X0380808Y0107296D02*
X0380808Y0111900D01*
X0383877Y0111900D02*
X0380808Y0107296D01*
X0383877Y0107296D02*
X0383877Y0111900D01*
X0385411Y0111900D02*
X0386946Y0111900D01*
X0386179Y0111900D02*
X0386179Y0107296D01*
X0386946Y0107296D02*
X0385411Y0107296D01*
X0388481Y0107296D02*
X0388481Y0111900D01*
X0390015Y0110365D01*
X0391550Y0111900D01*
X0391550Y0107296D01*
X0397550Y0119472D02*
X0397550Y0119472D01*
X0353287Y0091726D02*
X0350217Y0091726D01*
X0351752Y0090192D02*
X0351752Y0093261D01*
X0350985Y0088657D02*
X0349450Y0087123D01*
X0350985Y0085588D01*
X0354054Y0085588D01*
X0354054Y0088657D02*
X0350985Y0088657D01*
X0376950Y0082494D02*
X0376950Y0080192D01*
X0381554Y0080192D01*
X0381554Y0082494D01*
X0380787Y0083261D01*
X0377717Y0083261D01*
X0376950Y0082494D01*
X0376950Y0078657D02*
X0381554Y0078657D01*
X0381554Y0075588D02*
X0376950Y0078657D01*
X0376950Y0075588D02*
X0381554Y0075588D01*
X0380787Y0074053D02*
X0381554Y0073286D01*
X0381554Y0071751D01*
X0380787Y0070984D01*
X0377717Y0070984D01*
X0376950Y0071751D01*
X0376950Y0073286D01*
X0377717Y0074053D01*
X0379252Y0074053D01*
X0379252Y0072519D01*
X0360783Y0049400D02*
X0361550Y0048632D01*
X0361550Y0045563D01*
X0360783Y0044796D01*
X0359248Y0044796D01*
X0358481Y0045563D01*
X0358481Y0047098D01*
X0360015Y0047098D01*
X0358481Y0048632D02*
X0359248Y0049400D01*
X0360783Y0049400D01*
X0356946Y0049400D02*
X0353877Y0044796D01*
X0353877Y0049400D01*
X0352342Y0049400D02*
X0350040Y0049400D01*
X0349273Y0048632D01*
X0349273Y0045563D01*
X0350040Y0044796D01*
X0352342Y0044796D01*
X0352342Y0049400D01*
X0356946Y0049400D02*
X0356946Y0044796D01*
D12*
X0201600Y0049746D02*
X0199748Y0049746D01*
X0199131Y0050363D01*
X0199131Y0052832D01*
X0199748Y0053449D01*
X0201600Y0053449D01*
X0201600Y0049746D01*
X0197917Y0050363D02*
X0197300Y0049746D01*
X0196065Y0049746D01*
X0195448Y0050363D01*
X0195448Y0050980D01*
X0196065Y0051597D01*
X0197300Y0051597D01*
X0197917Y0052215D01*
X0197917Y0052832D01*
X0197300Y0053449D01*
X0196065Y0053449D01*
X0195448Y0052832D01*
X0194234Y0052215D02*
X0192999Y0053449D01*
X0192999Y0049746D01*
X0191765Y0049746D02*
X0194234Y0049746D01*
X0190551Y0050363D02*
X0190551Y0050980D01*
X0189933Y0051597D01*
X0188699Y0051597D01*
X0188082Y0050980D01*
X0188082Y0050363D01*
X0188699Y0049746D01*
X0189933Y0049746D01*
X0190551Y0050363D01*
X0189933Y0051597D02*
X0190551Y0052215D01*
X0190551Y0052832D01*
X0189933Y0053449D01*
X0188699Y0053449D01*
X0188082Y0052832D01*
X0188082Y0052215D01*
X0188699Y0051597D01*
X0186867Y0051597D02*
X0185016Y0051597D01*
X0184399Y0050980D01*
X0184399Y0050363D01*
X0185016Y0049746D01*
X0186867Y0049746D01*
X0186867Y0053449D01*
X0185016Y0053449D01*
X0184399Y0052832D01*
X0184399Y0052215D01*
X0185016Y0051597D01*
X0183184Y0052832D02*
X0182567Y0053449D01*
X0181333Y0053449D01*
X0180716Y0052832D01*
X0180716Y0052215D01*
X0183184Y0049746D01*
X0180716Y0049746D01*
X0179501Y0050363D02*
X0177032Y0052832D01*
X0177032Y0050363D01*
X0177650Y0049746D01*
X0178884Y0049746D01*
X0179501Y0050363D01*
X0179501Y0052832D01*
X0178884Y0053449D01*
X0177650Y0053449D01*
X0177032Y0052832D01*
X0184904Y0136387D02*
X0184904Y0140091D01*
X0182435Y0140091D01*
X0183670Y0138239D02*
X0184904Y0138239D01*
X0186118Y0138239D02*
X0186118Y0136387D01*
X0186118Y0138239D02*
X0186736Y0138856D01*
X0188587Y0138856D01*
X0188587Y0136387D01*
X0189802Y0137005D02*
X0189802Y0139473D01*
X0192270Y0137005D01*
X0191653Y0136387D01*
X0190419Y0136387D01*
X0189802Y0137005D01*
X0192270Y0137005D02*
X0192270Y0139473D01*
X0191653Y0140091D01*
X0190419Y0140091D01*
X0189802Y0139473D01*
X0193485Y0139473D02*
X0195953Y0137005D01*
X0195336Y0136387D01*
X0194102Y0136387D01*
X0193485Y0137005D01*
X0193485Y0139473D01*
X0194102Y0140091D01*
X0195336Y0140091D01*
X0195953Y0139473D01*
X0195953Y0137005D01*
X0197168Y0136387D02*
X0199637Y0136387D01*
X0198402Y0136387D02*
X0198402Y0140091D01*
X0199637Y0138856D01*
X0199864Y0159853D02*
X0197396Y0159853D01*
X0198630Y0159853D02*
X0198630Y0163556D01*
X0199864Y0162322D01*
X0196181Y0162939D02*
X0195564Y0163556D01*
X0194330Y0163556D01*
X0193713Y0162939D01*
X0196181Y0160470D01*
X0195564Y0159853D01*
X0194330Y0159853D01*
X0193713Y0160470D01*
X0193713Y0162939D01*
X0192498Y0162939D02*
X0192498Y0160470D01*
X0190029Y0162939D01*
X0190029Y0160470D01*
X0190647Y0159853D01*
X0191881Y0159853D01*
X0192498Y0160470D01*
X0192498Y0162939D02*
X0191881Y0163556D01*
X0190647Y0163556D01*
X0190029Y0162939D01*
X0188815Y0162322D02*
X0186963Y0162322D01*
X0186346Y0161705D01*
X0186346Y0159853D01*
X0185132Y0159853D02*
X0185132Y0163556D01*
X0182663Y0163556D01*
X0183897Y0161705D02*
X0185132Y0161705D01*
X0188815Y0162322D02*
X0188815Y0159853D01*
X0196181Y0160470D02*
X0196181Y0162939D01*
X0261631Y0161597D02*
X0264100Y0161597D01*
X0262866Y0162832D02*
X0262866Y0160363D01*
D13*
X0290313Y0170147D02*
X0290313Y0175659D01*
X0291888Y0178415D02*
X0294250Y0180777D01*
X0296612Y0178415D01*
X0291888Y0178415D01*
X0291494Y0180777D02*
X0294250Y0180777D01*
X0297006Y0180777D01*
X0298187Y0183533D02*
X0298187Y0189045D01*
X0290313Y0189045D01*
X0290313Y0183533D01*
X0298187Y0175659D02*
X0298187Y0170147D01*
X0290313Y0170147D01*
X0305313Y0170147D02*
X0305313Y0175659D01*
X0306888Y0178415D02*
X0309250Y0180777D01*
X0311612Y0178415D01*
X0306888Y0178415D01*
X0306494Y0180777D02*
X0309250Y0180777D01*
X0312006Y0180777D01*
X0313187Y0183533D02*
X0313187Y0189045D01*
X0305313Y0189045D01*
X0305313Y0183533D01*
X0313187Y0175659D02*
X0313187Y0170147D01*
X0305313Y0170147D01*
X0317301Y0180659D02*
X0322813Y0180659D01*
X0325569Y0181840D02*
X0325569Y0184596D01*
X0327931Y0182234D01*
X0327931Y0186958D01*
X0325569Y0184596D01*
X0325569Y0187352D01*
X0322813Y0188533D02*
X0317301Y0188533D01*
X0317301Y0180659D01*
X0330687Y0180659D02*
X0336199Y0180659D01*
X0336199Y0188533D01*
X0330687Y0188533D01*
X0330687Y0195659D02*
X0336199Y0195659D01*
X0336199Y0203533D01*
X0330687Y0203533D01*
X0327931Y0201958D02*
X0327931Y0197234D01*
X0325569Y0199596D01*
X0327931Y0201958D01*
X0325569Y0202352D02*
X0325569Y0199596D01*
X0325569Y0196840D01*
X0322813Y0195659D02*
X0317301Y0195659D01*
X0317301Y0203533D01*
X0322813Y0203533D01*
X0339033Y0219497D02*
X0371297Y0219497D01*
X0377203Y0219497D01*
X0397675Y0219497D01*
X0397675Y0169694D01*
X0377203Y0169694D01*
X0339033Y0169694D01*
X0339033Y0219497D01*
X0371297Y0219497D02*
X0371342Y0219600D01*
X0371391Y0219701D01*
X0371443Y0219801D01*
X0371498Y0219898D01*
X0371557Y0219994D01*
X0371619Y0220088D01*
X0371685Y0220179D01*
X0371754Y0220268D01*
X0371825Y0220354D01*
X0371900Y0220438D01*
X0371978Y0220519D01*
X0372058Y0220598D01*
X0372141Y0220673D01*
X0372227Y0220746D01*
X0372315Y0220815D01*
X0372406Y0220882D01*
X0372499Y0220945D01*
X0372594Y0221005D01*
X0372691Y0221061D01*
X0372790Y0221114D01*
X0372891Y0221164D01*
X0372993Y0221210D01*
X0373097Y0221252D01*
X0373203Y0221291D01*
X0373309Y0221326D01*
X0373417Y0221357D01*
X0373526Y0221384D01*
X0373636Y0221408D01*
X0373747Y0221427D01*
X0373858Y0221443D01*
X0373970Y0221455D01*
X0374082Y0221463D01*
X0374194Y0221467D01*
X0374306Y0221467D01*
X0374418Y0221463D01*
X0374530Y0221455D01*
X0374642Y0221443D01*
X0374753Y0221427D01*
X0374864Y0221408D01*
X0374974Y0221384D01*
X0375083Y0221357D01*
X0375191Y0221326D01*
X0375297Y0221291D01*
X0375403Y0221252D01*
X0375507Y0221210D01*
X0375609Y0221164D01*
X0375710Y0221114D01*
X0375809Y0221061D01*
X0375906Y0221005D01*
X0376001Y0220945D01*
X0376094Y0220882D01*
X0376185Y0220815D01*
X0376273Y0220746D01*
X0376359Y0220673D01*
X0376442Y0220598D01*
X0376522Y0220519D01*
X0376600Y0220438D01*
X0376675Y0220354D01*
X0376746Y0220268D01*
X0376815Y0220179D01*
X0376881Y0220088D01*
X0376943Y0219994D01*
X0377002Y0219898D01*
X0377057Y0219801D01*
X0377109Y0219701D01*
X0377158Y0219600D01*
X0377203Y0219497D01*
X0377203Y0169694D02*
X0377158Y0169591D01*
X0377109Y0169490D01*
X0377057Y0169390D01*
X0377002Y0169293D01*
X0376943Y0169197D01*
X0376881Y0169103D01*
X0376815Y0169012D01*
X0376746Y0168923D01*
X0376675Y0168837D01*
X0376600Y0168753D01*
X0376522Y0168672D01*
X0376442Y0168593D01*
X0376359Y0168518D01*
X0376273Y0168445D01*
X0376185Y0168376D01*
X0376094Y0168309D01*
X0376001Y0168246D01*
X0375906Y0168186D01*
X0375809Y0168130D01*
X0375710Y0168077D01*
X0375609Y0168027D01*
X0375507Y0167981D01*
X0375403Y0167939D01*
X0375297Y0167900D01*
X0375191Y0167865D01*
X0375083Y0167834D01*
X0374974Y0167807D01*
X0374864Y0167783D01*
X0374753Y0167764D01*
X0374642Y0167748D01*
X0374530Y0167736D01*
X0374418Y0167728D01*
X0374306Y0167724D01*
X0374194Y0167724D01*
X0374082Y0167728D01*
X0373970Y0167736D01*
X0373858Y0167748D01*
X0373747Y0167764D01*
X0373636Y0167783D01*
X0373526Y0167807D01*
X0373417Y0167834D01*
X0373309Y0167865D01*
X0373203Y0167900D01*
X0373097Y0167939D01*
X0372993Y0167981D01*
X0372891Y0168027D01*
X0372790Y0168077D01*
X0372691Y0168130D01*
X0372594Y0168186D01*
X0372499Y0168246D01*
X0372406Y0168309D01*
X0372315Y0168376D01*
X0372227Y0168445D01*
X0372141Y0168518D01*
X0372058Y0168593D01*
X0371978Y0168672D01*
X0371900Y0168753D01*
X0371825Y0168837D01*
X0371754Y0168923D01*
X0371685Y0169012D01*
X0371619Y0169103D01*
X0371557Y0169197D01*
X0371498Y0169293D01*
X0371443Y0169390D01*
X0371391Y0169490D01*
X0371342Y0169591D01*
X0371297Y0169694D01*
X0290687Y0222647D02*
X0290687Y0228159D01*
X0289506Y0230915D02*
X0286750Y0230915D01*
X0289112Y0233277D01*
X0284388Y0233277D01*
X0286750Y0230915D01*
X0283994Y0230915D01*
X0282813Y0228159D02*
X0282813Y0222647D01*
X0290687Y0222647D01*
X0290687Y0236033D02*
X0290687Y0241545D01*
X0282813Y0241545D01*
X0282813Y0236033D01*
X0272150Y0226596D02*
X0246350Y0226596D01*
X0246350Y0212596D01*
X0272150Y0212596D01*
X0272150Y0226596D01*
X0168148Y0181919D02*
X0166573Y0183493D01*
X0131927Y0183493D01*
X0130352Y0181919D01*
X0130352Y0147273D01*
X0131927Y0145698D01*
X0166573Y0145698D01*
X0168148Y0147273D01*
X0168148Y0181919D01*
X0091250Y0077497D02*
X0077250Y0077497D01*
X0077250Y0051694D01*
X0091250Y0051694D01*
X0091250Y0077497D01*
X0036250Y0077497D02*
X0036250Y0051694D01*
X0022250Y0051694D01*
X0022250Y0077497D01*
X0036250Y0077497D01*
X0188738Y0065108D02*
X0188738Y0054084D01*
X0199762Y0054084D01*
X0199762Y0065108D01*
X0188738Y0065108D01*
D14*
X0163885Y0148848D02*
X0163887Y0148915D01*
X0163893Y0148981D01*
X0163903Y0149047D01*
X0163917Y0149112D01*
X0163934Y0149176D01*
X0163956Y0149239D01*
X0163981Y0149301D01*
X0164010Y0149361D01*
X0164043Y0149419D01*
X0164078Y0149475D01*
X0164118Y0149529D01*
X0164160Y0149580D01*
X0164205Y0149629D01*
X0164253Y0149675D01*
X0164304Y0149718D01*
X0164357Y0149758D01*
X0164413Y0149795D01*
X0164471Y0149828D01*
X0164530Y0149858D01*
X0164591Y0149884D01*
X0164654Y0149907D01*
X0164718Y0149925D01*
X0164783Y0149940D01*
X0164849Y0149951D01*
X0164915Y0149958D01*
X0164981Y0149961D01*
X0165048Y0149960D01*
X0165114Y0149955D01*
X0165180Y0149946D01*
X0165246Y0149933D01*
X0165310Y0149916D01*
X0165373Y0149896D01*
X0165435Y0149871D01*
X0165496Y0149843D01*
X0165555Y0149812D01*
X0165611Y0149777D01*
X0165666Y0149739D01*
X0165718Y0149697D01*
X0165767Y0149652D01*
X0165814Y0149605D01*
X0165858Y0149555D01*
X0165898Y0149502D01*
X0165936Y0149447D01*
X0165970Y0149390D01*
X0166001Y0149331D01*
X0166028Y0149270D01*
X0166051Y0149208D01*
X0166071Y0149144D01*
X0166087Y0149079D01*
X0166099Y0149014D01*
X0166107Y0148948D01*
X0166111Y0148881D01*
X0166111Y0148815D01*
X0166107Y0148748D01*
X0166099Y0148682D01*
X0166087Y0148617D01*
X0166071Y0148552D01*
X0166051Y0148488D01*
X0166028Y0148426D01*
X0166001Y0148365D01*
X0165970Y0148306D01*
X0165936Y0148249D01*
X0165898Y0148194D01*
X0165858Y0148141D01*
X0165814Y0148091D01*
X0165767Y0148044D01*
X0165718Y0147999D01*
X0165666Y0147957D01*
X0165611Y0147919D01*
X0165554Y0147884D01*
X0165496Y0147853D01*
X0165435Y0147825D01*
X0165373Y0147800D01*
X0165310Y0147780D01*
X0165246Y0147763D01*
X0165180Y0147750D01*
X0165114Y0147741D01*
X0165048Y0147736D01*
X0164981Y0147735D01*
X0164915Y0147738D01*
X0164849Y0147745D01*
X0164783Y0147756D01*
X0164718Y0147771D01*
X0164654Y0147789D01*
X0164591Y0147812D01*
X0164530Y0147838D01*
X0164471Y0147868D01*
X0164413Y0147901D01*
X0164357Y0147938D01*
X0164304Y0147978D01*
X0164253Y0148021D01*
X0164205Y0148067D01*
X0164160Y0148116D01*
X0164118Y0148167D01*
X0164078Y0148221D01*
X0164043Y0148277D01*
X0164010Y0148335D01*
X0163981Y0148395D01*
X0163956Y0148457D01*
X0163934Y0148520D01*
X0163917Y0148584D01*
X0163903Y0148649D01*
X0163893Y0148715D01*
X0163887Y0148781D01*
X0163885Y0148848D01*
D15*
X0039231Y0014913D02*
X0039799Y0014346D01*
X0040933Y0014346D01*
X0041500Y0014913D01*
X0040366Y0016047D02*
X0039799Y0016047D01*
X0039231Y0015480D01*
X0039231Y0014913D01*
X0039799Y0016047D02*
X0039231Y0016614D01*
X0039231Y0017182D01*
X0039799Y0017749D01*
X0040933Y0017749D01*
X0041500Y0017182D01*
X0049231Y0017182D02*
X0049231Y0016614D01*
X0051500Y0014346D01*
X0049231Y0014346D01*
X0049231Y0017182D02*
X0049799Y0017749D01*
X0050933Y0017749D01*
X0051500Y0017182D01*
X0059231Y0014346D02*
X0061500Y0014346D01*
X0060366Y0014346D02*
X0060366Y0017749D01*
X0061500Y0016614D01*
X0076731Y0016614D02*
X0077299Y0016047D01*
X0076731Y0015480D01*
X0076731Y0014913D01*
X0077299Y0014346D01*
X0078433Y0014346D01*
X0079000Y0014913D01*
X0077866Y0016047D02*
X0077299Y0016047D01*
X0076731Y0016614D02*
X0076731Y0017182D01*
X0077299Y0017749D01*
X0078433Y0017749D01*
X0079000Y0017182D01*
X0086731Y0017182D02*
X0086731Y0016614D01*
X0089000Y0014346D01*
X0086731Y0014346D01*
X0086731Y0017182D02*
X0087299Y0017749D01*
X0088433Y0017749D01*
X0089000Y0017182D01*
X0096731Y0014346D02*
X0099000Y0014346D01*
X0097866Y0014346D02*
X0097866Y0017749D01*
X0099000Y0016614D01*
X0123502Y0010108D02*
X0123463Y0049005D01*
X0167557Y0049005D01*
X0167596Y0010108D01*
X0123502Y0010108D01*
X0164250Y0007096D02*
X0214250Y0007096D01*
X0214250Y0047096D01*
X0164250Y0047096D01*
X0164250Y0007096D01*
X0211002Y0010108D02*
X0210963Y0049005D01*
X0255057Y0049005D01*
X0255096Y0010108D01*
X0211002Y0010108D01*
X0215687Y0055698D02*
X0215726Y0075541D01*
X0250372Y0075541D01*
X0250333Y0055698D01*
X0215687Y0055698D01*
X0162833Y0055698D02*
X0162872Y0075541D01*
X0128226Y0075541D01*
X0128187Y0055698D01*
X0162833Y0055698D01*
X0109298Y0152598D02*
X0099333Y0152598D01*
X0099263Y0152600D01*
X0099194Y0152606D01*
X0099124Y0152616D01*
X0099056Y0152629D01*
X0098988Y0152647D01*
X0098922Y0152668D01*
X0098857Y0152693D01*
X0098793Y0152721D01*
X0098731Y0152753D01*
X0098671Y0152789D01*
X0098613Y0152828D01*
X0098557Y0152870D01*
X0098503Y0152915D01*
X0098453Y0152963D01*
X0098405Y0153013D01*
X0098360Y0153067D01*
X0098318Y0153123D01*
X0098279Y0153181D01*
X0098243Y0153241D01*
X0098211Y0153303D01*
X0098183Y0153367D01*
X0098158Y0153432D01*
X0098137Y0153498D01*
X0098119Y0153566D01*
X0098106Y0153634D01*
X0098096Y0153704D01*
X0098090Y0153773D01*
X0098088Y0153843D01*
X0098089Y0153843D02*
X0098089Y0175714D01*
X0098091Y0175772D01*
X0098097Y0175829D01*
X0098106Y0175886D01*
X0098119Y0175942D01*
X0098136Y0175997D01*
X0098156Y0176051D01*
X0098180Y0176103D01*
X0098207Y0176154D01*
X0098237Y0176203D01*
X0098271Y0176250D01*
X0098307Y0176294D01*
X0098347Y0176336D01*
X0098389Y0176376D01*
X0098433Y0176412D01*
X0098480Y0176446D01*
X0098529Y0176476D01*
X0098580Y0176503D01*
X0098632Y0176527D01*
X0098686Y0176547D01*
X0098741Y0176564D01*
X0098797Y0176577D01*
X0098854Y0176586D01*
X0098911Y0176592D01*
X0098969Y0176594D01*
X0109298Y0176594D01*
X0109298Y0176593D02*
X0109363Y0176591D01*
X0109427Y0176585D01*
X0109491Y0176576D01*
X0109555Y0176563D01*
X0109617Y0176546D01*
X0109679Y0176526D01*
X0109739Y0176502D01*
X0109798Y0176475D01*
X0109855Y0176444D01*
X0109910Y0176410D01*
X0109963Y0176373D01*
X0110013Y0176333D01*
X0110062Y0176290D01*
X0110108Y0176244D01*
X0110151Y0176195D01*
X0110191Y0176145D01*
X0110228Y0176092D01*
X0110262Y0176037D01*
X0110293Y0175980D01*
X0110320Y0175921D01*
X0110344Y0175861D01*
X0110364Y0175799D01*
X0110381Y0175737D01*
X0110394Y0175673D01*
X0110403Y0175609D01*
X0110409Y0175545D01*
X0110411Y0175480D01*
X0110411Y0153711D01*
X0110409Y0153646D01*
X0110403Y0153582D01*
X0110394Y0153518D01*
X0110381Y0153454D01*
X0110364Y0153392D01*
X0110344Y0153330D01*
X0110320Y0153270D01*
X0110293Y0153211D01*
X0110262Y0153155D01*
X0110228Y0153099D01*
X0110191Y0153046D01*
X0110151Y0152996D01*
X0110108Y0152947D01*
X0110062Y0152901D01*
X0110013Y0152858D01*
X0109963Y0152818D01*
X0109910Y0152781D01*
X0109855Y0152747D01*
X0109798Y0152716D01*
X0109739Y0152689D01*
X0109679Y0152665D01*
X0109617Y0152645D01*
X0109555Y0152628D01*
X0109491Y0152615D01*
X0109427Y0152606D01*
X0109363Y0152600D01*
X0109298Y0152598D01*
X0107262Y0154566D02*
X0101238Y0154566D01*
X0101156Y0154559D01*
X0101074Y0154555D01*
X0100991Y0154556D01*
X0100909Y0154560D01*
X0100827Y0154568D01*
X0100745Y0154580D01*
X0100665Y0154595D01*
X0100584Y0154614D01*
X0100505Y0154637D01*
X0100427Y0154664D01*
X0100351Y0154694D01*
X0100276Y0154728D01*
X0100202Y0154765D01*
X0100130Y0154805D01*
X0100060Y0154849D01*
X0099993Y0154896D01*
X0099927Y0154946D01*
X0099864Y0154999D01*
X0099803Y0155054D01*
X0099745Y0155113D01*
X0099690Y0155174D01*
X0099638Y0155238D01*
X0099589Y0155304D01*
X0099542Y0155372D01*
X0099499Y0155442D01*
X0099460Y0155514D01*
X0099423Y0155588D01*
X0099390Y0155664D01*
X0099361Y0155741D01*
X0099335Y0155819D01*
X0099313Y0155898D01*
X0099295Y0155978D01*
X0099280Y0156059D01*
X0099269Y0156141D01*
X0099270Y0156141D02*
X0099270Y0172657D01*
X0099269Y0172657D02*
X0099271Y0172743D01*
X0099276Y0172829D01*
X0099286Y0172914D01*
X0099299Y0172999D01*
X0099316Y0173083D01*
X0099336Y0173167D01*
X0099360Y0173249D01*
X0099388Y0173330D01*
X0099419Y0173411D01*
X0099453Y0173489D01*
X0099491Y0173566D01*
X0099533Y0173642D01*
X0099577Y0173715D01*
X0099625Y0173786D01*
X0099676Y0173856D01*
X0099730Y0173923D01*
X0099786Y0173987D01*
X0099846Y0174049D01*
X0099908Y0174109D01*
X0099972Y0174165D01*
X0100039Y0174219D01*
X0100109Y0174270D01*
X0100180Y0174318D01*
X0100254Y0174362D01*
X0100329Y0174404D01*
X0100406Y0174442D01*
X0100484Y0174476D01*
X0100565Y0174507D01*
X0100646Y0174535D01*
X0100728Y0174559D01*
X0100812Y0174579D01*
X0100896Y0174596D01*
X0100981Y0174609D01*
X0101066Y0174619D01*
X0101152Y0174624D01*
X0101238Y0174626D01*
X0101238Y0174625D02*
X0107262Y0174625D01*
X0107262Y0174626D02*
X0107339Y0174624D01*
X0107416Y0174618D01*
X0107493Y0174609D01*
X0107569Y0174596D01*
X0107645Y0174579D01*
X0107719Y0174558D01*
X0107793Y0174534D01*
X0107865Y0174506D01*
X0107935Y0174475D01*
X0108004Y0174440D01*
X0108072Y0174402D01*
X0108137Y0174361D01*
X0108200Y0174316D01*
X0108261Y0174268D01*
X0108320Y0174218D01*
X0108376Y0174165D01*
X0108429Y0174109D01*
X0108479Y0174050D01*
X0108527Y0173989D01*
X0108572Y0173926D01*
X0108613Y0173861D01*
X0108651Y0173793D01*
X0108686Y0173724D01*
X0108717Y0173654D01*
X0108745Y0173582D01*
X0108769Y0173508D01*
X0108790Y0173434D01*
X0108807Y0173358D01*
X0108820Y0173282D01*
X0108829Y0173205D01*
X0108835Y0173128D01*
X0108837Y0173051D01*
X0108837Y0156141D01*
X0108835Y0156064D01*
X0108829Y0155987D01*
X0108820Y0155910D01*
X0108807Y0155834D01*
X0108790Y0155758D01*
X0108769Y0155684D01*
X0108745Y0155610D01*
X0108717Y0155538D01*
X0108686Y0155468D01*
X0108651Y0155399D01*
X0108613Y0155331D01*
X0108572Y0155266D01*
X0108527Y0155203D01*
X0108479Y0155142D01*
X0108429Y0155083D01*
X0108376Y0155027D01*
X0108320Y0154974D01*
X0108261Y0154924D01*
X0108200Y0154876D01*
X0108137Y0154831D01*
X0108072Y0154790D01*
X0108004Y0154752D01*
X0107935Y0154717D01*
X0107865Y0154686D01*
X0107793Y0154658D01*
X0107719Y0154634D01*
X0107645Y0154613D01*
X0107569Y0154596D01*
X0107493Y0154583D01*
X0107416Y0154574D01*
X0107339Y0154568D01*
X0107262Y0154566D01*
X0048004Y0154598D02*
X0048004Y0152346D01*
X0043500Y0152346D01*
X0045001Y0152346D02*
X0045001Y0154598D01*
X0045752Y0155348D01*
X0047253Y0155348D01*
X0048004Y0154598D01*
X0045001Y0153847D02*
X0043500Y0155348D01*
X0045752Y0156950D02*
X0045752Y0159952D01*
X0047253Y0161554D02*
X0044251Y0161554D01*
X0043500Y0162304D01*
X0043500Y0163806D01*
X0044251Y0164556D01*
X0044251Y0166158D02*
X0043500Y0166908D01*
X0043500Y0168409D01*
X0044251Y0169160D01*
X0045001Y0169160D01*
X0045752Y0168409D01*
X0045752Y0166158D01*
X0044251Y0166158D01*
X0045752Y0166158D02*
X0047253Y0167659D01*
X0048004Y0169160D01*
X0048004Y0170761D02*
X0048004Y0173013D01*
X0047253Y0173764D01*
X0045752Y0173764D01*
X0045001Y0173013D01*
X0045001Y0170761D01*
X0043500Y0170761D02*
X0048004Y0170761D01*
X0047253Y0164556D02*
X0048004Y0163806D01*
X0048004Y0162304D01*
X0047253Y0161554D01*
X0007754Y0201347D02*
X0003250Y0201347D01*
X0003250Y0199846D02*
X0003250Y0202848D01*
X0004001Y0204450D02*
X0007003Y0207452D01*
X0004001Y0207452D01*
X0003250Y0206702D01*
X0003250Y0205200D01*
X0004001Y0204450D01*
X0007003Y0204450D01*
X0007754Y0205200D01*
X0007754Y0206702D01*
X0007003Y0207452D01*
X0007754Y0209054D02*
X0003250Y0209054D01*
X0004751Y0209054D02*
X0003250Y0211306D01*
X0004751Y0209054D02*
X0006253Y0211306D01*
X0011250Y0205596D02*
X0011250Y0204596D01*
X0011250Y0203596D01*
X0011250Y0204596D02*
X0015250Y0204596D01*
X0014250Y0203596D01*
X0007754Y0201347D02*
X0006253Y0199846D01*
X0011750Y0219096D02*
X0011250Y0219596D01*
X0011250Y0221096D01*
X0011750Y0221596D01*
X0012750Y0221596D01*
X0013250Y0221096D01*
X0013250Y0220096D01*
X0013250Y0221096D02*
X0013750Y0221596D01*
X0014750Y0221596D01*
X0015250Y0221096D01*
X0015250Y0219596D01*
X0014750Y0219096D01*
D16*
X0256888Y0170186D03*
X0261612Y0170186D03*
D17*
X0259250Y0170186D03*
D18*
X0294800Y0175646D02*
X0294800Y0176647D01*
X0294800Y0177119D02*
X0296301Y0177119D01*
X0294800Y0178120D01*
X0296301Y0178120D01*
X0296301Y0178592D02*
X0295551Y0178592D01*
X0295801Y0179093D01*
X0295801Y0179343D01*
X0295551Y0179593D01*
X0295050Y0179593D01*
X0294800Y0179343D01*
X0294800Y0178843D01*
X0295050Y0178592D01*
X0296301Y0178592D02*
X0296301Y0179593D01*
X0296051Y0180066D02*
X0295801Y0180066D01*
X0295551Y0180316D01*
X0295551Y0180816D01*
X0295300Y0181066D01*
X0295050Y0181066D01*
X0294800Y0180816D01*
X0294800Y0180316D01*
X0295050Y0180066D01*
X0295300Y0180066D01*
X0295551Y0180316D01*
X0295551Y0180816D02*
X0295801Y0181066D01*
X0296051Y0181066D01*
X0296301Y0180816D01*
X0296301Y0180316D01*
X0296051Y0180066D01*
X0295801Y0181539D02*
X0296301Y0182039D01*
X0294800Y0182039D01*
X0294800Y0181539D02*
X0294800Y0182540D01*
X0294800Y0183012D02*
X0294800Y0183763D01*
X0295050Y0184013D01*
X0296051Y0184013D01*
X0296301Y0183763D01*
X0296301Y0183012D01*
X0294800Y0183012D01*
X0294800Y0184485D02*
X0294800Y0185486D01*
X0294800Y0185959D02*
X0295801Y0186959D01*
X0296051Y0186959D01*
X0296301Y0186709D01*
X0296301Y0186209D01*
X0296051Y0185959D01*
X0296301Y0184986D02*
X0294800Y0184986D01*
X0294800Y0185959D02*
X0294800Y0186959D01*
X0295050Y0187432D02*
X0296051Y0188433D01*
X0295050Y0188433D01*
X0294800Y0188182D01*
X0294800Y0187682D01*
X0295050Y0187432D01*
X0296051Y0187432D01*
X0296301Y0187682D01*
X0296301Y0188182D01*
X0296051Y0188433D01*
X0295551Y0188905D02*
X0295551Y0189656D01*
X0295300Y0189906D01*
X0295050Y0189906D01*
X0294800Y0189656D01*
X0294800Y0189155D01*
X0295050Y0188905D01*
X0295551Y0188905D01*
X0296051Y0189405D01*
X0296301Y0189906D01*
X0296301Y0184986D02*
X0295801Y0184485D01*
X0302300Y0184485D02*
X0302300Y0185486D01*
X0302300Y0185959D02*
X0303301Y0186959D01*
X0303551Y0186959D01*
X0303801Y0186709D01*
X0303801Y0186209D01*
X0303551Y0185959D01*
X0303801Y0184986D02*
X0302300Y0184986D01*
X0302300Y0185959D02*
X0302300Y0186959D01*
X0302550Y0187432D02*
X0303551Y0188433D01*
X0302550Y0188433D01*
X0302300Y0188182D01*
X0302300Y0187682D01*
X0302550Y0187432D01*
X0303551Y0187432D01*
X0303801Y0187682D01*
X0303801Y0188182D01*
X0303551Y0188433D01*
X0303051Y0188905D02*
X0303051Y0189656D01*
X0302800Y0189906D01*
X0302550Y0189906D01*
X0302300Y0189656D01*
X0302300Y0189155D01*
X0302550Y0188905D01*
X0303051Y0188905D01*
X0303551Y0189405D01*
X0303801Y0189906D01*
X0303801Y0184986D02*
X0303301Y0184485D01*
X0303551Y0184013D02*
X0303801Y0183763D01*
X0303801Y0183012D01*
X0302300Y0183012D01*
X0302300Y0183763D01*
X0302550Y0184013D01*
X0303551Y0184013D01*
X0302300Y0182540D02*
X0302300Y0181539D01*
X0302300Y0182039D02*
X0303801Y0182039D01*
X0303301Y0181539D01*
X0303301Y0181066D02*
X0303051Y0180816D01*
X0303051Y0180316D01*
X0303301Y0180066D01*
X0303551Y0180066D01*
X0303801Y0180316D01*
X0303801Y0180816D01*
X0303551Y0181066D01*
X0303301Y0181066D01*
X0303051Y0180816D02*
X0302800Y0181066D01*
X0302550Y0181066D01*
X0302300Y0180816D01*
X0302300Y0180316D01*
X0302550Y0180066D01*
X0302800Y0180066D01*
X0303051Y0180316D01*
X0303051Y0179593D02*
X0302550Y0179593D01*
X0302300Y0179343D01*
X0302300Y0178843D01*
X0302550Y0178592D01*
X0303051Y0178592D02*
X0303301Y0179093D01*
X0303301Y0179343D01*
X0303051Y0179593D01*
X0303801Y0179593D02*
X0303801Y0178592D01*
X0303051Y0178592D01*
X0303801Y0178120D02*
X0302300Y0178120D01*
X0303801Y0177119D01*
X0302300Y0177119D01*
X0302300Y0176647D02*
X0302300Y0175646D01*
X0302300Y0176146D02*
X0303801Y0176146D01*
X0303301Y0175646D01*
X0296301Y0176146D02*
X0294800Y0176146D01*
X0295801Y0175646D02*
X0296301Y0176146D01*
X0316440Y0177896D02*
X0316440Y0178146D01*
X0316690Y0178396D01*
X0317441Y0178396D01*
X0317441Y0177896D01*
X0317191Y0177646D01*
X0316690Y0177646D01*
X0316440Y0177896D01*
X0316940Y0178897D02*
X0317441Y0178396D01*
X0317913Y0177896D02*
X0318163Y0177646D01*
X0318664Y0177646D01*
X0318914Y0177896D01*
X0317913Y0178897D01*
X0317913Y0177896D01*
X0317913Y0178897D02*
X0318163Y0179147D01*
X0318664Y0179147D01*
X0318914Y0178897D01*
X0318914Y0177896D01*
X0319386Y0177646D02*
X0320387Y0177646D01*
X0319386Y0178647D01*
X0319386Y0178897D01*
X0319637Y0179147D01*
X0320137Y0179147D01*
X0320387Y0178897D01*
X0321360Y0179147D02*
X0321360Y0177646D01*
X0321860Y0177646D02*
X0320860Y0177646D01*
X0321860Y0178647D02*
X0321360Y0179147D01*
X0322333Y0178897D02*
X0322583Y0179147D01*
X0323334Y0179147D01*
X0323334Y0177646D01*
X0322583Y0177646D01*
X0322333Y0177896D01*
X0322333Y0178897D01*
X0323806Y0177646D02*
X0324807Y0177646D01*
X0324307Y0177646D02*
X0324307Y0179147D01*
X0324807Y0178647D01*
X0325279Y0178647D02*
X0325530Y0178396D01*
X0326030Y0178396D01*
X0326280Y0178647D01*
X0326280Y0178897D01*
X0326030Y0179147D01*
X0325530Y0179147D01*
X0325279Y0178897D01*
X0325279Y0178647D01*
X0325530Y0178396D02*
X0325279Y0178146D01*
X0325279Y0177896D01*
X0325530Y0177646D01*
X0326030Y0177646D01*
X0326280Y0177896D01*
X0326280Y0178146D01*
X0326030Y0178396D01*
X0326753Y0178396D02*
X0326753Y0177896D01*
X0327003Y0177646D01*
X0327503Y0177646D01*
X0327753Y0177896D01*
X0327753Y0178396D02*
X0327253Y0178647D01*
X0327003Y0178647D01*
X0326753Y0178396D01*
X0326753Y0179147D02*
X0327753Y0179147D01*
X0327753Y0178396D01*
X0328226Y0177646D02*
X0328226Y0179147D01*
X0329227Y0179147D02*
X0328226Y0177646D01*
X0329227Y0177646D02*
X0329227Y0179147D01*
X0330200Y0179147D02*
X0330200Y0177646D01*
X0330700Y0177646D02*
X0329699Y0177646D01*
X0330700Y0178647D02*
X0330200Y0179147D01*
X0316940Y0178897D02*
X0316440Y0179147D01*
X0316690Y0192646D02*
X0316440Y0192896D01*
X0316440Y0193146D01*
X0316690Y0193396D01*
X0317441Y0193396D01*
X0317441Y0192896D01*
X0317191Y0192646D01*
X0316690Y0192646D01*
X0317441Y0193396D02*
X0316940Y0193897D01*
X0316440Y0194147D01*
X0317913Y0193897D02*
X0318914Y0192896D01*
X0318664Y0192646D01*
X0318163Y0192646D01*
X0317913Y0192896D01*
X0317913Y0193897D01*
X0318163Y0194147D01*
X0318664Y0194147D01*
X0318914Y0193897D01*
X0318914Y0192896D01*
X0319386Y0192646D02*
X0320387Y0192646D01*
X0319386Y0193647D01*
X0319386Y0193897D01*
X0319637Y0194147D01*
X0320137Y0194147D01*
X0320387Y0193897D01*
X0321360Y0194147D02*
X0321360Y0192646D01*
X0321860Y0192646D02*
X0320860Y0192646D01*
X0321860Y0193647D02*
X0321360Y0194147D01*
X0322333Y0193897D02*
X0322333Y0192896D01*
X0322583Y0192646D01*
X0323334Y0192646D01*
X0323334Y0194147D01*
X0322583Y0194147D01*
X0322333Y0193897D01*
X0323806Y0192646D02*
X0324807Y0192646D01*
X0324307Y0192646D02*
X0324307Y0194147D01*
X0324807Y0193647D01*
X0325279Y0193647D02*
X0325530Y0193396D01*
X0326030Y0193396D01*
X0326280Y0193647D01*
X0326280Y0193897D01*
X0326030Y0194147D01*
X0325530Y0194147D01*
X0325279Y0193897D01*
X0325279Y0193647D01*
X0325530Y0193396D02*
X0325279Y0193146D01*
X0325279Y0192896D01*
X0325530Y0192646D01*
X0326030Y0192646D01*
X0326280Y0192896D01*
X0326280Y0193146D01*
X0326030Y0193396D01*
X0326753Y0193396D02*
X0327003Y0193647D01*
X0327253Y0193647D01*
X0327753Y0193396D01*
X0327753Y0194147D01*
X0326753Y0194147D01*
X0326753Y0193396D02*
X0326753Y0192896D01*
X0327003Y0192646D01*
X0327503Y0192646D01*
X0327753Y0192896D01*
X0328226Y0192646D02*
X0328226Y0194147D01*
X0329227Y0194147D02*
X0328226Y0192646D01*
X0329227Y0192646D02*
X0329227Y0194147D01*
X0330200Y0194147D02*
X0330200Y0192646D01*
X0330700Y0192646D02*
X0329699Y0192646D01*
X0330700Y0193647D02*
X0330200Y0194147D01*
X0347350Y0195018D02*
X0349418Y0195018D01*
X0350453Y0193983D01*
X0349418Y0192949D01*
X0347350Y0192949D01*
X0347867Y0192071D02*
X0349936Y0192071D01*
X0350453Y0191554D01*
X0350453Y0190003D01*
X0347350Y0190003D01*
X0347350Y0191554D01*
X0347867Y0192071D01*
X0348901Y0192949D02*
X0348901Y0195018D01*
X0348901Y0197503D02*
X0349418Y0198537D01*
X0349418Y0199054D01*
X0348901Y0199571D01*
X0347867Y0199571D01*
X0347350Y0199054D01*
X0347350Y0198020D01*
X0347867Y0197503D01*
X0348901Y0197503D02*
X0350453Y0197503D01*
X0350453Y0199571D01*
X0350453Y0200449D02*
X0348384Y0200449D01*
X0347350Y0201483D01*
X0348384Y0202518D01*
X0350453Y0202518D01*
X0369850Y0202949D02*
X0369850Y0204501D01*
X0370367Y0205018D01*
X0372436Y0205018D01*
X0372953Y0204501D01*
X0372953Y0202949D01*
X0369850Y0202949D01*
X0369850Y0202071D02*
X0372953Y0202071D01*
X0372953Y0200003D02*
X0369850Y0200003D01*
X0370367Y0199125D02*
X0371401Y0199125D01*
X0371401Y0198090D01*
X0370367Y0197056D02*
X0372436Y0197056D01*
X0372953Y0197573D01*
X0372953Y0198608D01*
X0372436Y0199125D01*
X0372953Y0200003D02*
X0369850Y0202071D01*
X0370367Y0199125D02*
X0369850Y0198608D01*
X0369850Y0197573D01*
X0370367Y0197056D01*
X0369850Y0191268D02*
X0369850Y0189199D01*
X0372953Y0189199D01*
X0372436Y0188321D02*
X0372953Y0187804D01*
X0372953Y0186770D01*
X0372436Y0186253D01*
X0370367Y0186253D01*
X0369850Y0186770D01*
X0369850Y0187804D01*
X0370367Y0188321D01*
X0370367Y0185375D02*
X0369850Y0184858D01*
X0369850Y0183823D01*
X0370367Y0183306D01*
X0371401Y0183823D02*
X0371401Y0184858D01*
X0370884Y0185375D01*
X0370367Y0185375D01*
X0371401Y0183823D02*
X0371918Y0183306D01*
X0372436Y0183306D01*
X0372953Y0183823D01*
X0372953Y0184858D01*
X0372436Y0185375D01*
X0350453Y0183768D02*
X0348384Y0183768D01*
X0347350Y0182733D01*
X0348384Y0181699D01*
X0350453Y0181699D01*
X0349936Y0180821D02*
X0350453Y0180304D01*
X0350453Y0179270D01*
X0349936Y0178753D01*
X0350453Y0176840D02*
X0347350Y0176840D01*
X0347350Y0175806D02*
X0347350Y0177875D01*
X0347350Y0178753D02*
X0349418Y0180821D01*
X0349936Y0180821D01*
X0347350Y0180821D02*
X0347350Y0178753D01*
X0349418Y0175806D02*
X0350453Y0176840D01*
X0349936Y0187056D02*
X0349418Y0187056D01*
X0348901Y0187573D01*
X0348901Y0188608D01*
X0348384Y0189125D01*
X0347867Y0189125D01*
X0347350Y0188608D01*
X0347350Y0187573D01*
X0347867Y0187056D01*
X0349936Y0187056D02*
X0350453Y0187573D01*
X0350453Y0188608D01*
X0349936Y0189125D01*
D19*
X0293652Y0219506D02*
X0292718Y0218572D01*
X0293652Y0219506D02*
X0290850Y0219506D01*
X0290850Y0218572D02*
X0290850Y0220440D01*
X0290850Y0221335D02*
X0293652Y0221335D01*
X0290850Y0223203D01*
X0293652Y0223203D01*
X0293652Y0224097D02*
X0292251Y0224097D01*
X0292718Y0225031D01*
X0292718Y0225498D01*
X0292251Y0225965D01*
X0291317Y0225965D01*
X0290850Y0225498D01*
X0290850Y0224564D01*
X0291317Y0224097D01*
X0293652Y0224097D02*
X0293652Y0225965D01*
X0293185Y0226859D02*
X0292718Y0226859D01*
X0292251Y0227326D01*
X0292251Y0228260D01*
X0291784Y0228727D01*
X0291317Y0228727D01*
X0290850Y0228260D01*
X0290850Y0227326D01*
X0291317Y0226859D01*
X0291784Y0226859D01*
X0292251Y0227326D01*
X0292251Y0228260D02*
X0292718Y0228727D01*
X0293185Y0228727D01*
X0293652Y0228260D01*
X0293652Y0227326D01*
X0293185Y0226859D01*
X0292718Y0229622D02*
X0293652Y0230556D01*
X0290850Y0230556D01*
X0290850Y0229622D02*
X0290850Y0231490D01*
X0290850Y0232384D02*
X0290850Y0233785D01*
X0291317Y0234252D01*
X0293185Y0234252D01*
X0293652Y0233785D01*
X0293652Y0232384D01*
X0290850Y0232384D01*
X0290850Y0235146D02*
X0290850Y0237015D01*
X0290850Y0237909D02*
X0292718Y0239777D01*
X0293185Y0239777D01*
X0293652Y0239310D01*
X0293652Y0238376D01*
X0293185Y0237909D01*
X0293652Y0236080D02*
X0290850Y0236080D01*
X0290850Y0237909D02*
X0290850Y0239777D01*
X0291317Y0240671D02*
X0293185Y0242539D01*
X0291317Y0242539D01*
X0290850Y0242072D01*
X0290850Y0241138D01*
X0291317Y0240671D01*
X0293185Y0240671D01*
X0293652Y0241138D01*
X0293652Y0242072D01*
X0293185Y0242539D01*
X0292251Y0243433D02*
X0292251Y0244835D01*
X0291784Y0245302D01*
X0291317Y0245302D01*
X0290850Y0244835D01*
X0290850Y0243900D01*
X0291317Y0243433D01*
X0292251Y0243433D01*
X0293185Y0244367D01*
X0293652Y0245302D01*
X0293652Y0236080D02*
X0292718Y0235146D01*
X0032217Y0215663D02*
X0030187Y0214584D01*
X0029632Y0215627D02*
X0031663Y0216706D01*
X0029610Y0218986D02*
X0028324Y0217080D01*
X0027345Y0217740D02*
X0028631Y0219646D01*
X0025748Y0220695D02*
X0025507Y0218409D01*
X0025510Y0217411D02*
X0025510Y0215364D01*
X0022990Y0215364D01*
X0022990Y0217411D01*
X0021301Y0217818D02*
X0020440Y0219950D01*
X0019722Y0216663D02*
X0016219Y0219615D01*
X0015431Y0218710D02*
X0018974Y0215757D01*
X0018935Y0213356D02*
X0020982Y0213356D01*
X0020982Y0210836D01*
X0018935Y0210836D01*
X0020982Y0210836D02*
X0022990Y0210836D01*
X0022990Y0208828D01*
X0025510Y0208828D01*
X0025510Y0206781D01*
X0025507Y0205783D02*
X0025748Y0203496D01*
X0025748Y0203496D01*
X0028631Y0204545D02*
X0027345Y0206452D01*
X0028324Y0207112D02*
X0029610Y0205206D01*
X0031663Y0207486D02*
X0029632Y0208565D01*
X0030187Y0209608D02*
X0032217Y0208528D01*
X0029565Y0210836D02*
X0027518Y0210836D01*
X0027518Y0213356D01*
X0029565Y0213356D01*
X0027518Y0213356D02*
X0025510Y0213356D01*
X0025510Y0215364D01*
X0022990Y0215364D02*
X0022990Y0213356D01*
X0020982Y0213356D01*
X0019722Y0207529D02*
X0019830Y0207425D01*
X0019941Y0207323D01*
X0020053Y0207223D01*
X0020168Y0207127D01*
X0020286Y0207033D01*
X0020405Y0206942D01*
X0020527Y0206853D01*
X0020650Y0206768D01*
X0020775Y0206685D01*
X0020903Y0206605D01*
X0021032Y0206529D01*
X0021163Y0206455D01*
X0021296Y0206384D01*
X0021301Y0206374D02*
X0020440Y0204242D01*
X0019719Y0207523D02*
X0016196Y0204567D01*
X0015431Y0205482D02*
X0018974Y0208434D01*
X0022990Y0208828D02*
X0022990Y0206781D01*
X0025510Y0208828D02*
X0025510Y0210836D01*
X0027518Y0210836D01*
X0029610Y0205206D02*
X0029453Y0205087D01*
X0029294Y0204971D01*
X0029132Y0204859D01*
X0028967Y0204751D01*
X0028800Y0204647D01*
X0028631Y0204546D01*
X0031663Y0207485D02*
X0031765Y0207653D01*
X0031863Y0207824D01*
X0031958Y0207997D01*
X0032048Y0208172D01*
X0032135Y0208349D01*
X0032217Y0208528D01*
X0029610Y0218986D02*
X0029453Y0219105D01*
X0029294Y0219221D01*
X0029132Y0219333D01*
X0028967Y0219441D01*
X0028800Y0219545D01*
X0028631Y0219646D01*
X0025748Y0220695D02*
X0025748Y0220696D01*
X0031663Y0216706D02*
X0031765Y0216538D01*
X0031863Y0216367D01*
X0031958Y0216194D01*
X0032048Y0216019D01*
X0032135Y0215842D01*
X0032217Y0215663D01*
X0016196Y0219625D02*
X0016037Y0219450D01*
X0015881Y0219273D01*
X0015729Y0219092D01*
X0015581Y0218907D01*
X0015437Y0218720D01*
X0019722Y0216663D02*
X0019830Y0216767D01*
X0019941Y0216869D01*
X0020053Y0216969D01*
X0020168Y0217065D01*
X0020286Y0217159D01*
X0020405Y0217250D01*
X0020527Y0217339D01*
X0020650Y0217424D01*
X0020775Y0217507D01*
X0020903Y0217587D01*
X0021032Y0217663D01*
X0021163Y0217737D01*
X0021296Y0217808D01*
X0029631Y0208561D02*
X0029545Y0208434D01*
X0029457Y0208310D01*
X0029366Y0208188D01*
X0029272Y0208067D01*
X0029175Y0207949D01*
X0029075Y0207834D01*
X0028973Y0207721D01*
X0028868Y0207610D01*
X0028760Y0207502D01*
X0028650Y0207396D01*
X0028537Y0207293D01*
X0028422Y0207193D01*
X0028305Y0207096D01*
X0016196Y0204567D02*
X0016037Y0204742D01*
X0015881Y0204919D01*
X0015729Y0205100D01*
X0015581Y0205285D01*
X0015437Y0205472D01*
X0025509Y0205797D02*
X0025658Y0205828D01*
X0025806Y0205863D01*
X0025953Y0205902D01*
X0026098Y0205944D01*
X0026243Y0205989D01*
X0026387Y0206038D01*
X0026530Y0206091D01*
X0026671Y0206146D01*
X0026811Y0206205D01*
X0026950Y0206267D01*
X0027087Y0206333D01*
X0027222Y0206401D01*
X0027356Y0206473D01*
X0029631Y0215630D02*
X0029545Y0215757D01*
X0029457Y0215881D01*
X0029366Y0216003D01*
X0029272Y0216124D01*
X0029175Y0216242D01*
X0029075Y0216357D01*
X0028973Y0216470D01*
X0028868Y0216581D01*
X0028760Y0216689D01*
X0028650Y0216795D01*
X0028537Y0216898D01*
X0028422Y0216998D01*
X0028305Y0217095D01*
X0030665Y0211505D02*
X0030649Y0211356D01*
X0030630Y0211207D01*
X0030608Y0211058D01*
X0030582Y0210910D01*
X0030552Y0210762D01*
X0030520Y0210616D01*
X0030483Y0210470D01*
X0030444Y0210325D01*
X0030401Y0210180D01*
X0030354Y0210037D01*
X0030304Y0209895D01*
X0030251Y0209755D01*
X0030195Y0209615D01*
X0030665Y0212686D02*
X0030649Y0212835D01*
X0030630Y0212984D01*
X0030608Y0213133D01*
X0030582Y0213281D01*
X0030552Y0213429D01*
X0030520Y0213575D01*
X0030483Y0213721D01*
X0030444Y0213866D01*
X0030401Y0214011D01*
X0030354Y0214154D01*
X0030304Y0214296D01*
X0030251Y0214436D01*
X0030195Y0214576D01*
X0018778Y0212096D02*
X0018780Y0212244D01*
X0018786Y0212391D01*
X0018796Y0212538D01*
X0018810Y0212685D01*
X0018828Y0212832D01*
X0018849Y0212978D01*
X0018875Y0213123D01*
X0018905Y0213267D01*
X0018938Y0213411D01*
X0018976Y0213554D01*
X0019017Y0213695D01*
X0019062Y0213836D01*
X0019111Y0213975D01*
X0019163Y0214113D01*
X0019220Y0214250D01*
X0019279Y0214384D01*
X0019343Y0214518D01*
X0019410Y0214649D01*
X0019481Y0214779D01*
X0019555Y0214906D01*
X0019632Y0215032D01*
X0019713Y0215155D01*
X0019797Y0215276D01*
X0019885Y0215395D01*
X0019975Y0215512D01*
X0020069Y0215626D01*
X0020165Y0215737D01*
X0020265Y0215846D01*
X0020368Y0215952D01*
X0020473Y0216056D01*
X0020581Y0216156D01*
X0020692Y0216253D01*
X0020805Y0216348D01*
X0020921Y0216439D01*
X0021040Y0216527D01*
X0021160Y0216612D01*
X0021283Y0216694D01*
X0021408Y0216772D01*
X0021535Y0216847D01*
X0021664Y0216919D01*
X0021795Y0216987D01*
X0021928Y0217051D01*
X0022063Y0217112D01*
X0022199Y0217169D01*
X0022336Y0217222D01*
X0022475Y0217272D01*
X0022615Y0217318D01*
X0022757Y0217360D01*
X0022899Y0217399D01*
X0023043Y0217433D01*
X0023187Y0217464D01*
X0023332Y0217490D01*
X0023478Y0217513D01*
X0023624Y0217532D01*
X0023771Y0217547D01*
X0023918Y0217558D01*
X0024066Y0217565D01*
X0024213Y0217568D01*
X0024361Y0217567D01*
X0024508Y0217562D01*
X0024655Y0217553D01*
X0024802Y0217540D01*
X0024949Y0217523D01*
X0025095Y0217502D01*
X0025241Y0217478D01*
X0025385Y0217449D01*
X0025529Y0217416D01*
X0025672Y0217380D01*
X0025814Y0217340D01*
X0025955Y0217296D01*
X0026095Y0217248D01*
X0026233Y0217196D01*
X0026370Y0217141D01*
X0026505Y0217082D01*
X0026638Y0217019D01*
X0026770Y0216953D01*
X0026900Y0216883D01*
X0027028Y0216810D01*
X0027155Y0216733D01*
X0027279Y0216653D01*
X0027400Y0216570D01*
X0027520Y0216484D01*
X0027637Y0216394D01*
X0027752Y0216301D01*
X0027864Y0216205D01*
X0027973Y0216106D01*
X0028080Y0216004D01*
X0028184Y0215900D01*
X0028285Y0215792D01*
X0028383Y0215682D01*
X0028478Y0215569D01*
X0028571Y0215454D01*
X0028660Y0215336D01*
X0028745Y0215216D01*
X0028828Y0215094D01*
X0028907Y0214969D01*
X0028983Y0214843D01*
X0029055Y0214714D01*
X0029124Y0214584D01*
X0029189Y0214451D01*
X0029251Y0214317D01*
X0029309Y0214182D01*
X0029363Y0214044D01*
X0029414Y0213906D01*
X0029461Y0213766D01*
X0029504Y0213625D01*
X0029543Y0213483D01*
X0029579Y0213339D01*
X0029610Y0213195D01*
X0029638Y0213050D01*
X0029662Y0212905D01*
X0029682Y0212758D01*
X0029698Y0212612D01*
X0029710Y0212465D01*
X0029718Y0212317D01*
X0029722Y0212170D01*
X0029722Y0212022D01*
X0029718Y0211875D01*
X0029710Y0211727D01*
X0029698Y0211580D01*
X0029682Y0211434D01*
X0029662Y0211287D01*
X0029638Y0211142D01*
X0029610Y0210997D01*
X0029579Y0210853D01*
X0029543Y0210709D01*
X0029504Y0210567D01*
X0029461Y0210426D01*
X0029414Y0210286D01*
X0029363Y0210148D01*
X0029309Y0210010D01*
X0029251Y0209875D01*
X0029189Y0209741D01*
X0029124Y0209608D01*
X0029055Y0209478D01*
X0028983Y0209349D01*
X0028907Y0209223D01*
X0028828Y0209098D01*
X0028745Y0208976D01*
X0028660Y0208856D01*
X0028571Y0208738D01*
X0028478Y0208623D01*
X0028383Y0208510D01*
X0028285Y0208400D01*
X0028184Y0208292D01*
X0028080Y0208188D01*
X0027973Y0208086D01*
X0027864Y0207987D01*
X0027752Y0207891D01*
X0027637Y0207798D01*
X0027520Y0207708D01*
X0027400Y0207622D01*
X0027279Y0207539D01*
X0027155Y0207459D01*
X0027028Y0207382D01*
X0026900Y0207309D01*
X0026770Y0207239D01*
X0026638Y0207173D01*
X0026505Y0207110D01*
X0026370Y0207051D01*
X0026233Y0206996D01*
X0026095Y0206944D01*
X0025955Y0206896D01*
X0025814Y0206852D01*
X0025672Y0206812D01*
X0025529Y0206776D01*
X0025385Y0206743D01*
X0025241Y0206714D01*
X0025095Y0206690D01*
X0024949Y0206669D01*
X0024802Y0206652D01*
X0024655Y0206639D01*
X0024508Y0206630D01*
X0024361Y0206625D01*
X0024213Y0206624D01*
X0024066Y0206627D01*
X0023918Y0206634D01*
X0023771Y0206645D01*
X0023624Y0206660D01*
X0023478Y0206679D01*
X0023332Y0206702D01*
X0023187Y0206728D01*
X0023043Y0206759D01*
X0022899Y0206793D01*
X0022757Y0206832D01*
X0022615Y0206874D01*
X0022475Y0206920D01*
X0022336Y0206970D01*
X0022199Y0207023D01*
X0022063Y0207080D01*
X0021928Y0207141D01*
X0021795Y0207205D01*
X0021664Y0207273D01*
X0021535Y0207345D01*
X0021408Y0207420D01*
X0021283Y0207498D01*
X0021160Y0207580D01*
X0021040Y0207665D01*
X0020921Y0207753D01*
X0020805Y0207844D01*
X0020692Y0207939D01*
X0020581Y0208036D01*
X0020473Y0208136D01*
X0020368Y0208240D01*
X0020265Y0208346D01*
X0020165Y0208455D01*
X0020069Y0208566D01*
X0019975Y0208680D01*
X0019885Y0208797D01*
X0019797Y0208916D01*
X0019713Y0209037D01*
X0019632Y0209160D01*
X0019555Y0209286D01*
X0019481Y0209413D01*
X0019410Y0209543D01*
X0019343Y0209674D01*
X0019279Y0209808D01*
X0019220Y0209942D01*
X0019163Y0210079D01*
X0019111Y0210217D01*
X0019062Y0210356D01*
X0019017Y0210497D01*
X0018976Y0210638D01*
X0018938Y0210781D01*
X0018905Y0210925D01*
X0018875Y0211069D01*
X0018849Y0211214D01*
X0018828Y0211360D01*
X0018810Y0211507D01*
X0018796Y0211654D01*
X0018786Y0211801D01*
X0018780Y0211948D01*
X0018778Y0212096D01*
X0025509Y0218395D02*
X0025658Y0218364D01*
X0025806Y0218329D01*
X0025953Y0218290D01*
X0026098Y0218248D01*
X0026243Y0218203D01*
X0026387Y0218154D01*
X0026530Y0218101D01*
X0026671Y0218046D01*
X0026811Y0217987D01*
X0026950Y0217925D01*
X0027087Y0217859D01*
X0027222Y0217791D01*
X0027356Y0217719D01*
X0018974Y0215758D02*
X0018885Y0215626D01*
X0018799Y0215492D01*
X0018717Y0215356D01*
X0018638Y0215218D01*
X0018562Y0215078D01*
X0018490Y0214936D01*
X0018422Y0214793D01*
X0018357Y0214648D01*
X0018295Y0214501D01*
X0018238Y0214353D01*
X0018184Y0214203D01*
X0018133Y0214052D01*
X0018087Y0213900D01*
X0018044Y0213747D01*
X0018005Y0213593D01*
X0017970Y0213438D01*
X0017938Y0213282D01*
X0017911Y0213125D01*
X0017887Y0212968D01*
X0017868Y0212810D01*
X0017852Y0212652D01*
X0017840Y0212493D01*
X0017832Y0212334D01*
X0017828Y0212176D01*
X0017828Y0212016D01*
X0017832Y0211858D01*
X0017840Y0211699D01*
X0017852Y0211540D01*
X0017868Y0211382D01*
X0017887Y0211224D01*
X0017911Y0211067D01*
X0017938Y0210910D01*
X0017970Y0210754D01*
X0018005Y0210599D01*
X0018044Y0210445D01*
X0018087Y0210292D01*
X0018133Y0210140D01*
X0018184Y0209989D01*
X0018238Y0209839D01*
X0018295Y0209691D01*
X0018357Y0209544D01*
X0018422Y0209399D01*
X0018490Y0209256D01*
X0018562Y0209114D01*
X0018638Y0208974D01*
X0018717Y0208836D01*
X0018799Y0208700D01*
X0018885Y0208566D01*
X0018974Y0208434D01*
X0022400Y0205915D02*
X0022544Y0205874D01*
X0022690Y0205835D01*
X0022836Y0205801D01*
X0022983Y0205770D01*
X0023131Y0205742D01*
X0023279Y0205717D01*
X0023428Y0205697D01*
X0023577Y0205679D01*
X0023727Y0205665D01*
X0023877Y0205655D01*
X0024027Y0205648D01*
X0024177Y0205644D01*
X0024327Y0205644D01*
X0022400Y0218277D02*
X0022544Y0218319D01*
X0022690Y0218357D01*
X0022836Y0218391D01*
X0022984Y0218422D01*
X0023131Y0218450D01*
X0023280Y0218475D01*
X0023429Y0218496D01*
X0023578Y0218513D01*
X0023728Y0218527D01*
X0023878Y0218537D01*
X0024029Y0218544D01*
X0024179Y0218548D01*
X0024329Y0218548D01*
D20*
X0016350Y0154596D03*
D21*
X0017100Y0155346D03*
X0017100Y0153846D03*
D22*
X0015550Y0154596D03*
D23*
X0198187Y0063533D03*
D24*
X0336750Y0067096D02*
X0336750Y0058592D01*
X0343750Y0058592D01*
X0366750Y0058592D02*
X0396750Y0058592D01*
X0396750Y0095600D01*
X0396750Y0097096D02*
X0336750Y0097096D01*
X0336750Y0087096D01*
M02*
