G75*
%MOIN*%
%OFA0B0*%
%FSLAX25Y25*%
%IPPOS*%
%LPD*%
%AMOC8*
5,1,8,0,0,1.08239X$1,22.5*
%
%ADD10C,0.01600*%
%ADD11C,0.00000*%
%ADD12R,0.15024X0.15024*%
%ADD13R,0.07087X0.07087*%
%ADD14R,0.06000X0.06000*%
%ADD15C,0.06000*%
%ADD16C,0.05118*%
%ADD17C,0.05400*%
%ADD18OC8,0.05400*%
%ADD19C,0.04724*%
%ADD20OC8,0.18173*%
%ADD21OC8,0.16598*%
%ADD22C,0.07400*%
%ADD23C,0.05400*%
%ADD24R,0.02400X0.02400*%
%ADD25R,0.03562X0.03562*%
%ADD26R,0.03169X0.03169*%
%ADD27R,0.04134X0.04134*%
%ADD28R,0.04724X0.04724*%
%ADD29C,0.05600*%
%ADD30C,0.05000*%
D10*
X0004250Y0004596D02*
X0394250Y0004596D01*
X0394250Y0254596D01*
X0004250Y0254596D01*
X0004250Y0004596D01*
X0006850Y0007196D02*
X0006850Y0251996D01*
X0391650Y0251996D01*
X0391650Y0007196D01*
X0343218Y0007196D01*
X0343834Y0008684D01*
X0343834Y0066225D01*
X0347316Y0066225D01*
X0353684Y0072593D01*
X0353684Y0081599D01*
X0347316Y0087967D01*
X0343534Y0087967D01*
X0343534Y0102948D01*
X0342882Y0104523D01*
X0341677Y0105728D01*
X0340102Y0106380D01*
X0298534Y0106380D01*
X0298534Y0149270D01*
X0299578Y0150313D01*
X0299578Y0158878D01*
X0298532Y0159923D01*
X0289968Y0159923D01*
X0288922Y0158878D01*
X0288922Y0150313D01*
X0289966Y0149270D01*
X0289966Y0101244D01*
X0290618Y0099669D01*
X0291789Y0098498D01*
X0290527Y0098498D01*
X0289481Y0097453D01*
X0289481Y0080951D01*
X0290527Y0079906D01*
X0307028Y0079906D01*
X0308074Y0080951D01*
X0308074Y0097453D01*
X0307715Y0097812D01*
X0334966Y0097812D01*
X0334966Y0084622D01*
X0331942Y0081599D01*
X0331942Y0072593D01*
X0334666Y0069869D01*
X0334666Y0014180D01*
X0036334Y0014180D01*
X0036334Y0050012D01*
X0051078Y0050012D01*
X0051143Y0049946D01*
X0053159Y0049112D01*
X0055341Y0049112D01*
X0057357Y0049946D01*
X0057422Y0050012D01*
X0106078Y0050012D01*
X0106143Y0049946D01*
X0108159Y0049112D01*
X0110341Y0049112D01*
X0112357Y0049946D01*
X0113899Y0051489D01*
X0114166Y0052132D01*
X0114166Y0045907D01*
X0114198Y0045830D01*
X0066589Y0045830D01*
X0066189Y0046230D01*
X0062311Y0046230D01*
X0061266Y0045185D01*
X0061266Y0042655D01*
X0041236Y0042655D01*
X0040286Y0042262D01*
X0039559Y0041535D01*
X0039166Y0040585D01*
X0039166Y0031053D01*
X0037948Y0029836D01*
X0037266Y0028188D01*
X0037266Y0021004D01*
X0037948Y0019356D01*
X0039210Y0018094D01*
X0040858Y0017412D01*
X0042642Y0017412D01*
X0044290Y0018094D01*
X0045552Y0019356D01*
X0046234Y0021004D01*
X0046234Y0028188D01*
X0045552Y0029836D01*
X0044334Y0031053D01*
X0044334Y0037487D01*
X0076666Y0037487D01*
X0076666Y0031053D01*
X0075448Y0029836D01*
X0074766Y0028188D01*
X0074766Y0021004D01*
X0075448Y0019356D01*
X0076710Y0018094D01*
X0078358Y0017412D01*
X0080142Y0017412D01*
X0081790Y0018094D01*
X0083052Y0019356D01*
X0083734Y0021004D01*
X0083734Y0028188D01*
X0083052Y0029836D01*
X0081834Y0031053D01*
X0081834Y0034512D01*
X0167939Y0034512D01*
X0168889Y0034905D01*
X0169616Y0035632D01*
X0170009Y0036582D01*
X0170009Y0083412D01*
X0237439Y0083412D01*
X0238389Y0083805D01*
X0239116Y0084532D01*
X0239509Y0085482D01*
X0239509Y0145132D01*
X0239534Y0145157D01*
X0239534Y0149035D01*
X0238489Y0150080D01*
X0227639Y0150080D01*
X0227589Y0150130D01*
X0223711Y0150130D01*
X0223661Y0150080D01*
X0219811Y0150080D01*
X0218766Y0149035D01*
X0218766Y0145157D01*
X0219166Y0144757D01*
X0219166Y0101980D01*
X0199734Y0101980D01*
X0199734Y0108360D01*
X0198689Y0109405D01*
X0194811Y0109405D01*
X0194511Y0109105D01*
X0190434Y0109105D01*
X0190434Y0135072D01*
X0190519Y0135157D01*
X0190519Y0139035D01*
X0189474Y0140080D01*
X0185596Y0140080D01*
X0184551Y0139035D01*
X0184551Y0135157D01*
X0185266Y0134442D01*
X0185266Y0112580D01*
X0184811Y0112580D01*
X0183766Y0111535D01*
X0183766Y0109105D01*
X0141236Y0109105D01*
X0140286Y0108712D01*
X0139559Y0107985D01*
X0139334Y0107442D01*
X0139334Y0126707D01*
X0139734Y0127107D01*
X0139734Y0130985D01*
X0138689Y0132030D01*
X0134811Y0132030D01*
X0134411Y0131630D01*
X0119089Y0131630D01*
X0118689Y0132030D01*
X0114811Y0132030D01*
X0114411Y0131630D01*
X0093964Y0131630D01*
X0093689Y0131905D01*
X0090484Y0131905D01*
X0090484Y0139512D01*
X0121911Y0139512D01*
X0122311Y0139112D01*
X0126189Y0139112D01*
X0127234Y0140157D01*
X0127234Y0144035D01*
X0126189Y0145080D01*
X0122311Y0145080D01*
X0121911Y0144680D01*
X0087386Y0144680D01*
X0086436Y0144287D01*
X0085709Y0143560D01*
X0085316Y0142610D01*
X0085316Y0086935D01*
X0084916Y0086535D01*
X0084916Y0082657D01*
X0085961Y0081612D01*
X0089839Y0081612D01*
X0090884Y0082657D01*
X0090884Y0086535D01*
X0090484Y0086935D01*
X0090484Y0125937D01*
X0093689Y0125937D01*
X0094214Y0126462D01*
X0114411Y0126462D01*
X0114686Y0126186D01*
X0114559Y0126060D01*
X0114166Y0125110D01*
X0114166Y0109680D01*
X0107780Y0109680D01*
X0108761Y0110086D01*
X0109760Y0111085D01*
X0110300Y0112390D01*
X0110300Y0113802D01*
X0109760Y0115107D01*
X0108761Y0116105D01*
X0107456Y0116646D01*
X0106044Y0116646D01*
X0104739Y0116105D01*
X0103740Y0115107D01*
X0103200Y0113802D01*
X0103200Y0112390D01*
X0103740Y0111085D01*
X0104739Y0110086D01*
X0105720Y0109680D01*
X0103736Y0109680D01*
X0102786Y0109287D01*
X0102059Y0108560D01*
X0101666Y0107610D01*
X0101666Y0099435D01*
X0101266Y0099035D01*
X0101266Y0095157D01*
X0102311Y0094112D01*
X0106189Y0094112D01*
X0107234Y0095157D01*
X0107234Y0099035D01*
X0106834Y0099435D01*
X0106834Y0104512D01*
X0109242Y0104512D01*
X0108766Y0104035D01*
X0108766Y0100157D01*
X0109811Y0099112D01*
X0113689Y0099112D01*
X0114089Y0099512D01*
X0121666Y0099512D01*
X0121666Y0095907D01*
X0122059Y0094957D01*
X0122786Y0094230D01*
X0123736Y0093837D01*
X0139411Y0093837D01*
X0139811Y0093437D01*
X0143689Y0093437D01*
X0144734Y0094482D01*
X0144734Y0098360D01*
X0144334Y0098760D01*
X0144334Y0099588D01*
X0144811Y0099112D01*
X0148689Y0099112D01*
X0149564Y0099987D01*
X0156016Y0099987D01*
X0155998Y0099943D01*
X0155997Y0099926D01*
X0155991Y0099910D01*
X0155991Y0099413D01*
X0155348Y0049005D01*
X0119334Y0049005D01*
X0119334Y0071182D01*
X0119734Y0071582D01*
X0119734Y0075460D01*
X0118689Y0076505D01*
X0114811Y0076505D01*
X0113766Y0075460D01*
X0113766Y0071582D01*
X0114166Y0071182D01*
X0114166Y0067059D01*
X0113899Y0067702D01*
X0112357Y0069245D01*
X0110341Y0070080D01*
X0108159Y0070080D01*
X0106143Y0069245D01*
X0104601Y0067702D01*
X0103766Y0065687D01*
X0103766Y0063505D01*
X0104601Y0061489D01*
X0106143Y0059946D01*
X0106990Y0059596D01*
X0106143Y0059245D01*
X0106078Y0059180D01*
X0057422Y0059180D01*
X0057357Y0059245D01*
X0056510Y0059596D01*
X0057357Y0059946D01*
X0058899Y0061489D01*
X0059734Y0063505D01*
X0059734Y0065687D01*
X0058899Y0067702D01*
X0057357Y0069245D01*
X0055341Y0070080D01*
X0053159Y0070080D01*
X0051143Y0069245D01*
X0049601Y0067702D01*
X0048766Y0065687D01*
X0048766Y0063505D01*
X0049601Y0061489D01*
X0051143Y0059946D01*
X0051990Y0059596D01*
X0051143Y0059245D01*
X0051078Y0059180D01*
X0030838Y0059180D01*
X0029153Y0058482D01*
X0027864Y0057193D01*
X0027166Y0055508D01*
X0027166Y0021650D01*
X0026116Y0024184D01*
X0023838Y0026462D01*
X0020861Y0027695D01*
X0017639Y0027695D01*
X0014662Y0026462D01*
X0012384Y0024184D01*
X0011151Y0021207D01*
X0011151Y0017985D01*
X0012384Y0015008D01*
X0014662Y0012730D01*
X0017639Y0011497D01*
X0020861Y0011497D01*
X0023838Y0012730D01*
X0026116Y0015008D01*
X0027166Y0017542D01*
X0027166Y0008684D01*
X0027782Y0007196D01*
X0006850Y0007196D01*
X0006850Y0007793D02*
X0027535Y0007793D01*
X0027166Y0009391D02*
X0006850Y0009391D01*
X0006850Y0010990D02*
X0027166Y0010990D01*
X0027166Y0012588D02*
X0023497Y0012588D01*
X0025295Y0014187D02*
X0027166Y0014187D01*
X0027166Y0015785D02*
X0026438Y0015785D01*
X0027100Y0017384D02*
X0027166Y0017384D01*
X0027166Y0022179D02*
X0026946Y0022179D01*
X0027166Y0023778D02*
X0026284Y0023778D01*
X0027166Y0025376D02*
X0024923Y0025376D01*
X0027166Y0026975D02*
X0022599Y0026975D01*
X0027166Y0028573D02*
X0006850Y0028573D01*
X0006850Y0026975D02*
X0015901Y0026975D01*
X0013577Y0025376D02*
X0006850Y0025376D01*
X0006850Y0023778D02*
X0012216Y0023778D01*
X0011554Y0022179D02*
X0006850Y0022179D01*
X0006850Y0020581D02*
X0011151Y0020581D01*
X0011151Y0018982D02*
X0006850Y0018982D01*
X0006850Y0017384D02*
X0011400Y0017384D01*
X0012062Y0015785D02*
X0006850Y0015785D01*
X0006850Y0014187D02*
X0013205Y0014187D01*
X0015003Y0012588D02*
X0006850Y0012588D01*
X0006850Y0030172D02*
X0027166Y0030172D01*
X0027166Y0031770D02*
X0006850Y0031770D01*
X0006850Y0033369D02*
X0027166Y0033369D01*
X0027166Y0034968D02*
X0006850Y0034968D01*
X0006850Y0036566D02*
X0027166Y0036566D01*
X0027166Y0038165D02*
X0006850Y0038165D01*
X0006850Y0039763D02*
X0027166Y0039763D01*
X0027166Y0041362D02*
X0006850Y0041362D01*
X0006850Y0042960D02*
X0027166Y0042960D01*
X0027166Y0044559D02*
X0006850Y0044559D01*
X0006850Y0046157D02*
X0027166Y0046157D01*
X0027166Y0047756D02*
X0006850Y0047756D01*
X0006850Y0049354D02*
X0027166Y0049354D01*
X0027166Y0050953D02*
X0006850Y0050953D01*
X0006850Y0052551D02*
X0027166Y0052551D01*
X0027166Y0054150D02*
X0006850Y0054150D01*
X0006850Y0055748D02*
X0027265Y0055748D01*
X0028018Y0057347D02*
X0006850Y0057347D01*
X0006850Y0058945D02*
X0030271Y0058945D01*
X0036334Y0049354D02*
X0052573Y0049354D01*
X0055926Y0049354D02*
X0107573Y0049354D01*
X0110926Y0049354D02*
X0114166Y0049354D01*
X0114166Y0047756D02*
X0036334Y0047756D01*
X0036334Y0046157D02*
X0062238Y0046157D01*
X0061266Y0044559D02*
X0036334Y0044559D01*
X0036334Y0042960D02*
X0061266Y0042960D01*
X0064250Y0043246D02*
X0161075Y0043246D01*
X0161750Y0096196D01*
X0225650Y0096196D01*
X0225650Y0147146D01*
X0229250Y0147096D02*
X0229250Y0092771D01*
X0197900Y0092771D01*
X0199734Y0102105D02*
X0219166Y0102105D01*
X0219166Y0103703D02*
X0199734Y0103703D01*
X0199734Y0105302D02*
X0219166Y0105302D01*
X0219166Y0106901D02*
X0199734Y0106901D01*
X0199595Y0108499D02*
X0219166Y0108499D01*
X0219166Y0110098D02*
X0190434Y0110098D01*
X0190434Y0111696D02*
X0219166Y0111696D01*
X0219166Y0113295D02*
X0190434Y0113295D01*
X0190434Y0114893D02*
X0219166Y0114893D01*
X0219166Y0116492D02*
X0190434Y0116492D01*
X0190434Y0118090D02*
X0219166Y0118090D01*
X0219166Y0119689D02*
X0190434Y0119689D01*
X0190434Y0121287D02*
X0219166Y0121287D01*
X0219166Y0122886D02*
X0190434Y0122886D01*
X0190434Y0124484D02*
X0219166Y0124484D01*
X0219166Y0126083D02*
X0190434Y0126083D01*
X0190434Y0127681D02*
X0219166Y0127681D01*
X0219166Y0129280D02*
X0190434Y0129280D01*
X0190434Y0130878D02*
X0219166Y0130878D01*
X0219166Y0132477D02*
X0190434Y0132477D01*
X0190434Y0134075D02*
X0219166Y0134075D01*
X0219166Y0135674D02*
X0190519Y0135674D01*
X0190519Y0137272D02*
X0219166Y0137272D01*
X0219166Y0138871D02*
X0190519Y0138871D01*
X0187535Y0137096D02*
X0187535Y0135946D01*
X0187850Y0135946D01*
X0187850Y0109596D01*
X0186750Y0109596D01*
X0183766Y0110098D02*
X0139334Y0110098D01*
X0139334Y0111696D02*
X0183927Y0111696D01*
X0185266Y0113295D02*
X0139334Y0113295D01*
X0139334Y0114893D02*
X0185266Y0114893D01*
X0185266Y0116492D02*
X0139334Y0116492D01*
X0139334Y0118090D02*
X0185266Y0118090D01*
X0185266Y0119689D02*
X0139334Y0119689D01*
X0139334Y0121287D02*
X0185266Y0121287D01*
X0185266Y0122886D02*
X0139334Y0122886D01*
X0139334Y0124484D02*
X0185266Y0124484D01*
X0185266Y0126083D02*
X0139334Y0126083D01*
X0139734Y0127681D02*
X0185266Y0127681D01*
X0185266Y0129280D02*
X0139734Y0129280D01*
X0139734Y0130878D02*
X0185266Y0130878D01*
X0185266Y0132477D02*
X0090484Y0132477D01*
X0090484Y0134075D02*
X0185266Y0134075D01*
X0184551Y0135674D02*
X0090484Y0135674D01*
X0090484Y0137272D02*
X0184551Y0137272D01*
X0184551Y0138871D02*
X0090484Y0138871D01*
X0087900Y0142096D02*
X0124250Y0142096D01*
X0127234Y0142068D02*
X0219166Y0142068D01*
X0219166Y0143666D02*
X0127234Y0143666D01*
X0127234Y0140469D02*
X0219166Y0140469D01*
X0218766Y0145265D02*
X0049334Y0145265D01*
X0049334Y0146863D02*
X0218766Y0146863D01*
X0218766Y0148462D02*
X0049334Y0148462D01*
X0049334Y0150060D02*
X0219791Y0150060D01*
X0221750Y0147096D02*
X0221750Y0099396D01*
X0158575Y0099396D01*
X0157900Y0046421D01*
X0116750Y0046421D01*
X0116750Y0073521D01*
X0119734Y0073332D02*
X0155658Y0073332D01*
X0155679Y0074930D02*
X0119734Y0074930D01*
X0119734Y0071733D02*
X0155638Y0071733D01*
X0155618Y0070135D02*
X0119334Y0070135D01*
X0119334Y0068536D02*
X0155597Y0068536D01*
X0155577Y0066938D02*
X0119334Y0066938D01*
X0119334Y0065339D02*
X0155557Y0065339D01*
X0155536Y0063741D02*
X0119334Y0063741D01*
X0119334Y0062142D02*
X0155516Y0062142D01*
X0155495Y0060544D02*
X0119334Y0060544D01*
X0119334Y0058945D02*
X0155475Y0058945D01*
X0155455Y0057347D02*
X0119334Y0057347D01*
X0119334Y0055748D02*
X0155434Y0055748D01*
X0155414Y0054150D02*
X0119334Y0054150D01*
X0119334Y0052551D02*
X0155394Y0052551D01*
X0155373Y0050953D02*
X0119334Y0050953D01*
X0119334Y0049354D02*
X0155353Y0049354D01*
X0164250Y0040071D02*
X0041750Y0040071D01*
X0041750Y0024596D01*
X0046234Y0025376D02*
X0047250Y0025376D01*
X0047250Y0024696D02*
X0047250Y0027650D01*
X0047361Y0028350D01*
X0047580Y0029023D01*
X0047901Y0029654D01*
X0048318Y0030227D01*
X0048818Y0030728D01*
X0049391Y0031145D01*
X0050023Y0031466D01*
X0050696Y0031685D01*
X0051396Y0031796D01*
X0051650Y0031796D01*
X0051650Y0024696D01*
X0051850Y0024696D01*
X0051850Y0031796D01*
X0052104Y0031796D01*
X0052804Y0031685D01*
X0053477Y0031466D01*
X0054109Y0031145D01*
X0054682Y0030728D01*
X0055182Y0030227D01*
X0055599Y0029654D01*
X0055920Y0029023D01*
X0056139Y0028350D01*
X0056250Y0027650D01*
X0056250Y0024696D01*
X0051850Y0024696D01*
X0051850Y0024496D01*
X0056250Y0024496D01*
X0056250Y0021542D01*
X0056139Y0020842D01*
X0055920Y0020168D01*
X0055599Y0019537D01*
X0055182Y0018964D01*
X0054682Y0018463D01*
X0054109Y0018047D01*
X0053477Y0017725D01*
X0052804Y0017507D01*
X0052104Y0017396D01*
X0051850Y0017396D01*
X0051850Y0024496D01*
X0051650Y0024496D01*
X0047250Y0024496D01*
X0047250Y0021542D01*
X0047361Y0020842D01*
X0047580Y0020168D01*
X0047901Y0019537D01*
X0048318Y0018964D01*
X0048818Y0018463D01*
X0049391Y0018047D01*
X0050023Y0017725D01*
X0050696Y0017507D01*
X0051396Y0017396D01*
X0051650Y0017396D01*
X0051650Y0024496D01*
X0051650Y0024696D01*
X0047250Y0024696D01*
X0047250Y0023778D02*
X0046234Y0023778D01*
X0046234Y0022179D02*
X0047250Y0022179D01*
X0047446Y0020581D02*
X0046059Y0020581D01*
X0045178Y0018982D02*
X0048304Y0018982D01*
X0051650Y0018982D02*
X0051850Y0018982D01*
X0051850Y0020581D02*
X0051650Y0020581D01*
X0051650Y0022179D02*
X0051850Y0022179D01*
X0051850Y0023778D02*
X0051650Y0023778D01*
X0051650Y0025376D02*
X0051850Y0025376D01*
X0051850Y0026975D02*
X0051650Y0026975D01*
X0051650Y0028573D02*
X0051850Y0028573D01*
X0051850Y0030172D02*
X0051650Y0030172D01*
X0051650Y0031770D02*
X0051850Y0031770D01*
X0052264Y0031770D02*
X0060835Y0031770D01*
X0060858Y0031780D02*
X0059210Y0031097D01*
X0057948Y0029836D01*
X0057266Y0028188D01*
X0057266Y0021004D01*
X0057948Y0019356D01*
X0059210Y0018094D01*
X0060858Y0017412D01*
X0062642Y0017412D01*
X0064290Y0018094D01*
X0065552Y0019356D01*
X0066234Y0021004D01*
X0066234Y0028188D01*
X0065552Y0029836D01*
X0064290Y0031097D01*
X0062642Y0031780D01*
X0060858Y0031780D01*
X0062665Y0031770D02*
X0076666Y0031770D01*
X0076666Y0033369D02*
X0044334Y0033369D01*
X0044334Y0031770D02*
X0051236Y0031770D01*
X0048277Y0030172D02*
X0045215Y0030172D01*
X0046074Y0028573D02*
X0047434Y0028573D01*
X0047250Y0026975D02*
X0046234Y0026975D01*
X0039166Y0031770D02*
X0036334Y0031770D01*
X0036334Y0030172D02*
X0038284Y0030172D01*
X0037426Y0028573D02*
X0036334Y0028573D01*
X0036334Y0026975D02*
X0037266Y0026975D01*
X0037266Y0025376D02*
X0036334Y0025376D01*
X0036334Y0023778D02*
X0037266Y0023778D01*
X0037266Y0022179D02*
X0036334Y0022179D01*
X0036334Y0020581D02*
X0037441Y0020581D01*
X0038322Y0018982D02*
X0036334Y0018982D01*
X0036334Y0017384D02*
X0334666Y0017384D01*
X0334666Y0018982D02*
X0102678Y0018982D01*
X0103052Y0019356D02*
X0103734Y0021004D01*
X0103734Y0022012D01*
X0187264Y0022012D01*
X0188214Y0022405D01*
X0188941Y0023132D01*
X0189334Y0024082D01*
X0189334Y0077257D01*
X0189734Y0077657D01*
X0189734Y0081535D01*
X0188689Y0082580D01*
X0184811Y0082580D01*
X0183766Y0081535D01*
X0183766Y0077657D01*
X0184166Y0077257D01*
X0184166Y0027180D01*
X0103734Y0027180D01*
X0103734Y0028188D01*
X0103052Y0029836D01*
X0101790Y0031097D01*
X0100142Y0031780D01*
X0098358Y0031780D01*
X0096710Y0031097D01*
X0095448Y0029836D01*
X0094766Y0028188D01*
X0094766Y0021004D01*
X0095448Y0019356D01*
X0096710Y0018094D01*
X0098358Y0017412D01*
X0100142Y0017412D01*
X0101790Y0018094D01*
X0103052Y0019356D01*
X0103559Y0020581D02*
X0334666Y0020581D01*
X0334666Y0022179D02*
X0187669Y0022179D01*
X0189208Y0023778D02*
X0334666Y0023778D01*
X0334666Y0025376D02*
X0189334Y0025376D01*
X0189334Y0026975D02*
X0334666Y0026975D01*
X0334666Y0028573D02*
X0189334Y0028573D01*
X0189334Y0030172D02*
X0334666Y0030172D01*
X0334666Y0031770D02*
X0308074Y0031770D01*
X0308074Y0031739D02*
X0308074Y0048240D01*
X0307028Y0049286D01*
X0290527Y0049286D01*
X0289481Y0048240D01*
X0289481Y0031739D01*
X0290527Y0030693D01*
X0307028Y0030693D01*
X0308074Y0031739D01*
X0308074Y0033369D02*
X0334666Y0033369D01*
X0334666Y0034968D02*
X0308074Y0034968D01*
X0308074Y0036566D02*
X0334666Y0036566D01*
X0334666Y0038165D02*
X0308074Y0038165D01*
X0308074Y0039763D02*
X0334666Y0039763D01*
X0334666Y0041362D02*
X0308074Y0041362D01*
X0308074Y0042960D02*
X0334666Y0042960D01*
X0334666Y0044559D02*
X0308074Y0044559D01*
X0308074Y0046157D02*
X0334666Y0046157D01*
X0334666Y0047756D02*
X0308074Y0047756D01*
X0320993Y0050973D02*
X0321116Y0050515D01*
X0321353Y0050105D01*
X0321688Y0049770D01*
X0322099Y0049533D01*
X0322556Y0049410D01*
X0325955Y0049410D01*
X0325955Y0054372D01*
X0320993Y0054372D01*
X0320993Y0050973D01*
X0320999Y0050953D02*
X0274588Y0050953D01*
X0274593Y0050973D02*
X0274593Y0054372D01*
X0269631Y0054372D01*
X0269631Y0049410D01*
X0273030Y0049410D01*
X0273488Y0049533D01*
X0273899Y0049770D01*
X0274234Y0050105D01*
X0274471Y0050515D01*
X0274593Y0050973D01*
X0274593Y0052551D02*
X0320993Y0052551D01*
X0320993Y0054150D02*
X0274593Y0054150D01*
X0274593Y0055134D02*
X0274593Y0058534D01*
X0274471Y0058991D01*
X0274234Y0059402D01*
X0273950Y0059686D01*
X0274578Y0060313D01*
X0274578Y0062012D01*
X0282264Y0062012D01*
X0283214Y0062405D01*
X0283941Y0063132D01*
X0284334Y0064082D01*
X0284334Y0072240D01*
X0284886Y0072012D01*
X0321009Y0072012D01*
X0321009Y0070156D01*
X0322054Y0069111D01*
X0330619Y0069111D01*
X0331664Y0070156D01*
X0331664Y0078721D01*
X0330619Y0079766D01*
X0322054Y0079766D01*
X0321009Y0078721D01*
X0321009Y0077180D01*
X0287984Y0077180D01*
X0287984Y0160110D01*
X0287591Y0161060D01*
X0286864Y0161787D01*
X0285914Y0162180D01*
X0165734Y0162180D01*
X0165734Y0163785D01*
X0164689Y0164830D01*
X0160811Y0164830D01*
X0159766Y0163785D01*
X0159766Y0159907D01*
X0160166Y0159507D01*
X0160166Y0159130D01*
X0150634Y0159130D01*
X0150634Y0171307D01*
X0151366Y0172038D01*
X0151366Y0170157D01*
X0152411Y0169112D01*
X0155166Y0169112D01*
X0155166Y0165807D01*
X0156211Y0164762D01*
X0160089Y0164762D01*
X0161134Y0165807D01*
X0161134Y0169685D01*
X0160734Y0170085D01*
X0160734Y0187012D01*
X0344166Y0187012D01*
X0344166Y0176582D01*
X0344559Y0175632D01*
X0345286Y0174905D01*
X0346236Y0174512D01*
X0365709Y0174512D01*
X0365950Y0174611D01*
X0365950Y0161764D01*
X0366419Y0161296D01*
X0382081Y0161296D01*
X0382550Y0161764D01*
X0382550Y0177427D01*
X0382081Y0177896D01*
X0367779Y0177896D01*
X0367779Y0184975D01*
X0368877Y0186073D01*
X0369538Y0187669D01*
X0369538Y0189397D01*
X0368877Y0190993D01*
X0367655Y0192215D01*
X0366886Y0192534D01*
X0367480Y0192836D01*
X0368035Y0193239D01*
X0368520Y0193725D01*
X0368923Y0194280D01*
X0369235Y0194891D01*
X0369447Y0195544D01*
X0369554Y0196221D01*
X0369554Y0196564D01*
X0365195Y0196564D01*
X0365195Y0196564D01*
X0360836Y0196564D01*
X0360836Y0196221D01*
X0360943Y0195544D01*
X0361155Y0194891D01*
X0361467Y0194280D01*
X0361870Y0193725D01*
X0362355Y0193239D01*
X0362910Y0192836D01*
X0363504Y0192534D01*
X0362735Y0192215D01*
X0361513Y0190993D01*
X0360852Y0189397D01*
X0360852Y0187669D01*
X0361513Y0186073D01*
X0362611Y0184975D01*
X0362611Y0179680D01*
X0349334Y0179680D01*
X0349334Y0190043D01*
X0351637Y0190043D01*
X0352735Y0188945D01*
X0353540Y0188612D01*
X0352735Y0188278D01*
X0351513Y0187056D01*
X0350852Y0185460D01*
X0350852Y0183732D01*
X0351513Y0182136D01*
X0352735Y0180914D01*
X0354331Y0180252D01*
X0356059Y0180252D01*
X0357655Y0180914D01*
X0358877Y0182136D01*
X0359538Y0183732D01*
X0359538Y0185460D01*
X0358877Y0187056D01*
X0357655Y0188278D01*
X0356850Y0188612D01*
X0357655Y0188945D01*
X0358877Y0190167D01*
X0359538Y0191763D01*
X0359538Y0193491D01*
X0358877Y0195088D01*
X0357655Y0196309D01*
X0356850Y0196643D01*
X0357655Y0196977D01*
X0358877Y0198198D01*
X0359538Y0199795D01*
X0359538Y0201523D01*
X0358877Y0203119D01*
X0357655Y0204341D01*
X0356059Y0205002D01*
X0354331Y0205002D01*
X0352735Y0204341D01*
X0351513Y0203119D01*
X0350852Y0201523D01*
X0350852Y0199795D01*
X0351513Y0198198D01*
X0352735Y0196977D01*
X0353540Y0196643D01*
X0352735Y0196309D01*
X0351637Y0195212D01*
X0153836Y0195212D01*
X0152886Y0194818D01*
X0152159Y0194091D01*
X0151766Y0193141D01*
X0151766Y0174435D01*
X0151484Y0174153D01*
X0151484Y0176035D01*
X0150439Y0177080D01*
X0146684Y0177080D01*
X0146684Y0179035D01*
X0145639Y0180080D01*
X0141761Y0180080D01*
X0140716Y0179035D01*
X0140716Y0175157D01*
X0141116Y0174757D01*
X0141116Y0153453D01*
X0141113Y0152945D01*
X0141116Y0152938D01*
X0141116Y0152932D01*
X0141310Y0152463D01*
X0141502Y0151993D01*
X0141507Y0151988D01*
X0141509Y0151982D01*
X0141868Y0151623D01*
X0142225Y0151262D01*
X0142231Y0151260D01*
X0142236Y0151255D01*
X0142705Y0151061D01*
X0143173Y0150864D01*
X0143180Y0150864D01*
X0143186Y0150862D01*
X0143692Y0150862D01*
X0275516Y0150199D01*
X0275516Y0076710D01*
X0274578Y0076781D01*
X0274578Y0078721D01*
X0273532Y0079766D01*
X0264968Y0079766D01*
X0263922Y0078721D01*
X0263922Y0070156D01*
X0264561Y0069517D01*
X0263922Y0068878D01*
X0263922Y0060313D01*
X0264550Y0059686D01*
X0264266Y0059402D01*
X0264029Y0058991D01*
X0263907Y0058534D01*
X0263907Y0055134D01*
X0268869Y0055134D01*
X0268869Y0054372D01*
X0269631Y0054372D01*
X0269631Y0055134D01*
X0274593Y0055134D01*
X0274593Y0055748D02*
X0320993Y0055748D01*
X0320993Y0055134D02*
X0325955Y0055134D01*
X0325955Y0054372D01*
X0326718Y0054372D01*
X0326718Y0055134D01*
X0331680Y0055134D01*
X0331680Y0058534D01*
X0331557Y0058991D01*
X0331320Y0059402D01*
X0330985Y0059737D01*
X0330575Y0059974D01*
X0330117Y0060097D01*
X0326718Y0060097D01*
X0326718Y0055134D01*
X0325955Y0055134D01*
X0325955Y0060097D01*
X0322556Y0060097D01*
X0322099Y0059974D01*
X0321688Y0059737D01*
X0321353Y0059402D01*
X0321116Y0058991D01*
X0320993Y0058534D01*
X0320993Y0055134D01*
X0320993Y0057347D02*
X0274593Y0057347D01*
X0274483Y0058945D02*
X0321104Y0058945D01*
X0325955Y0058945D02*
X0326718Y0058945D01*
X0326718Y0057347D02*
X0325955Y0057347D01*
X0325955Y0055748D02*
X0326718Y0055748D01*
X0326718Y0054372D02*
X0331680Y0054372D01*
X0331680Y0050973D01*
X0331557Y0050515D01*
X0331320Y0050105D01*
X0330985Y0049770D01*
X0330575Y0049533D01*
X0330117Y0049410D01*
X0326718Y0049410D01*
X0326718Y0054372D01*
X0326718Y0054150D02*
X0325955Y0054150D01*
X0325955Y0052551D02*
X0326718Y0052551D01*
X0326718Y0050953D02*
X0325955Y0050953D01*
X0331674Y0050953D02*
X0334666Y0050953D01*
X0334666Y0052551D02*
X0331680Y0052551D01*
X0331680Y0054150D02*
X0334666Y0054150D01*
X0334666Y0055748D02*
X0331680Y0055748D01*
X0331680Y0057347D02*
X0334666Y0057347D01*
X0334666Y0058945D02*
X0331570Y0058945D01*
X0334666Y0060544D02*
X0274578Y0060544D01*
X0269250Y0064596D02*
X0281750Y0064596D01*
X0281750Y0156546D01*
X0148050Y0156546D01*
X0148050Y0174096D01*
X0148500Y0174096D01*
X0151484Y0175637D02*
X0151766Y0175637D01*
X0151766Y0177235D02*
X0146684Y0177235D01*
X0146684Y0178834D02*
X0151766Y0178834D01*
X0151766Y0180432D02*
X0024334Y0180432D01*
X0024334Y0178834D02*
X0029624Y0178834D01*
X0029886Y0179096D02*
X0027250Y0176460D01*
X0027250Y0174696D01*
X0031650Y0174696D01*
X0031650Y0179096D01*
X0029886Y0179096D01*
X0031650Y0178834D02*
X0031850Y0178834D01*
X0031850Y0179096D02*
X0031850Y0174696D01*
X0031650Y0174696D01*
X0031650Y0174496D01*
X0027250Y0174496D01*
X0027250Y0172732D01*
X0029886Y0170096D01*
X0031650Y0170096D01*
X0031650Y0174496D01*
X0031850Y0174496D01*
X0031850Y0174696D01*
X0036250Y0174696D01*
X0036250Y0176460D01*
X0033614Y0179096D01*
X0031850Y0179096D01*
X0031850Y0177235D02*
X0031650Y0177235D01*
X0031650Y0175637D02*
X0031850Y0175637D01*
X0031850Y0174496D02*
X0036250Y0174496D01*
X0036250Y0172732D01*
X0033614Y0170096D01*
X0031850Y0170096D01*
X0031850Y0174496D01*
X0031850Y0174038D02*
X0031650Y0174038D01*
X0031650Y0172439D02*
X0031850Y0172439D01*
X0031850Y0170841D02*
X0031650Y0170841D01*
X0029893Y0169080D02*
X0027266Y0166453D01*
X0027266Y0162738D01*
X0029893Y0160112D01*
X0033607Y0160112D01*
X0035507Y0162012D01*
X0044166Y0162012D01*
X0044166Y0131260D01*
X0043766Y0130860D01*
X0043766Y0126982D01*
X0044811Y0125937D01*
X0048689Y0125937D01*
X0049734Y0126982D01*
X0049734Y0130860D01*
X0049334Y0131260D01*
X0049334Y0162257D01*
X0049734Y0162657D01*
X0049734Y0166535D01*
X0048689Y0167580D01*
X0044811Y0167580D01*
X0044411Y0167180D01*
X0035507Y0167180D01*
X0033607Y0169080D01*
X0029893Y0169080D01*
X0029141Y0170841D02*
X0024337Y0170841D01*
X0023607Y0170112D02*
X0026234Y0172738D01*
X0026234Y0176453D01*
X0024334Y0178353D01*
X0024334Y0184512D01*
X0066911Y0184512D01*
X0067311Y0184112D01*
X0071189Y0184112D01*
X0072234Y0185157D01*
X0072234Y0189035D01*
X0071189Y0190080D01*
X0067311Y0190080D01*
X0066911Y0189680D01*
X0022264Y0189680D01*
X0021236Y0189680D01*
X0020286Y0189287D01*
X0019559Y0188560D01*
X0019166Y0187610D01*
X0019166Y0178353D01*
X0017266Y0176453D01*
X0017266Y0172738D01*
X0019893Y0170112D01*
X0023607Y0170112D01*
X0023607Y0169080D02*
X0019893Y0169080D01*
X0017266Y0166453D01*
X0017266Y0162738D01*
X0019893Y0160112D01*
X0023607Y0160112D01*
X0026234Y0162738D01*
X0026234Y0166453D01*
X0023607Y0169080D01*
X0025044Y0167644D02*
X0028456Y0167644D01*
X0027266Y0166045D02*
X0026234Y0166045D01*
X0026234Y0164447D02*
X0027266Y0164447D01*
X0027266Y0162848D02*
X0026234Y0162848D01*
X0024746Y0161250D02*
X0028754Y0161250D01*
X0029893Y0159080D02*
X0027266Y0156453D01*
X0027266Y0152738D01*
X0029893Y0150112D01*
X0033607Y0150112D01*
X0036234Y0152738D01*
X0036234Y0156453D01*
X0033607Y0159080D01*
X0029893Y0159080D01*
X0028865Y0158053D02*
X0024635Y0158053D01*
X0024290Y0158397D02*
X0022642Y0159080D01*
X0020858Y0159080D01*
X0019210Y0158397D01*
X0017948Y0157136D01*
X0017266Y0155488D01*
X0017266Y0153704D01*
X0017948Y0152056D01*
X0019210Y0150794D01*
X0020858Y0150112D01*
X0022642Y0150112D01*
X0024290Y0150794D01*
X0025552Y0152056D01*
X0026234Y0153704D01*
X0026234Y0155488D01*
X0025552Y0157136D01*
X0024290Y0158397D01*
X0025834Y0156454D02*
X0027267Y0156454D01*
X0027266Y0154856D02*
X0026234Y0154856D01*
X0026049Y0153257D02*
X0027266Y0153257D01*
X0028345Y0151659D02*
X0025155Y0151659D01*
X0018345Y0151659D02*
X0006850Y0151659D01*
X0006850Y0153257D02*
X0017451Y0153257D01*
X0017266Y0154856D02*
X0006850Y0154856D01*
X0006850Y0156454D02*
X0017666Y0156454D01*
X0018865Y0158053D02*
X0006850Y0158053D01*
X0006850Y0159651D02*
X0044166Y0159651D01*
X0044166Y0158053D02*
X0034635Y0158053D01*
X0036233Y0156454D02*
X0044166Y0156454D01*
X0044166Y0154856D02*
X0036234Y0154856D01*
X0036234Y0153257D02*
X0044166Y0153257D01*
X0044166Y0151659D02*
X0035155Y0151659D01*
X0044166Y0150060D02*
X0006850Y0150060D01*
X0006850Y0148462D02*
X0044166Y0148462D01*
X0044166Y0146863D02*
X0006850Y0146863D01*
X0006850Y0145265D02*
X0044166Y0145265D01*
X0044166Y0143666D02*
X0006850Y0143666D01*
X0006850Y0142068D02*
X0044166Y0142068D01*
X0044166Y0140469D02*
X0006850Y0140469D01*
X0006850Y0138871D02*
X0044166Y0138871D01*
X0044166Y0137272D02*
X0006850Y0137272D01*
X0006850Y0135674D02*
X0044166Y0135674D01*
X0044166Y0134075D02*
X0006850Y0134075D01*
X0006850Y0132477D02*
X0044166Y0132477D01*
X0043784Y0130878D02*
X0006850Y0130878D01*
X0006850Y0129280D02*
X0043766Y0129280D01*
X0043766Y0127681D02*
X0006850Y0127681D01*
X0006850Y0126083D02*
X0044665Y0126083D01*
X0046750Y0128921D02*
X0046750Y0164596D01*
X0031750Y0164596D01*
X0035044Y0167644D02*
X0141116Y0167644D01*
X0141116Y0169242D02*
X0006850Y0169242D01*
X0006850Y0167644D02*
X0018456Y0167644D01*
X0017266Y0166045D02*
X0006850Y0166045D01*
X0006850Y0164447D02*
X0017266Y0164447D01*
X0017266Y0162848D02*
X0006850Y0162848D01*
X0006850Y0161250D02*
X0018754Y0161250D01*
X0019163Y0170841D02*
X0006850Y0170841D01*
X0006850Y0172439D02*
X0017565Y0172439D01*
X0017266Y0174038D02*
X0006850Y0174038D01*
X0006850Y0175637D02*
X0017266Y0175637D01*
X0018048Y0177235D02*
X0006850Y0177235D01*
X0006850Y0178834D02*
X0019166Y0178834D01*
X0019166Y0180432D02*
X0006850Y0180432D01*
X0006850Y0182031D02*
X0019166Y0182031D01*
X0019166Y0183629D02*
X0006850Y0183629D01*
X0006850Y0185228D02*
X0019166Y0185228D01*
X0019166Y0186826D02*
X0006850Y0186826D01*
X0006850Y0188425D02*
X0019503Y0188425D01*
X0021750Y0187096D02*
X0021750Y0174596D01*
X0026234Y0174038D02*
X0027250Y0174038D01*
X0027250Y0175637D02*
X0026234Y0175637D01*
X0025452Y0177235D02*
X0028025Y0177235D01*
X0024334Y0182031D02*
X0151766Y0182031D01*
X0151766Y0183629D02*
X0024334Y0183629D01*
X0021750Y0187096D02*
X0069250Y0187096D01*
X0072234Y0186826D02*
X0151766Y0186826D01*
X0151766Y0185228D02*
X0072234Y0185228D01*
X0072234Y0188425D02*
X0151766Y0188425D01*
X0151766Y0190023D02*
X0071246Y0190023D01*
X0067254Y0190023D02*
X0006850Y0190023D01*
X0006850Y0191622D02*
X0151766Y0191622D01*
X0151798Y0193220D02*
X0006850Y0193220D01*
X0006850Y0194819D02*
X0152887Y0194819D01*
X0154350Y0192627D02*
X0154350Y0172096D01*
X0151366Y0170841D02*
X0150634Y0170841D01*
X0150634Y0169242D02*
X0152280Y0169242D01*
X0150634Y0167644D02*
X0155166Y0167644D01*
X0155166Y0166045D02*
X0150634Y0166045D01*
X0150634Y0164447D02*
X0160428Y0164447D01*
X0159766Y0162848D02*
X0150634Y0162848D01*
X0150634Y0161250D02*
X0159766Y0161250D01*
X0160021Y0159651D02*
X0150634Y0159651D01*
X0143700Y0153446D02*
X0278100Y0152771D01*
X0278100Y0073921D01*
X0269250Y0074596D01*
X0269250Y0074438D01*
X0263922Y0074930D02*
X0189334Y0074930D01*
X0189334Y0073332D02*
X0263922Y0073332D01*
X0263922Y0071733D02*
X0189334Y0071733D01*
X0189334Y0070135D02*
X0263944Y0070135D01*
X0263922Y0068536D02*
X0189334Y0068536D01*
X0189334Y0066938D02*
X0263922Y0066938D01*
X0263922Y0065339D02*
X0189334Y0065339D01*
X0189334Y0063741D02*
X0263922Y0063741D01*
X0263922Y0062142D02*
X0189334Y0062142D01*
X0189334Y0060544D02*
X0263922Y0060544D01*
X0264017Y0058945D02*
X0189334Y0058945D01*
X0189334Y0057347D02*
X0263907Y0057347D01*
X0263907Y0055748D02*
X0189334Y0055748D01*
X0189334Y0054150D02*
X0263907Y0054150D01*
X0263907Y0054372D02*
X0263907Y0050973D01*
X0264029Y0050515D01*
X0264266Y0050105D01*
X0264601Y0049770D01*
X0265012Y0049533D01*
X0265470Y0049410D01*
X0268869Y0049410D01*
X0268869Y0054372D01*
X0263907Y0054372D01*
X0263907Y0052551D02*
X0189334Y0052551D01*
X0189334Y0050953D02*
X0263912Y0050953D01*
X0268869Y0050953D02*
X0269631Y0050953D01*
X0269631Y0052551D02*
X0268869Y0052551D01*
X0268869Y0054150D02*
X0269631Y0054150D01*
X0282579Y0062142D02*
X0334666Y0062142D01*
X0334666Y0063741D02*
X0284193Y0063741D01*
X0284334Y0065339D02*
X0334666Y0065339D01*
X0334666Y0066938D02*
X0284334Y0066938D01*
X0284334Y0068536D02*
X0334666Y0068536D01*
X0334400Y0070135D02*
X0331643Y0070135D01*
X0331664Y0071733D02*
X0332802Y0071733D01*
X0331942Y0073332D02*
X0331664Y0073332D01*
X0331664Y0074930D02*
X0331942Y0074930D01*
X0331942Y0076529D02*
X0331664Y0076529D01*
X0331664Y0078127D02*
X0331942Y0078127D01*
X0331942Y0079726D02*
X0330659Y0079726D01*
X0331942Y0081324D02*
X0308074Y0081324D01*
X0308074Y0082923D02*
X0333266Y0082923D01*
X0334865Y0084521D02*
X0308074Y0084521D01*
X0308074Y0086120D02*
X0334966Y0086120D01*
X0334966Y0087718D02*
X0308074Y0087718D01*
X0308074Y0089317D02*
X0334966Y0089317D01*
X0334966Y0090915D02*
X0308074Y0090915D01*
X0308074Y0092514D02*
X0334966Y0092514D01*
X0334966Y0094112D02*
X0308074Y0094112D01*
X0308074Y0095711D02*
X0334966Y0095711D01*
X0334966Y0097309D02*
X0308074Y0097309D01*
X0298534Y0106901D02*
X0342499Y0106901D01*
X0342694Y0106706D02*
X0345670Y0105473D01*
X0348893Y0105473D01*
X0351869Y0106706D01*
X0354148Y0108984D01*
X0355381Y0111961D01*
X0355381Y0115183D01*
X0354148Y0118160D01*
X0351869Y0120438D01*
X0348893Y0121671D01*
X0345670Y0121671D01*
X0342694Y0120438D01*
X0340415Y0118160D01*
X0339182Y0115183D01*
X0339182Y0111961D01*
X0340415Y0108984D01*
X0342694Y0106706D01*
X0342103Y0105302D02*
X0391650Y0105302D01*
X0391650Y0103703D02*
X0343221Y0103703D01*
X0343534Y0102105D02*
X0391650Y0102105D01*
X0391650Y0100506D02*
X0343534Y0100506D01*
X0343534Y0098908D02*
X0391650Y0098908D01*
X0391650Y0097309D02*
X0343534Y0097309D01*
X0343534Y0095711D02*
X0391650Y0095711D01*
X0391650Y0094112D02*
X0343534Y0094112D01*
X0343534Y0092514D02*
X0391650Y0092514D01*
X0391650Y0090915D02*
X0343534Y0090915D01*
X0343534Y0089317D02*
X0391650Y0089317D01*
X0391650Y0087718D02*
X0347564Y0087718D01*
X0349163Y0086120D02*
X0391650Y0086120D01*
X0391650Y0084521D02*
X0350761Y0084521D01*
X0352360Y0082923D02*
X0391650Y0082923D01*
X0391650Y0081324D02*
X0353684Y0081324D01*
X0353684Y0079726D02*
X0391650Y0079726D01*
X0391650Y0078127D02*
X0353684Y0078127D01*
X0353684Y0076529D02*
X0391650Y0076529D01*
X0391650Y0074930D02*
X0353684Y0074930D01*
X0353684Y0073332D02*
X0391650Y0073332D01*
X0391650Y0071733D02*
X0352824Y0071733D01*
X0351226Y0070135D02*
X0391650Y0070135D01*
X0391650Y0068536D02*
X0358940Y0068536D01*
X0358801Y0068675D02*
X0350447Y0068675D01*
X0344541Y0062769D01*
X0344541Y0054415D01*
X0350447Y0048508D01*
X0358801Y0048508D01*
X0364707Y0054415D01*
X0364707Y0062769D01*
X0358801Y0068675D01*
X0360538Y0066938D02*
X0391650Y0066938D01*
X0391650Y0065339D02*
X0362137Y0065339D01*
X0363735Y0063741D02*
X0391650Y0063741D01*
X0391650Y0062142D02*
X0364707Y0062142D01*
X0364707Y0060544D02*
X0391650Y0060544D01*
X0391650Y0058945D02*
X0364707Y0058945D01*
X0364707Y0057347D02*
X0391650Y0057347D01*
X0391650Y0055748D02*
X0364707Y0055748D01*
X0364442Y0054150D02*
X0391650Y0054150D01*
X0391650Y0052551D02*
X0362843Y0052551D01*
X0361245Y0050953D02*
X0391650Y0050953D01*
X0391650Y0049354D02*
X0359646Y0049354D01*
X0349602Y0049354D02*
X0343834Y0049354D01*
X0343834Y0047756D02*
X0391650Y0047756D01*
X0391650Y0046157D02*
X0343834Y0046157D01*
X0343834Y0044559D02*
X0391650Y0044559D01*
X0391650Y0042960D02*
X0343834Y0042960D01*
X0343834Y0041362D02*
X0391650Y0041362D01*
X0391650Y0039763D02*
X0343834Y0039763D01*
X0343834Y0038165D02*
X0391650Y0038165D01*
X0391650Y0036566D02*
X0343834Y0036566D01*
X0343834Y0034968D02*
X0391650Y0034968D01*
X0391650Y0033369D02*
X0343834Y0033369D01*
X0343834Y0031770D02*
X0391650Y0031770D01*
X0391650Y0030172D02*
X0343834Y0030172D01*
X0343834Y0028573D02*
X0391650Y0028573D01*
X0391650Y0026975D02*
X0382599Y0026975D01*
X0383838Y0026462D02*
X0380861Y0027695D01*
X0377639Y0027695D01*
X0374662Y0026462D01*
X0372384Y0024184D01*
X0371151Y0021207D01*
X0371151Y0017985D01*
X0372384Y0015008D01*
X0374662Y0012730D01*
X0377639Y0011497D01*
X0380861Y0011497D01*
X0383838Y0012730D01*
X0386116Y0015008D01*
X0387349Y0017985D01*
X0387349Y0021207D01*
X0386116Y0024184D01*
X0383838Y0026462D01*
X0384923Y0025376D02*
X0391650Y0025376D01*
X0391650Y0023778D02*
X0386284Y0023778D01*
X0386946Y0022179D02*
X0391650Y0022179D01*
X0391650Y0020581D02*
X0387349Y0020581D01*
X0387349Y0018982D02*
X0391650Y0018982D01*
X0391650Y0017384D02*
X0387100Y0017384D01*
X0386438Y0015785D02*
X0391650Y0015785D01*
X0391650Y0014187D02*
X0385295Y0014187D01*
X0383497Y0012588D02*
X0391650Y0012588D01*
X0391650Y0010990D02*
X0343834Y0010990D01*
X0343834Y0012588D02*
X0375003Y0012588D01*
X0373205Y0014187D02*
X0343834Y0014187D01*
X0343834Y0015785D02*
X0372062Y0015785D01*
X0371400Y0017384D02*
X0343834Y0017384D01*
X0343834Y0018982D02*
X0371151Y0018982D01*
X0371151Y0020581D02*
X0343834Y0020581D01*
X0343834Y0022179D02*
X0371554Y0022179D01*
X0372216Y0023778D02*
X0343834Y0023778D01*
X0343834Y0025376D02*
X0373577Y0025376D01*
X0375901Y0026975D02*
X0343834Y0026975D01*
X0334666Y0015785D02*
X0036334Y0015785D01*
X0036334Y0014187D02*
X0334666Y0014187D01*
X0343834Y0009391D02*
X0391650Y0009391D01*
X0391650Y0007793D02*
X0343465Y0007793D01*
X0289481Y0031770D02*
X0189334Y0031770D01*
X0189334Y0033369D02*
X0289481Y0033369D01*
X0289481Y0034968D02*
X0189334Y0034968D01*
X0189334Y0036566D02*
X0289481Y0036566D01*
X0289481Y0038165D02*
X0189334Y0038165D01*
X0189334Y0039763D02*
X0289481Y0039763D01*
X0289481Y0041362D02*
X0189334Y0041362D01*
X0189334Y0042960D02*
X0289481Y0042960D01*
X0289481Y0044559D02*
X0189334Y0044559D01*
X0189334Y0046157D02*
X0289481Y0046157D01*
X0289481Y0047756D02*
X0189334Y0047756D01*
X0189334Y0049354D02*
X0334666Y0049354D01*
X0343834Y0050953D02*
X0348003Y0050953D01*
X0346405Y0052551D02*
X0343834Y0052551D01*
X0343834Y0054150D02*
X0344806Y0054150D01*
X0344541Y0055748D02*
X0343834Y0055748D01*
X0343834Y0057347D02*
X0344541Y0057347D01*
X0344541Y0058945D02*
X0343834Y0058945D01*
X0343834Y0060544D02*
X0344541Y0060544D01*
X0344541Y0062142D02*
X0343834Y0062142D01*
X0343834Y0063741D02*
X0345513Y0063741D01*
X0347111Y0065339D02*
X0343834Y0065339D01*
X0348029Y0066938D02*
X0348710Y0066938D01*
X0349627Y0068536D02*
X0350308Y0068536D01*
X0326337Y0074438D02*
X0326337Y0074596D01*
X0285400Y0074596D01*
X0285400Y0159596D01*
X0162750Y0159596D01*
X0162750Y0161846D01*
X0165734Y0162848D02*
X0365950Y0162848D01*
X0365950Y0164447D02*
X0165072Y0164447D01*
X0161134Y0166045D02*
X0365950Y0166045D01*
X0365950Y0167644D02*
X0161134Y0167644D01*
X0161134Y0169242D02*
X0365950Y0169242D01*
X0365950Y0170841D02*
X0160734Y0170841D01*
X0160734Y0172439D02*
X0365950Y0172439D01*
X0365950Y0174038D02*
X0160734Y0174038D01*
X0160734Y0175637D02*
X0344557Y0175637D01*
X0344166Y0177235D02*
X0160734Y0177235D01*
X0160734Y0178834D02*
X0344166Y0178834D01*
X0344166Y0180432D02*
X0160734Y0180432D01*
X0160734Y0182031D02*
X0344166Y0182031D01*
X0344166Y0183629D02*
X0160734Y0183629D01*
X0160734Y0185228D02*
X0344166Y0185228D01*
X0344166Y0186826D02*
X0160734Y0186826D01*
X0158150Y0189596D02*
X0346750Y0189596D01*
X0346750Y0177096D01*
X0365195Y0177096D01*
X0365195Y0188533D01*
X0368248Y0191622D02*
X0391650Y0191622D01*
X0391650Y0193220D02*
X0368008Y0193220D01*
X0369198Y0194819D02*
X0391650Y0194819D01*
X0391650Y0196417D02*
X0369554Y0196417D01*
X0369554Y0196564D02*
X0369554Y0196907D01*
X0369447Y0197585D01*
X0369235Y0198238D01*
X0368923Y0198849D01*
X0368520Y0199404D01*
X0368035Y0199889D01*
X0367480Y0200292D01*
X0366915Y0200580D01*
X0367480Y0200868D01*
X0368035Y0201271D01*
X0368520Y0201756D01*
X0368923Y0202311D01*
X0369235Y0202922D01*
X0369447Y0203575D01*
X0369554Y0204253D01*
X0369554Y0204596D01*
X0369554Y0204939D01*
X0369447Y0205617D01*
X0369235Y0206269D01*
X0368923Y0206880D01*
X0368520Y0207436D01*
X0368035Y0207921D01*
X0367480Y0208324D01*
X0366868Y0208635D01*
X0366216Y0208848D01*
X0365538Y0208955D01*
X0365195Y0208955D01*
X0365195Y0204596D01*
X0365195Y0204596D01*
X0369554Y0204596D01*
X0365195Y0204596D01*
X0365195Y0204596D01*
X0365195Y0208955D01*
X0364852Y0208955D01*
X0364174Y0208848D01*
X0363522Y0208635D01*
X0362910Y0208324D01*
X0362355Y0207921D01*
X0361870Y0207436D01*
X0361467Y0206880D01*
X0361155Y0206269D01*
X0360943Y0205617D01*
X0360836Y0204939D01*
X0360836Y0204596D01*
X0365195Y0204596D01*
X0365195Y0204596D01*
X0365195Y0196564D01*
X0365195Y0196564D01*
X0369554Y0196564D01*
X0369307Y0198016D02*
X0391650Y0198016D01*
X0391650Y0199614D02*
X0368310Y0199614D01*
X0367954Y0201213D02*
X0391650Y0201213D01*
X0391650Y0202811D02*
X0369178Y0202811D01*
X0369554Y0204410D02*
X0391650Y0204410D01*
X0391650Y0206008D02*
X0369319Y0206008D01*
X0368349Y0207607D02*
X0391650Y0207607D01*
X0391650Y0209205D02*
X0037223Y0209205D01*
X0037765Y0209747D02*
X0038396Y0211271D01*
X0038396Y0212921D01*
X0037765Y0214445D01*
X0036834Y0215376D01*
X0036834Y0217012D01*
X0093780Y0217012D01*
X0094730Y0217405D01*
X0095457Y0218132D01*
X0095850Y0219082D01*
X0095850Y0231511D01*
X0095976Y0231564D01*
X0097322Y0232909D01*
X0098050Y0234668D01*
X0098050Y0236571D01*
X0097322Y0238329D01*
X0095976Y0239675D01*
X0094217Y0240404D01*
X0092314Y0240404D01*
X0090556Y0239675D01*
X0089210Y0238329D01*
X0088481Y0236571D01*
X0088481Y0234668D01*
X0089210Y0232909D01*
X0090556Y0231564D01*
X0090681Y0231511D01*
X0090681Y0222180D01*
X0033736Y0222180D01*
X0032786Y0221787D01*
X0032059Y0221060D01*
X0031666Y0220110D01*
X0031666Y0215376D01*
X0030735Y0214445D01*
X0030104Y0212921D01*
X0030104Y0211271D01*
X0030735Y0209747D01*
X0031901Y0208581D01*
X0033425Y0207949D01*
X0035075Y0207949D01*
X0036599Y0208581D01*
X0037765Y0209747D01*
X0038203Y0210804D02*
X0391650Y0210804D01*
X0391650Y0212402D02*
X0382550Y0212402D01*
X0382550Y0211764D02*
X0382550Y0227427D01*
X0382081Y0227896D01*
X0366419Y0227896D01*
X0365950Y0227427D01*
X0365950Y0211764D01*
X0366419Y0211296D01*
X0382081Y0211296D01*
X0382550Y0211764D01*
X0382550Y0214001D02*
X0391650Y0214001D01*
X0391650Y0215599D02*
X0382550Y0215599D01*
X0382550Y0217198D02*
X0391650Y0217198D01*
X0391650Y0218796D02*
X0382550Y0218796D01*
X0382550Y0220395D02*
X0391650Y0220395D01*
X0391650Y0221993D02*
X0382550Y0221993D01*
X0382550Y0223592D02*
X0391650Y0223592D01*
X0391650Y0225190D02*
X0382550Y0225190D01*
X0382550Y0226789D02*
X0391650Y0226789D01*
X0391650Y0228387D02*
X0350986Y0228387D01*
X0351869Y0228753D02*
X0354148Y0231032D01*
X0355381Y0234008D01*
X0355381Y0237230D01*
X0354148Y0240207D01*
X0351869Y0242486D01*
X0348893Y0243719D01*
X0345670Y0243719D01*
X0342694Y0242486D01*
X0340415Y0240207D01*
X0339182Y0237230D01*
X0339182Y0234008D01*
X0340415Y0231032D01*
X0342694Y0228753D01*
X0345670Y0227520D01*
X0348893Y0227520D01*
X0351869Y0228753D01*
X0353102Y0229986D02*
X0391650Y0229986D01*
X0391650Y0231584D02*
X0381073Y0231584D01*
X0380861Y0231497D02*
X0383838Y0232730D01*
X0386116Y0235008D01*
X0387349Y0237985D01*
X0387349Y0241207D01*
X0386116Y0244184D01*
X0383838Y0246462D01*
X0380861Y0247695D01*
X0377639Y0247695D01*
X0374662Y0246462D01*
X0372384Y0244184D01*
X0371151Y0241207D01*
X0371151Y0237985D01*
X0372384Y0235008D01*
X0374662Y0232730D01*
X0377639Y0231497D01*
X0380861Y0231497D01*
X0377427Y0231584D02*
X0354377Y0231584D01*
X0355039Y0233183D02*
X0374209Y0233183D01*
X0372610Y0234781D02*
X0355381Y0234781D01*
X0355381Y0236380D02*
X0371816Y0236380D01*
X0371153Y0237978D02*
X0355071Y0237978D01*
X0354409Y0239577D02*
X0371151Y0239577D01*
X0371151Y0241175D02*
X0353179Y0241175D01*
X0351173Y0242774D02*
X0371800Y0242774D01*
X0372573Y0244372D02*
X0025927Y0244372D01*
X0026116Y0244184D02*
X0023838Y0246462D01*
X0020861Y0247695D01*
X0017639Y0247695D01*
X0014662Y0246462D01*
X0012384Y0244184D01*
X0011151Y0241207D01*
X0011151Y0237985D01*
X0012384Y0235008D01*
X0014662Y0232730D01*
X0017639Y0231497D01*
X0020861Y0231497D01*
X0023838Y0232730D01*
X0026116Y0235008D01*
X0027349Y0237985D01*
X0027349Y0241207D01*
X0026116Y0244184D01*
X0026700Y0242774D02*
X0047327Y0242774D01*
X0046631Y0242486D02*
X0044352Y0240207D01*
X0043119Y0237230D01*
X0043119Y0234008D01*
X0044352Y0231032D01*
X0046631Y0228753D01*
X0049607Y0227520D01*
X0052830Y0227520D01*
X0055806Y0228753D01*
X0058085Y0231032D01*
X0059318Y0234008D01*
X0059318Y0237230D01*
X0058085Y0240207D01*
X0055806Y0242486D01*
X0052830Y0243719D01*
X0049607Y0243719D01*
X0046631Y0242486D01*
X0045321Y0241175D02*
X0027349Y0241175D01*
X0027349Y0239577D02*
X0044091Y0239577D01*
X0043429Y0237978D02*
X0027347Y0237978D01*
X0026684Y0236380D02*
X0043119Y0236380D01*
X0043119Y0234781D02*
X0025890Y0234781D01*
X0024291Y0233183D02*
X0043461Y0233183D01*
X0044123Y0231584D02*
X0021073Y0231584D01*
X0017427Y0231584D02*
X0006850Y0231584D01*
X0006850Y0229986D02*
X0045398Y0229986D01*
X0047514Y0228387D02*
X0006850Y0228387D01*
X0006850Y0226789D02*
X0090681Y0226789D01*
X0090681Y0228387D02*
X0054923Y0228387D01*
X0057039Y0229986D02*
X0090681Y0229986D01*
X0090535Y0231584D02*
X0085997Y0231584D01*
X0085976Y0231564D02*
X0087322Y0232909D01*
X0088050Y0234668D01*
X0088050Y0236571D01*
X0087322Y0238329D01*
X0085976Y0239675D01*
X0084217Y0240404D01*
X0082314Y0240404D01*
X0080556Y0239675D01*
X0079210Y0238329D01*
X0078481Y0236571D01*
X0078481Y0234668D01*
X0079210Y0232909D01*
X0080556Y0231564D01*
X0082314Y0230835D01*
X0084217Y0230835D01*
X0085976Y0231564D01*
X0087435Y0233183D02*
X0089097Y0233183D01*
X0088481Y0234781D02*
X0088050Y0234781D01*
X0088050Y0236380D02*
X0088481Y0236380D01*
X0089064Y0237978D02*
X0087467Y0237978D01*
X0086074Y0239577D02*
X0090457Y0239577D01*
X0093266Y0235619D02*
X0093266Y0219596D01*
X0034250Y0219596D01*
X0034250Y0212096D01*
X0031277Y0209205D02*
X0006850Y0209205D01*
X0006850Y0207607D02*
X0362041Y0207607D01*
X0361070Y0206008D02*
X0024457Y0206008D01*
X0024627Y0205953D02*
X0024004Y0206155D01*
X0023357Y0206258D01*
X0023030Y0206258D01*
X0023030Y0202096D01*
X0027192Y0202096D01*
X0027192Y0202423D01*
X0027089Y0203070D01*
X0026887Y0203694D01*
X0026589Y0204277D01*
X0026204Y0204807D01*
X0025741Y0205271D01*
X0025211Y0205656D01*
X0024627Y0205953D01*
X0023030Y0206008D02*
X0023029Y0206008D01*
X0023029Y0206258D02*
X0022702Y0206258D01*
X0022055Y0206155D01*
X0021432Y0205953D01*
X0020848Y0205656D01*
X0020318Y0205271D01*
X0019855Y0204807D01*
X0019470Y0204277D01*
X0019172Y0203694D01*
X0018970Y0203070D01*
X0018867Y0202423D01*
X0018867Y0202096D01*
X0023029Y0202096D01*
X0023029Y0202096D01*
X0023029Y0206258D01*
X0021602Y0206008D02*
X0006850Y0206008D01*
X0006850Y0204410D02*
X0019566Y0204410D01*
X0018929Y0202811D02*
X0006850Y0202811D01*
X0006850Y0201213D02*
X0018955Y0201213D01*
X0018970Y0201121D02*
X0019172Y0200498D01*
X0019470Y0199914D01*
X0019855Y0199384D01*
X0020318Y0198921D01*
X0020848Y0198536D01*
X0021432Y0198239D01*
X0022055Y0198036D01*
X0022702Y0197934D01*
X0023029Y0197934D01*
X0023029Y0202096D01*
X0023030Y0202096D01*
X0023030Y0202096D01*
X0027192Y0202096D01*
X0027192Y0201768D01*
X0027089Y0201121D01*
X0026887Y0200498D01*
X0026589Y0199914D01*
X0026204Y0199384D01*
X0025741Y0198921D01*
X0025211Y0198536D01*
X0024627Y0198239D01*
X0024004Y0198036D01*
X0023357Y0197934D01*
X0023030Y0197934D01*
X0023030Y0202096D01*
X0023029Y0202096D01*
X0018867Y0202096D01*
X0018867Y0201768D01*
X0018970Y0201121D01*
X0019688Y0199614D02*
X0006850Y0199614D01*
X0006850Y0198016D02*
X0022184Y0198016D01*
X0023029Y0198016D02*
X0023030Y0198016D01*
X0023875Y0198016D02*
X0351696Y0198016D01*
X0350926Y0199614D02*
X0026371Y0199614D01*
X0027104Y0201213D02*
X0350852Y0201213D01*
X0351385Y0202811D02*
X0027130Y0202811D01*
X0026493Y0204410D02*
X0352901Y0204410D01*
X0357489Y0204410D02*
X0360836Y0204410D01*
X0360836Y0204253D02*
X0360943Y0203575D01*
X0361155Y0202922D01*
X0361467Y0202311D01*
X0361870Y0201756D01*
X0362355Y0201271D01*
X0362910Y0200868D01*
X0363475Y0200580D01*
X0362910Y0200292D01*
X0362355Y0199889D01*
X0361870Y0199404D01*
X0361467Y0198849D01*
X0361155Y0198238D01*
X0360943Y0197585D01*
X0360836Y0196907D01*
X0360836Y0196564D01*
X0365195Y0196564D01*
X0365195Y0196564D01*
X0365195Y0200923D01*
X0365195Y0204596D01*
X0365195Y0204596D01*
X0360836Y0204596D01*
X0360836Y0204253D01*
X0361212Y0202811D02*
X0359004Y0202811D01*
X0359538Y0201213D02*
X0362435Y0201213D01*
X0362080Y0199614D02*
X0359463Y0199614D01*
X0358694Y0198016D02*
X0361083Y0198016D01*
X0360836Y0196417D02*
X0357395Y0196417D01*
X0358988Y0194819D02*
X0361192Y0194819D01*
X0362382Y0193220D02*
X0359538Y0193220D01*
X0359479Y0191622D02*
X0362141Y0191622D01*
X0361111Y0190023D02*
X0358733Y0190023D01*
X0357301Y0188425D02*
X0360852Y0188425D01*
X0361201Y0186826D02*
X0358972Y0186826D01*
X0359538Y0185228D02*
X0362358Y0185228D01*
X0362611Y0183629D02*
X0359496Y0183629D01*
X0358772Y0182031D02*
X0362611Y0182031D01*
X0362611Y0180432D02*
X0356492Y0180432D01*
X0353897Y0180432D02*
X0349334Y0180432D01*
X0349334Y0182031D02*
X0351618Y0182031D01*
X0350894Y0183629D02*
X0349334Y0183629D01*
X0349334Y0185228D02*
X0350852Y0185228D01*
X0351418Y0186826D02*
X0349334Y0186826D01*
X0349334Y0188425D02*
X0353089Y0188425D01*
X0351657Y0190023D02*
X0349334Y0190023D01*
X0355195Y0192627D02*
X0154350Y0192627D01*
X0158150Y0189596D02*
X0158150Y0167746D01*
X0141116Y0166045D02*
X0049734Y0166045D01*
X0049734Y0164447D02*
X0141116Y0164447D01*
X0141116Y0162848D02*
X0049734Y0162848D01*
X0049334Y0161250D02*
X0141116Y0161250D01*
X0141116Y0159651D02*
X0049334Y0159651D01*
X0049334Y0158053D02*
X0141116Y0158053D01*
X0141116Y0156454D02*
X0049334Y0156454D01*
X0049334Y0154856D02*
X0141116Y0154856D01*
X0141115Y0153257D02*
X0049334Y0153257D01*
X0049334Y0151659D02*
X0141832Y0151659D01*
X0143700Y0153446D02*
X0143700Y0177096D01*
X0140716Y0177235D02*
X0035475Y0177235D01*
X0036250Y0175637D02*
X0140716Y0175637D01*
X0141116Y0174038D02*
X0036250Y0174038D01*
X0035958Y0172439D02*
X0141116Y0172439D01*
X0141116Y0170841D02*
X0034359Y0170841D01*
X0027542Y0172439D02*
X0025935Y0172439D01*
X0033876Y0178834D02*
X0140716Y0178834D01*
X0087900Y0142096D02*
X0087900Y0084596D01*
X0090884Y0084521D02*
X0155801Y0084521D01*
X0155781Y0082923D02*
X0090884Y0082923D01*
X0090884Y0086120D02*
X0155821Y0086120D01*
X0155842Y0087718D02*
X0090484Y0087718D01*
X0090484Y0089317D02*
X0155862Y0089317D01*
X0155882Y0090915D02*
X0090484Y0090915D01*
X0090484Y0092514D02*
X0155903Y0092514D01*
X0155923Y0094112D02*
X0144365Y0094112D01*
X0144734Y0095711D02*
X0155944Y0095711D01*
X0155964Y0097309D02*
X0144734Y0097309D01*
X0144334Y0098908D02*
X0155984Y0098908D01*
X0146750Y0102096D02*
X0146750Y0102571D01*
X0196750Y0102571D01*
X0196750Y0106421D02*
X0196750Y0106521D01*
X0141750Y0106521D01*
X0141750Y0096421D01*
X0124250Y0096421D01*
X0124250Y0109596D01*
X0124250Y0102096D01*
X0111750Y0102096D01*
X0108766Y0102105D02*
X0106834Y0102105D01*
X0106834Y0103703D02*
X0108766Y0103703D01*
X0108766Y0100506D02*
X0106834Y0100506D01*
X0107234Y0098908D02*
X0121666Y0098908D01*
X0121666Y0097309D02*
X0107234Y0097309D01*
X0107234Y0095711D02*
X0121747Y0095711D01*
X0123070Y0094112D02*
X0106190Y0094112D01*
X0104250Y0097096D02*
X0104250Y0107096D01*
X0116750Y0107096D01*
X0116750Y0124596D01*
X0129250Y0124596D01*
X0136750Y0129046D02*
X0136750Y0099596D01*
X0134250Y0099596D01*
X0139334Y0108499D02*
X0140074Y0108499D01*
X0114166Y0110098D02*
X0108772Y0110098D01*
X0110013Y0111696D02*
X0114166Y0111696D01*
X0114166Y0113295D02*
X0110300Y0113295D01*
X0109848Y0114893D02*
X0114166Y0114893D01*
X0114166Y0116492D02*
X0107828Y0116492D01*
X0107456Y0117546D02*
X0108761Y0118086D01*
X0109760Y0119085D01*
X0110300Y0120390D01*
X0110300Y0121802D01*
X0109760Y0123107D01*
X0108761Y0124105D01*
X0107456Y0124646D01*
X0106044Y0124646D01*
X0104739Y0124105D01*
X0103740Y0123107D01*
X0103200Y0121802D01*
X0103200Y0120390D01*
X0103740Y0119085D01*
X0104739Y0118086D01*
X0106044Y0117546D01*
X0107456Y0117546D01*
X0108765Y0118090D02*
X0114166Y0118090D01*
X0114166Y0119689D02*
X0110010Y0119689D01*
X0110300Y0121287D02*
X0114166Y0121287D01*
X0114166Y0122886D02*
X0109851Y0122886D01*
X0107846Y0124484D02*
X0114166Y0124484D01*
X0114582Y0126083D02*
X0093835Y0126083D01*
X0091750Y0128921D02*
X0091750Y0129046D01*
X0116750Y0129046D01*
X0136750Y0129046D01*
X0105654Y0124484D02*
X0090484Y0124484D01*
X0090484Y0122886D02*
X0103649Y0122886D01*
X0103200Y0121287D02*
X0090484Y0121287D01*
X0090484Y0119689D02*
X0103490Y0119689D01*
X0104735Y0118090D02*
X0090484Y0118090D01*
X0090484Y0116492D02*
X0105672Y0116492D01*
X0103652Y0114893D02*
X0090484Y0114893D01*
X0090484Y0113295D02*
X0103200Y0113295D01*
X0103487Y0111696D02*
X0090484Y0111696D01*
X0090484Y0110098D02*
X0104728Y0110098D01*
X0102034Y0108499D02*
X0090484Y0108499D01*
X0090484Y0106901D02*
X0101666Y0106901D01*
X0101666Y0105302D02*
X0090484Y0105302D01*
X0090484Y0103703D02*
X0101666Y0103703D01*
X0101666Y0102105D02*
X0090484Y0102105D01*
X0090484Y0100506D02*
X0101666Y0100506D01*
X0101266Y0098908D02*
X0090484Y0098908D01*
X0090484Y0097309D02*
X0101266Y0097309D01*
X0101266Y0095711D02*
X0090484Y0095711D01*
X0090484Y0094112D02*
X0102310Y0094112D01*
X0085316Y0094112D02*
X0006850Y0094112D01*
X0006850Y0092514D02*
X0085316Y0092514D01*
X0085316Y0090915D02*
X0006850Y0090915D01*
X0006850Y0089317D02*
X0085316Y0089317D01*
X0085316Y0087718D02*
X0006850Y0087718D01*
X0006850Y0086120D02*
X0084916Y0086120D01*
X0084916Y0084521D02*
X0006850Y0084521D01*
X0006850Y0082923D02*
X0084916Y0082923D01*
X0085316Y0095711D02*
X0006850Y0095711D01*
X0006850Y0097309D02*
X0085316Y0097309D01*
X0085316Y0098908D02*
X0006850Y0098908D01*
X0006850Y0100506D02*
X0085316Y0100506D01*
X0085316Y0102105D02*
X0006850Y0102105D01*
X0006850Y0103703D02*
X0085316Y0103703D01*
X0085316Y0105302D02*
X0006850Y0105302D01*
X0006850Y0106901D02*
X0046436Y0106901D01*
X0046631Y0106706D02*
X0049607Y0105473D01*
X0052830Y0105473D01*
X0055806Y0106706D01*
X0058085Y0108984D01*
X0059318Y0111961D01*
X0059318Y0115183D01*
X0058085Y0118160D01*
X0055806Y0120438D01*
X0052830Y0121671D01*
X0049607Y0121671D01*
X0046631Y0120438D01*
X0044352Y0118160D01*
X0043119Y0115183D01*
X0043119Y0111961D01*
X0044352Y0108984D01*
X0046631Y0106706D01*
X0044838Y0108499D02*
X0006850Y0108499D01*
X0006850Y0110098D02*
X0043891Y0110098D01*
X0043229Y0111696D02*
X0006850Y0111696D01*
X0006850Y0113295D02*
X0043119Y0113295D01*
X0043119Y0114893D02*
X0006850Y0114893D01*
X0006850Y0116492D02*
X0043661Y0116492D01*
X0044323Y0118090D02*
X0006850Y0118090D01*
X0006850Y0119689D02*
X0045881Y0119689D01*
X0048680Y0121287D02*
X0006850Y0121287D01*
X0006850Y0122886D02*
X0085316Y0122886D01*
X0085316Y0124484D02*
X0006850Y0124484D01*
X0048835Y0126083D02*
X0085316Y0126083D01*
X0085316Y0127681D02*
X0049734Y0127681D01*
X0049734Y0129280D02*
X0085316Y0129280D01*
X0085316Y0130878D02*
X0049716Y0130878D01*
X0049334Y0132477D02*
X0085316Y0132477D01*
X0085316Y0134075D02*
X0049334Y0134075D01*
X0049334Y0135674D02*
X0085316Y0135674D01*
X0085316Y0137272D02*
X0049334Y0137272D01*
X0049334Y0138871D02*
X0085316Y0138871D01*
X0085316Y0140469D02*
X0049334Y0140469D01*
X0049334Y0142068D02*
X0085316Y0142068D01*
X0085816Y0143666D02*
X0049334Y0143666D01*
X0044166Y0161250D02*
X0034746Y0161250D01*
X0006850Y0196417D02*
X0352995Y0196417D01*
X0365195Y0198016D02*
X0365195Y0198016D01*
X0365195Y0199614D02*
X0365195Y0199614D01*
X0365195Y0201213D02*
X0365195Y0201213D01*
X0365195Y0202811D02*
X0365195Y0202811D01*
X0365195Y0204410D02*
X0365195Y0204410D01*
X0365195Y0206008D02*
X0365195Y0206008D01*
X0365195Y0207607D02*
X0365195Y0207607D01*
X0365950Y0212402D02*
X0038396Y0212402D01*
X0037949Y0214001D02*
X0365950Y0214001D01*
X0365950Y0215599D02*
X0036834Y0215599D01*
X0031666Y0215599D02*
X0006850Y0215599D01*
X0006850Y0214001D02*
X0030551Y0214001D01*
X0030104Y0212402D02*
X0006850Y0212402D01*
X0006850Y0210804D02*
X0030297Y0210804D01*
X0031666Y0217198D02*
X0006850Y0217198D01*
X0006850Y0218796D02*
X0020465Y0218796D01*
X0020681Y0218581D02*
X0022205Y0217949D01*
X0023854Y0217949D01*
X0025378Y0218581D01*
X0026545Y0219747D01*
X0027176Y0221271D01*
X0027176Y0222921D01*
X0026545Y0224445D01*
X0025378Y0225611D01*
X0023854Y0226242D01*
X0022205Y0226242D01*
X0020681Y0225611D01*
X0019514Y0224445D01*
X0018883Y0222921D01*
X0018883Y0221271D01*
X0019514Y0219747D01*
X0020681Y0218581D01*
X0019246Y0220395D02*
X0006850Y0220395D01*
X0006850Y0221993D02*
X0018883Y0221993D01*
X0019161Y0223592D02*
X0006850Y0223592D01*
X0006850Y0225190D02*
X0020260Y0225190D01*
X0025799Y0225190D02*
X0090681Y0225190D01*
X0090681Y0223592D02*
X0026898Y0223592D01*
X0027176Y0221993D02*
X0033285Y0221993D01*
X0031784Y0220395D02*
X0026813Y0220395D01*
X0025594Y0218796D02*
X0031666Y0218796D01*
X0014209Y0233183D02*
X0006850Y0233183D01*
X0006850Y0234781D02*
X0012610Y0234781D01*
X0011816Y0236380D02*
X0006850Y0236380D01*
X0006850Y0237978D02*
X0011153Y0237978D01*
X0011151Y0239577D02*
X0006850Y0239577D01*
X0006850Y0241175D02*
X0011151Y0241175D01*
X0011800Y0242774D02*
X0006850Y0242774D01*
X0006850Y0244372D02*
X0012573Y0244372D01*
X0014171Y0245971D02*
X0006850Y0245971D01*
X0006850Y0247570D02*
X0017336Y0247570D01*
X0021164Y0247570D02*
X0377336Y0247570D01*
X0374171Y0245971D02*
X0024329Y0245971D01*
X0006850Y0249168D02*
X0391650Y0249168D01*
X0391650Y0247570D02*
X0381164Y0247570D01*
X0384329Y0245971D02*
X0391650Y0245971D01*
X0391650Y0244372D02*
X0385927Y0244372D01*
X0386700Y0242774D02*
X0391650Y0242774D01*
X0391650Y0241175D02*
X0387349Y0241175D01*
X0387349Y0239577D02*
X0391650Y0239577D01*
X0391650Y0237978D02*
X0387347Y0237978D01*
X0386684Y0236380D02*
X0391650Y0236380D01*
X0391650Y0234781D02*
X0385890Y0234781D01*
X0384291Y0233183D02*
X0391650Y0233183D01*
X0391650Y0250767D02*
X0006850Y0250767D01*
X0055110Y0242774D02*
X0343390Y0242774D01*
X0341384Y0241175D02*
X0057116Y0241175D01*
X0058346Y0239577D02*
X0068740Y0239577D01*
X0068825Y0239725D02*
X0068588Y0239314D01*
X0068466Y0238856D01*
X0068466Y0235819D01*
X0073066Y0235819D01*
X0073066Y0235419D01*
X0073466Y0235419D01*
X0073466Y0230819D01*
X0076503Y0230819D01*
X0076961Y0230942D01*
X0077371Y0231179D01*
X0077706Y0231514D01*
X0077943Y0231925D01*
X0078066Y0232382D01*
X0078066Y0235419D01*
X0073466Y0235419D01*
X0073466Y0235819D01*
X0078066Y0235819D01*
X0078066Y0238856D01*
X0077943Y0239314D01*
X0077706Y0239725D01*
X0077371Y0240060D01*
X0076961Y0240297D01*
X0076503Y0240419D01*
X0073466Y0240419D01*
X0073466Y0235819D01*
X0073066Y0235819D01*
X0073066Y0240419D01*
X0070029Y0240419D01*
X0069571Y0240297D01*
X0069161Y0240060D01*
X0068825Y0239725D01*
X0068466Y0237978D02*
X0059008Y0237978D01*
X0059318Y0236380D02*
X0068466Y0236380D01*
X0068466Y0235419D02*
X0068466Y0232382D01*
X0068588Y0231925D01*
X0068825Y0231514D01*
X0069161Y0231179D01*
X0069571Y0230942D01*
X0070029Y0230819D01*
X0073066Y0230819D01*
X0073066Y0235419D01*
X0068466Y0235419D01*
X0068466Y0234781D02*
X0059318Y0234781D01*
X0058976Y0233183D02*
X0068466Y0233183D01*
X0068785Y0231584D02*
X0058314Y0231584D01*
X0073066Y0231584D02*
X0073466Y0231584D01*
X0073466Y0233183D02*
X0073066Y0233183D01*
X0073066Y0234781D02*
X0073466Y0234781D01*
X0073466Y0236380D02*
X0073066Y0236380D01*
X0073066Y0237978D02*
X0073466Y0237978D01*
X0073466Y0239577D02*
X0073066Y0239577D01*
X0077791Y0239577D02*
X0080457Y0239577D01*
X0079064Y0237978D02*
X0078066Y0237978D01*
X0078066Y0236380D02*
X0078481Y0236380D01*
X0078481Y0234781D02*
X0078066Y0234781D01*
X0078066Y0233183D02*
X0079097Y0233183D01*
X0077747Y0231584D02*
X0080535Y0231584D01*
X0095850Y0229986D02*
X0341461Y0229986D01*
X0340186Y0231584D02*
X0225878Y0231584D01*
X0225781Y0231514D02*
X0226393Y0231958D01*
X0226927Y0232492D01*
X0227371Y0233104D01*
X0227714Y0233777D01*
X0227948Y0234495D01*
X0228066Y0235242D01*
X0228066Y0235419D01*
X0223466Y0235419D01*
X0223466Y0230819D01*
X0223644Y0230819D01*
X0224390Y0230938D01*
X0225108Y0231171D01*
X0225781Y0231514D01*
X0223466Y0231584D02*
X0223066Y0231584D01*
X0223066Y0230819D02*
X0223066Y0235419D01*
X0223466Y0235419D01*
X0223466Y0235819D01*
X0228066Y0235819D01*
X0228066Y0235997D01*
X0227948Y0236743D01*
X0227714Y0237462D01*
X0227371Y0238135D01*
X0226927Y0238746D01*
X0226393Y0239281D01*
X0225781Y0239725D01*
X0225108Y0240068D01*
X0224390Y0240301D01*
X0223644Y0240419D01*
X0223466Y0240419D01*
X0223466Y0235819D01*
X0223066Y0235819D01*
X0223066Y0235419D01*
X0218466Y0235419D01*
X0218466Y0235242D01*
X0218584Y0234495D01*
X0218817Y0233777D01*
X0219160Y0233104D01*
X0219605Y0232492D01*
X0220139Y0231958D01*
X0220750Y0231514D01*
X0221423Y0231171D01*
X0222142Y0230938D01*
X0222888Y0230819D01*
X0223066Y0230819D01*
X0223066Y0233183D02*
X0223466Y0233183D01*
X0223466Y0234781D02*
X0223066Y0234781D01*
X0223066Y0235819D02*
X0218466Y0235819D01*
X0218466Y0235997D01*
X0218584Y0236743D01*
X0218817Y0237462D01*
X0219160Y0238135D01*
X0219605Y0238746D01*
X0220139Y0239281D01*
X0220750Y0239725D01*
X0221423Y0240068D01*
X0222142Y0240301D01*
X0222888Y0240419D01*
X0223066Y0240419D01*
X0223066Y0235819D01*
X0223066Y0236380D02*
X0223466Y0236380D01*
X0223466Y0237978D02*
X0223066Y0237978D01*
X0223066Y0239577D02*
X0223466Y0239577D01*
X0225985Y0239577D02*
X0340154Y0239577D01*
X0339492Y0237978D02*
X0227451Y0237978D01*
X0228005Y0236380D02*
X0339182Y0236380D01*
X0339182Y0234781D02*
X0227993Y0234781D01*
X0227411Y0233183D02*
X0339524Y0233183D01*
X0343577Y0228387D02*
X0095850Y0228387D01*
X0095850Y0226789D02*
X0365950Y0226789D01*
X0365950Y0225190D02*
X0095850Y0225190D01*
X0095850Y0223592D02*
X0365950Y0223592D01*
X0365950Y0221993D02*
X0095850Y0221993D01*
X0095850Y0220395D02*
X0365950Y0220395D01*
X0365950Y0218796D02*
X0095732Y0218796D01*
X0094229Y0217198D02*
X0365950Y0217198D01*
X0369279Y0190023D02*
X0391650Y0190023D01*
X0391650Y0188425D02*
X0369538Y0188425D01*
X0369189Y0186826D02*
X0391650Y0186826D01*
X0391650Y0185228D02*
X0368032Y0185228D01*
X0367779Y0183629D02*
X0391650Y0183629D01*
X0391650Y0182031D02*
X0367779Y0182031D01*
X0367779Y0180432D02*
X0391650Y0180432D01*
X0391650Y0178834D02*
X0367779Y0178834D01*
X0382550Y0177235D02*
X0391650Y0177235D01*
X0391650Y0175637D02*
X0382550Y0175637D01*
X0382550Y0174038D02*
X0391650Y0174038D01*
X0391650Y0172439D02*
X0382550Y0172439D01*
X0382550Y0170841D02*
X0391650Y0170841D01*
X0391650Y0169242D02*
X0382550Y0169242D01*
X0382550Y0167644D02*
X0391650Y0167644D01*
X0391650Y0166045D02*
X0382550Y0166045D01*
X0382550Y0164447D02*
X0391650Y0164447D01*
X0391650Y0162848D02*
X0382550Y0162848D01*
X0391650Y0161250D02*
X0287401Y0161250D01*
X0287984Y0159651D02*
X0289696Y0159651D01*
X0288922Y0158053D02*
X0287984Y0158053D01*
X0287984Y0156454D02*
X0288922Y0156454D01*
X0288922Y0154856D02*
X0287984Y0154856D01*
X0287984Y0153257D02*
X0288922Y0153257D01*
X0288922Y0151659D02*
X0287984Y0151659D01*
X0287984Y0150060D02*
X0289176Y0150060D01*
X0289966Y0148462D02*
X0287984Y0148462D01*
X0287984Y0146863D02*
X0289966Y0146863D01*
X0289966Y0145265D02*
X0287984Y0145265D01*
X0287984Y0143666D02*
X0289966Y0143666D01*
X0289966Y0142068D02*
X0287984Y0142068D01*
X0287984Y0140469D02*
X0289966Y0140469D01*
X0289966Y0138871D02*
X0287984Y0138871D01*
X0287984Y0137272D02*
X0289966Y0137272D01*
X0289966Y0135674D02*
X0287984Y0135674D01*
X0287984Y0134075D02*
X0289966Y0134075D01*
X0289966Y0132477D02*
X0287984Y0132477D01*
X0287984Y0130878D02*
X0289966Y0130878D01*
X0289966Y0129280D02*
X0287984Y0129280D01*
X0287984Y0127681D02*
X0289966Y0127681D01*
X0289966Y0126083D02*
X0287984Y0126083D01*
X0287984Y0124484D02*
X0289966Y0124484D01*
X0289966Y0122886D02*
X0287984Y0122886D01*
X0287984Y0121287D02*
X0289966Y0121287D01*
X0289966Y0119689D02*
X0287984Y0119689D01*
X0287984Y0118090D02*
X0289966Y0118090D01*
X0289966Y0116492D02*
X0287984Y0116492D01*
X0287984Y0114893D02*
X0289966Y0114893D01*
X0289966Y0113295D02*
X0287984Y0113295D01*
X0287984Y0111696D02*
X0289966Y0111696D01*
X0289966Y0110098D02*
X0287984Y0110098D01*
X0287984Y0108499D02*
X0289966Y0108499D01*
X0289966Y0106901D02*
X0287984Y0106901D01*
X0287984Y0105302D02*
X0289966Y0105302D01*
X0289966Y0103703D02*
X0287984Y0103703D01*
X0287984Y0102105D02*
X0289966Y0102105D01*
X0290271Y0100506D02*
X0287984Y0100506D01*
X0287984Y0098908D02*
X0291379Y0098908D01*
X0289481Y0097309D02*
X0287984Y0097309D01*
X0287984Y0095711D02*
X0289481Y0095711D01*
X0289481Y0094112D02*
X0287984Y0094112D01*
X0287984Y0092514D02*
X0289481Y0092514D01*
X0289481Y0090915D02*
X0287984Y0090915D01*
X0287984Y0089317D02*
X0289481Y0089317D01*
X0289481Y0087718D02*
X0287984Y0087718D01*
X0287984Y0086120D02*
X0289481Y0086120D01*
X0289481Y0084521D02*
X0287984Y0084521D01*
X0287984Y0082923D02*
X0289481Y0082923D01*
X0289481Y0081324D02*
X0287984Y0081324D01*
X0287984Y0079726D02*
X0322014Y0079726D01*
X0321009Y0078127D02*
X0287984Y0078127D01*
X0284334Y0071733D02*
X0321009Y0071733D01*
X0321030Y0070135D02*
X0284334Y0070135D01*
X0275516Y0078127D02*
X0274578Y0078127D01*
X0275516Y0079726D02*
X0273572Y0079726D01*
X0275516Y0081324D02*
X0189734Y0081324D01*
X0189734Y0079726D02*
X0264928Y0079726D01*
X0263922Y0078127D02*
X0189734Y0078127D01*
X0189334Y0076529D02*
X0263922Y0076529D01*
X0275516Y0082923D02*
X0170009Y0082923D01*
X0170009Y0081324D02*
X0183766Y0081324D01*
X0183766Y0079726D02*
X0170009Y0079726D01*
X0170009Y0078127D02*
X0183766Y0078127D01*
X0184166Y0076529D02*
X0170009Y0076529D01*
X0170009Y0074930D02*
X0184166Y0074930D01*
X0184166Y0073332D02*
X0170009Y0073332D01*
X0170009Y0071733D02*
X0184166Y0071733D01*
X0184166Y0070135D02*
X0170009Y0070135D01*
X0170009Y0068536D02*
X0184166Y0068536D01*
X0184166Y0066938D02*
X0170009Y0066938D01*
X0170009Y0065339D02*
X0184166Y0065339D01*
X0184166Y0063741D02*
X0170009Y0063741D01*
X0170009Y0062142D02*
X0184166Y0062142D01*
X0184166Y0060544D02*
X0170009Y0060544D01*
X0170009Y0058945D02*
X0184166Y0058945D01*
X0184166Y0057347D02*
X0170009Y0057347D01*
X0170009Y0055748D02*
X0184166Y0055748D01*
X0184166Y0054150D02*
X0170009Y0054150D01*
X0170009Y0052551D02*
X0184166Y0052551D01*
X0184166Y0050953D02*
X0170009Y0050953D01*
X0170009Y0049354D02*
X0184166Y0049354D01*
X0184166Y0047756D02*
X0170009Y0047756D01*
X0170009Y0046157D02*
X0184166Y0046157D01*
X0184166Y0044559D02*
X0170009Y0044559D01*
X0170009Y0042960D02*
X0184166Y0042960D01*
X0184166Y0041362D02*
X0170009Y0041362D01*
X0170009Y0039763D02*
X0184166Y0039763D01*
X0184166Y0038165D02*
X0170009Y0038165D01*
X0170003Y0036566D02*
X0184166Y0036566D01*
X0184166Y0034968D02*
X0168951Y0034968D01*
X0167425Y0037096D02*
X0079250Y0037096D01*
X0079250Y0024596D01*
X0083734Y0025376D02*
X0084750Y0025376D01*
X0084750Y0024696D02*
X0084750Y0027650D01*
X0084861Y0028350D01*
X0085080Y0029023D01*
X0085401Y0029654D01*
X0085818Y0030227D01*
X0086318Y0030728D01*
X0086891Y0031145D01*
X0087523Y0031466D01*
X0088196Y0031685D01*
X0088896Y0031796D01*
X0089150Y0031796D01*
X0089150Y0024696D01*
X0089350Y0024696D01*
X0089350Y0031796D01*
X0089604Y0031796D01*
X0090304Y0031685D01*
X0090977Y0031466D01*
X0091609Y0031145D01*
X0092182Y0030728D01*
X0092682Y0030227D01*
X0093099Y0029654D01*
X0093420Y0029023D01*
X0093639Y0028350D01*
X0093750Y0027650D01*
X0093750Y0024696D01*
X0089350Y0024696D01*
X0089350Y0024496D01*
X0093750Y0024496D01*
X0093750Y0021542D01*
X0093639Y0020842D01*
X0093420Y0020168D01*
X0093099Y0019537D01*
X0092682Y0018964D01*
X0092182Y0018463D01*
X0091609Y0018047D01*
X0090977Y0017725D01*
X0090304Y0017507D01*
X0089604Y0017396D01*
X0089350Y0017396D01*
X0089350Y0024496D01*
X0089150Y0024496D01*
X0084750Y0024496D01*
X0084750Y0021542D01*
X0084861Y0020842D01*
X0085080Y0020168D01*
X0085401Y0019537D01*
X0085818Y0018964D01*
X0086318Y0018463D01*
X0086891Y0018047D01*
X0087523Y0017725D01*
X0088196Y0017507D01*
X0088896Y0017396D01*
X0089150Y0017396D01*
X0089150Y0024496D01*
X0089150Y0024696D01*
X0084750Y0024696D01*
X0084750Y0023778D02*
X0083734Y0023778D01*
X0083734Y0022179D02*
X0084750Y0022179D01*
X0084946Y0020581D02*
X0083559Y0020581D01*
X0082678Y0018982D02*
X0085804Y0018982D01*
X0089150Y0018982D02*
X0089350Y0018982D01*
X0089350Y0020581D02*
X0089150Y0020581D01*
X0089150Y0022179D02*
X0089350Y0022179D01*
X0089350Y0023778D02*
X0089150Y0023778D01*
X0089150Y0025376D02*
X0089350Y0025376D01*
X0089350Y0026975D02*
X0089150Y0026975D01*
X0089150Y0028573D02*
X0089350Y0028573D01*
X0089350Y0030172D02*
X0089150Y0030172D01*
X0089150Y0031770D02*
X0089350Y0031770D01*
X0089764Y0031770D02*
X0098335Y0031770D01*
X0100165Y0031770D02*
X0184166Y0031770D01*
X0184166Y0030172D02*
X0102715Y0030172D01*
X0103574Y0028573D02*
X0184166Y0028573D01*
X0184166Y0033369D02*
X0081834Y0033369D01*
X0081834Y0031770D02*
X0088736Y0031770D01*
X0085777Y0030172D02*
X0082715Y0030172D01*
X0083574Y0028573D02*
X0084934Y0028573D01*
X0084750Y0026975D02*
X0083734Y0026975D01*
X0075785Y0030172D02*
X0065215Y0030172D01*
X0066074Y0028573D02*
X0074926Y0028573D01*
X0074766Y0026975D02*
X0066234Y0026975D01*
X0066234Y0025376D02*
X0074766Y0025376D01*
X0074766Y0023778D02*
X0066234Y0023778D01*
X0066234Y0022179D02*
X0074766Y0022179D01*
X0074941Y0020581D02*
X0066059Y0020581D01*
X0065178Y0018982D02*
X0075822Y0018982D01*
X0058322Y0018982D02*
X0055196Y0018982D01*
X0056054Y0020581D02*
X0057441Y0020581D01*
X0057266Y0022179D02*
X0056250Y0022179D01*
X0056250Y0023778D02*
X0057266Y0023778D01*
X0057266Y0025376D02*
X0056250Y0025376D01*
X0056250Y0026975D02*
X0057266Y0026975D01*
X0057426Y0028573D02*
X0056066Y0028573D01*
X0055223Y0030172D02*
X0058284Y0030172D01*
X0044334Y0034968D02*
X0076666Y0034968D01*
X0076666Y0036566D02*
X0044334Y0036566D01*
X0039166Y0036566D02*
X0036334Y0036566D01*
X0036334Y0034968D02*
X0039166Y0034968D01*
X0039166Y0033369D02*
X0036334Y0033369D01*
X0036334Y0038165D02*
X0039166Y0038165D01*
X0039166Y0039763D02*
X0036334Y0039763D01*
X0036334Y0041362D02*
X0039487Y0041362D01*
X0050546Y0060544D02*
X0006850Y0060544D01*
X0006850Y0062142D02*
X0049330Y0062142D01*
X0048766Y0063741D02*
X0006850Y0063741D01*
X0006850Y0065339D02*
X0048766Y0065339D01*
X0049284Y0066938D02*
X0006850Y0066938D01*
X0006850Y0068536D02*
X0050435Y0068536D01*
X0058065Y0068536D02*
X0105435Y0068536D01*
X0104284Y0066938D02*
X0059216Y0066938D01*
X0059734Y0065339D02*
X0103766Y0065339D01*
X0103766Y0063741D02*
X0059734Y0063741D01*
X0059170Y0062142D02*
X0104330Y0062142D01*
X0105546Y0060544D02*
X0057954Y0060544D01*
X0066262Y0046157D02*
X0114166Y0046157D01*
X0114166Y0050953D02*
X0113363Y0050953D01*
X0113065Y0068536D02*
X0114166Y0068536D01*
X0114166Y0070135D02*
X0006850Y0070135D01*
X0006850Y0071733D02*
X0113766Y0071733D01*
X0113766Y0073332D02*
X0006850Y0073332D01*
X0006850Y0074930D02*
X0113766Y0074930D01*
X0155699Y0076529D02*
X0006850Y0076529D01*
X0006850Y0078127D02*
X0155720Y0078127D01*
X0155740Y0079726D02*
X0006850Y0079726D01*
X0006850Y0081324D02*
X0155760Y0081324D01*
X0164250Y0089121D02*
X0164250Y0040071D01*
X0167425Y0037096D02*
X0167425Y0085996D01*
X0236925Y0085996D01*
X0236925Y0147096D01*
X0236550Y0147096D01*
X0239534Y0146863D02*
X0275516Y0146863D01*
X0275516Y0145265D02*
X0239534Y0145265D01*
X0239509Y0143666D02*
X0275516Y0143666D01*
X0275516Y0142068D02*
X0239509Y0142068D01*
X0239509Y0140469D02*
X0275516Y0140469D01*
X0275516Y0138871D02*
X0239509Y0138871D01*
X0239509Y0137272D02*
X0275516Y0137272D01*
X0275516Y0135674D02*
X0239509Y0135674D01*
X0239509Y0134075D02*
X0275516Y0134075D01*
X0275516Y0132477D02*
X0239509Y0132477D01*
X0239509Y0130878D02*
X0275516Y0130878D01*
X0275516Y0129280D02*
X0239509Y0129280D01*
X0239509Y0127681D02*
X0275516Y0127681D01*
X0275516Y0126083D02*
X0239509Y0126083D01*
X0239509Y0124484D02*
X0275516Y0124484D01*
X0275516Y0122886D02*
X0239509Y0122886D01*
X0239509Y0121287D02*
X0275516Y0121287D01*
X0275516Y0119689D02*
X0239509Y0119689D01*
X0239509Y0118090D02*
X0275516Y0118090D01*
X0275516Y0116492D02*
X0239509Y0116492D01*
X0239509Y0114893D02*
X0275516Y0114893D01*
X0275516Y0113295D02*
X0239509Y0113295D01*
X0239509Y0111696D02*
X0275516Y0111696D01*
X0275516Y0110098D02*
X0239509Y0110098D01*
X0239509Y0108499D02*
X0275516Y0108499D01*
X0275516Y0106901D02*
X0239509Y0106901D01*
X0239509Y0105302D02*
X0275516Y0105302D01*
X0275516Y0103703D02*
X0239509Y0103703D01*
X0239509Y0102105D02*
X0275516Y0102105D01*
X0275516Y0100506D02*
X0239509Y0100506D01*
X0239509Y0098908D02*
X0275516Y0098908D01*
X0275516Y0097309D02*
X0239509Y0097309D01*
X0239509Y0095711D02*
X0275516Y0095711D01*
X0275516Y0094112D02*
X0239509Y0094112D01*
X0239509Y0092514D02*
X0275516Y0092514D01*
X0275516Y0090915D02*
X0239509Y0090915D01*
X0239509Y0089317D02*
X0275516Y0089317D01*
X0275516Y0087718D02*
X0239509Y0087718D01*
X0239509Y0086120D02*
X0275516Y0086120D01*
X0275516Y0084521D02*
X0239105Y0084521D01*
X0233100Y0089121D02*
X0164250Y0089121D01*
X0186750Y0079596D02*
X0186750Y0024596D01*
X0099250Y0024596D01*
X0094766Y0025376D02*
X0093750Y0025376D01*
X0093750Y0023778D02*
X0094766Y0023778D01*
X0094766Y0022179D02*
X0093750Y0022179D01*
X0093554Y0020581D02*
X0094941Y0020581D01*
X0095822Y0018982D02*
X0092696Y0018982D01*
X0093750Y0026975D02*
X0094766Y0026975D01*
X0094926Y0028573D02*
X0093566Y0028573D01*
X0092723Y0030172D02*
X0095784Y0030172D01*
X0085316Y0106901D02*
X0056001Y0106901D01*
X0057599Y0108499D02*
X0085316Y0108499D01*
X0085316Y0110098D02*
X0058546Y0110098D01*
X0059208Y0111696D02*
X0085316Y0111696D01*
X0085316Y0113295D02*
X0059318Y0113295D01*
X0059318Y0114893D02*
X0085316Y0114893D01*
X0085316Y0116492D02*
X0058776Y0116492D01*
X0058114Y0118090D02*
X0085316Y0118090D01*
X0085316Y0119689D02*
X0056556Y0119689D01*
X0053757Y0121287D02*
X0085316Y0121287D01*
X0023029Y0199614D02*
X0023030Y0199614D01*
X0023029Y0201213D02*
X0023030Y0201213D01*
X0023029Y0202811D02*
X0023030Y0202811D01*
X0023029Y0204410D02*
X0023030Y0204410D01*
X0095997Y0231584D02*
X0100535Y0231584D01*
X0100556Y0231564D02*
X0102314Y0230835D01*
X0104217Y0230835D01*
X0105976Y0231564D01*
X0107322Y0232909D01*
X0108050Y0234668D01*
X0108050Y0236571D01*
X0107322Y0238329D01*
X0105976Y0239675D01*
X0104217Y0240404D01*
X0102314Y0240404D01*
X0100556Y0239675D01*
X0099210Y0238329D01*
X0098481Y0236571D01*
X0098481Y0234668D01*
X0099210Y0232909D01*
X0100556Y0231564D01*
X0099097Y0233183D02*
X0097435Y0233183D01*
X0098050Y0234781D02*
X0098481Y0234781D01*
X0098481Y0236380D02*
X0098050Y0236380D01*
X0097467Y0237978D02*
X0099064Y0237978D01*
X0100457Y0239577D02*
X0096074Y0239577D01*
X0106074Y0239577D02*
X0110547Y0239577D01*
X0110750Y0239725D02*
X0110139Y0239281D01*
X0109605Y0238746D01*
X0109160Y0238135D01*
X0108817Y0237462D01*
X0108584Y0236743D01*
X0108466Y0235997D01*
X0108466Y0235819D01*
X0113066Y0235819D01*
X0113066Y0235419D01*
X0113466Y0235419D01*
X0113466Y0230819D01*
X0113644Y0230819D01*
X0114390Y0230938D01*
X0115108Y0231171D01*
X0115781Y0231514D01*
X0116393Y0231958D01*
X0116927Y0232492D01*
X0117371Y0233104D01*
X0117714Y0233777D01*
X0117948Y0234495D01*
X0118066Y0235242D01*
X0118066Y0235419D01*
X0113466Y0235419D01*
X0113466Y0235819D01*
X0118066Y0235819D01*
X0118066Y0235997D01*
X0117948Y0236743D01*
X0117714Y0237462D01*
X0117371Y0238135D01*
X0116927Y0238746D01*
X0116393Y0239281D01*
X0115781Y0239725D01*
X0115108Y0240068D01*
X0114390Y0240301D01*
X0113644Y0240419D01*
X0113466Y0240419D01*
X0113466Y0235819D01*
X0113066Y0235819D01*
X0113066Y0240419D01*
X0112888Y0240419D01*
X0112142Y0240301D01*
X0111423Y0240068D01*
X0110750Y0239725D01*
X0113066Y0239577D02*
X0113466Y0239577D01*
X0113466Y0237978D02*
X0113066Y0237978D01*
X0113066Y0236380D02*
X0113466Y0236380D01*
X0113066Y0235419D02*
X0108466Y0235419D01*
X0108466Y0235242D01*
X0108584Y0234495D01*
X0108817Y0233777D01*
X0109160Y0233104D01*
X0109605Y0232492D01*
X0110139Y0231958D01*
X0110750Y0231514D01*
X0111423Y0231171D01*
X0112142Y0230938D01*
X0112888Y0230819D01*
X0113066Y0230819D01*
X0113066Y0235419D01*
X0113066Y0234781D02*
X0113466Y0234781D01*
X0113466Y0233183D02*
X0113066Y0233183D01*
X0113066Y0231584D02*
X0113466Y0231584D01*
X0115878Y0231584D02*
X0120535Y0231584D01*
X0120556Y0231564D02*
X0122314Y0230835D01*
X0124217Y0230835D01*
X0125976Y0231564D01*
X0127322Y0232909D01*
X0128050Y0234668D01*
X0128050Y0236571D01*
X0127322Y0238329D01*
X0125976Y0239675D01*
X0124217Y0240404D01*
X0122314Y0240404D01*
X0120556Y0239675D01*
X0119210Y0238329D01*
X0118481Y0236571D01*
X0118481Y0234668D01*
X0119210Y0232909D01*
X0120556Y0231564D01*
X0119097Y0233183D02*
X0117411Y0233183D01*
X0117993Y0234781D02*
X0118481Y0234781D01*
X0118481Y0236380D02*
X0118005Y0236380D01*
X0117451Y0237978D02*
X0119064Y0237978D01*
X0120457Y0239577D02*
X0115985Y0239577D01*
X0109081Y0237978D02*
X0107467Y0237978D01*
X0108050Y0236380D02*
X0108526Y0236380D01*
X0108539Y0234781D02*
X0108050Y0234781D01*
X0107435Y0233183D02*
X0109120Y0233183D01*
X0110653Y0231584D02*
X0105997Y0231584D01*
X0125997Y0231584D02*
X0130535Y0231584D01*
X0130556Y0231564D02*
X0132314Y0230835D01*
X0134217Y0230835D01*
X0135976Y0231564D01*
X0137322Y0232909D01*
X0138050Y0234668D01*
X0138050Y0236571D01*
X0137322Y0238329D01*
X0135976Y0239675D01*
X0134217Y0240404D01*
X0132314Y0240404D01*
X0130556Y0239675D01*
X0129210Y0238329D01*
X0128481Y0236571D01*
X0128481Y0234668D01*
X0129210Y0232909D01*
X0130556Y0231564D01*
X0129097Y0233183D02*
X0127435Y0233183D01*
X0128050Y0234781D02*
X0128481Y0234781D01*
X0128481Y0236380D02*
X0128050Y0236380D01*
X0127467Y0237978D02*
X0129064Y0237978D01*
X0130457Y0239577D02*
X0126074Y0239577D01*
X0136074Y0239577D02*
X0140457Y0239577D01*
X0140556Y0239675D02*
X0139210Y0238329D01*
X0138481Y0236571D01*
X0138481Y0234668D01*
X0139210Y0232909D01*
X0140556Y0231564D01*
X0142314Y0230835D01*
X0144217Y0230835D01*
X0145976Y0231564D01*
X0147322Y0232909D01*
X0148050Y0234668D01*
X0148050Y0236571D01*
X0147322Y0238329D01*
X0145976Y0239675D01*
X0144217Y0240404D01*
X0142314Y0240404D01*
X0140556Y0239675D01*
X0139064Y0237978D02*
X0137467Y0237978D01*
X0138050Y0236380D02*
X0138481Y0236380D01*
X0138481Y0234781D02*
X0138050Y0234781D01*
X0137435Y0233183D02*
X0139097Y0233183D01*
X0140535Y0231584D02*
X0135997Y0231584D01*
X0145997Y0231584D02*
X0150535Y0231584D01*
X0150556Y0231564D02*
X0152314Y0230835D01*
X0154217Y0230835D01*
X0155976Y0231564D01*
X0157322Y0232909D01*
X0158050Y0234668D01*
X0158050Y0236571D01*
X0157322Y0238329D01*
X0155976Y0239675D01*
X0154217Y0240404D01*
X0152314Y0240404D01*
X0150556Y0239675D01*
X0149210Y0238329D01*
X0148481Y0236571D01*
X0148481Y0234668D01*
X0149210Y0232909D01*
X0150556Y0231564D01*
X0149097Y0233183D02*
X0147435Y0233183D01*
X0148050Y0234781D02*
X0148481Y0234781D01*
X0148481Y0236380D02*
X0148050Y0236380D01*
X0147467Y0237978D02*
X0149064Y0237978D01*
X0150457Y0239577D02*
X0146074Y0239577D01*
X0156074Y0239577D02*
X0160457Y0239577D01*
X0160556Y0239675D02*
X0159210Y0238329D01*
X0158481Y0236571D01*
X0158481Y0234668D01*
X0159210Y0232909D01*
X0160556Y0231564D01*
X0162314Y0230835D01*
X0164217Y0230835D01*
X0165976Y0231564D01*
X0167322Y0232909D01*
X0168050Y0234668D01*
X0168050Y0236571D01*
X0167322Y0238329D01*
X0165976Y0239675D01*
X0164217Y0240404D01*
X0162314Y0240404D01*
X0160556Y0239675D01*
X0159064Y0237978D02*
X0157467Y0237978D01*
X0158050Y0236380D02*
X0158481Y0236380D01*
X0158481Y0234781D02*
X0158050Y0234781D01*
X0157435Y0233183D02*
X0159097Y0233183D01*
X0160535Y0231584D02*
X0155997Y0231584D01*
X0165997Y0231584D02*
X0170535Y0231584D01*
X0170556Y0231564D02*
X0172314Y0230835D01*
X0174217Y0230835D01*
X0175976Y0231564D01*
X0177322Y0232909D01*
X0178050Y0234668D01*
X0178050Y0236571D01*
X0177322Y0238329D01*
X0175976Y0239675D01*
X0174217Y0240404D01*
X0172314Y0240404D01*
X0170556Y0239675D01*
X0169210Y0238329D01*
X0168481Y0236571D01*
X0168481Y0234668D01*
X0169210Y0232909D01*
X0170556Y0231564D01*
X0169097Y0233183D02*
X0167435Y0233183D01*
X0168050Y0234781D02*
X0168481Y0234781D01*
X0168481Y0236380D02*
X0168050Y0236380D01*
X0167467Y0237978D02*
X0169064Y0237978D01*
X0170457Y0239577D02*
X0166074Y0239577D01*
X0176074Y0239577D02*
X0180457Y0239577D01*
X0180556Y0239675D02*
X0179210Y0238329D01*
X0178481Y0236571D01*
X0178481Y0234668D01*
X0179210Y0232909D01*
X0180556Y0231564D01*
X0182314Y0230835D01*
X0184217Y0230835D01*
X0185976Y0231564D01*
X0187322Y0232909D01*
X0188050Y0234668D01*
X0188050Y0236571D01*
X0187322Y0238329D01*
X0185976Y0239675D01*
X0184217Y0240404D01*
X0182314Y0240404D01*
X0180556Y0239675D01*
X0179064Y0237978D02*
X0177467Y0237978D01*
X0178050Y0236380D02*
X0178481Y0236380D01*
X0178481Y0234781D02*
X0178050Y0234781D01*
X0177435Y0233183D02*
X0179097Y0233183D01*
X0180535Y0231584D02*
X0175997Y0231584D01*
X0185997Y0231584D02*
X0190535Y0231584D01*
X0190556Y0231564D02*
X0192314Y0230835D01*
X0194217Y0230835D01*
X0195976Y0231564D01*
X0197322Y0232909D01*
X0198050Y0234668D01*
X0198050Y0236571D01*
X0197322Y0238329D01*
X0195976Y0239675D01*
X0194217Y0240404D01*
X0192314Y0240404D01*
X0190556Y0239675D01*
X0189210Y0238329D01*
X0188481Y0236571D01*
X0188481Y0234668D01*
X0189210Y0232909D01*
X0190556Y0231564D01*
X0189097Y0233183D02*
X0187435Y0233183D01*
X0188050Y0234781D02*
X0188481Y0234781D01*
X0188481Y0236380D02*
X0188050Y0236380D01*
X0187467Y0237978D02*
X0189064Y0237978D01*
X0190457Y0239577D02*
X0186074Y0239577D01*
X0196074Y0239577D02*
X0200457Y0239577D01*
X0200556Y0239675D02*
X0199210Y0238329D01*
X0198481Y0236571D01*
X0198481Y0234668D01*
X0199210Y0232909D01*
X0200556Y0231564D01*
X0202314Y0230835D01*
X0204217Y0230835D01*
X0205976Y0231564D01*
X0207322Y0232909D01*
X0208050Y0234668D01*
X0208050Y0236571D01*
X0207322Y0238329D01*
X0205976Y0239675D01*
X0204217Y0240404D01*
X0202314Y0240404D01*
X0200556Y0239675D01*
X0199064Y0237978D02*
X0197467Y0237978D01*
X0198050Y0236380D02*
X0198481Y0236380D01*
X0198481Y0234781D02*
X0198050Y0234781D01*
X0197435Y0233183D02*
X0199097Y0233183D01*
X0200535Y0231584D02*
X0195997Y0231584D01*
X0205997Y0231584D02*
X0210535Y0231584D01*
X0210556Y0231564D02*
X0212314Y0230835D01*
X0214217Y0230835D01*
X0215976Y0231564D01*
X0217322Y0232909D01*
X0218050Y0234668D01*
X0218050Y0236571D01*
X0217322Y0238329D01*
X0215976Y0239675D01*
X0214217Y0240404D01*
X0212314Y0240404D01*
X0210556Y0239675D01*
X0209210Y0238329D01*
X0208481Y0236571D01*
X0208481Y0234668D01*
X0209210Y0232909D01*
X0210556Y0231564D01*
X0209097Y0233183D02*
X0207435Y0233183D01*
X0208050Y0234781D02*
X0208481Y0234781D01*
X0208481Y0236380D02*
X0208050Y0236380D01*
X0207467Y0237978D02*
X0209064Y0237978D01*
X0210457Y0239577D02*
X0206074Y0239577D01*
X0216074Y0239577D02*
X0220547Y0239577D01*
X0219081Y0237978D02*
X0217467Y0237978D01*
X0218050Y0236380D02*
X0218526Y0236380D01*
X0218539Y0234781D02*
X0218050Y0234781D01*
X0217435Y0233183D02*
X0219120Y0233183D01*
X0220653Y0231584D02*
X0215997Y0231584D01*
X0298804Y0159651D02*
X0391650Y0159651D01*
X0391650Y0158053D02*
X0299578Y0158053D01*
X0299578Y0156454D02*
X0391650Y0156454D01*
X0391650Y0154856D02*
X0299578Y0154856D01*
X0299578Y0153257D02*
X0391650Y0153257D01*
X0391650Y0151659D02*
X0299578Y0151659D01*
X0299324Y0150060D02*
X0391650Y0150060D01*
X0391650Y0148462D02*
X0298534Y0148462D01*
X0298534Y0146863D02*
X0391650Y0146863D01*
X0391650Y0145265D02*
X0377284Y0145265D01*
X0377278Y0145280D02*
X0376273Y0146285D01*
X0374960Y0146829D01*
X0373540Y0146829D01*
X0372227Y0146285D01*
X0371222Y0145280D01*
X0370678Y0143968D01*
X0370678Y0142547D01*
X0371222Y0141234D01*
X0372227Y0140229D01*
X0373540Y0139686D01*
X0374960Y0139686D01*
X0376273Y0140229D01*
X0377278Y0141234D01*
X0377822Y0142547D01*
X0377822Y0143968D01*
X0377278Y0145280D01*
X0377822Y0143666D02*
X0391650Y0143666D01*
X0391650Y0142068D02*
X0377623Y0142068D01*
X0376513Y0140469D02*
X0391650Y0140469D01*
X0391650Y0138871D02*
X0298534Y0138871D01*
X0298534Y0140469D02*
X0371987Y0140469D01*
X0370877Y0142068D02*
X0298534Y0142068D01*
X0298534Y0143666D02*
X0370678Y0143666D01*
X0371216Y0145265D02*
X0298534Y0145265D01*
X0298534Y0137272D02*
X0391650Y0137272D01*
X0391650Y0135674D02*
X0298534Y0135674D01*
X0298534Y0134075D02*
X0391650Y0134075D01*
X0391650Y0132477D02*
X0298534Y0132477D01*
X0298534Y0130878D02*
X0391650Y0130878D01*
X0391650Y0129280D02*
X0375507Y0129280D01*
X0374960Y0129506D02*
X0373540Y0129506D01*
X0372227Y0128962D01*
X0371222Y0127958D01*
X0370678Y0126645D01*
X0370678Y0125224D01*
X0371222Y0123911D01*
X0372227Y0122906D01*
X0373540Y0122363D01*
X0374960Y0122363D01*
X0376273Y0122906D01*
X0377278Y0123911D01*
X0377822Y0125224D01*
X0377822Y0126645D01*
X0377278Y0127958D01*
X0376273Y0128962D01*
X0374960Y0129506D01*
X0372993Y0129280D02*
X0298534Y0129280D01*
X0298534Y0127681D02*
X0371108Y0127681D01*
X0370678Y0126083D02*
X0298534Y0126083D01*
X0298534Y0124484D02*
X0370985Y0124484D01*
X0372277Y0122886D02*
X0298534Y0122886D01*
X0298534Y0121287D02*
X0344743Y0121287D01*
X0341944Y0119689D02*
X0298534Y0119689D01*
X0298534Y0118090D02*
X0340386Y0118090D01*
X0339724Y0116492D02*
X0298534Y0116492D01*
X0298534Y0114893D02*
X0339182Y0114893D01*
X0339182Y0113295D02*
X0298534Y0113295D01*
X0298534Y0111696D02*
X0339292Y0111696D01*
X0339954Y0110098D02*
X0298534Y0110098D01*
X0298534Y0108499D02*
X0340901Y0108499D01*
X0352064Y0106901D02*
X0391650Y0106901D01*
X0391650Y0108499D02*
X0353662Y0108499D01*
X0354609Y0110098D02*
X0391650Y0110098D01*
X0391650Y0111696D02*
X0355271Y0111696D01*
X0355381Y0113295D02*
X0391650Y0113295D01*
X0391650Y0114893D02*
X0355381Y0114893D01*
X0354839Y0116492D02*
X0391650Y0116492D01*
X0391650Y0118090D02*
X0354177Y0118090D01*
X0352619Y0119689D02*
X0391650Y0119689D01*
X0391650Y0121287D02*
X0349820Y0121287D01*
X0376223Y0122886D02*
X0391650Y0122886D01*
X0391650Y0124484D02*
X0377515Y0124484D01*
X0377822Y0126083D02*
X0391650Y0126083D01*
X0391650Y0127681D02*
X0377392Y0127681D01*
X0275516Y0148462D02*
X0239534Y0148462D01*
X0238509Y0150060D02*
X0275516Y0150060D01*
X0232900Y0147096D02*
X0233100Y0089121D01*
D11*
X0125000Y0117096D02*
X0125002Y0117179D01*
X0125008Y0117262D01*
X0125018Y0117345D01*
X0125032Y0117427D01*
X0125049Y0117509D01*
X0125071Y0117589D01*
X0125096Y0117668D01*
X0125125Y0117746D01*
X0125158Y0117823D01*
X0125195Y0117898D01*
X0125234Y0117971D01*
X0125278Y0118042D01*
X0125324Y0118111D01*
X0125374Y0118178D01*
X0125427Y0118242D01*
X0125483Y0118304D01*
X0125542Y0118363D01*
X0125604Y0118419D01*
X0125668Y0118472D01*
X0125735Y0118522D01*
X0125804Y0118568D01*
X0125875Y0118612D01*
X0125948Y0118651D01*
X0126023Y0118688D01*
X0126100Y0118721D01*
X0126178Y0118750D01*
X0126257Y0118775D01*
X0126337Y0118797D01*
X0126419Y0118814D01*
X0126501Y0118828D01*
X0126584Y0118838D01*
X0126667Y0118844D01*
X0126750Y0118846D01*
X0126833Y0118844D01*
X0126916Y0118838D01*
X0126999Y0118828D01*
X0127081Y0118814D01*
X0127163Y0118797D01*
X0127243Y0118775D01*
X0127322Y0118750D01*
X0127400Y0118721D01*
X0127477Y0118688D01*
X0127552Y0118651D01*
X0127625Y0118612D01*
X0127696Y0118568D01*
X0127765Y0118522D01*
X0127832Y0118472D01*
X0127896Y0118419D01*
X0127958Y0118363D01*
X0128017Y0118304D01*
X0128073Y0118242D01*
X0128126Y0118178D01*
X0128176Y0118111D01*
X0128222Y0118042D01*
X0128266Y0117971D01*
X0128305Y0117898D01*
X0128342Y0117823D01*
X0128375Y0117746D01*
X0128404Y0117668D01*
X0128429Y0117589D01*
X0128451Y0117509D01*
X0128468Y0117427D01*
X0128482Y0117345D01*
X0128492Y0117262D01*
X0128498Y0117179D01*
X0128500Y0117096D01*
X0128498Y0117013D01*
X0128492Y0116930D01*
X0128482Y0116847D01*
X0128468Y0116765D01*
X0128451Y0116683D01*
X0128429Y0116603D01*
X0128404Y0116524D01*
X0128375Y0116446D01*
X0128342Y0116369D01*
X0128305Y0116294D01*
X0128266Y0116221D01*
X0128222Y0116150D01*
X0128176Y0116081D01*
X0128126Y0116014D01*
X0128073Y0115950D01*
X0128017Y0115888D01*
X0127958Y0115829D01*
X0127896Y0115773D01*
X0127832Y0115720D01*
X0127765Y0115670D01*
X0127696Y0115624D01*
X0127625Y0115580D01*
X0127552Y0115541D01*
X0127477Y0115504D01*
X0127400Y0115471D01*
X0127322Y0115442D01*
X0127243Y0115417D01*
X0127163Y0115395D01*
X0127081Y0115378D01*
X0126999Y0115364D01*
X0126916Y0115354D01*
X0126833Y0115348D01*
X0126750Y0115346D01*
X0126667Y0115348D01*
X0126584Y0115354D01*
X0126501Y0115364D01*
X0126419Y0115378D01*
X0126337Y0115395D01*
X0126257Y0115417D01*
X0126178Y0115442D01*
X0126100Y0115471D01*
X0126023Y0115504D01*
X0125948Y0115541D01*
X0125875Y0115580D01*
X0125804Y0115624D01*
X0125735Y0115670D01*
X0125668Y0115720D01*
X0125604Y0115773D01*
X0125542Y0115829D01*
X0125483Y0115888D01*
X0125427Y0115950D01*
X0125374Y0116014D01*
X0125324Y0116081D01*
X0125278Y0116150D01*
X0125234Y0116221D01*
X0125195Y0116294D01*
X0125158Y0116369D01*
X0125125Y0116446D01*
X0125096Y0116524D01*
X0125071Y0116603D01*
X0125049Y0116683D01*
X0125032Y0116765D01*
X0125018Y0116847D01*
X0125008Y0116930D01*
X0125002Y0117013D01*
X0125000Y0117096D01*
X0105000Y0121096D02*
X0105002Y0121179D01*
X0105008Y0121262D01*
X0105018Y0121345D01*
X0105032Y0121427D01*
X0105049Y0121509D01*
X0105071Y0121589D01*
X0105096Y0121668D01*
X0105125Y0121746D01*
X0105158Y0121823D01*
X0105195Y0121898D01*
X0105234Y0121971D01*
X0105278Y0122042D01*
X0105324Y0122111D01*
X0105374Y0122178D01*
X0105427Y0122242D01*
X0105483Y0122304D01*
X0105542Y0122363D01*
X0105604Y0122419D01*
X0105668Y0122472D01*
X0105735Y0122522D01*
X0105804Y0122568D01*
X0105875Y0122612D01*
X0105948Y0122651D01*
X0106023Y0122688D01*
X0106100Y0122721D01*
X0106178Y0122750D01*
X0106257Y0122775D01*
X0106337Y0122797D01*
X0106419Y0122814D01*
X0106501Y0122828D01*
X0106584Y0122838D01*
X0106667Y0122844D01*
X0106750Y0122846D01*
X0106833Y0122844D01*
X0106916Y0122838D01*
X0106999Y0122828D01*
X0107081Y0122814D01*
X0107163Y0122797D01*
X0107243Y0122775D01*
X0107322Y0122750D01*
X0107400Y0122721D01*
X0107477Y0122688D01*
X0107552Y0122651D01*
X0107625Y0122612D01*
X0107696Y0122568D01*
X0107765Y0122522D01*
X0107832Y0122472D01*
X0107896Y0122419D01*
X0107958Y0122363D01*
X0108017Y0122304D01*
X0108073Y0122242D01*
X0108126Y0122178D01*
X0108176Y0122111D01*
X0108222Y0122042D01*
X0108266Y0121971D01*
X0108305Y0121898D01*
X0108342Y0121823D01*
X0108375Y0121746D01*
X0108404Y0121668D01*
X0108429Y0121589D01*
X0108451Y0121509D01*
X0108468Y0121427D01*
X0108482Y0121345D01*
X0108492Y0121262D01*
X0108498Y0121179D01*
X0108500Y0121096D01*
X0108498Y0121013D01*
X0108492Y0120930D01*
X0108482Y0120847D01*
X0108468Y0120765D01*
X0108451Y0120683D01*
X0108429Y0120603D01*
X0108404Y0120524D01*
X0108375Y0120446D01*
X0108342Y0120369D01*
X0108305Y0120294D01*
X0108266Y0120221D01*
X0108222Y0120150D01*
X0108176Y0120081D01*
X0108126Y0120014D01*
X0108073Y0119950D01*
X0108017Y0119888D01*
X0107958Y0119829D01*
X0107896Y0119773D01*
X0107832Y0119720D01*
X0107765Y0119670D01*
X0107696Y0119624D01*
X0107625Y0119580D01*
X0107552Y0119541D01*
X0107477Y0119504D01*
X0107400Y0119471D01*
X0107322Y0119442D01*
X0107243Y0119417D01*
X0107163Y0119395D01*
X0107081Y0119378D01*
X0106999Y0119364D01*
X0106916Y0119354D01*
X0106833Y0119348D01*
X0106750Y0119346D01*
X0106667Y0119348D01*
X0106584Y0119354D01*
X0106501Y0119364D01*
X0106419Y0119378D01*
X0106337Y0119395D01*
X0106257Y0119417D01*
X0106178Y0119442D01*
X0106100Y0119471D01*
X0106023Y0119504D01*
X0105948Y0119541D01*
X0105875Y0119580D01*
X0105804Y0119624D01*
X0105735Y0119670D01*
X0105668Y0119720D01*
X0105604Y0119773D01*
X0105542Y0119829D01*
X0105483Y0119888D01*
X0105427Y0119950D01*
X0105374Y0120014D01*
X0105324Y0120081D01*
X0105278Y0120150D01*
X0105234Y0120221D01*
X0105195Y0120294D01*
X0105158Y0120369D01*
X0105125Y0120446D01*
X0105096Y0120524D01*
X0105071Y0120603D01*
X0105049Y0120683D01*
X0105032Y0120765D01*
X0105018Y0120847D01*
X0105008Y0120930D01*
X0105002Y0121013D01*
X0105000Y0121096D01*
X0105000Y0113096D02*
X0105002Y0113179D01*
X0105008Y0113262D01*
X0105018Y0113345D01*
X0105032Y0113427D01*
X0105049Y0113509D01*
X0105071Y0113589D01*
X0105096Y0113668D01*
X0105125Y0113746D01*
X0105158Y0113823D01*
X0105195Y0113898D01*
X0105234Y0113971D01*
X0105278Y0114042D01*
X0105324Y0114111D01*
X0105374Y0114178D01*
X0105427Y0114242D01*
X0105483Y0114304D01*
X0105542Y0114363D01*
X0105604Y0114419D01*
X0105668Y0114472D01*
X0105735Y0114522D01*
X0105804Y0114568D01*
X0105875Y0114612D01*
X0105948Y0114651D01*
X0106023Y0114688D01*
X0106100Y0114721D01*
X0106178Y0114750D01*
X0106257Y0114775D01*
X0106337Y0114797D01*
X0106419Y0114814D01*
X0106501Y0114828D01*
X0106584Y0114838D01*
X0106667Y0114844D01*
X0106750Y0114846D01*
X0106833Y0114844D01*
X0106916Y0114838D01*
X0106999Y0114828D01*
X0107081Y0114814D01*
X0107163Y0114797D01*
X0107243Y0114775D01*
X0107322Y0114750D01*
X0107400Y0114721D01*
X0107477Y0114688D01*
X0107552Y0114651D01*
X0107625Y0114612D01*
X0107696Y0114568D01*
X0107765Y0114522D01*
X0107832Y0114472D01*
X0107896Y0114419D01*
X0107958Y0114363D01*
X0108017Y0114304D01*
X0108073Y0114242D01*
X0108126Y0114178D01*
X0108176Y0114111D01*
X0108222Y0114042D01*
X0108266Y0113971D01*
X0108305Y0113898D01*
X0108342Y0113823D01*
X0108375Y0113746D01*
X0108404Y0113668D01*
X0108429Y0113589D01*
X0108451Y0113509D01*
X0108468Y0113427D01*
X0108482Y0113345D01*
X0108492Y0113262D01*
X0108498Y0113179D01*
X0108500Y0113096D01*
X0108498Y0113013D01*
X0108492Y0112930D01*
X0108482Y0112847D01*
X0108468Y0112765D01*
X0108451Y0112683D01*
X0108429Y0112603D01*
X0108404Y0112524D01*
X0108375Y0112446D01*
X0108342Y0112369D01*
X0108305Y0112294D01*
X0108266Y0112221D01*
X0108222Y0112150D01*
X0108176Y0112081D01*
X0108126Y0112014D01*
X0108073Y0111950D01*
X0108017Y0111888D01*
X0107958Y0111829D01*
X0107896Y0111773D01*
X0107832Y0111720D01*
X0107765Y0111670D01*
X0107696Y0111624D01*
X0107625Y0111580D01*
X0107552Y0111541D01*
X0107477Y0111504D01*
X0107400Y0111471D01*
X0107322Y0111442D01*
X0107243Y0111417D01*
X0107163Y0111395D01*
X0107081Y0111378D01*
X0106999Y0111364D01*
X0106916Y0111354D01*
X0106833Y0111348D01*
X0106750Y0111346D01*
X0106667Y0111348D01*
X0106584Y0111354D01*
X0106501Y0111364D01*
X0106419Y0111378D01*
X0106337Y0111395D01*
X0106257Y0111417D01*
X0106178Y0111442D01*
X0106100Y0111471D01*
X0106023Y0111504D01*
X0105948Y0111541D01*
X0105875Y0111580D01*
X0105804Y0111624D01*
X0105735Y0111670D01*
X0105668Y0111720D01*
X0105604Y0111773D01*
X0105542Y0111829D01*
X0105483Y0111888D01*
X0105427Y0111950D01*
X0105374Y0112014D01*
X0105324Y0112081D01*
X0105278Y0112150D01*
X0105234Y0112221D01*
X0105195Y0112294D01*
X0105158Y0112369D01*
X0105125Y0112446D01*
X0105096Y0112524D01*
X0105071Y0112603D01*
X0105049Y0112683D01*
X0105032Y0112765D01*
X0105018Y0112847D01*
X0105008Y0112930D01*
X0105002Y0113013D01*
X0105000Y0113096D01*
X0044920Y0113572D02*
X0044922Y0113730D01*
X0044928Y0113888D01*
X0044938Y0114046D01*
X0044952Y0114204D01*
X0044970Y0114361D01*
X0044991Y0114518D01*
X0045017Y0114674D01*
X0045047Y0114830D01*
X0045080Y0114985D01*
X0045118Y0115138D01*
X0045159Y0115291D01*
X0045204Y0115443D01*
X0045253Y0115594D01*
X0045306Y0115743D01*
X0045362Y0115891D01*
X0045422Y0116037D01*
X0045486Y0116182D01*
X0045554Y0116325D01*
X0045625Y0116467D01*
X0045699Y0116607D01*
X0045777Y0116744D01*
X0045859Y0116880D01*
X0045943Y0117014D01*
X0046032Y0117145D01*
X0046123Y0117274D01*
X0046218Y0117401D01*
X0046315Y0117526D01*
X0046416Y0117648D01*
X0046520Y0117767D01*
X0046627Y0117884D01*
X0046737Y0117998D01*
X0046850Y0118109D01*
X0046965Y0118218D01*
X0047083Y0118323D01*
X0047204Y0118425D01*
X0047327Y0118525D01*
X0047453Y0118621D01*
X0047581Y0118714D01*
X0047711Y0118804D01*
X0047844Y0118890D01*
X0047979Y0118974D01*
X0048115Y0119053D01*
X0048254Y0119130D01*
X0048395Y0119202D01*
X0048537Y0119272D01*
X0048681Y0119337D01*
X0048827Y0119399D01*
X0048974Y0119457D01*
X0049123Y0119512D01*
X0049273Y0119563D01*
X0049424Y0119610D01*
X0049576Y0119653D01*
X0049729Y0119692D01*
X0049884Y0119728D01*
X0050039Y0119759D01*
X0050195Y0119787D01*
X0050351Y0119811D01*
X0050508Y0119831D01*
X0050666Y0119847D01*
X0050823Y0119859D01*
X0050982Y0119867D01*
X0051140Y0119871D01*
X0051298Y0119871D01*
X0051456Y0119867D01*
X0051615Y0119859D01*
X0051772Y0119847D01*
X0051930Y0119831D01*
X0052087Y0119811D01*
X0052243Y0119787D01*
X0052399Y0119759D01*
X0052554Y0119728D01*
X0052709Y0119692D01*
X0052862Y0119653D01*
X0053014Y0119610D01*
X0053165Y0119563D01*
X0053315Y0119512D01*
X0053464Y0119457D01*
X0053611Y0119399D01*
X0053757Y0119337D01*
X0053901Y0119272D01*
X0054043Y0119202D01*
X0054184Y0119130D01*
X0054323Y0119053D01*
X0054459Y0118974D01*
X0054594Y0118890D01*
X0054727Y0118804D01*
X0054857Y0118714D01*
X0054985Y0118621D01*
X0055111Y0118525D01*
X0055234Y0118425D01*
X0055355Y0118323D01*
X0055473Y0118218D01*
X0055588Y0118109D01*
X0055701Y0117998D01*
X0055811Y0117884D01*
X0055918Y0117767D01*
X0056022Y0117648D01*
X0056123Y0117526D01*
X0056220Y0117401D01*
X0056315Y0117274D01*
X0056406Y0117145D01*
X0056495Y0117014D01*
X0056579Y0116880D01*
X0056661Y0116744D01*
X0056739Y0116607D01*
X0056813Y0116467D01*
X0056884Y0116325D01*
X0056952Y0116182D01*
X0057016Y0116037D01*
X0057076Y0115891D01*
X0057132Y0115743D01*
X0057185Y0115594D01*
X0057234Y0115443D01*
X0057279Y0115291D01*
X0057320Y0115138D01*
X0057358Y0114985D01*
X0057391Y0114830D01*
X0057421Y0114674D01*
X0057447Y0114518D01*
X0057468Y0114361D01*
X0057486Y0114204D01*
X0057500Y0114046D01*
X0057510Y0113888D01*
X0057516Y0113730D01*
X0057518Y0113572D01*
X0057516Y0113414D01*
X0057510Y0113256D01*
X0057500Y0113098D01*
X0057486Y0112940D01*
X0057468Y0112783D01*
X0057447Y0112626D01*
X0057421Y0112470D01*
X0057391Y0112314D01*
X0057358Y0112159D01*
X0057320Y0112006D01*
X0057279Y0111853D01*
X0057234Y0111701D01*
X0057185Y0111550D01*
X0057132Y0111401D01*
X0057076Y0111253D01*
X0057016Y0111107D01*
X0056952Y0110962D01*
X0056884Y0110819D01*
X0056813Y0110677D01*
X0056739Y0110537D01*
X0056661Y0110400D01*
X0056579Y0110264D01*
X0056495Y0110130D01*
X0056406Y0109999D01*
X0056315Y0109870D01*
X0056220Y0109743D01*
X0056123Y0109618D01*
X0056022Y0109496D01*
X0055918Y0109377D01*
X0055811Y0109260D01*
X0055701Y0109146D01*
X0055588Y0109035D01*
X0055473Y0108926D01*
X0055355Y0108821D01*
X0055234Y0108719D01*
X0055111Y0108619D01*
X0054985Y0108523D01*
X0054857Y0108430D01*
X0054727Y0108340D01*
X0054594Y0108254D01*
X0054459Y0108170D01*
X0054323Y0108091D01*
X0054184Y0108014D01*
X0054043Y0107942D01*
X0053901Y0107872D01*
X0053757Y0107807D01*
X0053611Y0107745D01*
X0053464Y0107687D01*
X0053315Y0107632D01*
X0053165Y0107581D01*
X0053014Y0107534D01*
X0052862Y0107491D01*
X0052709Y0107452D01*
X0052554Y0107416D01*
X0052399Y0107385D01*
X0052243Y0107357D01*
X0052087Y0107333D01*
X0051930Y0107313D01*
X0051772Y0107297D01*
X0051615Y0107285D01*
X0051456Y0107277D01*
X0051298Y0107273D01*
X0051140Y0107273D01*
X0050982Y0107277D01*
X0050823Y0107285D01*
X0050666Y0107297D01*
X0050508Y0107313D01*
X0050351Y0107333D01*
X0050195Y0107357D01*
X0050039Y0107385D01*
X0049884Y0107416D01*
X0049729Y0107452D01*
X0049576Y0107491D01*
X0049424Y0107534D01*
X0049273Y0107581D01*
X0049123Y0107632D01*
X0048974Y0107687D01*
X0048827Y0107745D01*
X0048681Y0107807D01*
X0048537Y0107872D01*
X0048395Y0107942D01*
X0048254Y0108014D01*
X0048115Y0108091D01*
X0047979Y0108170D01*
X0047844Y0108254D01*
X0047711Y0108340D01*
X0047581Y0108430D01*
X0047453Y0108523D01*
X0047327Y0108619D01*
X0047204Y0108719D01*
X0047083Y0108821D01*
X0046965Y0108926D01*
X0046850Y0109035D01*
X0046737Y0109146D01*
X0046627Y0109260D01*
X0046520Y0109377D01*
X0046416Y0109496D01*
X0046315Y0109618D01*
X0046218Y0109743D01*
X0046123Y0109870D01*
X0046032Y0109999D01*
X0045943Y0110130D01*
X0045859Y0110264D01*
X0045777Y0110400D01*
X0045699Y0110537D01*
X0045625Y0110677D01*
X0045554Y0110819D01*
X0045486Y0110962D01*
X0045422Y0111107D01*
X0045362Y0111253D01*
X0045306Y0111401D01*
X0045253Y0111550D01*
X0045204Y0111701D01*
X0045159Y0111853D01*
X0045118Y0112006D01*
X0045080Y0112159D01*
X0045047Y0112314D01*
X0045017Y0112470D01*
X0044991Y0112626D01*
X0044970Y0112783D01*
X0044952Y0112940D01*
X0044938Y0113098D01*
X0044928Y0113256D01*
X0044922Y0113414D01*
X0044920Y0113572D01*
X0012951Y0019596D02*
X0012953Y0019754D01*
X0012959Y0019912D01*
X0012969Y0020070D01*
X0012983Y0020228D01*
X0013001Y0020385D01*
X0013022Y0020542D01*
X0013048Y0020698D01*
X0013078Y0020854D01*
X0013111Y0021009D01*
X0013149Y0021162D01*
X0013190Y0021315D01*
X0013235Y0021467D01*
X0013284Y0021618D01*
X0013337Y0021767D01*
X0013393Y0021915D01*
X0013453Y0022061D01*
X0013517Y0022206D01*
X0013585Y0022349D01*
X0013656Y0022491D01*
X0013730Y0022631D01*
X0013808Y0022768D01*
X0013890Y0022904D01*
X0013974Y0023038D01*
X0014063Y0023169D01*
X0014154Y0023298D01*
X0014249Y0023425D01*
X0014346Y0023550D01*
X0014447Y0023672D01*
X0014551Y0023791D01*
X0014658Y0023908D01*
X0014768Y0024022D01*
X0014881Y0024133D01*
X0014996Y0024242D01*
X0015114Y0024347D01*
X0015235Y0024449D01*
X0015358Y0024549D01*
X0015484Y0024645D01*
X0015612Y0024738D01*
X0015742Y0024828D01*
X0015875Y0024914D01*
X0016010Y0024998D01*
X0016146Y0025077D01*
X0016285Y0025154D01*
X0016426Y0025226D01*
X0016568Y0025296D01*
X0016712Y0025361D01*
X0016858Y0025423D01*
X0017005Y0025481D01*
X0017154Y0025536D01*
X0017304Y0025587D01*
X0017455Y0025634D01*
X0017607Y0025677D01*
X0017760Y0025716D01*
X0017915Y0025752D01*
X0018070Y0025783D01*
X0018226Y0025811D01*
X0018382Y0025835D01*
X0018539Y0025855D01*
X0018697Y0025871D01*
X0018854Y0025883D01*
X0019013Y0025891D01*
X0019171Y0025895D01*
X0019329Y0025895D01*
X0019487Y0025891D01*
X0019646Y0025883D01*
X0019803Y0025871D01*
X0019961Y0025855D01*
X0020118Y0025835D01*
X0020274Y0025811D01*
X0020430Y0025783D01*
X0020585Y0025752D01*
X0020740Y0025716D01*
X0020893Y0025677D01*
X0021045Y0025634D01*
X0021196Y0025587D01*
X0021346Y0025536D01*
X0021495Y0025481D01*
X0021642Y0025423D01*
X0021788Y0025361D01*
X0021932Y0025296D01*
X0022074Y0025226D01*
X0022215Y0025154D01*
X0022354Y0025077D01*
X0022490Y0024998D01*
X0022625Y0024914D01*
X0022758Y0024828D01*
X0022888Y0024738D01*
X0023016Y0024645D01*
X0023142Y0024549D01*
X0023265Y0024449D01*
X0023386Y0024347D01*
X0023504Y0024242D01*
X0023619Y0024133D01*
X0023732Y0024022D01*
X0023842Y0023908D01*
X0023949Y0023791D01*
X0024053Y0023672D01*
X0024154Y0023550D01*
X0024251Y0023425D01*
X0024346Y0023298D01*
X0024437Y0023169D01*
X0024526Y0023038D01*
X0024610Y0022904D01*
X0024692Y0022768D01*
X0024770Y0022631D01*
X0024844Y0022491D01*
X0024915Y0022349D01*
X0024983Y0022206D01*
X0025047Y0022061D01*
X0025107Y0021915D01*
X0025163Y0021767D01*
X0025216Y0021618D01*
X0025265Y0021467D01*
X0025310Y0021315D01*
X0025351Y0021162D01*
X0025389Y0021009D01*
X0025422Y0020854D01*
X0025452Y0020698D01*
X0025478Y0020542D01*
X0025499Y0020385D01*
X0025517Y0020228D01*
X0025531Y0020070D01*
X0025541Y0019912D01*
X0025547Y0019754D01*
X0025549Y0019596D01*
X0025547Y0019438D01*
X0025541Y0019280D01*
X0025531Y0019122D01*
X0025517Y0018964D01*
X0025499Y0018807D01*
X0025478Y0018650D01*
X0025452Y0018494D01*
X0025422Y0018338D01*
X0025389Y0018183D01*
X0025351Y0018030D01*
X0025310Y0017877D01*
X0025265Y0017725D01*
X0025216Y0017574D01*
X0025163Y0017425D01*
X0025107Y0017277D01*
X0025047Y0017131D01*
X0024983Y0016986D01*
X0024915Y0016843D01*
X0024844Y0016701D01*
X0024770Y0016561D01*
X0024692Y0016424D01*
X0024610Y0016288D01*
X0024526Y0016154D01*
X0024437Y0016023D01*
X0024346Y0015894D01*
X0024251Y0015767D01*
X0024154Y0015642D01*
X0024053Y0015520D01*
X0023949Y0015401D01*
X0023842Y0015284D01*
X0023732Y0015170D01*
X0023619Y0015059D01*
X0023504Y0014950D01*
X0023386Y0014845D01*
X0023265Y0014743D01*
X0023142Y0014643D01*
X0023016Y0014547D01*
X0022888Y0014454D01*
X0022758Y0014364D01*
X0022625Y0014278D01*
X0022490Y0014194D01*
X0022354Y0014115D01*
X0022215Y0014038D01*
X0022074Y0013966D01*
X0021932Y0013896D01*
X0021788Y0013831D01*
X0021642Y0013769D01*
X0021495Y0013711D01*
X0021346Y0013656D01*
X0021196Y0013605D01*
X0021045Y0013558D01*
X0020893Y0013515D01*
X0020740Y0013476D01*
X0020585Y0013440D01*
X0020430Y0013409D01*
X0020274Y0013381D01*
X0020118Y0013357D01*
X0019961Y0013337D01*
X0019803Y0013321D01*
X0019646Y0013309D01*
X0019487Y0013301D01*
X0019329Y0013297D01*
X0019171Y0013297D01*
X0019013Y0013301D01*
X0018854Y0013309D01*
X0018697Y0013321D01*
X0018539Y0013337D01*
X0018382Y0013357D01*
X0018226Y0013381D01*
X0018070Y0013409D01*
X0017915Y0013440D01*
X0017760Y0013476D01*
X0017607Y0013515D01*
X0017455Y0013558D01*
X0017304Y0013605D01*
X0017154Y0013656D01*
X0017005Y0013711D01*
X0016858Y0013769D01*
X0016712Y0013831D01*
X0016568Y0013896D01*
X0016426Y0013966D01*
X0016285Y0014038D01*
X0016146Y0014115D01*
X0016010Y0014194D01*
X0015875Y0014278D01*
X0015742Y0014364D01*
X0015612Y0014454D01*
X0015484Y0014547D01*
X0015358Y0014643D01*
X0015235Y0014743D01*
X0015114Y0014845D01*
X0014996Y0014950D01*
X0014881Y0015059D01*
X0014768Y0015170D01*
X0014658Y0015284D01*
X0014551Y0015401D01*
X0014447Y0015520D01*
X0014346Y0015642D01*
X0014249Y0015767D01*
X0014154Y0015894D01*
X0014063Y0016023D01*
X0013974Y0016154D01*
X0013890Y0016288D01*
X0013808Y0016424D01*
X0013730Y0016561D01*
X0013656Y0016701D01*
X0013585Y0016843D01*
X0013517Y0016986D01*
X0013453Y0017131D01*
X0013393Y0017277D01*
X0013337Y0017425D01*
X0013284Y0017574D01*
X0013235Y0017725D01*
X0013190Y0017877D01*
X0013149Y0018030D01*
X0013111Y0018183D01*
X0013078Y0018338D01*
X0013048Y0018494D01*
X0013022Y0018650D01*
X0013001Y0018807D01*
X0012983Y0018964D01*
X0012969Y0019122D01*
X0012959Y0019280D01*
X0012953Y0019438D01*
X0012951Y0019596D01*
X0044920Y0235619D02*
X0044922Y0235777D01*
X0044928Y0235935D01*
X0044938Y0236093D01*
X0044952Y0236251D01*
X0044970Y0236408D01*
X0044991Y0236565D01*
X0045017Y0236721D01*
X0045047Y0236877D01*
X0045080Y0237032D01*
X0045118Y0237185D01*
X0045159Y0237338D01*
X0045204Y0237490D01*
X0045253Y0237641D01*
X0045306Y0237790D01*
X0045362Y0237938D01*
X0045422Y0238084D01*
X0045486Y0238229D01*
X0045554Y0238372D01*
X0045625Y0238514D01*
X0045699Y0238654D01*
X0045777Y0238791D01*
X0045859Y0238927D01*
X0045943Y0239061D01*
X0046032Y0239192D01*
X0046123Y0239321D01*
X0046218Y0239448D01*
X0046315Y0239573D01*
X0046416Y0239695D01*
X0046520Y0239814D01*
X0046627Y0239931D01*
X0046737Y0240045D01*
X0046850Y0240156D01*
X0046965Y0240265D01*
X0047083Y0240370D01*
X0047204Y0240472D01*
X0047327Y0240572D01*
X0047453Y0240668D01*
X0047581Y0240761D01*
X0047711Y0240851D01*
X0047844Y0240937D01*
X0047979Y0241021D01*
X0048115Y0241100D01*
X0048254Y0241177D01*
X0048395Y0241249D01*
X0048537Y0241319D01*
X0048681Y0241384D01*
X0048827Y0241446D01*
X0048974Y0241504D01*
X0049123Y0241559D01*
X0049273Y0241610D01*
X0049424Y0241657D01*
X0049576Y0241700D01*
X0049729Y0241739D01*
X0049884Y0241775D01*
X0050039Y0241806D01*
X0050195Y0241834D01*
X0050351Y0241858D01*
X0050508Y0241878D01*
X0050666Y0241894D01*
X0050823Y0241906D01*
X0050982Y0241914D01*
X0051140Y0241918D01*
X0051298Y0241918D01*
X0051456Y0241914D01*
X0051615Y0241906D01*
X0051772Y0241894D01*
X0051930Y0241878D01*
X0052087Y0241858D01*
X0052243Y0241834D01*
X0052399Y0241806D01*
X0052554Y0241775D01*
X0052709Y0241739D01*
X0052862Y0241700D01*
X0053014Y0241657D01*
X0053165Y0241610D01*
X0053315Y0241559D01*
X0053464Y0241504D01*
X0053611Y0241446D01*
X0053757Y0241384D01*
X0053901Y0241319D01*
X0054043Y0241249D01*
X0054184Y0241177D01*
X0054323Y0241100D01*
X0054459Y0241021D01*
X0054594Y0240937D01*
X0054727Y0240851D01*
X0054857Y0240761D01*
X0054985Y0240668D01*
X0055111Y0240572D01*
X0055234Y0240472D01*
X0055355Y0240370D01*
X0055473Y0240265D01*
X0055588Y0240156D01*
X0055701Y0240045D01*
X0055811Y0239931D01*
X0055918Y0239814D01*
X0056022Y0239695D01*
X0056123Y0239573D01*
X0056220Y0239448D01*
X0056315Y0239321D01*
X0056406Y0239192D01*
X0056495Y0239061D01*
X0056579Y0238927D01*
X0056661Y0238791D01*
X0056739Y0238654D01*
X0056813Y0238514D01*
X0056884Y0238372D01*
X0056952Y0238229D01*
X0057016Y0238084D01*
X0057076Y0237938D01*
X0057132Y0237790D01*
X0057185Y0237641D01*
X0057234Y0237490D01*
X0057279Y0237338D01*
X0057320Y0237185D01*
X0057358Y0237032D01*
X0057391Y0236877D01*
X0057421Y0236721D01*
X0057447Y0236565D01*
X0057468Y0236408D01*
X0057486Y0236251D01*
X0057500Y0236093D01*
X0057510Y0235935D01*
X0057516Y0235777D01*
X0057518Y0235619D01*
X0057516Y0235461D01*
X0057510Y0235303D01*
X0057500Y0235145D01*
X0057486Y0234987D01*
X0057468Y0234830D01*
X0057447Y0234673D01*
X0057421Y0234517D01*
X0057391Y0234361D01*
X0057358Y0234206D01*
X0057320Y0234053D01*
X0057279Y0233900D01*
X0057234Y0233748D01*
X0057185Y0233597D01*
X0057132Y0233448D01*
X0057076Y0233300D01*
X0057016Y0233154D01*
X0056952Y0233009D01*
X0056884Y0232866D01*
X0056813Y0232724D01*
X0056739Y0232584D01*
X0056661Y0232447D01*
X0056579Y0232311D01*
X0056495Y0232177D01*
X0056406Y0232046D01*
X0056315Y0231917D01*
X0056220Y0231790D01*
X0056123Y0231665D01*
X0056022Y0231543D01*
X0055918Y0231424D01*
X0055811Y0231307D01*
X0055701Y0231193D01*
X0055588Y0231082D01*
X0055473Y0230973D01*
X0055355Y0230868D01*
X0055234Y0230766D01*
X0055111Y0230666D01*
X0054985Y0230570D01*
X0054857Y0230477D01*
X0054727Y0230387D01*
X0054594Y0230301D01*
X0054459Y0230217D01*
X0054323Y0230138D01*
X0054184Y0230061D01*
X0054043Y0229989D01*
X0053901Y0229919D01*
X0053757Y0229854D01*
X0053611Y0229792D01*
X0053464Y0229734D01*
X0053315Y0229679D01*
X0053165Y0229628D01*
X0053014Y0229581D01*
X0052862Y0229538D01*
X0052709Y0229499D01*
X0052554Y0229463D01*
X0052399Y0229432D01*
X0052243Y0229404D01*
X0052087Y0229380D01*
X0051930Y0229360D01*
X0051772Y0229344D01*
X0051615Y0229332D01*
X0051456Y0229324D01*
X0051298Y0229320D01*
X0051140Y0229320D01*
X0050982Y0229324D01*
X0050823Y0229332D01*
X0050666Y0229344D01*
X0050508Y0229360D01*
X0050351Y0229380D01*
X0050195Y0229404D01*
X0050039Y0229432D01*
X0049884Y0229463D01*
X0049729Y0229499D01*
X0049576Y0229538D01*
X0049424Y0229581D01*
X0049273Y0229628D01*
X0049123Y0229679D01*
X0048974Y0229734D01*
X0048827Y0229792D01*
X0048681Y0229854D01*
X0048537Y0229919D01*
X0048395Y0229989D01*
X0048254Y0230061D01*
X0048115Y0230138D01*
X0047979Y0230217D01*
X0047844Y0230301D01*
X0047711Y0230387D01*
X0047581Y0230477D01*
X0047453Y0230570D01*
X0047327Y0230666D01*
X0047204Y0230766D01*
X0047083Y0230868D01*
X0046965Y0230973D01*
X0046850Y0231082D01*
X0046737Y0231193D01*
X0046627Y0231307D01*
X0046520Y0231424D01*
X0046416Y0231543D01*
X0046315Y0231665D01*
X0046218Y0231790D01*
X0046123Y0231917D01*
X0046032Y0232046D01*
X0045943Y0232177D01*
X0045859Y0232311D01*
X0045777Y0232447D01*
X0045699Y0232584D01*
X0045625Y0232724D01*
X0045554Y0232866D01*
X0045486Y0233009D01*
X0045422Y0233154D01*
X0045362Y0233300D01*
X0045306Y0233448D01*
X0045253Y0233597D01*
X0045204Y0233748D01*
X0045159Y0233900D01*
X0045118Y0234053D01*
X0045080Y0234206D01*
X0045047Y0234361D01*
X0045017Y0234517D01*
X0044991Y0234673D01*
X0044970Y0234830D01*
X0044952Y0234987D01*
X0044938Y0235145D01*
X0044928Y0235303D01*
X0044922Y0235461D01*
X0044920Y0235619D01*
X0012951Y0239596D02*
X0012953Y0239754D01*
X0012959Y0239912D01*
X0012969Y0240070D01*
X0012983Y0240228D01*
X0013001Y0240385D01*
X0013022Y0240542D01*
X0013048Y0240698D01*
X0013078Y0240854D01*
X0013111Y0241009D01*
X0013149Y0241162D01*
X0013190Y0241315D01*
X0013235Y0241467D01*
X0013284Y0241618D01*
X0013337Y0241767D01*
X0013393Y0241915D01*
X0013453Y0242061D01*
X0013517Y0242206D01*
X0013585Y0242349D01*
X0013656Y0242491D01*
X0013730Y0242631D01*
X0013808Y0242768D01*
X0013890Y0242904D01*
X0013974Y0243038D01*
X0014063Y0243169D01*
X0014154Y0243298D01*
X0014249Y0243425D01*
X0014346Y0243550D01*
X0014447Y0243672D01*
X0014551Y0243791D01*
X0014658Y0243908D01*
X0014768Y0244022D01*
X0014881Y0244133D01*
X0014996Y0244242D01*
X0015114Y0244347D01*
X0015235Y0244449D01*
X0015358Y0244549D01*
X0015484Y0244645D01*
X0015612Y0244738D01*
X0015742Y0244828D01*
X0015875Y0244914D01*
X0016010Y0244998D01*
X0016146Y0245077D01*
X0016285Y0245154D01*
X0016426Y0245226D01*
X0016568Y0245296D01*
X0016712Y0245361D01*
X0016858Y0245423D01*
X0017005Y0245481D01*
X0017154Y0245536D01*
X0017304Y0245587D01*
X0017455Y0245634D01*
X0017607Y0245677D01*
X0017760Y0245716D01*
X0017915Y0245752D01*
X0018070Y0245783D01*
X0018226Y0245811D01*
X0018382Y0245835D01*
X0018539Y0245855D01*
X0018697Y0245871D01*
X0018854Y0245883D01*
X0019013Y0245891D01*
X0019171Y0245895D01*
X0019329Y0245895D01*
X0019487Y0245891D01*
X0019646Y0245883D01*
X0019803Y0245871D01*
X0019961Y0245855D01*
X0020118Y0245835D01*
X0020274Y0245811D01*
X0020430Y0245783D01*
X0020585Y0245752D01*
X0020740Y0245716D01*
X0020893Y0245677D01*
X0021045Y0245634D01*
X0021196Y0245587D01*
X0021346Y0245536D01*
X0021495Y0245481D01*
X0021642Y0245423D01*
X0021788Y0245361D01*
X0021932Y0245296D01*
X0022074Y0245226D01*
X0022215Y0245154D01*
X0022354Y0245077D01*
X0022490Y0244998D01*
X0022625Y0244914D01*
X0022758Y0244828D01*
X0022888Y0244738D01*
X0023016Y0244645D01*
X0023142Y0244549D01*
X0023265Y0244449D01*
X0023386Y0244347D01*
X0023504Y0244242D01*
X0023619Y0244133D01*
X0023732Y0244022D01*
X0023842Y0243908D01*
X0023949Y0243791D01*
X0024053Y0243672D01*
X0024154Y0243550D01*
X0024251Y0243425D01*
X0024346Y0243298D01*
X0024437Y0243169D01*
X0024526Y0243038D01*
X0024610Y0242904D01*
X0024692Y0242768D01*
X0024770Y0242631D01*
X0024844Y0242491D01*
X0024915Y0242349D01*
X0024983Y0242206D01*
X0025047Y0242061D01*
X0025107Y0241915D01*
X0025163Y0241767D01*
X0025216Y0241618D01*
X0025265Y0241467D01*
X0025310Y0241315D01*
X0025351Y0241162D01*
X0025389Y0241009D01*
X0025422Y0240854D01*
X0025452Y0240698D01*
X0025478Y0240542D01*
X0025499Y0240385D01*
X0025517Y0240228D01*
X0025531Y0240070D01*
X0025541Y0239912D01*
X0025547Y0239754D01*
X0025549Y0239596D01*
X0025547Y0239438D01*
X0025541Y0239280D01*
X0025531Y0239122D01*
X0025517Y0238964D01*
X0025499Y0238807D01*
X0025478Y0238650D01*
X0025452Y0238494D01*
X0025422Y0238338D01*
X0025389Y0238183D01*
X0025351Y0238030D01*
X0025310Y0237877D01*
X0025265Y0237725D01*
X0025216Y0237574D01*
X0025163Y0237425D01*
X0025107Y0237277D01*
X0025047Y0237131D01*
X0024983Y0236986D01*
X0024915Y0236843D01*
X0024844Y0236701D01*
X0024770Y0236561D01*
X0024692Y0236424D01*
X0024610Y0236288D01*
X0024526Y0236154D01*
X0024437Y0236023D01*
X0024346Y0235894D01*
X0024251Y0235767D01*
X0024154Y0235642D01*
X0024053Y0235520D01*
X0023949Y0235401D01*
X0023842Y0235284D01*
X0023732Y0235170D01*
X0023619Y0235059D01*
X0023504Y0234950D01*
X0023386Y0234845D01*
X0023265Y0234743D01*
X0023142Y0234643D01*
X0023016Y0234547D01*
X0022888Y0234454D01*
X0022758Y0234364D01*
X0022625Y0234278D01*
X0022490Y0234194D01*
X0022354Y0234115D01*
X0022215Y0234038D01*
X0022074Y0233966D01*
X0021932Y0233896D01*
X0021788Y0233831D01*
X0021642Y0233769D01*
X0021495Y0233711D01*
X0021346Y0233656D01*
X0021196Y0233605D01*
X0021045Y0233558D01*
X0020893Y0233515D01*
X0020740Y0233476D01*
X0020585Y0233440D01*
X0020430Y0233409D01*
X0020274Y0233381D01*
X0020118Y0233357D01*
X0019961Y0233337D01*
X0019803Y0233321D01*
X0019646Y0233309D01*
X0019487Y0233301D01*
X0019329Y0233297D01*
X0019171Y0233297D01*
X0019013Y0233301D01*
X0018854Y0233309D01*
X0018697Y0233321D01*
X0018539Y0233337D01*
X0018382Y0233357D01*
X0018226Y0233381D01*
X0018070Y0233409D01*
X0017915Y0233440D01*
X0017760Y0233476D01*
X0017607Y0233515D01*
X0017455Y0233558D01*
X0017304Y0233605D01*
X0017154Y0233656D01*
X0017005Y0233711D01*
X0016858Y0233769D01*
X0016712Y0233831D01*
X0016568Y0233896D01*
X0016426Y0233966D01*
X0016285Y0234038D01*
X0016146Y0234115D01*
X0016010Y0234194D01*
X0015875Y0234278D01*
X0015742Y0234364D01*
X0015612Y0234454D01*
X0015484Y0234547D01*
X0015358Y0234643D01*
X0015235Y0234743D01*
X0015114Y0234845D01*
X0014996Y0234950D01*
X0014881Y0235059D01*
X0014768Y0235170D01*
X0014658Y0235284D01*
X0014551Y0235401D01*
X0014447Y0235520D01*
X0014346Y0235642D01*
X0014249Y0235767D01*
X0014154Y0235894D01*
X0014063Y0236023D01*
X0013974Y0236154D01*
X0013890Y0236288D01*
X0013808Y0236424D01*
X0013730Y0236561D01*
X0013656Y0236701D01*
X0013585Y0236843D01*
X0013517Y0236986D01*
X0013453Y0237131D01*
X0013393Y0237277D01*
X0013337Y0237425D01*
X0013284Y0237574D01*
X0013235Y0237725D01*
X0013190Y0237877D01*
X0013149Y0238030D01*
X0013111Y0238183D01*
X0013078Y0238338D01*
X0013048Y0238494D01*
X0013022Y0238650D01*
X0013001Y0238807D01*
X0012983Y0238964D01*
X0012969Y0239122D01*
X0012959Y0239280D01*
X0012953Y0239438D01*
X0012951Y0239596D01*
X0340982Y0235619D02*
X0340984Y0235777D01*
X0340990Y0235935D01*
X0341000Y0236093D01*
X0341014Y0236251D01*
X0341032Y0236408D01*
X0341053Y0236565D01*
X0341079Y0236721D01*
X0341109Y0236877D01*
X0341142Y0237032D01*
X0341180Y0237185D01*
X0341221Y0237338D01*
X0341266Y0237490D01*
X0341315Y0237641D01*
X0341368Y0237790D01*
X0341424Y0237938D01*
X0341484Y0238084D01*
X0341548Y0238229D01*
X0341616Y0238372D01*
X0341687Y0238514D01*
X0341761Y0238654D01*
X0341839Y0238791D01*
X0341921Y0238927D01*
X0342005Y0239061D01*
X0342094Y0239192D01*
X0342185Y0239321D01*
X0342280Y0239448D01*
X0342377Y0239573D01*
X0342478Y0239695D01*
X0342582Y0239814D01*
X0342689Y0239931D01*
X0342799Y0240045D01*
X0342912Y0240156D01*
X0343027Y0240265D01*
X0343145Y0240370D01*
X0343266Y0240472D01*
X0343389Y0240572D01*
X0343515Y0240668D01*
X0343643Y0240761D01*
X0343773Y0240851D01*
X0343906Y0240937D01*
X0344041Y0241021D01*
X0344177Y0241100D01*
X0344316Y0241177D01*
X0344457Y0241249D01*
X0344599Y0241319D01*
X0344743Y0241384D01*
X0344889Y0241446D01*
X0345036Y0241504D01*
X0345185Y0241559D01*
X0345335Y0241610D01*
X0345486Y0241657D01*
X0345638Y0241700D01*
X0345791Y0241739D01*
X0345946Y0241775D01*
X0346101Y0241806D01*
X0346257Y0241834D01*
X0346413Y0241858D01*
X0346570Y0241878D01*
X0346728Y0241894D01*
X0346885Y0241906D01*
X0347044Y0241914D01*
X0347202Y0241918D01*
X0347360Y0241918D01*
X0347518Y0241914D01*
X0347677Y0241906D01*
X0347834Y0241894D01*
X0347992Y0241878D01*
X0348149Y0241858D01*
X0348305Y0241834D01*
X0348461Y0241806D01*
X0348616Y0241775D01*
X0348771Y0241739D01*
X0348924Y0241700D01*
X0349076Y0241657D01*
X0349227Y0241610D01*
X0349377Y0241559D01*
X0349526Y0241504D01*
X0349673Y0241446D01*
X0349819Y0241384D01*
X0349963Y0241319D01*
X0350105Y0241249D01*
X0350246Y0241177D01*
X0350385Y0241100D01*
X0350521Y0241021D01*
X0350656Y0240937D01*
X0350789Y0240851D01*
X0350919Y0240761D01*
X0351047Y0240668D01*
X0351173Y0240572D01*
X0351296Y0240472D01*
X0351417Y0240370D01*
X0351535Y0240265D01*
X0351650Y0240156D01*
X0351763Y0240045D01*
X0351873Y0239931D01*
X0351980Y0239814D01*
X0352084Y0239695D01*
X0352185Y0239573D01*
X0352282Y0239448D01*
X0352377Y0239321D01*
X0352468Y0239192D01*
X0352557Y0239061D01*
X0352641Y0238927D01*
X0352723Y0238791D01*
X0352801Y0238654D01*
X0352875Y0238514D01*
X0352946Y0238372D01*
X0353014Y0238229D01*
X0353078Y0238084D01*
X0353138Y0237938D01*
X0353194Y0237790D01*
X0353247Y0237641D01*
X0353296Y0237490D01*
X0353341Y0237338D01*
X0353382Y0237185D01*
X0353420Y0237032D01*
X0353453Y0236877D01*
X0353483Y0236721D01*
X0353509Y0236565D01*
X0353530Y0236408D01*
X0353548Y0236251D01*
X0353562Y0236093D01*
X0353572Y0235935D01*
X0353578Y0235777D01*
X0353580Y0235619D01*
X0353578Y0235461D01*
X0353572Y0235303D01*
X0353562Y0235145D01*
X0353548Y0234987D01*
X0353530Y0234830D01*
X0353509Y0234673D01*
X0353483Y0234517D01*
X0353453Y0234361D01*
X0353420Y0234206D01*
X0353382Y0234053D01*
X0353341Y0233900D01*
X0353296Y0233748D01*
X0353247Y0233597D01*
X0353194Y0233448D01*
X0353138Y0233300D01*
X0353078Y0233154D01*
X0353014Y0233009D01*
X0352946Y0232866D01*
X0352875Y0232724D01*
X0352801Y0232584D01*
X0352723Y0232447D01*
X0352641Y0232311D01*
X0352557Y0232177D01*
X0352468Y0232046D01*
X0352377Y0231917D01*
X0352282Y0231790D01*
X0352185Y0231665D01*
X0352084Y0231543D01*
X0351980Y0231424D01*
X0351873Y0231307D01*
X0351763Y0231193D01*
X0351650Y0231082D01*
X0351535Y0230973D01*
X0351417Y0230868D01*
X0351296Y0230766D01*
X0351173Y0230666D01*
X0351047Y0230570D01*
X0350919Y0230477D01*
X0350789Y0230387D01*
X0350656Y0230301D01*
X0350521Y0230217D01*
X0350385Y0230138D01*
X0350246Y0230061D01*
X0350105Y0229989D01*
X0349963Y0229919D01*
X0349819Y0229854D01*
X0349673Y0229792D01*
X0349526Y0229734D01*
X0349377Y0229679D01*
X0349227Y0229628D01*
X0349076Y0229581D01*
X0348924Y0229538D01*
X0348771Y0229499D01*
X0348616Y0229463D01*
X0348461Y0229432D01*
X0348305Y0229404D01*
X0348149Y0229380D01*
X0347992Y0229360D01*
X0347834Y0229344D01*
X0347677Y0229332D01*
X0347518Y0229324D01*
X0347360Y0229320D01*
X0347202Y0229320D01*
X0347044Y0229324D01*
X0346885Y0229332D01*
X0346728Y0229344D01*
X0346570Y0229360D01*
X0346413Y0229380D01*
X0346257Y0229404D01*
X0346101Y0229432D01*
X0345946Y0229463D01*
X0345791Y0229499D01*
X0345638Y0229538D01*
X0345486Y0229581D01*
X0345335Y0229628D01*
X0345185Y0229679D01*
X0345036Y0229734D01*
X0344889Y0229792D01*
X0344743Y0229854D01*
X0344599Y0229919D01*
X0344457Y0229989D01*
X0344316Y0230061D01*
X0344177Y0230138D01*
X0344041Y0230217D01*
X0343906Y0230301D01*
X0343773Y0230387D01*
X0343643Y0230477D01*
X0343515Y0230570D01*
X0343389Y0230666D01*
X0343266Y0230766D01*
X0343145Y0230868D01*
X0343027Y0230973D01*
X0342912Y0231082D01*
X0342799Y0231193D01*
X0342689Y0231307D01*
X0342582Y0231424D01*
X0342478Y0231543D01*
X0342377Y0231665D01*
X0342280Y0231790D01*
X0342185Y0231917D01*
X0342094Y0232046D01*
X0342005Y0232177D01*
X0341921Y0232311D01*
X0341839Y0232447D01*
X0341761Y0232584D01*
X0341687Y0232724D01*
X0341616Y0232866D01*
X0341548Y0233009D01*
X0341484Y0233154D01*
X0341424Y0233300D01*
X0341368Y0233448D01*
X0341315Y0233597D01*
X0341266Y0233748D01*
X0341221Y0233900D01*
X0341180Y0234053D01*
X0341142Y0234206D01*
X0341109Y0234361D01*
X0341079Y0234517D01*
X0341053Y0234673D01*
X0341032Y0234830D01*
X0341014Y0234987D01*
X0341000Y0235145D01*
X0340990Y0235303D01*
X0340984Y0235461D01*
X0340982Y0235619D01*
X0369604Y0218218D02*
X0369606Y0218354D01*
X0369612Y0218489D01*
X0369622Y0218625D01*
X0369636Y0218760D01*
X0369654Y0218894D01*
X0369675Y0219028D01*
X0369701Y0219162D01*
X0369730Y0219294D01*
X0369764Y0219426D01*
X0369801Y0219557D01*
X0369842Y0219686D01*
X0369887Y0219814D01*
X0369935Y0219941D01*
X0369987Y0220066D01*
X0370043Y0220190D01*
X0370103Y0220312D01*
X0370166Y0220432D01*
X0370232Y0220551D01*
X0370302Y0220667D01*
X0370375Y0220782D01*
X0370452Y0220894D01*
X0370532Y0221003D01*
X0370615Y0221111D01*
X0370701Y0221216D01*
X0370790Y0221318D01*
X0370882Y0221418D01*
X0370977Y0221515D01*
X0371075Y0221609D01*
X0371175Y0221701D01*
X0371278Y0221789D01*
X0371384Y0221874D01*
X0371492Y0221957D01*
X0371602Y0222036D01*
X0371715Y0222111D01*
X0371830Y0222184D01*
X0371947Y0222253D01*
X0372066Y0222318D01*
X0372186Y0222380D01*
X0372309Y0222439D01*
X0372433Y0222494D01*
X0372559Y0222545D01*
X0372686Y0222593D01*
X0372814Y0222637D01*
X0372944Y0222677D01*
X0373075Y0222713D01*
X0373207Y0222745D01*
X0373339Y0222774D01*
X0373473Y0222799D01*
X0373607Y0222819D01*
X0373742Y0222836D01*
X0373877Y0222849D01*
X0374012Y0222858D01*
X0374148Y0222863D01*
X0374284Y0222864D01*
X0374420Y0222861D01*
X0374555Y0222854D01*
X0374691Y0222843D01*
X0374826Y0222828D01*
X0374960Y0222809D01*
X0375094Y0222787D01*
X0375227Y0222760D01*
X0375359Y0222730D01*
X0375491Y0222695D01*
X0375621Y0222657D01*
X0375750Y0222615D01*
X0375878Y0222569D01*
X0376004Y0222520D01*
X0376129Y0222467D01*
X0376253Y0222410D01*
X0376374Y0222350D01*
X0376494Y0222286D01*
X0376612Y0222219D01*
X0376728Y0222148D01*
X0376842Y0222074D01*
X0376953Y0221997D01*
X0377063Y0221916D01*
X0377169Y0221832D01*
X0377274Y0221745D01*
X0377376Y0221655D01*
X0377475Y0221563D01*
X0377571Y0221467D01*
X0377665Y0221369D01*
X0377755Y0221267D01*
X0377843Y0221164D01*
X0377927Y0221058D01*
X0378009Y0220949D01*
X0378087Y0220838D01*
X0378162Y0220725D01*
X0378233Y0220609D01*
X0378302Y0220492D01*
X0378366Y0220372D01*
X0378427Y0220251D01*
X0378485Y0220128D01*
X0378539Y0220004D01*
X0378589Y0219878D01*
X0378636Y0219750D01*
X0378679Y0219621D01*
X0378718Y0219491D01*
X0378753Y0219360D01*
X0378785Y0219228D01*
X0378812Y0219095D01*
X0378836Y0218962D01*
X0378856Y0218827D01*
X0378872Y0218692D01*
X0378884Y0218557D01*
X0378892Y0218422D01*
X0378896Y0218286D01*
X0378896Y0218150D01*
X0378892Y0218014D01*
X0378884Y0217879D01*
X0378872Y0217744D01*
X0378856Y0217609D01*
X0378836Y0217474D01*
X0378812Y0217341D01*
X0378785Y0217208D01*
X0378753Y0217076D01*
X0378718Y0216945D01*
X0378679Y0216815D01*
X0378636Y0216686D01*
X0378589Y0216558D01*
X0378539Y0216432D01*
X0378485Y0216308D01*
X0378427Y0216185D01*
X0378366Y0216064D01*
X0378302Y0215944D01*
X0378233Y0215827D01*
X0378162Y0215711D01*
X0378087Y0215598D01*
X0378009Y0215487D01*
X0377927Y0215378D01*
X0377843Y0215272D01*
X0377755Y0215169D01*
X0377665Y0215067D01*
X0377571Y0214969D01*
X0377475Y0214873D01*
X0377376Y0214781D01*
X0377274Y0214691D01*
X0377169Y0214604D01*
X0377063Y0214520D01*
X0376953Y0214439D01*
X0376842Y0214362D01*
X0376728Y0214288D01*
X0376612Y0214217D01*
X0376494Y0214150D01*
X0376374Y0214086D01*
X0376253Y0214026D01*
X0376129Y0213969D01*
X0376004Y0213916D01*
X0375878Y0213867D01*
X0375750Y0213821D01*
X0375621Y0213779D01*
X0375491Y0213741D01*
X0375359Y0213706D01*
X0375227Y0213676D01*
X0375094Y0213649D01*
X0374960Y0213627D01*
X0374826Y0213608D01*
X0374691Y0213593D01*
X0374555Y0213582D01*
X0374420Y0213575D01*
X0374284Y0213572D01*
X0374148Y0213573D01*
X0374012Y0213578D01*
X0373877Y0213587D01*
X0373742Y0213600D01*
X0373607Y0213617D01*
X0373473Y0213637D01*
X0373339Y0213662D01*
X0373207Y0213691D01*
X0373075Y0213723D01*
X0372944Y0213759D01*
X0372814Y0213799D01*
X0372686Y0213843D01*
X0372559Y0213891D01*
X0372433Y0213942D01*
X0372309Y0213997D01*
X0372186Y0214056D01*
X0372066Y0214118D01*
X0371947Y0214183D01*
X0371830Y0214252D01*
X0371715Y0214325D01*
X0371602Y0214400D01*
X0371492Y0214479D01*
X0371384Y0214562D01*
X0371278Y0214647D01*
X0371175Y0214735D01*
X0371075Y0214827D01*
X0370977Y0214921D01*
X0370882Y0215018D01*
X0370790Y0215118D01*
X0370701Y0215220D01*
X0370615Y0215325D01*
X0370532Y0215433D01*
X0370452Y0215542D01*
X0370375Y0215654D01*
X0370302Y0215769D01*
X0370232Y0215885D01*
X0370166Y0216004D01*
X0370103Y0216124D01*
X0370043Y0216246D01*
X0369987Y0216370D01*
X0369935Y0216495D01*
X0369887Y0216622D01*
X0369842Y0216750D01*
X0369801Y0216879D01*
X0369764Y0217010D01*
X0369730Y0217142D01*
X0369701Y0217274D01*
X0369675Y0217408D01*
X0369654Y0217542D01*
X0369636Y0217676D01*
X0369622Y0217811D01*
X0369612Y0217947D01*
X0369606Y0218082D01*
X0369604Y0218218D01*
X0372951Y0239596D02*
X0372953Y0239754D01*
X0372959Y0239912D01*
X0372969Y0240070D01*
X0372983Y0240228D01*
X0373001Y0240385D01*
X0373022Y0240542D01*
X0373048Y0240698D01*
X0373078Y0240854D01*
X0373111Y0241009D01*
X0373149Y0241162D01*
X0373190Y0241315D01*
X0373235Y0241467D01*
X0373284Y0241618D01*
X0373337Y0241767D01*
X0373393Y0241915D01*
X0373453Y0242061D01*
X0373517Y0242206D01*
X0373585Y0242349D01*
X0373656Y0242491D01*
X0373730Y0242631D01*
X0373808Y0242768D01*
X0373890Y0242904D01*
X0373974Y0243038D01*
X0374063Y0243169D01*
X0374154Y0243298D01*
X0374249Y0243425D01*
X0374346Y0243550D01*
X0374447Y0243672D01*
X0374551Y0243791D01*
X0374658Y0243908D01*
X0374768Y0244022D01*
X0374881Y0244133D01*
X0374996Y0244242D01*
X0375114Y0244347D01*
X0375235Y0244449D01*
X0375358Y0244549D01*
X0375484Y0244645D01*
X0375612Y0244738D01*
X0375742Y0244828D01*
X0375875Y0244914D01*
X0376010Y0244998D01*
X0376146Y0245077D01*
X0376285Y0245154D01*
X0376426Y0245226D01*
X0376568Y0245296D01*
X0376712Y0245361D01*
X0376858Y0245423D01*
X0377005Y0245481D01*
X0377154Y0245536D01*
X0377304Y0245587D01*
X0377455Y0245634D01*
X0377607Y0245677D01*
X0377760Y0245716D01*
X0377915Y0245752D01*
X0378070Y0245783D01*
X0378226Y0245811D01*
X0378382Y0245835D01*
X0378539Y0245855D01*
X0378697Y0245871D01*
X0378854Y0245883D01*
X0379013Y0245891D01*
X0379171Y0245895D01*
X0379329Y0245895D01*
X0379487Y0245891D01*
X0379646Y0245883D01*
X0379803Y0245871D01*
X0379961Y0245855D01*
X0380118Y0245835D01*
X0380274Y0245811D01*
X0380430Y0245783D01*
X0380585Y0245752D01*
X0380740Y0245716D01*
X0380893Y0245677D01*
X0381045Y0245634D01*
X0381196Y0245587D01*
X0381346Y0245536D01*
X0381495Y0245481D01*
X0381642Y0245423D01*
X0381788Y0245361D01*
X0381932Y0245296D01*
X0382074Y0245226D01*
X0382215Y0245154D01*
X0382354Y0245077D01*
X0382490Y0244998D01*
X0382625Y0244914D01*
X0382758Y0244828D01*
X0382888Y0244738D01*
X0383016Y0244645D01*
X0383142Y0244549D01*
X0383265Y0244449D01*
X0383386Y0244347D01*
X0383504Y0244242D01*
X0383619Y0244133D01*
X0383732Y0244022D01*
X0383842Y0243908D01*
X0383949Y0243791D01*
X0384053Y0243672D01*
X0384154Y0243550D01*
X0384251Y0243425D01*
X0384346Y0243298D01*
X0384437Y0243169D01*
X0384526Y0243038D01*
X0384610Y0242904D01*
X0384692Y0242768D01*
X0384770Y0242631D01*
X0384844Y0242491D01*
X0384915Y0242349D01*
X0384983Y0242206D01*
X0385047Y0242061D01*
X0385107Y0241915D01*
X0385163Y0241767D01*
X0385216Y0241618D01*
X0385265Y0241467D01*
X0385310Y0241315D01*
X0385351Y0241162D01*
X0385389Y0241009D01*
X0385422Y0240854D01*
X0385452Y0240698D01*
X0385478Y0240542D01*
X0385499Y0240385D01*
X0385517Y0240228D01*
X0385531Y0240070D01*
X0385541Y0239912D01*
X0385547Y0239754D01*
X0385549Y0239596D01*
X0385547Y0239438D01*
X0385541Y0239280D01*
X0385531Y0239122D01*
X0385517Y0238964D01*
X0385499Y0238807D01*
X0385478Y0238650D01*
X0385452Y0238494D01*
X0385422Y0238338D01*
X0385389Y0238183D01*
X0385351Y0238030D01*
X0385310Y0237877D01*
X0385265Y0237725D01*
X0385216Y0237574D01*
X0385163Y0237425D01*
X0385107Y0237277D01*
X0385047Y0237131D01*
X0384983Y0236986D01*
X0384915Y0236843D01*
X0384844Y0236701D01*
X0384770Y0236561D01*
X0384692Y0236424D01*
X0384610Y0236288D01*
X0384526Y0236154D01*
X0384437Y0236023D01*
X0384346Y0235894D01*
X0384251Y0235767D01*
X0384154Y0235642D01*
X0384053Y0235520D01*
X0383949Y0235401D01*
X0383842Y0235284D01*
X0383732Y0235170D01*
X0383619Y0235059D01*
X0383504Y0234950D01*
X0383386Y0234845D01*
X0383265Y0234743D01*
X0383142Y0234643D01*
X0383016Y0234547D01*
X0382888Y0234454D01*
X0382758Y0234364D01*
X0382625Y0234278D01*
X0382490Y0234194D01*
X0382354Y0234115D01*
X0382215Y0234038D01*
X0382074Y0233966D01*
X0381932Y0233896D01*
X0381788Y0233831D01*
X0381642Y0233769D01*
X0381495Y0233711D01*
X0381346Y0233656D01*
X0381196Y0233605D01*
X0381045Y0233558D01*
X0380893Y0233515D01*
X0380740Y0233476D01*
X0380585Y0233440D01*
X0380430Y0233409D01*
X0380274Y0233381D01*
X0380118Y0233357D01*
X0379961Y0233337D01*
X0379803Y0233321D01*
X0379646Y0233309D01*
X0379487Y0233301D01*
X0379329Y0233297D01*
X0379171Y0233297D01*
X0379013Y0233301D01*
X0378854Y0233309D01*
X0378697Y0233321D01*
X0378539Y0233337D01*
X0378382Y0233357D01*
X0378226Y0233381D01*
X0378070Y0233409D01*
X0377915Y0233440D01*
X0377760Y0233476D01*
X0377607Y0233515D01*
X0377455Y0233558D01*
X0377304Y0233605D01*
X0377154Y0233656D01*
X0377005Y0233711D01*
X0376858Y0233769D01*
X0376712Y0233831D01*
X0376568Y0233896D01*
X0376426Y0233966D01*
X0376285Y0234038D01*
X0376146Y0234115D01*
X0376010Y0234194D01*
X0375875Y0234278D01*
X0375742Y0234364D01*
X0375612Y0234454D01*
X0375484Y0234547D01*
X0375358Y0234643D01*
X0375235Y0234743D01*
X0375114Y0234845D01*
X0374996Y0234950D01*
X0374881Y0235059D01*
X0374768Y0235170D01*
X0374658Y0235284D01*
X0374551Y0235401D01*
X0374447Y0235520D01*
X0374346Y0235642D01*
X0374249Y0235767D01*
X0374154Y0235894D01*
X0374063Y0236023D01*
X0373974Y0236154D01*
X0373890Y0236288D01*
X0373808Y0236424D01*
X0373730Y0236561D01*
X0373656Y0236701D01*
X0373585Y0236843D01*
X0373517Y0236986D01*
X0373453Y0237131D01*
X0373393Y0237277D01*
X0373337Y0237425D01*
X0373284Y0237574D01*
X0373235Y0237725D01*
X0373190Y0237877D01*
X0373149Y0238030D01*
X0373111Y0238183D01*
X0373078Y0238338D01*
X0373048Y0238494D01*
X0373022Y0238650D01*
X0373001Y0238807D01*
X0372983Y0238964D01*
X0372969Y0239122D01*
X0372959Y0239280D01*
X0372953Y0239438D01*
X0372951Y0239596D01*
X0369604Y0170974D02*
X0369606Y0171110D01*
X0369612Y0171245D01*
X0369622Y0171381D01*
X0369636Y0171516D01*
X0369654Y0171650D01*
X0369675Y0171784D01*
X0369701Y0171918D01*
X0369730Y0172050D01*
X0369764Y0172182D01*
X0369801Y0172313D01*
X0369842Y0172442D01*
X0369887Y0172570D01*
X0369935Y0172697D01*
X0369987Y0172822D01*
X0370043Y0172946D01*
X0370103Y0173068D01*
X0370166Y0173188D01*
X0370232Y0173307D01*
X0370302Y0173423D01*
X0370375Y0173538D01*
X0370452Y0173650D01*
X0370532Y0173759D01*
X0370615Y0173867D01*
X0370701Y0173972D01*
X0370790Y0174074D01*
X0370882Y0174174D01*
X0370977Y0174271D01*
X0371075Y0174365D01*
X0371175Y0174457D01*
X0371278Y0174545D01*
X0371384Y0174630D01*
X0371492Y0174713D01*
X0371602Y0174792D01*
X0371715Y0174867D01*
X0371830Y0174940D01*
X0371947Y0175009D01*
X0372066Y0175074D01*
X0372186Y0175136D01*
X0372309Y0175195D01*
X0372433Y0175250D01*
X0372559Y0175301D01*
X0372686Y0175349D01*
X0372814Y0175393D01*
X0372944Y0175433D01*
X0373075Y0175469D01*
X0373207Y0175501D01*
X0373339Y0175530D01*
X0373473Y0175555D01*
X0373607Y0175575D01*
X0373742Y0175592D01*
X0373877Y0175605D01*
X0374012Y0175614D01*
X0374148Y0175619D01*
X0374284Y0175620D01*
X0374420Y0175617D01*
X0374555Y0175610D01*
X0374691Y0175599D01*
X0374826Y0175584D01*
X0374960Y0175565D01*
X0375094Y0175543D01*
X0375227Y0175516D01*
X0375359Y0175486D01*
X0375491Y0175451D01*
X0375621Y0175413D01*
X0375750Y0175371D01*
X0375878Y0175325D01*
X0376004Y0175276D01*
X0376129Y0175223D01*
X0376253Y0175166D01*
X0376374Y0175106D01*
X0376494Y0175042D01*
X0376612Y0174975D01*
X0376728Y0174904D01*
X0376842Y0174830D01*
X0376953Y0174753D01*
X0377063Y0174672D01*
X0377169Y0174588D01*
X0377274Y0174501D01*
X0377376Y0174411D01*
X0377475Y0174319D01*
X0377571Y0174223D01*
X0377665Y0174125D01*
X0377755Y0174023D01*
X0377843Y0173920D01*
X0377927Y0173814D01*
X0378009Y0173705D01*
X0378087Y0173594D01*
X0378162Y0173481D01*
X0378233Y0173365D01*
X0378302Y0173248D01*
X0378366Y0173128D01*
X0378427Y0173007D01*
X0378485Y0172884D01*
X0378539Y0172760D01*
X0378589Y0172634D01*
X0378636Y0172506D01*
X0378679Y0172377D01*
X0378718Y0172247D01*
X0378753Y0172116D01*
X0378785Y0171984D01*
X0378812Y0171851D01*
X0378836Y0171718D01*
X0378856Y0171583D01*
X0378872Y0171448D01*
X0378884Y0171313D01*
X0378892Y0171178D01*
X0378896Y0171042D01*
X0378896Y0170906D01*
X0378892Y0170770D01*
X0378884Y0170635D01*
X0378872Y0170500D01*
X0378856Y0170365D01*
X0378836Y0170230D01*
X0378812Y0170097D01*
X0378785Y0169964D01*
X0378753Y0169832D01*
X0378718Y0169701D01*
X0378679Y0169571D01*
X0378636Y0169442D01*
X0378589Y0169314D01*
X0378539Y0169188D01*
X0378485Y0169064D01*
X0378427Y0168941D01*
X0378366Y0168820D01*
X0378302Y0168700D01*
X0378233Y0168583D01*
X0378162Y0168467D01*
X0378087Y0168354D01*
X0378009Y0168243D01*
X0377927Y0168134D01*
X0377843Y0168028D01*
X0377755Y0167925D01*
X0377665Y0167823D01*
X0377571Y0167725D01*
X0377475Y0167629D01*
X0377376Y0167537D01*
X0377274Y0167447D01*
X0377169Y0167360D01*
X0377063Y0167276D01*
X0376953Y0167195D01*
X0376842Y0167118D01*
X0376728Y0167044D01*
X0376612Y0166973D01*
X0376494Y0166906D01*
X0376374Y0166842D01*
X0376253Y0166782D01*
X0376129Y0166725D01*
X0376004Y0166672D01*
X0375878Y0166623D01*
X0375750Y0166577D01*
X0375621Y0166535D01*
X0375491Y0166497D01*
X0375359Y0166462D01*
X0375227Y0166432D01*
X0375094Y0166405D01*
X0374960Y0166383D01*
X0374826Y0166364D01*
X0374691Y0166349D01*
X0374555Y0166338D01*
X0374420Y0166331D01*
X0374284Y0166328D01*
X0374148Y0166329D01*
X0374012Y0166334D01*
X0373877Y0166343D01*
X0373742Y0166356D01*
X0373607Y0166373D01*
X0373473Y0166393D01*
X0373339Y0166418D01*
X0373207Y0166447D01*
X0373075Y0166479D01*
X0372944Y0166515D01*
X0372814Y0166555D01*
X0372686Y0166599D01*
X0372559Y0166647D01*
X0372433Y0166698D01*
X0372309Y0166753D01*
X0372186Y0166812D01*
X0372066Y0166874D01*
X0371947Y0166939D01*
X0371830Y0167008D01*
X0371715Y0167081D01*
X0371602Y0167156D01*
X0371492Y0167235D01*
X0371384Y0167318D01*
X0371278Y0167403D01*
X0371175Y0167491D01*
X0371075Y0167583D01*
X0370977Y0167677D01*
X0370882Y0167774D01*
X0370790Y0167874D01*
X0370701Y0167976D01*
X0370615Y0168081D01*
X0370532Y0168189D01*
X0370452Y0168298D01*
X0370375Y0168410D01*
X0370302Y0168525D01*
X0370232Y0168641D01*
X0370166Y0168760D01*
X0370103Y0168880D01*
X0370043Y0169002D01*
X0369987Y0169126D01*
X0369935Y0169251D01*
X0369887Y0169378D01*
X0369842Y0169506D01*
X0369801Y0169635D01*
X0369764Y0169766D01*
X0369730Y0169898D01*
X0369701Y0170030D01*
X0369675Y0170164D01*
X0369654Y0170298D01*
X0369636Y0170432D01*
X0369622Y0170567D01*
X0369612Y0170703D01*
X0369606Y0170838D01*
X0369604Y0170974D01*
X0372478Y0143257D02*
X0372480Y0143341D01*
X0372486Y0143424D01*
X0372496Y0143507D01*
X0372510Y0143590D01*
X0372527Y0143672D01*
X0372549Y0143753D01*
X0372574Y0143832D01*
X0372603Y0143911D01*
X0372636Y0143988D01*
X0372672Y0144063D01*
X0372712Y0144137D01*
X0372755Y0144209D01*
X0372802Y0144278D01*
X0372852Y0144345D01*
X0372905Y0144410D01*
X0372961Y0144472D01*
X0373019Y0144532D01*
X0373081Y0144589D01*
X0373145Y0144642D01*
X0373212Y0144693D01*
X0373281Y0144740D01*
X0373352Y0144785D01*
X0373425Y0144825D01*
X0373500Y0144862D01*
X0373577Y0144896D01*
X0373655Y0144926D01*
X0373734Y0144952D01*
X0373815Y0144975D01*
X0373897Y0144993D01*
X0373979Y0145008D01*
X0374062Y0145019D01*
X0374145Y0145026D01*
X0374229Y0145029D01*
X0374313Y0145028D01*
X0374396Y0145023D01*
X0374480Y0145014D01*
X0374562Y0145001D01*
X0374644Y0144985D01*
X0374725Y0144964D01*
X0374806Y0144940D01*
X0374884Y0144912D01*
X0374962Y0144880D01*
X0375038Y0144844D01*
X0375112Y0144805D01*
X0375184Y0144763D01*
X0375254Y0144717D01*
X0375322Y0144668D01*
X0375387Y0144616D01*
X0375450Y0144561D01*
X0375510Y0144503D01*
X0375568Y0144442D01*
X0375622Y0144378D01*
X0375674Y0144312D01*
X0375722Y0144244D01*
X0375767Y0144173D01*
X0375808Y0144100D01*
X0375847Y0144026D01*
X0375881Y0143950D01*
X0375912Y0143872D01*
X0375939Y0143793D01*
X0375963Y0143712D01*
X0375982Y0143631D01*
X0375998Y0143549D01*
X0376010Y0143466D01*
X0376018Y0143382D01*
X0376022Y0143299D01*
X0376022Y0143215D01*
X0376018Y0143132D01*
X0376010Y0143048D01*
X0375998Y0142965D01*
X0375982Y0142883D01*
X0375963Y0142802D01*
X0375939Y0142721D01*
X0375912Y0142642D01*
X0375881Y0142564D01*
X0375847Y0142488D01*
X0375808Y0142414D01*
X0375767Y0142341D01*
X0375722Y0142270D01*
X0375674Y0142202D01*
X0375622Y0142136D01*
X0375568Y0142072D01*
X0375510Y0142011D01*
X0375450Y0141953D01*
X0375387Y0141898D01*
X0375322Y0141846D01*
X0375254Y0141797D01*
X0375184Y0141751D01*
X0375112Y0141709D01*
X0375038Y0141670D01*
X0374962Y0141634D01*
X0374884Y0141602D01*
X0374806Y0141574D01*
X0374725Y0141550D01*
X0374644Y0141529D01*
X0374562Y0141513D01*
X0374480Y0141500D01*
X0374396Y0141491D01*
X0374313Y0141486D01*
X0374229Y0141485D01*
X0374145Y0141488D01*
X0374062Y0141495D01*
X0373979Y0141506D01*
X0373897Y0141521D01*
X0373815Y0141539D01*
X0373734Y0141562D01*
X0373655Y0141588D01*
X0373577Y0141618D01*
X0373500Y0141652D01*
X0373425Y0141689D01*
X0373352Y0141729D01*
X0373281Y0141774D01*
X0373212Y0141821D01*
X0373145Y0141872D01*
X0373081Y0141925D01*
X0373019Y0141982D01*
X0372961Y0142042D01*
X0372905Y0142104D01*
X0372852Y0142169D01*
X0372802Y0142236D01*
X0372755Y0142305D01*
X0372712Y0142377D01*
X0372672Y0142451D01*
X0372636Y0142526D01*
X0372603Y0142603D01*
X0372574Y0142682D01*
X0372549Y0142761D01*
X0372527Y0142842D01*
X0372510Y0142924D01*
X0372496Y0143007D01*
X0372486Y0143090D01*
X0372480Y0143173D01*
X0372478Y0143257D01*
X0372478Y0125934D02*
X0372480Y0126018D01*
X0372486Y0126101D01*
X0372496Y0126184D01*
X0372510Y0126267D01*
X0372527Y0126349D01*
X0372549Y0126430D01*
X0372574Y0126509D01*
X0372603Y0126588D01*
X0372636Y0126665D01*
X0372672Y0126740D01*
X0372712Y0126814D01*
X0372755Y0126886D01*
X0372802Y0126955D01*
X0372852Y0127022D01*
X0372905Y0127087D01*
X0372961Y0127149D01*
X0373019Y0127209D01*
X0373081Y0127266D01*
X0373145Y0127319D01*
X0373212Y0127370D01*
X0373281Y0127417D01*
X0373352Y0127462D01*
X0373425Y0127502D01*
X0373500Y0127539D01*
X0373577Y0127573D01*
X0373655Y0127603D01*
X0373734Y0127629D01*
X0373815Y0127652D01*
X0373897Y0127670D01*
X0373979Y0127685D01*
X0374062Y0127696D01*
X0374145Y0127703D01*
X0374229Y0127706D01*
X0374313Y0127705D01*
X0374396Y0127700D01*
X0374480Y0127691D01*
X0374562Y0127678D01*
X0374644Y0127662D01*
X0374725Y0127641D01*
X0374806Y0127617D01*
X0374884Y0127589D01*
X0374962Y0127557D01*
X0375038Y0127521D01*
X0375112Y0127482D01*
X0375184Y0127440D01*
X0375254Y0127394D01*
X0375322Y0127345D01*
X0375387Y0127293D01*
X0375450Y0127238D01*
X0375510Y0127180D01*
X0375568Y0127119D01*
X0375622Y0127055D01*
X0375674Y0126989D01*
X0375722Y0126921D01*
X0375767Y0126850D01*
X0375808Y0126777D01*
X0375847Y0126703D01*
X0375881Y0126627D01*
X0375912Y0126549D01*
X0375939Y0126470D01*
X0375963Y0126389D01*
X0375982Y0126308D01*
X0375998Y0126226D01*
X0376010Y0126143D01*
X0376018Y0126059D01*
X0376022Y0125976D01*
X0376022Y0125892D01*
X0376018Y0125809D01*
X0376010Y0125725D01*
X0375998Y0125642D01*
X0375982Y0125560D01*
X0375963Y0125479D01*
X0375939Y0125398D01*
X0375912Y0125319D01*
X0375881Y0125241D01*
X0375847Y0125165D01*
X0375808Y0125091D01*
X0375767Y0125018D01*
X0375722Y0124947D01*
X0375674Y0124879D01*
X0375622Y0124813D01*
X0375568Y0124749D01*
X0375510Y0124688D01*
X0375450Y0124630D01*
X0375387Y0124575D01*
X0375322Y0124523D01*
X0375254Y0124474D01*
X0375184Y0124428D01*
X0375112Y0124386D01*
X0375038Y0124347D01*
X0374962Y0124311D01*
X0374884Y0124279D01*
X0374806Y0124251D01*
X0374725Y0124227D01*
X0374644Y0124206D01*
X0374562Y0124190D01*
X0374480Y0124177D01*
X0374396Y0124168D01*
X0374313Y0124163D01*
X0374229Y0124162D01*
X0374145Y0124165D01*
X0374062Y0124172D01*
X0373979Y0124183D01*
X0373897Y0124198D01*
X0373815Y0124216D01*
X0373734Y0124239D01*
X0373655Y0124265D01*
X0373577Y0124295D01*
X0373500Y0124329D01*
X0373425Y0124366D01*
X0373352Y0124406D01*
X0373281Y0124451D01*
X0373212Y0124498D01*
X0373145Y0124549D01*
X0373081Y0124602D01*
X0373019Y0124659D01*
X0372961Y0124719D01*
X0372905Y0124781D01*
X0372852Y0124846D01*
X0372802Y0124913D01*
X0372755Y0124982D01*
X0372712Y0125054D01*
X0372672Y0125128D01*
X0372636Y0125203D01*
X0372603Y0125280D01*
X0372574Y0125359D01*
X0372549Y0125438D01*
X0372527Y0125519D01*
X0372510Y0125601D01*
X0372496Y0125684D01*
X0372486Y0125767D01*
X0372480Y0125850D01*
X0372478Y0125934D01*
X0340982Y0113572D02*
X0340984Y0113730D01*
X0340990Y0113888D01*
X0341000Y0114046D01*
X0341014Y0114204D01*
X0341032Y0114361D01*
X0341053Y0114518D01*
X0341079Y0114674D01*
X0341109Y0114830D01*
X0341142Y0114985D01*
X0341180Y0115138D01*
X0341221Y0115291D01*
X0341266Y0115443D01*
X0341315Y0115594D01*
X0341368Y0115743D01*
X0341424Y0115891D01*
X0341484Y0116037D01*
X0341548Y0116182D01*
X0341616Y0116325D01*
X0341687Y0116467D01*
X0341761Y0116607D01*
X0341839Y0116744D01*
X0341921Y0116880D01*
X0342005Y0117014D01*
X0342094Y0117145D01*
X0342185Y0117274D01*
X0342280Y0117401D01*
X0342377Y0117526D01*
X0342478Y0117648D01*
X0342582Y0117767D01*
X0342689Y0117884D01*
X0342799Y0117998D01*
X0342912Y0118109D01*
X0343027Y0118218D01*
X0343145Y0118323D01*
X0343266Y0118425D01*
X0343389Y0118525D01*
X0343515Y0118621D01*
X0343643Y0118714D01*
X0343773Y0118804D01*
X0343906Y0118890D01*
X0344041Y0118974D01*
X0344177Y0119053D01*
X0344316Y0119130D01*
X0344457Y0119202D01*
X0344599Y0119272D01*
X0344743Y0119337D01*
X0344889Y0119399D01*
X0345036Y0119457D01*
X0345185Y0119512D01*
X0345335Y0119563D01*
X0345486Y0119610D01*
X0345638Y0119653D01*
X0345791Y0119692D01*
X0345946Y0119728D01*
X0346101Y0119759D01*
X0346257Y0119787D01*
X0346413Y0119811D01*
X0346570Y0119831D01*
X0346728Y0119847D01*
X0346885Y0119859D01*
X0347044Y0119867D01*
X0347202Y0119871D01*
X0347360Y0119871D01*
X0347518Y0119867D01*
X0347677Y0119859D01*
X0347834Y0119847D01*
X0347992Y0119831D01*
X0348149Y0119811D01*
X0348305Y0119787D01*
X0348461Y0119759D01*
X0348616Y0119728D01*
X0348771Y0119692D01*
X0348924Y0119653D01*
X0349076Y0119610D01*
X0349227Y0119563D01*
X0349377Y0119512D01*
X0349526Y0119457D01*
X0349673Y0119399D01*
X0349819Y0119337D01*
X0349963Y0119272D01*
X0350105Y0119202D01*
X0350246Y0119130D01*
X0350385Y0119053D01*
X0350521Y0118974D01*
X0350656Y0118890D01*
X0350789Y0118804D01*
X0350919Y0118714D01*
X0351047Y0118621D01*
X0351173Y0118525D01*
X0351296Y0118425D01*
X0351417Y0118323D01*
X0351535Y0118218D01*
X0351650Y0118109D01*
X0351763Y0117998D01*
X0351873Y0117884D01*
X0351980Y0117767D01*
X0352084Y0117648D01*
X0352185Y0117526D01*
X0352282Y0117401D01*
X0352377Y0117274D01*
X0352468Y0117145D01*
X0352557Y0117014D01*
X0352641Y0116880D01*
X0352723Y0116744D01*
X0352801Y0116607D01*
X0352875Y0116467D01*
X0352946Y0116325D01*
X0353014Y0116182D01*
X0353078Y0116037D01*
X0353138Y0115891D01*
X0353194Y0115743D01*
X0353247Y0115594D01*
X0353296Y0115443D01*
X0353341Y0115291D01*
X0353382Y0115138D01*
X0353420Y0114985D01*
X0353453Y0114830D01*
X0353483Y0114674D01*
X0353509Y0114518D01*
X0353530Y0114361D01*
X0353548Y0114204D01*
X0353562Y0114046D01*
X0353572Y0113888D01*
X0353578Y0113730D01*
X0353580Y0113572D01*
X0353578Y0113414D01*
X0353572Y0113256D01*
X0353562Y0113098D01*
X0353548Y0112940D01*
X0353530Y0112783D01*
X0353509Y0112626D01*
X0353483Y0112470D01*
X0353453Y0112314D01*
X0353420Y0112159D01*
X0353382Y0112006D01*
X0353341Y0111853D01*
X0353296Y0111701D01*
X0353247Y0111550D01*
X0353194Y0111401D01*
X0353138Y0111253D01*
X0353078Y0111107D01*
X0353014Y0110962D01*
X0352946Y0110819D01*
X0352875Y0110677D01*
X0352801Y0110537D01*
X0352723Y0110400D01*
X0352641Y0110264D01*
X0352557Y0110130D01*
X0352468Y0109999D01*
X0352377Y0109870D01*
X0352282Y0109743D01*
X0352185Y0109618D01*
X0352084Y0109496D01*
X0351980Y0109377D01*
X0351873Y0109260D01*
X0351763Y0109146D01*
X0351650Y0109035D01*
X0351535Y0108926D01*
X0351417Y0108821D01*
X0351296Y0108719D01*
X0351173Y0108619D01*
X0351047Y0108523D01*
X0350919Y0108430D01*
X0350789Y0108340D01*
X0350656Y0108254D01*
X0350521Y0108170D01*
X0350385Y0108091D01*
X0350246Y0108014D01*
X0350105Y0107942D01*
X0349963Y0107872D01*
X0349819Y0107807D01*
X0349673Y0107745D01*
X0349526Y0107687D01*
X0349377Y0107632D01*
X0349227Y0107581D01*
X0349076Y0107534D01*
X0348924Y0107491D01*
X0348771Y0107452D01*
X0348616Y0107416D01*
X0348461Y0107385D01*
X0348305Y0107357D01*
X0348149Y0107333D01*
X0347992Y0107313D01*
X0347834Y0107297D01*
X0347677Y0107285D01*
X0347518Y0107277D01*
X0347360Y0107273D01*
X0347202Y0107273D01*
X0347044Y0107277D01*
X0346885Y0107285D01*
X0346728Y0107297D01*
X0346570Y0107313D01*
X0346413Y0107333D01*
X0346257Y0107357D01*
X0346101Y0107385D01*
X0345946Y0107416D01*
X0345791Y0107452D01*
X0345638Y0107491D01*
X0345486Y0107534D01*
X0345335Y0107581D01*
X0345185Y0107632D01*
X0345036Y0107687D01*
X0344889Y0107745D01*
X0344743Y0107807D01*
X0344599Y0107872D01*
X0344457Y0107942D01*
X0344316Y0108014D01*
X0344177Y0108091D01*
X0344041Y0108170D01*
X0343906Y0108254D01*
X0343773Y0108340D01*
X0343643Y0108430D01*
X0343515Y0108523D01*
X0343389Y0108619D01*
X0343266Y0108719D01*
X0343145Y0108821D01*
X0343027Y0108926D01*
X0342912Y0109035D01*
X0342799Y0109146D01*
X0342689Y0109260D01*
X0342582Y0109377D01*
X0342478Y0109496D01*
X0342377Y0109618D01*
X0342280Y0109743D01*
X0342185Y0109870D01*
X0342094Y0109999D01*
X0342005Y0110130D01*
X0341921Y0110264D01*
X0341839Y0110400D01*
X0341761Y0110537D01*
X0341687Y0110677D01*
X0341616Y0110819D01*
X0341548Y0110962D01*
X0341484Y0111107D01*
X0341424Y0111253D01*
X0341368Y0111401D01*
X0341315Y0111550D01*
X0341266Y0111701D01*
X0341221Y0111853D01*
X0341180Y0112006D01*
X0341142Y0112159D01*
X0341109Y0112314D01*
X0341079Y0112470D01*
X0341053Y0112626D01*
X0341032Y0112783D01*
X0341014Y0112940D01*
X0341000Y0113098D01*
X0340990Y0113256D01*
X0340984Y0113414D01*
X0340982Y0113572D01*
X0372951Y0019596D02*
X0372953Y0019754D01*
X0372959Y0019912D01*
X0372969Y0020070D01*
X0372983Y0020228D01*
X0373001Y0020385D01*
X0373022Y0020542D01*
X0373048Y0020698D01*
X0373078Y0020854D01*
X0373111Y0021009D01*
X0373149Y0021162D01*
X0373190Y0021315D01*
X0373235Y0021467D01*
X0373284Y0021618D01*
X0373337Y0021767D01*
X0373393Y0021915D01*
X0373453Y0022061D01*
X0373517Y0022206D01*
X0373585Y0022349D01*
X0373656Y0022491D01*
X0373730Y0022631D01*
X0373808Y0022768D01*
X0373890Y0022904D01*
X0373974Y0023038D01*
X0374063Y0023169D01*
X0374154Y0023298D01*
X0374249Y0023425D01*
X0374346Y0023550D01*
X0374447Y0023672D01*
X0374551Y0023791D01*
X0374658Y0023908D01*
X0374768Y0024022D01*
X0374881Y0024133D01*
X0374996Y0024242D01*
X0375114Y0024347D01*
X0375235Y0024449D01*
X0375358Y0024549D01*
X0375484Y0024645D01*
X0375612Y0024738D01*
X0375742Y0024828D01*
X0375875Y0024914D01*
X0376010Y0024998D01*
X0376146Y0025077D01*
X0376285Y0025154D01*
X0376426Y0025226D01*
X0376568Y0025296D01*
X0376712Y0025361D01*
X0376858Y0025423D01*
X0377005Y0025481D01*
X0377154Y0025536D01*
X0377304Y0025587D01*
X0377455Y0025634D01*
X0377607Y0025677D01*
X0377760Y0025716D01*
X0377915Y0025752D01*
X0378070Y0025783D01*
X0378226Y0025811D01*
X0378382Y0025835D01*
X0378539Y0025855D01*
X0378697Y0025871D01*
X0378854Y0025883D01*
X0379013Y0025891D01*
X0379171Y0025895D01*
X0379329Y0025895D01*
X0379487Y0025891D01*
X0379646Y0025883D01*
X0379803Y0025871D01*
X0379961Y0025855D01*
X0380118Y0025835D01*
X0380274Y0025811D01*
X0380430Y0025783D01*
X0380585Y0025752D01*
X0380740Y0025716D01*
X0380893Y0025677D01*
X0381045Y0025634D01*
X0381196Y0025587D01*
X0381346Y0025536D01*
X0381495Y0025481D01*
X0381642Y0025423D01*
X0381788Y0025361D01*
X0381932Y0025296D01*
X0382074Y0025226D01*
X0382215Y0025154D01*
X0382354Y0025077D01*
X0382490Y0024998D01*
X0382625Y0024914D01*
X0382758Y0024828D01*
X0382888Y0024738D01*
X0383016Y0024645D01*
X0383142Y0024549D01*
X0383265Y0024449D01*
X0383386Y0024347D01*
X0383504Y0024242D01*
X0383619Y0024133D01*
X0383732Y0024022D01*
X0383842Y0023908D01*
X0383949Y0023791D01*
X0384053Y0023672D01*
X0384154Y0023550D01*
X0384251Y0023425D01*
X0384346Y0023298D01*
X0384437Y0023169D01*
X0384526Y0023038D01*
X0384610Y0022904D01*
X0384692Y0022768D01*
X0384770Y0022631D01*
X0384844Y0022491D01*
X0384915Y0022349D01*
X0384983Y0022206D01*
X0385047Y0022061D01*
X0385107Y0021915D01*
X0385163Y0021767D01*
X0385216Y0021618D01*
X0385265Y0021467D01*
X0385310Y0021315D01*
X0385351Y0021162D01*
X0385389Y0021009D01*
X0385422Y0020854D01*
X0385452Y0020698D01*
X0385478Y0020542D01*
X0385499Y0020385D01*
X0385517Y0020228D01*
X0385531Y0020070D01*
X0385541Y0019912D01*
X0385547Y0019754D01*
X0385549Y0019596D01*
X0385547Y0019438D01*
X0385541Y0019280D01*
X0385531Y0019122D01*
X0385517Y0018964D01*
X0385499Y0018807D01*
X0385478Y0018650D01*
X0385452Y0018494D01*
X0385422Y0018338D01*
X0385389Y0018183D01*
X0385351Y0018030D01*
X0385310Y0017877D01*
X0385265Y0017725D01*
X0385216Y0017574D01*
X0385163Y0017425D01*
X0385107Y0017277D01*
X0385047Y0017131D01*
X0384983Y0016986D01*
X0384915Y0016843D01*
X0384844Y0016701D01*
X0384770Y0016561D01*
X0384692Y0016424D01*
X0384610Y0016288D01*
X0384526Y0016154D01*
X0384437Y0016023D01*
X0384346Y0015894D01*
X0384251Y0015767D01*
X0384154Y0015642D01*
X0384053Y0015520D01*
X0383949Y0015401D01*
X0383842Y0015284D01*
X0383732Y0015170D01*
X0383619Y0015059D01*
X0383504Y0014950D01*
X0383386Y0014845D01*
X0383265Y0014743D01*
X0383142Y0014643D01*
X0383016Y0014547D01*
X0382888Y0014454D01*
X0382758Y0014364D01*
X0382625Y0014278D01*
X0382490Y0014194D01*
X0382354Y0014115D01*
X0382215Y0014038D01*
X0382074Y0013966D01*
X0381932Y0013896D01*
X0381788Y0013831D01*
X0381642Y0013769D01*
X0381495Y0013711D01*
X0381346Y0013656D01*
X0381196Y0013605D01*
X0381045Y0013558D01*
X0380893Y0013515D01*
X0380740Y0013476D01*
X0380585Y0013440D01*
X0380430Y0013409D01*
X0380274Y0013381D01*
X0380118Y0013357D01*
X0379961Y0013337D01*
X0379803Y0013321D01*
X0379646Y0013309D01*
X0379487Y0013301D01*
X0379329Y0013297D01*
X0379171Y0013297D01*
X0379013Y0013301D01*
X0378854Y0013309D01*
X0378697Y0013321D01*
X0378539Y0013337D01*
X0378382Y0013357D01*
X0378226Y0013381D01*
X0378070Y0013409D01*
X0377915Y0013440D01*
X0377760Y0013476D01*
X0377607Y0013515D01*
X0377455Y0013558D01*
X0377304Y0013605D01*
X0377154Y0013656D01*
X0377005Y0013711D01*
X0376858Y0013769D01*
X0376712Y0013831D01*
X0376568Y0013896D01*
X0376426Y0013966D01*
X0376285Y0014038D01*
X0376146Y0014115D01*
X0376010Y0014194D01*
X0375875Y0014278D01*
X0375742Y0014364D01*
X0375612Y0014454D01*
X0375484Y0014547D01*
X0375358Y0014643D01*
X0375235Y0014743D01*
X0375114Y0014845D01*
X0374996Y0014950D01*
X0374881Y0015059D01*
X0374768Y0015170D01*
X0374658Y0015284D01*
X0374551Y0015401D01*
X0374447Y0015520D01*
X0374346Y0015642D01*
X0374249Y0015767D01*
X0374154Y0015894D01*
X0374063Y0016023D01*
X0373974Y0016154D01*
X0373890Y0016288D01*
X0373808Y0016424D01*
X0373730Y0016561D01*
X0373656Y0016701D01*
X0373585Y0016843D01*
X0373517Y0016986D01*
X0373453Y0017131D01*
X0373393Y0017277D01*
X0373337Y0017425D01*
X0373284Y0017574D01*
X0373235Y0017725D01*
X0373190Y0017877D01*
X0373149Y0018030D01*
X0373111Y0018183D01*
X0373078Y0018338D01*
X0373048Y0018494D01*
X0373022Y0018650D01*
X0373001Y0018807D01*
X0372983Y0018964D01*
X0372969Y0019122D01*
X0372959Y0019280D01*
X0372953Y0019438D01*
X0372951Y0019596D01*
D12*
X0298778Y0039989D03*
X0298778Y0089202D03*
D13*
X0326337Y0074438D03*
X0326337Y0054753D03*
X0269250Y0054753D03*
X0269250Y0064596D03*
X0269250Y0074438D03*
X0211750Y0067096D03*
X0124250Y0064596D03*
X0294250Y0154596D03*
D14*
X0073266Y0235619D03*
D15*
X0083266Y0235619D03*
X0093266Y0235619D03*
X0103266Y0235619D03*
X0113266Y0235619D03*
X0123266Y0235619D03*
X0133266Y0235619D03*
X0143266Y0235619D03*
X0153266Y0235619D03*
X0163266Y0235619D03*
X0173266Y0235619D03*
X0183266Y0235619D03*
X0193266Y0235619D03*
X0203266Y0235619D03*
X0213266Y0235619D03*
X0223266Y0235619D03*
D16*
X0355195Y0200659D03*
X0365195Y0204596D03*
X0365195Y0196564D03*
X0355195Y0192627D03*
X0365195Y0188533D03*
X0355195Y0184596D03*
D17*
X0021750Y0154596D03*
D18*
X0031750Y0154596D03*
X0031750Y0164596D03*
X0021750Y0164596D03*
X0021750Y0174596D03*
X0031750Y0174596D03*
D19*
X0023030Y0202096D03*
X0034250Y0212096D03*
X0023030Y0222096D03*
D20*
X0342813Y0077096D03*
D21*
X0366435Y0077096D03*
X0354624Y0058592D03*
D22*
X0109250Y0054596D03*
X0109250Y0064596D03*
X0054250Y0064596D03*
X0054250Y0054596D03*
D23*
X0051750Y0027296D02*
X0051750Y0021896D01*
X0041750Y0021896D02*
X0041750Y0027296D01*
X0061750Y0027296D02*
X0061750Y0021896D01*
X0079250Y0021896D02*
X0079250Y0027296D01*
X0089250Y0027296D02*
X0089250Y0021896D01*
X0099250Y0021896D02*
X0099250Y0027296D01*
D24*
X0064250Y0043246D03*
X0116750Y0073521D03*
X0087900Y0084596D03*
X0104250Y0097096D03*
X0111750Y0102096D03*
X0124250Y0109596D03*
X0134250Y0099596D03*
X0141750Y0096421D03*
X0146750Y0102096D03*
X0129250Y0124596D03*
X0136750Y0129046D03*
X0124250Y0142096D03*
X0116750Y0129046D03*
X0110850Y0125796D03*
X0091750Y0128921D03*
X0088575Y0150946D03*
X0119300Y0158296D03*
X0143700Y0177096D03*
X0148500Y0174096D03*
X0154350Y0172096D03*
X0158150Y0167746D03*
X0162750Y0161846D03*
X0179250Y0149596D03*
X0187535Y0137096D03*
X0186750Y0109596D03*
X0196750Y0106421D03*
X0196750Y0102571D03*
X0197900Y0092771D03*
X0186750Y0079596D03*
X0221750Y0147096D03*
X0225650Y0147146D03*
X0229250Y0147096D03*
X0232900Y0147096D03*
X0236550Y0147096D03*
X0180490Y0177194D03*
X0087900Y0178246D03*
X0069250Y0187096D03*
X0046750Y0164596D03*
X0046750Y0128921D03*
X0351750Y0124596D03*
D25*
X0201750Y0049596D03*
X0155325Y0110871D03*
X0129250Y0192096D03*
X0189250Y0199596D03*
D26*
X0151750Y0117096D03*
D27*
X0259250Y0179596D03*
X0257990Y0201312D03*
D28*
X0244250Y0097096D03*
D29*
X0339250Y0077096D02*
X0342813Y0077096D01*
X0339250Y0077096D02*
X0339250Y0009596D01*
X0031750Y0009596D01*
X0031750Y0054596D01*
X0054250Y0054596D01*
X0109250Y0054596D01*
D30*
X0294250Y0102096D02*
X0294250Y0154596D01*
X0294250Y0102096D02*
X0339250Y0102096D01*
X0339250Y0077096D01*
M02*
