%
M48
M72
T01C0.01200
T02C0.01969
T03C0.02362
T04C0.02756
T05C0.03150
T06C0.03500
T07C0.03543
T08C0.03600
T09C0.04000
T10C0.04724
T11C0.09291
T12C0.11024
T13C0.12598
T14C0.14173
%
T01
X64250Y43246
X116750Y73521
X87900Y84596
X104250Y97096
X111750Y102096
X124250Y109596
X134250Y99596
X141750Y96421
X146750Y102096
X129250Y124596
X136750Y129046
X124250Y142096
X116750Y129046
X110850Y125796
X91750Y128921
X88575Y150946
X119300Y158296
X143700Y177096
X148500Y174096
X154350Y172096
X158150Y167746
X162750Y161846
X179250Y149596
X187535Y137096
X186750Y109596
X196750Y106421
X196750Y102571
X197900Y92771
X186750Y79596
X221750Y147096
X225650Y147146
X229250Y147096
X232900Y147096
X236550Y147096
X180490Y177194
X87900Y178246
X69250Y187096
X46750Y164596
X46750Y128921
X351750Y124596
T02
X151750Y117096
T03
X155325Y110871
X201750Y49596
X129250Y192096
X189250Y199596
T04
X257990Y201312
X259250Y179596
T05
X355195Y184596
X365195Y188533
X355195Y192627
X365195Y196564
X365195Y204596
X355195Y200659
X244250Y97096
X34250Y212096
X23030Y202096
X23030Y222096
T06
X106750Y121096
X106750Y113096
X126750Y117096
T07
X374250Y125934
X374250Y143257
T08
X99250Y24596
X89250Y24596
X79250Y24596
X61750Y24596
X51750Y24596
X41750Y24596
X31750Y154596
X21750Y154596
X21750Y164596
X31750Y164596
X31750Y174596
X21750Y174596
T09
X73266Y235619
X83266Y235619
X93266Y235619
X103266Y235619
X113266Y235619
X123266Y235619
X133266Y235619
X143266Y235619
X153266Y235619
X163266Y235619
X173266Y235619
X183266Y235619
X193266Y235619
X203266Y235619
X213266Y235619
X223266Y235619
X109250Y64596
X109250Y54596
X54250Y54596
X54250Y64596
T10
X124250Y64596
X211750Y67096
X269250Y64596
X269250Y74438
X269250Y54753
X326337Y54753
X326337Y74438
X294250Y154596
T11
X374250Y170974
X374250Y218218
T12
X298778Y89202
X298778Y39989
T13
X19250Y19596
X51219Y113572
X51219Y235619
X19250Y239596
X347281Y235619
X379250Y239596
X347281Y113572
X366435Y77096
X354624Y58592
X379250Y19596
T14
X342813Y77096
M30
