G75*
%MOIN*%
%OFA0B0*%
%FSLAX25Y25*%
%IPPOS*%
%LPD*%
%AMOC8*
5,1,8,0,0,1.08239X$1,22.5*
%
%ADD10C,0.12998*%
%ADD11C,0.03500*%
%ADD12C,0.03900*%
%ADD13R,0.06306X0.05518*%
%ADD14R,0.10243X0.08274*%
%ADD15R,0.13392X0.08274*%
%ADD16R,0.12605X0.02369*%
%ADD17C,0.03943*%
%ADD18R,0.05518X0.06699*%
%ADD19R,0.05518X0.06306*%
%ADD20R,0.02369X0.06306*%
%ADD21R,0.06306X0.02369*%
%ADD22R,0.12211X0.10243*%
%ADD23R,0.05124X0.05124*%
%ADD24R,0.15424X0.15424*%
%ADD25R,0.07487X0.07487*%
%ADD26R,0.06400X0.06400*%
%ADD27C,0.06400*%
%ADD28R,0.05200X0.09200*%
%ADD29R,0.14573X0.09061*%
%ADD30C,0.05518*%
%ADD31C,0.09691*%
%ADD32R,0.05912X0.05124*%
%ADD33R,0.06699X0.05518*%
%ADD34C,0.05800*%
%ADD35OC8,0.05800*%
%ADD36C,0.05124*%
%ADD37R,0.05124X0.05912*%
%ADD38R,0.42920X0.37408*%
%ADD39R,0.03550X0.18510*%
%ADD40R,0.04232X0.01969*%
%ADD41OC8,0.18573*%
%ADD42OC8,0.16998*%
%ADD43R,0.05912X0.14180*%
%ADD44C,0.07800*%
%ADD45C,0.05800*%
%ADD46R,0.13200X0.25800*%
%ADD47R,0.04534X0.04534*%
D10*
X0019250Y0019596D03*
X0051219Y0113572D03*
X0051219Y0235619D03*
X0019250Y0239596D03*
X0347281Y0235619D03*
X0379250Y0239596D03*
X0347281Y0113572D03*
X0379250Y0019596D03*
D11*
X0121750Y0114596D03*
X0121750Y0119596D03*
X0116750Y0119596D03*
X0111750Y0119596D03*
X0111750Y0114596D03*
X0116750Y0114596D03*
D12*
X0106750Y0113096D03*
X0106750Y0121096D03*
X0126750Y0117096D03*
D13*
X0145500Y0117881D03*
X0145500Y0125361D03*
X0144250Y0090836D03*
X0134250Y0090836D03*
X0134250Y0083356D03*
X0144250Y0083356D03*
X0154250Y0083356D03*
X0164250Y0083356D03*
X0164250Y0090836D03*
X0154250Y0090836D03*
X0214250Y0090836D03*
X0224250Y0090836D03*
X0224250Y0083356D03*
X0214250Y0083356D03*
X0234250Y0083356D03*
X0244250Y0083356D03*
X0244250Y0090836D03*
X0234250Y0090836D03*
X0249250Y0165856D03*
X0249250Y0173336D03*
X0214250Y0215856D03*
X0214250Y0223336D03*
X0091750Y0168336D03*
X0081750Y0170856D03*
X0081750Y0178336D03*
X0091750Y0160856D03*
X0081750Y0158336D03*
X0081750Y0150856D03*
D14*
X0386061Y0152115D03*
X0386061Y0117076D03*
D15*
X0362833Y0117076D03*
X0362833Y0152115D03*
D16*
X0362439Y0140895D03*
X0362439Y0137745D03*
X0362439Y0134596D03*
X0362439Y0131446D03*
X0362439Y0128297D03*
D17*
X0374250Y0125934D03*
X0374250Y0143257D03*
D18*
X0337990Y0144596D03*
X0330510Y0144596D03*
X0329835Y0135196D03*
X0337315Y0135196D03*
X0182990Y0192096D03*
X0175510Y0192096D03*
D19*
X0208010Y0167096D03*
X0215490Y0167096D03*
X0215490Y0158246D03*
X0208010Y0158246D03*
X0195015Y0154596D03*
X0187535Y0154596D03*
X0187535Y0144121D03*
X0195015Y0144121D03*
X0250510Y0184596D03*
X0257990Y0184596D03*
X0257990Y0194596D03*
X0250510Y0194596D03*
X0268010Y0194596D03*
X0275490Y0194596D03*
X0162990Y0102096D03*
X0155510Y0102096D03*
X0190510Y0074596D03*
X0197990Y0074596D03*
X0263010Y0042096D03*
X0270490Y0042096D03*
X0092990Y0039596D03*
X0085510Y0039596D03*
X0055490Y0039596D03*
X0048010Y0039596D03*
D20*
X0133502Y0141761D03*
X0136652Y0141761D03*
X0139801Y0141761D03*
X0142951Y0141761D03*
X0146100Y0141761D03*
X0149250Y0141761D03*
X0152400Y0141761D03*
X0155549Y0141761D03*
X0158699Y0141761D03*
X0161848Y0141761D03*
X0164998Y0141761D03*
X0164998Y0187430D03*
X0161848Y0187430D03*
X0158699Y0187430D03*
X0155549Y0187430D03*
X0152400Y0187430D03*
X0149250Y0187430D03*
X0146100Y0187430D03*
X0142951Y0187430D03*
X0139801Y0187430D03*
X0136652Y0187430D03*
X0133502Y0187430D03*
D21*
X0126415Y0180344D03*
X0126415Y0177194D03*
X0126415Y0174045D03*
X0126415Y0170895D03*
X0126415Y0167745D03*
X0126415Y0164596D03*
X0126415Y0161446D03*
X0126415Y0158297D03*
X0126415Y0155147D03*
X0126415Y0151997D03*
X0126415Y0148848D03*
X0172085Y0148848D03*
X0172085Y0151997D03*
X0172085Y0155147D03*
X0172085Y0158297D03*
X0172085Y0161446D03*
X0172085Y0164596D03*
X0172085Y0167745D03*
X0172085Y0170895D03*
X0172085Y0174045D03*
X0172085Y0177194D03*
X0172085Y0180344D03*
D22*
X0104250Y0174694D03*
X0104250Y0154104D03*
D23*
X0244250Y0097096D03*
X0259250Y0165462D03*
X0259250Y0173730D03*
D24*
X0298778Y0089202D03*
X0298778Y0039989D03*
D25*
X0326337Y0054753D03*
X0326337Y0074438D03*
X0269250Y0074438D03*
X0269250Y0064596D03*
X0269250Y0054753D03*
X0211750Y0067096D03*
X0124250Y0064596D03*
X0294250Y0154596D03*
D26*
X0073266Y0235619D03*
D27*
X0083266Y0235619D03*
X0093266Y0235619D03*
X0103266Y0235619D03*
X0113266Y0235619D03*
X0123266Y0235619D03*
X0133266Y0235619D03*
X0143266Y0235619D03*
X0153266Y0235619D03*
X0163266Y0235619D03*
X0173266Y0235619D03*
X0183266Y0235619D03*
X0193266Y0235619D03*
X0203266Y0235619D03*
X0213266Y0235619D03*
X0223266Y0235619D03*
D28*
X0250150Y0207396D03*
X0259250Y0207396D03*
X0268350Y0207396D03*
D29*
X0259250Y0231797D03*
D30*
X0355195Y0200659D03*
X0365195Y0204596D03*
X0365195Y0196564D03*
X0355195Y0192627D03*
X0365195Y0188533D03*
X0355195Y0184596D03*
D31*
X0374250Y0170974D03*
X0374250Y0218218D03*
D32*
X0309250Y0185501D03*
X0294250Y0185501D03*
X0294250Y0173690D03*
X0309250Y0173690D03*
X0286750Y0226190D03*
X0286750Y0238001D03*
X0096451Y0073694D03*
X0096451Y0064596D03*
X0096451Y0055497D03*
X0041451Y0055497D03*
X0041451Y0064596D03*
X0041451Y0073694D03*
D33*
X0099250Y0133356D03*
X0099250Y0140836D03*
D34*
X0021750Y0154596D03*
D35*
X0031750Y0154596D03*
X0031750Y0164596D03*
X0021750Y0164596D03*
X0021750Y0174596D03*
X0031750Y0174596D03*
D36*
X0023030Y0202096D03*
X0034250Y0212096D03*
X0023030Y0222096D03*
D37*
X0320844Y0199596D03*
X0332656Y0199596D03*
X0332656Y0184596D03*
X0320844Y0184596D03*
D38*
X0233010Y0029517D03*
X0145510Y0029517D03*
D39*
X0145510Y0065541D03*
X0150510Y0065541D03*
X0155510Y0065541D03*
X0160510Y0065541D03*
X0140510Y0065541D03*
X0135510Y0065541D03*
X0130510Y0065541D03*
X0218010Y0065541D03*
X0223010Y0065541D03*
X0228010Y0065541D03*
X0233010Y0065541D03*
X0238010Y0065541D03*
X0243010Y0065541D03*
X0248010Y0065541D03*
D40*
X0202370Y0063434D03*
X0202370Y0060875D03*
X0202370Y0058316D03*
X0202370Y0055757D03*
X0186130Y0055757D03*
X0186130Y0058316D03*
X0186130Y0060875D03*
X0186130Y0063434D03*
D41*
X0342813Y0077096D03*
D42*
X0366435Y0077096D03*
X0354624Y0058592D03*
D43*
X0072049Y0064596D03*
X0017049Y0064596D03*
D44*
X0054250Y0064596D03*
X0054250Y0054596D03*
X0109250Y0054596D03*
X0109250Y0064596D03*
D45*
X0099250Y0027296D02*
X0099250Y0021896D01*
X0089250Y0021896D02*
X0089250Y0027296D01*
X0079250Y0027296D02*
X0079250Y0021896D01*
X0061750Y0021896D02*
X0061750Y0027296D01*
X0051750Y0027296D02*
X0051750Y0021896D01*
X0041750Y0021896D02*
X0041750Y0027296D01*
D46*
X0179250Y0027096D03*
X0199250Y0027096D03*
D47*
X0259250Y0179596D03*
X0257990Y0201312D03*
M02*
