G75*
%MOIN*%
%OFA0B0*%
%FSLAX25Y25*%
%IPPOS*%
%LPD*%
%AMOC8*
5,1,8,0,0,1.08239X$1,22.5*
%
%ADD10C,0.03100*%
%ADD11R,0.05906X0.05118*%
%ADD12R,0.09843X0.07874*%
%ADD13R,0.12992X0.07874*%
%ADD14R,0.12205X0.01969*%
%ADD15R,0.05118X0.06299*%
%ADD16R,0.05118X0.05906*%
%ADD17R,0.01969X0.05906*%
%ADD18R,0.05906X0.01969*%
%ADD19R,0.11811X0.09843*%
%ADD20R,0.04724X0.04724*%
%ADD21R,0.15024X0.15024*%
%ADD22R,0.07087X0.07087*%
%ADD23R,0.06000X0.06000*%
%ADD24C,0.06000*%
%ADD25R,0.04800X0.08800*%
%ADD26R,0.14173X0.08661*%
%ADD27C,0.05118*%
%ADD28R,0.05512X0.04724*%
%ADD29R,0.06299X0.05118*%
%ADD30C,0.05400*%
%ADD31OC8,0.05400*%
%ADD32C,0.04724*%
%ADD33R,0.04724X0.05512*%
%ADD34R,0.42520X0.37008*%
%ADD35R,0.03150X0.18110*%
%ADD36R,0.03937X0.01772*%
%ADD37OC8,0.18173*%
%ADD38OC8,0.16598*%
%ADD39R,0.05512X0.13780*%
%ADD40C,0.07400*%
%ADD41C,0.05400*%
%ADD42R,0.12800X0.25400*%
%ADD43C,0.01600*%
%ADD44R,0.02400X0.02400*%
%ADD45R,0.03562X0.03562*%
%ADD46R,0.03169X0.03169*%
%ADD47C,0.05000*%
%ADD48R,0.04134X0.04134*%
%ADD49C,0.03200*%
%ADD50C,0.10000*%
%ADD51C,0.05600*%
%ADD52C,0.02400*%
%ADD53C,0.13000*%
D10*
X0111750Y0114596D03*
X0116750Y0114596D03*
X0116750Y0119596D03*
X0111750Y0119596D03*
X0121750Y0119596D03*
X0121750Y0114596D03*
D11*
X0145500Y0117881D03*
X0145500Y0125361D03*
X0144250Y0090836D03*
X0134250Y0090836D03*
X0134250Y0083356D03*
X0144250Y0083356D03*
X0154250Y0083356D03*
X0164250Y0083356D03*
X0164250Y0090836D03*
X0154250Y0090836D03*
X0214250Y0090836D03*
X0224250Y0090836D03*
X0224250Y0083356D03*
X0214250Y0083356D03*
X0234250Y0083356D03*
X0244250Y0083356D03*
X0244250Y0090836D03*
X0234250Y0090836D03*
X0249250Y0165856D03*
X0249250Y0173336D03*
X0214250Y0215856D03*
X0214250Y0223336D03*
X0091750Y0168336D03*
X0081750Y0170856D03*
X0081750Y0178336D03*
X0091750Y0160856D03*
X0081750Y0158336D03*
X0081750Y0150856D03*
D12*
X0386061Y0152115D03*
X0386061Y0117076D03*
D13*
X0362833Y0117076D03*
X0362833Y0152115D03*
D14*
X0362439Y0140895D03*
X0362439Y0137745D03*
X0362439Y0134596D03*
X0362439Y0131446D03*
X0362439Y0128297D03*
D15*
X0337315Y0135196D03*
X0329835Y0135196D03*
X0330510Y0144596D03*
X0337990Y0144596D03*
X0182990Y0192096D03*
X0175510Y0192096D03*
D16*
X0208010Y0167096D03*
X0215490Y0167096D03*
X0215490Y0158246D03*
X0208010Y0158246D03*
X0195015Y0154596D03*
X0187535Y0154596D03*
X0187535Y0144121D03*
X0195015Y0144121D03*
X0250510Y0184596D03*
X0257990Y0184596D03*
X0257990Y0194596D03*
X0250510Y0194596D03*
X0268010Y0194596D03*
X0275490Y0194596D03*
X0162990Y0102096D03*
X0155510Y0102096D03*
X0190510Y0074596D03*
X0197990Y0074596D03*
X0263010Y0042096D03*
X0270490Y0042096D03*
X0092990Y0039596D03*
X0085510Y0039596D03*
X0055490Y0039596D03*
X0048010Y0039596D03*
D17*
X0133502Y0141761D03*
X0136652Y0141761D03*
X0139801Y0141761D03*
X0142951Y0141761D03*
X0146100Y0141761D03*
X0149250Y0141761D03*
X0152400Y0141761D03*
X0155549Y0141761D03*
X0158699Y0141761D03*
X0161848Y0141761D03*
X0164998Y0141761D03*
X0164998Y0187430D03*
X0161848Y0187430D03*
X0158699Y0187430D03*
X0155549Y0187430D03*
X0152400Y0187430D03*
X0149250Y0187430D03*
X0146100Y0187430D03*
X0142951Y0187430D03*
X0139801Y0187430D03*
X0136652Y0187430D03*
X0133502Y0187430D03*
D18*
X0126415Y0180344D03*
X0126415Y0177194D03*
X0126415Y0174045D03*
X0126415Y0170895D03*
X0126415Y0167745D03*
X0126415Y0164596D03*
X0126415Y0161446D03*
X0126415Y0158297D03*
X0126415Y0155147D03*
X0126415Y0151997D03*
X0126415Y0148848D03*
X0172085Y0148848D03*
X0172085Y0151997D03*
X0172085Y0155147D03*
X0172085Y0158297D03*
X0172085Y0161446D03*
X0172085Y0164596D03*
X0172085Y0167745D03*
X0172085Y0170895D03*
X0172085Y0174045D03*
X0172085Y0177194D03*
X0172085Y0180344D03*
D19*
X0104250Y0174694D03*
X0104250Y0154104D03*
D20*
X0244250Y0097096D03*
X0259250Y0165462D03*
X0259250Y0173730D03*
D21*
X0298778Y0089202D03*
X0298778Y0039989D03*
D22*
X0326337Y0054753D03*
X0326337Y0074438D03*
X0269250Y0074438D03*
X0269250Y0064596D03*
X0269250Y0054753D03*
X0211750Y0067096D03*
X0124250Y0064596D03*
X0294250Y0154596D03*
D23*
X0073266Y0235619D03*
D24*
X0083266Y0235619D03*
X0093266Y0235619D03*
X0103266Y0235619D03*
X0113266Y0235619D03*
X0123266Y0235619D03*
X0133266Y0235619D03*
X0143266Y0235619D03*
X0153266Y0235619D03*
X0163266Y0235619D03*
X0173266Y0235619D03*
X0183266Y0235619D03*
X0193266Y0235619D03*
X0203266Y0235619D03*
X0213266Y0235619D03*
X0223266Y0235619D03*
D25*
X0250150Y0207396D03*
X0259250Y0207396D03*
X0268350Y0207396D03*
D26*
X0259250Y0231797D03*
D27*
X0355195Y0200659D03*
X0365195Y0204596D03*
X0365195Y0196564D03*
X0355195Y0192627D03*
X0365195Y0188533D03*
X0355195Y0184596D03*
D28*
X0309250Y0185501D03*
X0294250Y0185501D03*
X0294250Y0173690D03*
X0309250Y0173690D03*
X0286750Y0226190D03*
X0286750Y0238001D03*
X0096451Y0073694D03*
X0096451Y0064596D03*
X0096451Y0055497D03*
X0041451Y0055497D03*
X0041451Y0064596D03*
X0041451Y0073694D03*
D29*
X0099250Y0133356D03*
X0099250Y0140836D03*
D30*
X0021750Y0154596D03*
D31*
X0031750Y0154596D03*
X0031750Y0164596D03*
X0021750Y0164596D03*
X0021750Y0174596D03*
X0031750Y0174596D03*
D32*
X0023030Y0202096D03*
X0034250Y0212096D03*
X0023030Y0222096D03*
D33*
X0320844Y0199596D03*
X0332656Y0199596D03*
X0332656Y0184596D03*
X0320844Y0184596D03*
D34*
X0233010Y0029517D03*
X0145510Y0029517D03*
D35*
X0145510Y0065541D03*
X0150510Y0065541D03*
X0155510Y0065541D03*
X0160510Y0065541D03*
X0140510Y0065541D03*
X0135510Y0065541D03*
X0130510Y0065541D03*
X0218010Y0065541D03*
X0223010Y0065541D03*
X0228010Y0065541D03*
X0233010Y0065541D03*
X0238010Y0065541D03*
X0243010Y0065541D03*
X0248010Y0065541D03*
D36*
X0202321Y0063434D03*
X0202321Y0060875D03*
X0202321Y0058316D03*
X0202321Y0055757D03*
X0186179Y0055757D03*
X0186179Y0058316D03*
X0186179Y0060875D03*
X0186179Y0063434D03*
D37*
X0342813Y0077096D03*
D38*
X0366435Y0077096D03*
X0354624Y0058592D03*
D39*
X0072049Y0064596D03*
X0017049Y0064596D03*
D40*
X0054250Y0064596D03*
X0054250Y0054596D03*
X0109250Y0054596D03*
X0109250Y0064596D03*
D41*
X0099250Y0027296D02*
X0099250Y0021896D01*
X0089250Y0021896D02*
X0089250Y0027296D01*
X0079250Y0027296D02*
X0079250Y0021896D01*
X0061750Y0021896D02*
X0061750Y0027296D01*
X0051750Y0027296D02*
X0051750Y0021896D01*
X0041750Y0021896D02*
X0041750Y0027296D01*
D42*
X0179250Y0027096D03*
X0199250Y0027096D03*
D43*
X0201750Y0049596D02*
X0201750Y0055186D01*
X0201752Y0055231D01*
X0201757Y0055275D01*
X0201766Y0055319D01*
X0201778Y0055362D01*
X0201793Y0055405D01*
X0201812Y0055445D01*
X0201834Y0055484D01*
X0201859Y0055522D01*
X0201887Y0055557D01*
X0201917Y0055590D01*
X0201950Y0055620D01*
X0201985Y0055648D01*
X0202023Y0055673D01*
X0202062Y0055695D01*
X0202102Y0055714D01*
X0202145Y0055729D01*
X0202188Y0055741D01*
X0202232Y0055750D01*
X0202276Y0055755D01*
X0202321Y0055757D01*
X0202321Y0063434D02*
X0202321Y0074596D01*
X0197990Y0074596D01*
X0197990Y0092096D01*
X0197900Y0092771D01*
X0196750Y0102571D02*
X0214250Y0102571D01*
X0214250Y0090836D01*
X0224250Y0090836D02*
X0224250Y0106421D01*
X0196750Y0106421D01*
X0186750Y0109596D02*
X0186750Y0079596D01*
X0190510Y0079596D01*
X0190510Y0074596D01*
X0186179Y0074596D01*
X0186179Y0063434D01*
X0164250Y0077096D02*
X0155510Y0077096D01*
X0155510Y0065541D01*
X0150510Y0065541D02*
X0150510Y0083356D01*
X0154250Y0083356D01*
X0164250Y0083356D02*
X0164250Y0077096D01*
X0164250Y0090836D02*
X0154250Y0090836D01*
X0155510Y0090836D01*
X0155510Y0102096D01*
X0155325Y0110871D01*
X0152400Y0117096D02*
X0151750Y0117096D01*
X0145500Y0117096D01*
X0145500Y0117881D01*
X0152400Y0117096D02*
X0152400Y0141761D01*
X0155549Y0141761D02*
X0155700Y0141761D01*
X0155025Y0124796D01*
X0316075Y0124796D01*
X0316075Y0134521D01*
X0329835Y0134521D01*
X0329835Y0135196D01*
X0337315Y0135196D02*
X0347950Y0134521D01*
X0347950Y0134596D01*
X0362439Y0134596D01*
X0362439Y0137745D02*
X0347950Y0137745D01*
X0347950Y0144596D01*
X0337990Y0144596D01*
X0330510Y0144596D02*
X0313000Y0144596D01*
X0313000Y0128396D01*
X0211750Y0128396D01*
X0211750Y0128446D01*
X0158950Y0128446D01*
X0158950Y0141761D01*
X0158699Y0141761D01*
X0161750Y0141761D02*
X0161750Y0132096D01*
X0309250Y0132096D01*
X0309250Y0152096D01*
X0309250Y0173690D01*
X0309250Y0152096D02*
X0351750Y0152096D01*
X0351750Y0140895D01*
X0362439Y0140895D01*
X0362439Y0128297D02*
X0351750Y0128297D01*
X0351750Y0124596D01*
X0259250Y0165462D02*
X0259250Y0165856D01*
X0249250Y0165856D01*
X0249250Y0173336D02*
X0241750Y0173336D01*
X0241750Y0135946D01*
X0187535Y0135946D01*
X0187535Y0137096D01*
X0187535Y0144121D01*
X0171750Y0144121D01*
X0171750Y0148848D01*
X0172085Y0148848D01*
X0172085Y0151997D02*
X0179250Y0151997D01*
X0179250Y0149596D01*
X0195015Y0149596D01*
X0195015Y0154596D01*
X0195015Y0144121D01*
X0187535Y0154596D02*
X0187535Y0155147D01*
X0172085Y0155147D01*
X0172085Y0161446D02*
X0208010Y0161446D01*
X0208010Y0158246D01*
X0208010Y0164596D02*
X0208010Y0167096D01*
X0208010Y0164596D02*
X0172085Y0164596D01*
X0172085Y0161596D02*
X0172085Y0161446D01*
X0172085Y0167745D02*
X0191225Y0167745D01*
X0191225Y0174021D01*
X0229250Y0174021D01*
X0229250Y0147096D01*
X0225650Y0147146D02*
X0225650Y0167096D01*
X0215490Y0167096D01*
X0215490Y0158246D02*
X0221750Y0158246D01*
X0221750Y0147096D01*
X0232900Y0147096D02*
X0232900Y0177096D01*
X0187575Y0177096D01*
X0187575Y0170895D01*
X0172085Y0170895D01*
X0172085Y0174045D02*
X0184250Y0174045D01*
X0184250Y0180271D01*
X0236550Y0180271D01*
X0236550Y0147096D01*
X0250510Y0184596D02*
X0171750Y0184596D01*
X0171750Y0180344D01*
X0172085Y0180344D01*
X0136750Y0180344D01*
X0136750Y0187430D01*
X0136750Y0214596D01*
X0083266Y0214596D01*
X0074250Y0214596D01*
X0074250Y0140836D01*
X0099250Y0140836D01*
X0117400Y0140836D01*
X0117400Y0155147D01*
X0126415Y0155147D01*
X0126415Y0158297D02*
X0119300Y0158297D01*
X0119300Y0158296D01*
X0114250Y0161446D02*
X0114250Y0154596D01*
X0104250Y0154596D01*
X0104250Y0154104D01*
X0104250Y0154596D02*
X0091750Y0154596D01*
X0091750Y0160856D01*
X0081750Y0160856D01*
X0081750Y0158336D01*
X0089250Y0160108D02*
X0091750Y0160856D01*
X0091750Y0168336D02*
X0081750Y0168336D01*
X0081750Y0170856D01*
X0091750Y0168336D02*
X0091750Y0174694D01*
X0104250Y0174694D01*
X0104250Y0174596D01*
X0114250Y0174596D01*
X0114250Y0164596D01*
X0126415Y0164596D01*
X0126415Y0167745D02*
X0158150Y0167095D01*
X0158150Y0167746D01*
X0154450Y0170895D02*
X0126415Y0170895D01*
X0126415Y0174045D02*
X0138500Y0174045D01*
X0148500Y0174096D01*
X0143700Y0177096D02*
X0126415Y0177194D01*
X0129250Y0187430D02*
X0129250Y0192096D01*
X0129250Y0187430D02*
X0133502Y0187430D01*
X0133600Y0187430D01*
X0136652Y0187430D02*
X0136750Y0187430D01*
X0142951Y0187430D02*
X0142951Y0217896D01*
X0103475Y0217896D01*
X0103475Y0235619D01*
X0103266Y0235619D01*
X0093266Y0235619D02*
X0093250Y0235619D01*
X0083266Y0235619D02*
X0083266Y0214596D01*
X0069250Y0187096D02*
X0069250Y0133356D01*
X0099250Y0133356D01*
X0099250Y0107096D01*
X0111750Y0107096D01*
X0111750Y0114596D01*
X0116750Y0114596D02*
X0116750Y0106446D01*
X0116750Y0089596D01*
X0014250Y0089596D01*
X0014250Y0164596D01*
X0021750Y0164596D01*
X0021750Y0154596D02*
X0021750Y0093296D01*
X0111750Y0093296D01*
X0111750Y0102096D01*
X0116750Y0106446D02*
X0139801Y0106446D01*
X0139801Y0102096D01*
X0146750Y0102096D01*
X0144250Y0096421D02*
X0144250Y0090836D01*
X0144250Y0096421D02*
X0141750Y0096421D01*
X0134250Y0099596D02*
X0134250Y0090836D01*
X0134250Y0083356D02*
X0135510Y0083356D01*
X0135510Y0065541D01*
X0140510Y0065541D02*
X0140510Y0083356D01*
X0144250Y0083356D01*
X0162990Y0102096D02*
X0174250Y0102096D01*
X0149250Y0125108D02*
X0145500Y0125361D01*
X0149250Y0125108D02*
X0149250Y0141761D01*
X0146100Y0141761D02*
X0146100Y0149596D01*
X0161750Y0149596D01*
X0161750Y0141761D01*
X0161848Y0141761D01*
X0164998Y0141761D02*
X0164998Y0161846D01*
X0162750Y0161846D01*
X0154450Y0170895D02*
X0154350Y0172096D01*
X0172085Y0177194D02*
X0180490Y0177194D01*
X0166750Y0187430D02*
X0166750Y0192096D01*
X0175510Y0192096D01*
X0182990Y0192096D02*
X0189250Y0192096D01*
X0189250Y0199596D01*
X0203266Y0210671D02*
X0158699Y0210671D01*
X0158699Y0187430D01*
X0158750Y0187430D01*
X0161750Y0187430D02*
X0161750Y0207096D01*
X0214250Y0207096D01*
X0214250Y0215856D01*
X0213266Y0220836D02*
X0214250Y0223336D01*
X0213266Y0220836D02*
X0213266Y0235619D01*
X0203266Y0235619D02*
X0203266Y0210671D01*
X0193266Y0214596D02*
X0155549Y0214596D01*
X0155549Y0187430D01*
X0152400Y0187430D02*
X0152400Y0218346D01*
X0183266Y0218346D01*
X0183266Y0235619D01*
X0193266Y0235619D02*
X0193266Y0214596D01*
X0173266Y0222096D02*
X0149250Y0222096D01*
X0149250Y0187430D01*
X0146100Y0187430D02*
X0146100Y0220846D01*
X0123266Y0220846D01*
X0123266Y0235619D01*
X0173266Y0235619D02*
X0173266Y0222096D01*
X0166750Y0187430D02*
X0164998Y0187430D01*
X0161848Y0187430D02*
X0161750Y0187430D01*
X0126415Y0161446D02*
X0114250Y0161446D01*
X0120550Y0151997D02*
X0120550Y0133356D01*
X0099250Y0133356D01*
X0091750Y0128921D02*
X0046750Y0128921D01*
X0081750Y0150856D02*
X0088575Y0150946D01*
X0116750Y0129046D02*
X0116750Y0119596D01*
X0111750Y0119596D02*
X0111750Y0124896D01*
X0110850Y0125796D01*
X0121750Y0124596D02*
X0121750Y0119596D01*
X0121750Y0124596D02*
X0129250Y0124596D01*
X0136750Y0129046D02*
X0136750Y0141761D01*
X0136652Y0141761D01*
X0139801Y0141761D02*
X0139801Y0106446D01*
X0133502Y0109596D02*
X0133502Y0141761D01*
X0126415Y0142096D02*
X0126415Y0148848D01*
X0126415Y0151997D02*
X0120550Y0151997D01*
X0124250Y0142096D02*
X0126415Y0142096D01*
X0164998Y0141761D02*
X0165500Y0141761D01*
X0133502Y0109596D02*
X0124250Y0109596D01*
X0121750Y0109596D01*
X0121750Y0114596D01*
X0104250Y0097096D02*
X0031750Y0097096D01*
X0031750Y0154596D01*
X0081750Y0178336D02*
X0087900Y0178246D01*
X0023030Y0222096D02*
X0009250Y0222096D01*
X0008575Y0085471D01*
X0088575Y0085471D01*
X0087900Y0084596D01*
X0096451Y0073694D02*
X0096451Y0073521D01*
X0116750Y0073521D01*
X0064250Y0073246D02*
X0064250Y0043246D01*
X0064250Y0073246D02*
X0041451Y0073246D01*
X0041451Y0073694D01*
X0214250Y0077096D02*
X0223010Y0077096D01*
X0223010Y0065541D01*
X0228010Y0065541D02*
X0228010Y0083356D01*
X0224250Y0083356D01*
X0214250Y0083356D02*
X0214250Y0077096D01*
X0234250Y0083356D02*
X0238010Y0083356D01*
X0238010Y0065541D01*
X0243010Y0065541D02*
X0243010Y0079596D01*
X0244250Y0079596D01*
X0244250Y0083356D01*
X0244250Y0090836D02*
X0234250Y0090836D01*
X0244250Y0090836D02*
X0244250Y0097096D01*
X0254250Y0067096D02*
X0259250Y0067096D01*
X0259250Y0042096D01*
X0263010Y0042096D01*
X0269250Y0042096D02*
X0270490Y0042096D01*
X0269250Y0042096D02*
X0269250Y0054753D01*
X0259250Y0184596D02*
X0257990Y0184596D01*
X0257990Y0194596D02*
X0259250Y0194596D01*
X0275490Y0194596D02*
X0276750Y0194596D01*
X0365195Y0196471D02*
X0365195Y0196564D01*
D44*
X0351750Y0124596D03*
X0236550Y0147096D03*
X0232900Y0147096D03*
X0229250Y0147096D03*
X0225650Y0147146D03*
X0221750Y0147096D03*
X0187535Y0137096D03*
X0179250Y0149596D03*
X0162750Y0161846D03*
X0158150Y0167746D03*
X0154350Y0172096D03*
X0148500Y0174096D03*
X0143700Y0177096D03*
X0119300Y0158296D03*
X0124250Y0142096D03*
X0116750Y0129046D03*
X0110850Y0125796D03*
X0129250Y0124596D03*
X0136750Y0129046D03*
X0124250Y0109596D03*
X0111750Y0102096D03*
X0104250Y0097096D03*
X0087900Y0084596D03*
X0116750Y0073521D03*
X0141750Y0096421D03*
X0146750Y0102096D03*
X0134250Y0099596D03*
X0091750Y0128921D03*
X0088575Y0150946D03*
X0087900Y0178246D03*
X0069250Y0187096D03*
X0046750Y0164596D03*
X0046750Y0128921D03*
X0064250Y0043246D03*
X0186750Y0079596D03*
X0197900Y0092771D03*
X0196750Y0102571D03*
X0196750Y0106421D03*
X0186750Y0109596D03*
X0180490Y0177194D03*
D45*
X0189250Y0199596D03*
X0129250Y0192096D03*
X0155325Y0110871D03*
X0201750Y0049596D03*
D46*
X0151750Y0117096D03*
D47*
X0061750Y0154596D02*
X0061750Y0247096D01*
X0286750Y0247096D01*
X0286750Y0238001D01*
X0286750Y0226190D02*
X0286750Y0207396D01*
X0275490Y0207396D01*
X0275490Y0194596D01*
X0294250Y0194596D01*
X0294250Y0185501D01*
X0309250Y0185501D01*
X0320844Y0185501D01*
X0320844Y0184596D01*
X0320844Y0199596D01*
X0332656Y0199596D02*
X0332656Y0200659D01*
X0355195Y0200659D01*
X0355195Y0184596D02*
X0332656Y0184596D01*
X0294250Y0173690D02*
X0294250Y0154596D01*
X0259250Y0173730D02*
X0259250Y0179596D01*
X0259250Y0184596D01*
X0257990Y0184596D02*
X0257990Y0194596D01*
X0268010Y0194596D01*
X0257990Y0194596D02*
X0257990Y0201312D01*
X0257990Y0207396D01*
X0259250Y0207396D01*
X0250150Y0207396D02*
X0250150Y0194596D01*
X0250510Y0194596D01*
X0250510Y0184596D01*
X0249250Y0184596D01*
X0249250Y0173336D01*
X0268350Y0207396D02*
X0275490Y0207396D01*
X0061750Y0154596D02*
X0031750Y0154596D01*
D48*
X0259250Y0179596D03*
X0257990Y0201312D03*
D49*
X0250150Y0207396D02*
X0249250Y0207396D01*
X0251750Y0067096D02*
X0251750Y0065541D01*
X0248010Y0065541D01*
X0233010Y0065541D02*
X0233010Y0029517D01*
X0218010Y0065541D02*
X0214250Y0065541D01*
X0214250Y0067096D01*
X0164250Y0067096D02*
X0164250Y0065541D01*
X0160510Y0065541D01*
X0145510Y0065541D02*
X0145510Y0029517D01*
X0130510Y0065541D02*
X0129250Y0065541D01*
X0126750Y0064596D01*
D50*
X0124250Y0064596D01*
X0164250Y0067096D02*
X0174250Y0067096D01*
X0174250Y0102096D01*
X0174250Y0117096D01*
X0254250Y0117096D01*
X0254250Y0067096D01*
X0251750Y0067096D01*
X0214250Y0067096D02*
X0211750Y0067096D01*
X0254250Y0117096D02*
X0324250Y0117096D01*
X0324250Y0094596D01*
X0342813Y0094596D01*
X0342813Y0077096D01*
D51*
X0051750Y0009596D02*
X0031750Y0009596D01*
X0031750Y0055497D01*
X0041451Y0055497D01*
X0071750Y0049596D02*
X0071750Y0014596D01*
X0089250Y0014596D01*
X0089250Y0024596D01*
X0096750Y0049596D02*
X0071750Y0049596D01*
X0096451Y0055497D02*
X0096750Y0055497D01*
X0096750Y0049596D01*
X0051750Y0024596D02*
X0051750Y0009596D01*
D52*
X0061750Y0008246D02*
X0061750Y0024596D01*
X0061750Y0039596D01*
X0055490Y0039596D01*
X0048010Y0039596D02*
X0041750Y0039596D01*
X0041750Y0024596D01*
X0061750Y0008246D02*
X0099250Y0008246D01*
X0099250Y0024596D01*
X0099250Y0039596D01*
X0092990Y0039596D01*
X0085510Y0039596D02*
X0079250Y0039596D01*
X0079250Y0024596D01*
X0096451Y0064596D02*
X0109250Y0064596D01*
X0054250Y0064596D02*
X0041451Y0064596D01*
D53*
X0145510Y0029517D02*
X0145510Y0027096D01*
X0179250Y0027096D01*
X0199250Y0027096D02*
X0233010Y0027096D01*
X0233010Y0029517D01*
M02*
