G75*
%MOIN*%
%OFA0B0*%
%FSLAX25Y25*%
%IPPOS*%
%LPD*%
%AMOC8*
5,1,8,0,0,1.08239X$1,22.5*
%
%ADD10C,0.00600*%
%ADD11C,0.00800*%
D10*
X0274550Y0009896D02*
X0276685Y0009896D01*
X0275618Y0009896D02*
X0275618Y0016301D01*
X0276685Y0016301D02*
X0274550Y0016301D01*
X0278847Y0014166D02*
X0282050Y0014166D01*
X0283117Y0013099D01*
X0283117Y0009896D01*
X0285292Y0010963D02*
X0286360Y0009896D01*
X0289563Y0009896D01*
X0291738Y0010963D02*
X0292806Y0009896D01*
X0296008Y0009896D01*
X0296008Y0014166D01*
X0298183Y0014166D02*
X0301386Y0014166D01*
X0302454Y0013099D01*
X0302454Y0010963D01*
X0301386Y0009896D01*
X0298183Y0009896D01*
X0298183Y0016301D01*
X0305697Y0014166D02*
X0307832Y0014166D01*
X0308899Y0013099D01*
X0308899Y0009896D01*
X0305697Y0009896D01*
X0304629Y0010963D01*
X0305697Y0012031D01*
X0308899Y0012031D01*
X0311074Y0014166D02*
X0313210Y0014166D01*
X0312142Y0015234D02*
X0312142Y0010963D01*
X0313210Y0009896D01*
X0315371Y0010963D02*
X0315371Y0013099D01*
X0316439Y0014166D01*
X0318574Y0014166D01*
X0319642Y0013099D01*
X0319642Y0010963D01*
X0318574Y0009896D01*
X0316439Y0009896D01*
X0315371Y0010963D01*
X0321817Y0009896D02*
X0321817Y0014166D01*
X0321817Y0012031D02*
X0323952Y0014166D01*
X0325020Y0014166D01*
X0333634Y0014166D02*
X0335769Y0009896D01*
X0337904Y0014166D01*
X0340079Y0014166D02*
X0342214Y0016301D01*
X0342214Y0009896D01*
X0340079Y0009896D02*
X0344350Y0009896D01*
X0346525Y0009896D02*
X0347592Y0009896D01*
X0347592Y0010963D01*
X0346525Y0010963D01*
X0346525Y0009896D01*
X0349747Y0010963D02*
X0354018Y0015234D01*
X0354018Y0010963D01*
X0352950Y0009896D01*
X0350815Y0009896D01*
X0349747Y0010963D01*
X0349747Y0015234D01*
X0350815Y0016301D01*
X0352950Y0016301D01*
X0354018Y0015234D01*
X0356193Y0010963D02*
X0357261Y0010963D01*
X0357261Y0009896D01*
X0356193Y0009896D01*
X0356193Y0010963D01*
X0359416Y0010963D02*
X0363686Y0015234D01*
X0363686Y0010963D01*
X0362618Y0009896D01*
X0360483Y0009896D01*
X0359416Y0010963D01*
X0359416Y0015234D01*
X0360483Y0016301D01*
X0362618Y0016301D01*
X0363686Y0015234D01*
X0291738Y0014166D02*
X0291738Y0010963D01*
X0289563Y0014166D02*
X0286360Y0014166D01*
X0285292Y0013099D01*
X0285292Y0010963D01*
X0278847Y0009896D02*
X0278847Y0014166D01*
D11*
X0051750Y0049596D02*
X0049250Y0052096D01*
X0049250Y0057096D01*
X0051750Y0059596D01*
X0049250Y0062096D01*
X0049250Y0067096D01*
X0051750Y0069596D01*
X0056750Y0069596D01*
X0059250Y0067096D01*
X0059250Y0062096D01*
X0056750Y0059596D01*
X0059250Y0057096D01*
X0059250Y0052096D01*
X0056750Y0049596D01*
X0051750Y0049596D01*
X0104250Y0052096D02*
X0106750Y0049596D01*
X0111750Y0049596D01*
X0114250Y0052096D01*
X0114250Y0057096D01*
X0111750Y0059596D01*
X0114250Y0062096D01*
X0114250Y0067096D01*
X0111750Y0069596D01*
X0106750Y0069596D01*
X0104250Y0067096D01*
X0104250Y0062096D01*
X0106750Y0059596D01*
X0104250Y0057096D01*
X0104250Y0052096D01*
X0041770Y0103730D02*
X0041770Y0245462D01*
X0356730Y0245462D01*
X0356730Y0103730D01*
X0041770Y0103730D01*
X0058896Y0122824D02*
X0058896Y0226367D01*
X0339604Y0226367D01*
X0339604Y0122824D01*
X0058896Y0122824D01*
M02*
