M48
;GenerationSoftware,Autodesk,EAGLE,9.2.2*%
;CreationDate,2018-12-11T17:46:08Z*%
FMAT,2
ICI,OFF
METRIC,TZ,000.000
T14C0.305
T13C0.500
T12C0.600
T11C0.700
T10C0.800
T9C0.889
T8C0.900
T7C0.914
T6C1.016
T5C1.200
T4C2.360
T3C2.800
T2C3.200
T1C3.600
%
G90
M71
T1
X85995Y18415
T2
X87130Y27680
X11930Y58680
X11930Y27680
X87130Y58680
X88995Y13715
X91995Y18415
X3810Y59690
X3810Y3810
X95250Y59690
X95250Y3810
T3
X74810Y8990
X74810Y21490
T4
X93980Y54260
X93980Y42260
T5
X73660Y38100
X30480Y15240
X81810Y17740
X81810Y12740
X67310Y12740
X67310Y15240
X67310Y17740
X52705Y15875
T6
X37850Y58680
X35310Y58680
X32770Y58680
X30230Y58680
X40390Y58680
X25150Y58680
X22610Y58680
X20070Y58680
X17530Y58680
X42930Y58680
X45470Y58680
X48010Y58680
X50550Y58680
X53090Y58680
X55630Y58680
X26670Y12700
X26670Y15240
X12700Y12700
X12700Y15240
X27690Y58680
T7
X19050Y5080
X21590Y5080
X24130Y5080
X9525Y5080
X12065Y5080
X14605Y5080
X4445Y38100
X6985Y38100
X4445Y40640
X6985Y40640
X4445Y43180
X6985Y43180
T8
X93980Y30820
X93980Y35220
T9
X26035Y29591
X26035Y27559
X31115Y28575
T10
X7620Y52705
X4770Y50165
X4770Y55245
X89140Y45720
X91680Y46720
X89140Y47760
X91680Y48760
X89140Y49800
X91680Y50800
X60960Y23495
T11
X64770Y44450
X64450Y49966
T12
X46990Y49530
X38373Y26994
X50165Y11430
X31750Y47625
T13
X37465Y28575
T14
X48895Y25864
X30480Y26670
X27305Y24765
X36195Y24765
X48895Y24886
X34925Y23324
X28575Y31610
X33655Y31610
X22225Y31579
X10795Y31579
X10795Y40640
X21419Y37173
X33020Y24130
X21247Y20320
X30480Y34925
X57150Y36195
X49187Y22396
X58077Y36195
X38125Y42545
X39091Y41440
X35420Y43815
X36640Y43053
X40259Y39942
X59004Y36195
X46554Y33655
X16510Y46355
X46355Y19050
X15240Y9817
X56236Y36208
X27076Y30785
X29223Y39040
X21247Y44107
X44765Y43840
X44450Y36830
X28575Y17507
X55245Y36195
X46355Y26670
X25400Y23495
X31750Y30480
X88265Y30480
M30