G04 EAGLE Gerber RS-274X export*
G75*
%MOMM*%
%FSLAX34Y34*%
%LPD*%
%INTop Copper*%
%IPPOS*%
%AMOC8*
5,1,8,0,0,1.08239X$1,22.5*%
G01*
%ADD10R,3.816000X3.816000*%
%ADD11R,1.800000X1.800000*%
%ADD12R,1.524000X1.524000*%
%ADD13C,1.524000*%
%ADD14C,1.300000*%
%ADD15C,1.371600*%
%ADD16P,1.484606X8X112.500000*%
%ADD17C,1.200000*%
%ADD18P,4.996312X8X292.500000*%
%ADD19P,4.563356X8X112.500000*%
%ADD20P,4.563356X8X22.500000*%
%ADD21C,1.879600*%
%ADD22C,1.371600*%
%ADD23R,0.609600X0.609600*%
%ADD24R,0.904800X0.904800*%
%ADD25R,0.804800X0.804800*%
%ADD26R,1.050000X1.050000*%
%ADD27R,1.200000X1.200000*%
%ADD28C,0.406400*%
%ADD29C,1.422400*%
%ADD30C,1.270000*%

G36*
X72188Y4574D02*
X72188Y4574D01*
X72197Y4573D01*
X72390Y4594D01*
X72580Y4613D01*
X72588Y4615D01*
X72597Y4616D01*
X72780Y4674D01*
X72964Y4731D01*
X72972Y4735D01*
X72981Y4738D01*
X73149Y4830D01*
X73319Y4923D01*
X73325Y4928D01*
X73333Y4933D01*
X73480Y5057D01*
X73628Y5180D01*
X73633Y5187D01*
X73640Y5193D01*
X73760Y5345D01*
X73880Y5494D01*
X73884Y5502D01*
X73890Y5509D01*
X73978Y5682D01*
X74066Y5851D01*
X74068Y5860D01*
X74072Y5868D01*
X74124Y6054D01*
X74177Y6238D01*
X74178Y6247D01*
X74180Y6256D01*
X74194Y6449D01*
X74210Y6640D01*
X74209Y6648D01*
X74210Y6657D01*
X74185Y6850D01*
X74163Y7039D01*
X74160Y7048D01*
X74159Y7057D01*
X74098Y7240D01*
X74038Y7422D01*
X74034Y7430D01*
X74031Y7438D01*
X73935Y7605D01*
X73840Y7773D01*
X73834Y7780D01*
X73830Y7787D01*
X73615Y8040D01*
X61701Y19955D01*
X60237Y23488D01*
X60237Y32883D01*
X60237Y32888D01*
X60237Y32892D01*
X60217Y33086D01*
X60197Y33284D01*
X60196Y33288D01*
X60196Y33292D01*
X60138Y33478D01*
X60079Y33669D01*
X60077Y33673D01*
X60076Y33677D01*
X59982Y33848D01*
X59887Y34023D01*
X59885Y34026D01*
X59882Y34030D01*
X59755Y34181D01*
X59630Y34332D01*
X59626Y34335D01*
X59623Y34338D01*
X59469Y34461D01*
X59316Y34584D01*
X59312Y34586D01*
X59309Y34589D01*
X59133Y34679D01*
X58959Y34770D01*
X58954Y34771D01*
X58950Y34773D01*
X58762Y34826D01*
X58572Y34881D01*
X58567Y34882D01*
X58563Y34883D01*
X58370Y34898D01*
X58170Y34914D01*
X58166Y34913D01*
X58162Y34914D01*
X57969Y34890D01*
X57771Y34867D01*
X57766Y34866D01*
X57762Y34865D01*
X57576Y34804D01*
X57388Y34742D01*
X57384Y34740D01*
X57380Y34739D01*
X57208Y34641D01*
X57037Y34544D01*
X57034Y34541D01*
X57030Y34539D01*
X56881Y34409D01*
X56733Y34281D01*
X56730Y34278D01*
X56726Y34275D01*
X56606Y34118D01*
X56486Y33963D01*
X56484Y33959D01*
X56481Y33956D01*
X56329Y33660D01*
X53818Y27598D01*
X48602Y22382D01*
X41788Y19559D01*
X34412Y19559D01*
X27598Y22382D01*
X22382Y27598D01*
X19559Y34412D01*
X19559Y41788D01*
X22382Y48602D01*
X27598Y53818D01*
X34412Y56641D01*
X41788Y56641D01*
X48602Y53818D01*
X53818Y48602D01*
X56329Y42540D01*
X56331Y42536D01*
X56333Y42531D01*
X56428Y42356D01*
X56520Y42185D01*
X56522Y42181D01*
X56525Y42177D01*
X56650Y42027D01*
X56776Y41874D01*
X56779Y41872D01*
X56782Y41868D01*
X56935Y41745D01*
X57089Y41621D01*
X57093Y41619D01*
X57096Y41616D01*
X57271Y41525D01*
X57445Y41434D01*
X57449Y41432D01*
X57453Y41430D01*
X57643Y41376D01*
X57832Y41320D01*
X57836Y41320D01*
X57840Y41319D01*
X58038Y41303D01*
X58233Y41286D01*
X58237Y41286D01*
X58242Y41286D01*
X58439Y41309D01*
X58633Y41331D01*
X58637Y41332D01*
X58641Y41333D01*
X58830Y41394D01*
X59016Y41454D01*
X59020Y41456D01*
X59024Y41458D01*
X59197Y41555D01*
X59368Y41651D01*
X59371Y41653D01*
X59375Y41656D01*
X59524Y41784D01*
X59673Y41912D01*
X59676Y41916D01*
X59680Y41919D01*
X59799Y42073D01*
X59922Y42229D01*
X59924Y42233D01*
X59926Y42237D01*
X60014Y42413D01*
X60102Y42589D01*
X60104Y42593D01*
X60106Y42597D01*
X60157Y42790D01*
X60209Y42977D01*
X60209Y42982D01*
X60210Y42986D01*
X60237Y43317D01*
X60237Y116212D01*
X61701Y119745D01*
X77105Y135149D01*
X80638Y136613D01*
X118944Y136613D01*
X118971Y136615D01*
X118997Y136613D01*
X119171Y136635D01*
X119345Y136653D01*
X119370Y136660D01*
X119397Y136664D01*
X119562Y136719D01*
X119730Y136771D01*
X119753Y136784D01*
X119778Y136792D01*
X119930Y136879D01*
X120084Y136963D01*
X120104Y136980D01*
X120127Y136993D01*
X120218Y137070D01*
X122037Y137823D01*
X122045Y137828D01*
X122053Y137830D01*
X122221Y137922D01*
X122392Y138014D01*
X122399Y138019D01*
X122407Y138024D01*
X122553Y138147D01*
X122702Y138270D01*
X122708Y138277D01*
X122715Y138283D01*
X122835Y138433D01*
X122956Y138583D01*
X122960Y138591D01*
X122966Y138597D01*
X123053Y138768D01*
X123143Y138939D01*
X123146Y138948D01*
X123150Y138956D01*
X123202Y139140D01*
X123256Y139326D01*
X123257Y139334D01*
X123259Y139343D01*
X123274Y139534D01*
X123291Y139727D01*
X123290Y139736D01*
X123290Y139744D01*
X123267Y139935D01*
X123246Y140127D01*
X123243Y140135D01*
X123242Y140144D01*
X123181Y140327D01*
X123122Y140510D01*
X123118Y140518D01*
X123115Y140526D01*
X123020Y140694D01*
X122926Y140862D01*
X122920Y140868D01*
X122916Y140876D01*
X122789Y141021D01*
X122664Y141167D01*
X122657Y141173D01*
X122651Y141180D01*
X122498Y141297D01*
X122347Y141416D01*
X122339Y141420D01*
X122332Y141425D01*
X122037Y141577D01*
X120260Y142313D01*
X116913Y145660D01*
X115101Y150033D01*
X115101Y154767D01*
X116913Y159140D01*
X120260Y162487D01*
X124633Y164299D01*
X129367Y164299D01*
X133740Y162487D01*
X137087Y159140D01*
X138899Y154767D01*
X138899Y150033D01*
X137087Y145660D01*
X133740Y142313D01*
X131963Y141577D01*
X131955Y141572D01*
X131947Y141570D01*
X131778Y141477D01*
X131608Y141386D01*
X131601Y141381D01*
X131593Y141376D01*
X131446Y141252D01*
X131298Y141130D01*
X131292Y141123D01*
X131285Y141117D01*
X131165Y140966D01*
X131044Y140817D01*
X131040Y140810D01*
X131034Y140802D01*
X130946Y140631D01*
X130857Y140461D01*
X130854Y140452D01*
X130850Y140444D01*
X130799Y140262D01*
X130744Y140074D01*
X130743Y140065D01*
X130741Y140057D01*
X130726Y139866D01*
X130709Y139673D01*
X130710Y139664D01*
X130710Y139656D01*
X130733Y139462D01*
X130754Y139273D01*
X130757Y139265D01*
X130758Y139256D01*
X130819Y139072D01*
X130878Y138890D01*
X130882Y138882D01*
X130885Y138874D01*
X130980Y138706D01*
X131074Y138538D01*
X131080Y138532D01*
X131084Y138524D01*
X131212Y138377D01*
X131336Y138233D01*
X131343Y138227D01*
X131349Y138220D01*
X131502Y138103D01*
X131653Y137984D01*
X131661Y137980D01*
X131668Y137975D01*
X131963Y137823D01*
X133794Y137065D01*
X133796Y137063D01*
X133931Y136953D01*
X133955Y136940D01*
X133976Y136924D01*
X134133Y136846D01*
X134287Y136764D01*
X134312Y136756D01*
X134336Y136744D01*
X134506Y136699D01*
X134673Y136649D01*
X134699Y136647D01*
X134725Y136640D01*
X135056Y136613D01*
X258644Y136613D01*
X258671Y136615D01*
X258697Y136613D01*
X258871Y136635D01*
X259045Y136653D01*
X259070Y136660D01*
X259097Y136664D01*
X259262Y136719D01*
X259430Y136771D01*
X259453Y136784D01*
X259478Y136792D01*
X259630Y136879D01*
X259784Y136963D01*
X259804Y136980D01*
X259827Y136993D01*
X259918Y137070D01*
X261737Y137823D01*
X261745Y137828D01*
X261753Y137830D01*
X261921Y137922D01*
X262092Y138014D01*
X262099Y138019D01*
X262107Y138024D01*
X262253Y138147D01*
X262402Y138270D01*
X262408Y138277D01*
X262415Y138283D01*
X262535Y138433D01*
X262656Y138583D01*
X262660Y138591D01*
X262666Y138597D01*
X262753Y138768D01*
X262843Y138939D01*
X262846Y138948D01*
X262850Y138956D01*
X262902Y139140D01*
X262956Y139326D01*
X262957Y139334D01*
X262959Y139343D01*
X262974Y139534D01*
X262991Y139727D01*
X262990Y139736D01*
X262990Y139744D01*
X262967Y139935D01*
X262946Y140127D01*
X262943Y140135D01*
X262942Y140144D01*
X262881Y140327D01*
X262822Y140510D01*
X262818Y140518D01*
X262815Y140526D01*
X262720Y140694D01*
X262626Y140862D01*
X262620Y140868D01*
X262616Y140876D01*
X262489Y141021D01*
X262364Y141167D01*
X262357Y141173D01*
X262351Y141180D01*
X262198Y141297D01*
X262047Y141416D01*
X262039Y141420D01*
X262032Y141425D01*
X261737Y141577D01*
X259960Y142313D01*
X256613Y145660D01*
X254801Y150033D01*
X254801Y154767D01*
X256613Y159140D01*
X259960Y162487D01*
X264333Y164299D01*
X269067Y164299D01*
X273440Y162487D01*
X276787Y159140D01*
X277309Y157880D01*
X277311Y157876D01*
X277313Y157871D01*
X277406Y157699D01*
X277500Y157525D01*
X277502Y157521D01*
X277505Y157517D01*
X277629Y157369D01*
X277756Y157214D01*
X277759Y157211D01*
X277762Y157208D01*
X277915Y157085D01*
X278069Y156961D01*
X278073Y156958D01*
X278076Y156956D01*
X278249Y156866D01*
X278425Y156773D01*
X278429Y156772D01*
X278433Y156770D01*
X278621Y156716D01*
X278812Y156660D01*
X278816Y156660D01*
X278820Y156659D01*
X279018Y156643D01*
X279213Y156626D01*
X279217Y156626D01*
X279222Y156626D01*
X279416Y156649D01*
X279613Y156671D01*
X279617Y156672D01*
X279621Y156673D01*
X279807Y156733D01*
X279996Y156794D01*
X280000Y156796D01*
X280004Y156798D01*
X280176Y156894D01*
X280348Y156990D01*
X280351Y156993D01*
X280355Y156996D01*
X280503Y157124D01*
X280653Y157252D01*
X280656Y157256D01*
X280660Y157259D01*
X280780Y157413D01*
X280902Y157569D01*
X280904Y157573D01*
X280906Y157577D01*
X280995Y157755D01*
X281082Y157929D01*
X281084Y157933D01*
X281086Y157937D01*
X281137Y158129D01*
X281189Y158317D01*
X281189Y158322D01*
X281190Y158326D01*
X281217Y158657D01*
X281217Y169128D01*
X281217Y169135D01*
X281217Y169140D01*
X281215Y169158D01*
X281217Y169182D01*
X281195Y169356D01*
X281177Y169529D01*
X281170Y169554D01*
X281166Y169581D01*
X281111Y169747D01*
X281059Y169914D01*
X281046Y169937D01*
X281038Y169963D01*
X280951Y170114D01*
X280867Y170268D01*
X280850Y170288D01*
X280837Y170312D01*
X280622Y170565D01*
X280201Y170986D01*
X280201Y179153D01*
X281666Y180618D01*
X289834Y180618D01*
X291299Y179153D01*
X291299Y170986D01*
X290878Y170565D01*
X290861Y170544D01*
X290840Y170526D01*
X290733Y170388D01*
X290623Y170253D01*
X290610Y170229D01*
X290594Y170208D01*
X290516Y170051D01*
X290434Y169897D01*
X290426Y169872D01*
X290414Y169848D01*
X290369Y169678D01*
X290319Y169511D01*
X290317Y169485D01*
X290310Y169459D01*
X290283Y169128D01*
X290283Y118954D01*
X290285Y118928D01*
X290283Y118901D01*
X290305Y118727D01*
X290323Y118554D01*
X290330Y118528D01*
X290334Y118502D01*
X290389Y118336D01*
X290441Y118169D01*
X290454Y118145D01*
X290462Y118120D01*
X290549Y117968D01*
X290633Y117815D01*
X290650Y117794D01*
X290663Y117771D01*
X290878Y117518D01*
X297033Y111363D01*
X297053Y111346D01*
X297071Y111326D01*
X297209Y111219D01*
X297344Y111108D01*
X297368Y111096D01*
X297389Y111079D01*
X297546Y111001D01*
X297700Y110919D01*
X297725Y110912D01*
X297749Y110900D01*
X297919Y110854D01*
X298086Y110805D01*
X298112Y110802D01*
X298138Y110795D01*
X298469Y110768D01*
X381307Y110768D01*
X381327Y110770D01*
X381347Y110769D01*
X381527Y110790D01*
X381708Y110808D01*
X381727Y110814D01*
X381747Y110816D01*
X381919Y110873D01*
X382093Y110926D01*
X382110Y110936D01*
X382130Y110942D01*
X382288Y111032D01*
X382447Y111118D01*
X382462Y111131D01*
X382480Y111141D01*
X382734Y111354D01*
X385249Y113837D01*
X385262Y113852D01*
X385277Y113865D01*
X385391Y114008D01*
X385506Y114147D01*
X385516Y114164D01*
X385528Y114180D01*
X385611Y114341D01*
X385697Y114501D01*
X385703Y114521D01*
X385712Y114539D01*
X385761Y114713D01*
X385814Y114886D01*
X385816Y114906D01*
X385822Y114926D01*
X385853Y115256D01*
X387373Y234563D01*
X387373Y234569D01*
X387373Y234576D01*
X387379Y235469D01*
X387733Y236295D01*
X387735Y236300D01*
X387738Y236307D01*
X388085Y237129D01*
X388728Y237756D01*
X388732Y237760D01*
X388737Y237765D01*
X391859Y240847D01*
X391869Y240859D01*
X391881Y240869D01*
X391997Y241013D01*
X392116Y241157D01*
X392124Y241171D01*
X392133Y241183D01*
X392218Y241347D01*
X392307Y241511D01*
X392312Y241526D01*
X392319Y241540D01*
X392370Y241718D01*
X392424Y241897D01*
X392426Y241912D01*
X392430Y241927D01*
X392445Y242112D01*
X392463Y242297D01*
X392462Y242313D01*
X392463Y242328D01*
X392441Y242512D01*
X392423Y242698D01*
X392418Y242713D01*
X392416Y242728D01*
X392359Y242904D01*
X392303Y243082D01*
X392296Y243096D01*
X392291Y243111D01*
X392200Y243272D01*
X392111Y243436D01*
X392101Y243448D01*
X392093Y243461D01*
X391972Y243602D01*
X391852Y243745D01*
X391840Y243754D01*
X391830Y243766D01*
X391684Y243880D01*
X391538Y243996D01*
X391524Y244003D01*
X391512Y244013D01*
X391346Y244095D01*
X391180Y244181D01*
X391165Y244185D01*
X391152Y244192D01*
X390971Y244241D01*
X390793Y244291D01*
X390778Y244293D01*
X390763Y244297D01*
X390432Y244324D01*
X369098Y244324D01*
X369071Y244321D01*
X369044Y244323D01*
X368870Y244301D01*
X368697Y244284D01*
X368672Y244276D01*
X368645Y244273D01*
X368479Y244217D01*
X368312Y244166D01*
X368289Y244153D01*
X368263Y244144D01*
X368112Y244057D01*
X367958Y243974D01*
X367938Y243957D01*
X367914Y243944D01*
X367661Y243729D01*
X366034Y242101D01*
X357866Y242101D01*
X357250Y242717D01*
X357243Y242723D01*
X357238Y242730D01*
X357088Y242850D01*
X356939Y242972D01*
X356931Y242976D01*
X356924Y242982D01*
X356754Y243070D01*
X356583Y243161D01*
X356574Y243163D01*
X356567Y243168D01*
X356382Y243221D01*
X356197Y243276D01*
X356188Y243276D01*
X356180Y243279D01*
X355989Y243295D01*
X355796Y243312D01*
X355787Y243311D01*
X355778Y243312D01*
X355589Y243290D01*
X355396Y243269D01*
X355387Y243266D01*
X355379Y243265D01*
X355197Y243206D01*
X355012Y243147D01*
X355004Y243143D01*
X354996Y243140D01*
X354828Y243045D01*
X354660Y242952D01*
X354653Y242947D01*
X354645Y242942D01*
X354500Y242817D01*
X354353Y242692D01*
X354347Y242685D01*
X354340Y242679D01*
X354224Y242528D01*
X354103Y242376D01*
X354099Y242368D01*
X354094Y242361D01*
X354008Y242189D01*
X353921Y242017D01*
X353918Y242008D01*
X353914Y242000D01*
X353864Y241814D01*
X353813Y241629D01*
X353812Y241620D01*
X353810Y241612D01*
X353783Y241281D01*
X353783Y239177D01*
X353785Y239150D01*
X353783Y239123D01*
X353805Y238949D01*
X353823Y238776D01*
X353830Y238751D01*
X353834Y238724D01*
X353889Y238558D01*
X353941Y238391D01*
X353954Y238368D01*
X353962Y238342D01*
X354049Y238191D01*
X354133Y238037D01*
X354150Y238017D01*
X354163Y237993D01*
X354378Y237740D01*
X354799Y237319D01*
X354799Y229152D01*
X353334Y227687D01*
X345166Y227687D01*
X344745Y228108D01*
X344724Y228125D01*
X344707Y228145D01*
X344569Y228252D01*
X344434Y228363D01*
X344410Y228375D01*
X344389Y228392D01*
X344232Y228470D01*
X344078Y228552D01*
X344052Y228559D01*
X344028Y228571D01*
X343859Y228617D01*
X343692Y228666D01*
X343665Y228669D01*
X343640Y228676D01*
X343309Y228703D01*
X313898Y228703D01*
X312232Y229393D01*
X300957Y240668D01*
X300462Y241863D01*
X300452Y241883D01*
X300445Y241904D01*
X300356Y242061D01*
X300272Y242218D01*
X300258Y242235D01*
X300247Y242255D01*
X300130Y242391D01*
X300016Y242529D01*
X299998Y242543D01*
X299984Y242560D01*
X299842Y242669D01*
X299703Y242782D01*
X299683Y242793D01*
X299666Y242806D01*
X299505Y242886D01*
X299346Y242969D01*
X299325Y242976D01*
X299305Y242986D01*
X299131Y243032D01*
X298960Y243082D01*
X298938Y243084D01*
X298916Y243090D01*
X298586Y243117D01*
X278991Y243117D01*
X278965Y243115D01*
X278938Y243117D01*
X278764Y243095D01*
X278591Y243077D01*
X278565Y243070D01*
X278538Y243066D01*
X278373Y243011D01*
X278206Y242959D01*
X278182Y242946D01*
X278157Y242938D01*
X278005Y242851D01*
X277852Y242767D01*
X277831Y242750D01*
X277808Y242737D01*
X277555Y242522D01*
X277134Y242101D01*
X268966Y242101D01*
X267501Y243566D01*
X267501Y252537D01*
X267500Y252546D01*
X267501Y252555D01*
X267480Y252747D01*
X267461Y252938D01*
X267459Y252946D01*
X267458Y252955D01*
X267400Y253138D01*
X267343Y253323D01*
X267339Y253331D01*
X267336Y253339D01*
X267243Y253507D01*
X267151Y253677D01*
X267146Y253684D01*
X267141Y253691D01*
X267017Y253838D01*
X266894Y253986D01*
X266887Y253992D01*
X266881Y253998D01*
X266730Y254117D01*
X266580Y254238D01*
X266572Y254242D01*
X266565Y254248D01*
X266392Y254336D01*
X266223Y254424D01*
X266214Y254426D01*
X266206Y254430D01*
X266020Y254482D01*
X265836Y254535D01*
X265827Y254536D01*
X265818Y254538D01*
X265625Y254552D01*
X265434Y254568D01*
X265426Y254567D01*
X265417Y254568D01*
X265224Y254543D01*
X265035Y254521D01*
X265026Y254518D01*
X265017Y254517D01*
X264834Y254456D01*
X264652Y254396D01*
X264644Y254392D01*
X264636Y254389D01*
X264469Y254293D01*
X264301Y254198D01*
X264294Y254193D01*
X264287Y254188D01*
X264034Y253973D01*
X259128Y249067D01*
X259111Y249047D01*
X259090Y249029D01*
X258984Y248892D01*
X258873Y248756D01*
X258860Y248732D01*
X258844Y248711D01*
X258766Y248555D01*
X258684Y248400D01*
X258676Y248375D01*
X258664Y248351D01*
X258619Y248182D01*
X258569Y248014D01*
X258567Y247988D01*
X258560Y247962D01*
X258533Y247631D01*
X258533Y240891D01*
X258535Y240865D01*
X258533Y240838D01*
X258555Y240664D01*
X258573Y240491D01*
X258581Y240465D01*
X258584Y240438D01*
X258639Y240273D01*
X258691Y240106D01*
X258704Y240082D01*
X258712Y240057D01*
X258799Y239905D01*
X258883Y239752D01*
X258900Y239731D01*
X258913Y239708D01*
X259128Y239455D01*
X259549Y239034D01*
X259549Y230866D01*
X258084Y229401D01*
X249916Y229401D01*
X248451Y230866D01*
X248451Y239034D01*
X248872Y239455D01*
X248889Y239476D01*
X248910Y239493D01*
X249016Y239631D01*
X249127Y239766D01*
X249140Y239790D01*
X249156Y239811D01*
X249234Y239968D01*
X249316Y240122D01*
X249324Y240148D01*
X249336Y240172D01*
X249381Y240341D01*
X249431Y240508D01*
X249433Y240535D01*
X249440Y240560D01*
X249467Y240891D01*
X249467Y251252D01*
X250157Y252918D01*
X261432Y264193D01*
X262649Y264696D01*
X262652Y264698D01*
X262657Y264700D01*
X262829Y264793D01*
X262996Y264883D01*
X273031Y264883D01*
X273058Y264885D01*
X273084Y264883D01*
X273258Y264905D01*
X273432Y264923D01*
X273457Y264930D01*
X273484Y264934D01*
X273650Y264989D01*
X273817Y265041D01*
X273840Y265054D01*
X273866Y265062D01*
X274017Y265149D01*
X274171Y265233D01*
X274191Y265250D01*
X274214Y265263D01*
X274467Y265478D01*
X280622Y271633D01*
X280639Y271653D01*
X280660Y271671D01*
X280767Y271809D01*
X280877Y271944D01*
X280890Y271968D01*
X280906Y271989D01*
X280984Y272146D01*
X281066Y272300D01*
X281074Y272325D01*
X281086Y272349D01*
X281131Y272519D01*
X281181Y272686D01*
X281183Y272712D01*
X281190Y272738D01*
X281217Y273069D01*
X281217Y295702D01*
X281907Y297368D01*
X283468Y298928D01*
X291626Y307087D01*
X291632Y307094D01*
X291639Y307099D01*
X291759Y307249D01*
X291882Y307398D01*
X291886Y307406D01*
X291891Y307413D01*
X291980Y307583D01*
X292070Y307754D01*
X292073Y307763D01*
X292077Y307770D01*
X292130Y307955D01*
X292185Y308140D01*
X292186Y308149D01*
X292188Y308157D01*
X292204Y308348D01*
X292221Y308541D01*
X292220Y308550D01*
X292221Y308559D01*
X292199Y308748D01*
X292178Y308941D01*
X292175Y308950D01*
X292174Y308958D01*
X292115Y309140D01*
X292056Y309325D01*
X292052Y309333D01*
X292049Y309341D01*
X291954Y309510D01*
X291862Y309677D01*
X291856Y309684D01*
X291851Y309692D01*
X291725Y309838D01*
X291601Y309984D01*
X291594Y309990D01*
X291588Y309997D01*
X291437Y310114D01*
X291285Y310234D01*
X291277Y310238D01*
X291270Y310243D01*
X291098Y310329D01*
X290926Y310416D01*
X290918Y310419D01*
X290910Y310423D01*
X290723Y310473D01*
X290538Y310524D01*
X290530Y310525D01*
X290521Y310527D01*
X290190Y310554D01*
X281666Y310554D01*
X281245Y310975D01*
X281224Y310992D01*
X281207Y311013D01*
X281069Y311120D01*
X280934Y311230D01*
X280910Y311243D01*
X280889Y311259D01*
X280732Y311337D01*
X280578Y311419D01*
X280552Y311427D01*
X280528Y311439D01*
X280359Y311484D01*
X280192Y311534D01*
X280165Y311536D01*
X280140Y311543D01*
X279809Y311570D01*
X228509Y311570D01*
X228482Y311568D01*
X228455Y311570D01*
X228281Y311548D01*
X228108Y311530D01*
X228083Y311523D01*
X228056Y311519D01*
X227890Y311464D01*
X227723Y311412D01*
X227700Y311399D01*
X227674Y311391D01*
X227523Y311304D01*
X227369Y311220D01*
X227349Y311203D01*
X227325Y311190D01*
X227072Y310975D01*
X226334Y310237D01*
X219035Y310237D01*
X219017Y310235D01*
X218999Y310236D01*
X218817Y310215D01*
X218634Y310197D01*
X218617Y310192D01*
X218600Y310190D01*
X218425Y310133D01*
X218249Y310079D01*
X218234Y310070D01*
X218217Y310065D01*
X218057Y309974D01*
X217895Y309887D01*
X217882Y309876D01*
X217866Y309867D01*
X217727Y309747D01*
X217586Y309629D01*
X217575Y309615D01*
X217561Y309604D01*
X217449Y309459D01*
X217334Y309315D01*
X217326Y309300D01*
X217315Y309286D01*
X217233Y309121D01*
X217148Y308958D01*
X217143Y308941D01*
X217135Y308925D01*
X217088Y308747D01*
X217037Y308571D01*
X217035Y308553D01*
X217031Y308536D01*
X217004Y308206D01*
X217004Y209141D01*
X217006Y209115D01*
X217004Y209088D01*
X217026Y208914D01*
X217044Y208741D01*
X217052Y208715D01*
X217055Y208688D01*
X217110Y208523D01*
X217162Y208356D01*
X217175Y208332D01*
X217183Y208307D01*
X217270Y208155D01*
X217354Y208002D01*
X217371Y207981D01*
X217384Y207958D01*
X217599Y207705D01*
X218020Y207284D01*
X218020Y199116D01*
X216555Y197651D01*
X208387Y197651D01*
X206922Y199116D01*
X206922Y207284D01*
X207343Y207705D01*
X207360Y207726D01*
X207381Y207743D01*
X207487Y207881D01*
X207598Y208016D01*
X207611Y208040D01*
X207627Y208061D01*
X207705Y208218D01*
X207787Y208372D01*
X207795Y208398D01*
X207807Y208422D01*
X207852Y208591D01*
X207902Y208758D01*
X207904Y208785D01*
X207911Y208810D01*
X207938Y209141D01*
X207938Y337452D01*
X208628Y339118D01*
X221043Y351532D01*
X222603Y353093D01*
X224269Y353783D01*
X298859Y353783D01*
X298885Y353785D01*
X298912Y353783D01*
X299086Y353805D01*
X299259Y353823D01*
X299285Y353830D01*
X299312Y353834D01*
X299477Y353889D01*
X299644Y353941D01*
X299668Y353954D01*
X299693Y353962D01*
X299845Y354049D01*
X299998Y354133D01*
X300019Y354150D01*
X300042Y354163D01*
X300295Y354378D01*
X300716Y354799D01*
X308884Y354799D01*
X310349Y353334D01*
X310349Y345166D01*
X308884Y343701D01*
X300716Y343701D01*
X300295Y344122D01*
X300274Y344139D01*
X300257Y344160D01*
X300119Y344267D01*
X299984Y344377D01*
X299960Y344390D01*
X299939Y344406D01*
X299782Y344484D01*
X299628Y344566D01*
X299602Y344574D01*
X299578Y344586D01*
X299409Y344631D01*
X299242Y344681D01*
X299215Y344683D01*
X299190Y344690D01*
X298859Y344717D01*
X227890Y344717D01*
X227863Y344715D01*
X227837Y344717D01*
X227663Y344695D01*
X227489Y344677D01*
X227464Y344670D01*
X227437Y344666D01*
X227271Y344611D01*
X227104Y344559D01*
X227081Y344546D01*
X227055Y344538D01*
X226904Y344451D01*
X226750Y344367D01*
X226730Y344350D01*
X226707Y344337D01*
X226454Y344122D01*
X217599Y335267D01*
X217582Y335247D01*
X217561Y335229D01*
X217454Y335091D01*
X217344Y334956D01*
X217331Y334932D01*
X217315Y334911D01*
X217237Y334754D01*
X217155Y334600D01*
X217147Y334575D01*
X217135Y334551D01*
X217090Y334381D01*
X217040Y334214D01*
X217038Y334188D01*
X217031Y334162D01*
X217004Y333831D01*
X217004Y323365D01*
X217006Y323348D01*
X217004Y323330D01*
X217025Y323148D01*
X217044Y322965D01*
X217049Y322948D01*
X217051Y322930D01*
X217108Y322756D01*
X217162Y322580D01*
X217170Y322564D01*
X217176Y322547D01*
X217266Y322387D01*
X217354Y322226D01*
X217365Y322212D01*
X217374Y322197D01*
X217494Y322057D01*
X217611Y321917D01*
X217625Y321905D01*
X217637Y321892D01*
X217782Y321779D01*
X217925Y321664D01*
X217941Y321656D01*
X217955Y321645D01*
X218120Y321563D01*
X218282Y321479D01*
X218299Y321474D01*
X218315Y321466D01*
X218494Y321418D01*
X218669Y321367D01*
X218687Y321366D01*
X218704Y321361D01*
X219035Y321334D01*
X226334Y321334D01*
X226437Y321231D01*
X226458Y321214D01*
X226476Y321193D01*
X226614Y321086D01*
X226749Y320976D01*
X226773Y320963D01*
X226794Y320947D01*
X226951Y320869D01*
X227105Y320787D01*
X227130Y320779D01*
X227154Y320767D01*
X227324Y320722D01*
X227491Y320672D01*
X227517Y320670D01*
X227543Y320663D01*
X227874Y320636D01*
X279809Y320636D01*
X279835Y320638D01*
X279862Y320636D01*
X280036Y320658D01*
X280209Y320676D01*
X280235Y320683D01*
X280262Y320687D01*
X280427Y320742D01*
X280594Y320794D01*
X280618Y320807D01*
X280643Y320815D01*
X280795Y320902D01*
X280948Y320986D01*
X280969Y321003D01*
X280992Y321016D01*
X281245Y321231D01*
X281666Y321652D01*
X289834Y321652D01*
X290255Y321231D01*
X290276Y321214D01*
X290293Y321193D01*
X290431Y321086D01*
X290566Y320976D01*
X290590Y320963D01*
X290611Y320947D01*
X290768Y320869D01*
X290922Y320787D01*
X290948Y320779D01*
X290972Y320767D01*
X291141Y320722D01*
X291308Y320672D01*
X291335Y320670D01*
X291360Y320663D01*
X291691Y320636D01*
X330609Y320636D01*
X330635Y320638D01*
X330662Y320636D01*
X330836Y320658D01*
X331009Y320676D01*
X331035Y320683D01*
X331062Y320687D01*
X331227Y320742D01*
X331394Y320794D01*
X331418Y320807D01*
X331443Y320815D01*
X331595Y320902D01*
X331748Y320986D01*
X331769Y321003D01*
X331792Y321016D01*
X332045Y321231D01*
X332466Y321652D01*
X340634Y321652D01*
X342099Y320187D01*
X342099Y312019D01*
X341678Y311598D01*
X341661Y311577D01*
X341640Y311560D01*
X341533Y311422D01*
X341423Y311287D01*
X341410Y311263D01*
X341394Y311242D01*
X341315Y311085D01*
X341234Y310931D01*
X341226Y310905D01*
X341214Y310881D01*
X341169Y310712D01*
X341119Y310545D01*
X341117Y310518D01*
X341110Y310493D01*
X341083Y310162D01*
X341083Y251228D01*
X341083Y251224D01*
X341083Y251219D01*
X341103Y251026D01*
X341123Y250828D01*
X341124Y250823D01*
X341124Y250819D01*
X341182Y250633D01*
X341241Y250443D01*
X341243Y250439D01*
X341244Y250435D01*
X341338Y250263D01*
X341433Y250089D01*
X341435Y250085D01*
X341438Y250081D01*
X341565Y249930D01*
X341690Y249780D01*
X341694Y249777D01*
X341697Y249773D01*
X341851Y249650D01*
X342004Y249527D01*
X342008Y249525D01*
X342011Y249522D01*
X342186Y249433D01*
X342361Y249342D01*
X342366Y249340D01*
X342370Y249338D01*
X342557Y249285D01*
X342748Y249230D01*
X342753Y249230D01*
X342757Y249229D01*
X342950Y249214D01*
X343150Y249197D01*
X343154Y249198D01*
X343158Y249198D01*
X343352Y249221D01*
X343549Y249244D01*
X343554Y249246D01*
X343558Y249246D01*
X343743Y249308D01*
X343932Y249369D01*
X343936Y249371D01*
X343940Y249373D01*
X344112Y249471D01*
X344283Y249567D01*
X344286Y249570D01*
X344290Y249572D01*
X344441Y249704D01*
X344587Y249830D01*
X344590Y249834D01*
X344594Y249837D01*
X344714Y249993D01*
X344834Y250148D01*
X344836Y250152D01*
X344839Y250156D01*
X344991Y250451D01*
X345407Y251457D01*
X356682Y262732D01*
X358348Y263422D01*
X455970Y263422D01*
X455988Y263424D01*
X456006Y263423D01*
X456188Y263444D01*
X456371Y263462D01*
X456388Y263467D01*
X456405Y263469D01*
X456580Y263526D01*
X456756Y263580D01*
X456771Y263589D01*
X456788Y263594D01*
X456948Y263685D01*
X457110Y263772D01*
X457123Y263783D01*
X457139Y263792D01*
X457278Y263912D01*
X457419Y264030D01*
X457430Y264044D01*
X457444Y264055D01*
X457556Y264200D01*
X457671Y264344D01*
X457679Y264359D01*
X457690Y264373D01*
X457772Y264538D01*
X457857Y264701D01*
X457862Y264718D01*
X457870Y264734D01*
X457917Y264911D01*
X457968Y265088D01*
X457970Y265106D01*
X457974Y265123D01*
X458001Y265453D01*
X458001Y270784D01*
X459466Y272249D01*
X459780Y272249D01*
X459798Y272251D01*
X459816Y272249D01*
X459998Y272270D01*
X460181Y272289D01*
X460198Y272294D01*
X460215Y272296D01*
X460390Y272353D01*
X460566Y272407D01*
X460581Y272415D01*
X460598Y272421D01*
X460758Y272511D01*
X460920Y272599D01*
X460933Y272610D01*
X460949Y272619D01*
X461088Y272739D01*
X461229Y272856D01*
X461240Y272870D01*
X461254Y272882D01*
X461366Y273027D01*
X461481Y273170D01*
X461489Y273186D01*
X461500Y273200D01*
X461582Y273365D01*
X461667Y273527D01*
X461672Y273544D01*
X461680Y273560D01*
X461727Y273739D01*
X461778Y273914D01*
X461780Y273932D01*
X461784Y273949D01*
X461811Y274280D01*
X461811Y329808D01*
X461809Y329835D01*
X461811Y329862D01*
X461789Y330036D01*
X461771Y330209D01*
X461764Y330234D01*
X461760Y330261D01*
X461705Y330427D01*
X461653Y330594D01*
X461640Y330617D01*
X461632Y330643D01*
X461545Y330794D01*
X461461Y330948D01*
X461444Y330968D01*
X461431Y330992D01*
X461216Y331245D01*
X459995Y332466D01*
X459995Y340634D01*
X461460Y342099D01*
X469627Y342099D01*
X471092Y340634D01*
X471092Y332300D01*
X471028Y332178D01*
X471020Y332153D01*
X471008Y332129D01*
X470963Y331959D01*
X470913Y331792D01*
X470911Y331766D01*
X470904Y331740D01*
X470877Y331409D01*
X470877Y265453D01*
X470879Y265436D01*
X470877Y265418D01*
X470898Y265236D01*
X470917Y265053D01*
X470922Y265036D01*
X470924Y265018D01*
X470981Y264844D01*
X471035Y264668D01*
X471043Y264652D01*
X471049Y264635D01*
X471139Y264475D01*
X471227Y264314D01*
X471238Y264300D01*
X471247Y264285D01*
X471367Y264145D01*
X471484Y264005D01*
X471498Y263993D01*
X471510Y263980D01*
X471655Y263867D01*
X471798Y263752D01*
X471814Y263744D01*
X471828Y263733D01*
X471993Y263651D01*
X472155Y263567D01*
X472172Y263562D01*
X472188Y263554D01*
X472367Y263506D01*
X472542Y263455D01*
X472560Y263454D01*
X472577Y263449D01*
X472908Y263422D01*
X483263Y263422D01*
X483289Y263425D01*
X483316Y263423D01*
X483490Y263445D01*
X483663Y263462D01*
X483689Y263470D01*
X483716Y263473D01*
X483881Y263529D01*
X484048Y263580D01*
X484072Y263593D01*
X484097Y263602D01*
X484249Y263689D01*
X484402Y263772D01*
X484423Y263789D01*
X484446Y263802D01*
X484699Y264017D01*
X484866Y264184D01*
X493034Y264184D01*
X494499Y262719D01*
X494499Y247356D01*
X494501Y247338D01*
X494499Y247320D01*
X494520Y247138D01*
X494539Y246955D01*
X494544Y246938D01*
X494546Y246921D01*
X494603Y246746D01*
X494657Y246570D01*
X494665Y246555D01*
X494671Y246538D01*
X494761Y246378D01*
X494849Y246216D01*
X494860Y246203D01*
X494869Y246187D01*
X494989Y246048D01*
X495106Y245907D01*
X495120Y245896D01*
X495132Y245882D01*
X495277Y245770D01*
X495420Y245655D01*
X495436Y245647D01*
X495450Y245636D01*
X495615Y245554D01*
X495777Y245469D01*
X495794Y245464D01*
X495810Y245456D01*
X495989Y245409D01*
X496164Y245358D01*
X496182Y245356D01*
X496199Y245352D01*
X496530Y245325D01*
X543381Y245325D01*
X543408Y245327D01*
X543434Y245325D01*
X543608Y245347D01*
X543782Y245365D01*
X543807Y245372D01*
X543834Y245376D01*
X544000Y245431D01*
X544167Y245483D01*
X544190Y245496D01*
X544216Y245504D01*
X544367Y245591D01*
X544521Y245675D01*
X544541Y245692D01*
X544564Y245705D01*
X544817Y245920D01*
X547322Y248425D01*
X547339Y248445D01*
X547360Y248463D01*
X547467Y248601D01*
X547577Y248736D01*
X547590Y248760D01*
X547606Y248781D01*
X547684Y248938D01*
X547766Y249092D01*
X547774Y249117D01*
X547786Y249141D01*
X547831Y249311D01*
X547881Y249478D01*
X547883Y249504D01*
X547890Y249530D01*
X547917Y249861D01*
X547917Y356009D01*
X547917Y356013D01*
X547917Y356015D01*
X547915Y356029D01*
X547915Y356035D01*
X547917Y356062D01*
X547895Y356236D01*
X547877Y356409D01*
X547870Y356435D01*
X547866Y356462D01*
X547811Y356627D01*
X547759Y356794D01*
X547746Y356818D01*
X547738Y356843D01*
X547651Y356995D01*
X547567Y357148D01*
X547550Y357169D01*
X547537Y357192D01*
X547322Y357445D01*
X546901Y357866D01*
X546901Y366034D01*
X548366Y367499D01*
X557304Y367499D01*
X557330Y367501D01*
X557357Y367499D01*
X557531Y367521D01*
X557704Y367539D01*
X557730Y367546D01*
X557757Y367550D01*
X557922Y367605D01*
X557988Y367626D01*
X566706Y367626D01*
X566858Y367585D01*
X567025Y367535D01*
X567052Y367533D01*
X567077Y367526D01*
X567408Y367499D01*
X594126Y367499D01*
X595591Y366034D01*
X595591Y357435D01*
X595564Y357344D01*
X595561Y357318D01*
X595554Y357292D01*
X595527Y356961D01*
X595527Y212204D01*
X594837Y210538D01*
X587212Y202913D01*
X585546Y202223D01*
X423533Y202223D01*
X423507Y202221D01*
X423480Y202223D01*
X423306Y202201D01*
X423133Y202183D01*
X423107Y202176D01*
X423081Y202172D01*
X422915Y202117D01*
X422748Y202065D01*
X422724Y202052D01*
X422699Y202044D01*
X422547Y201957D01*
X422394Y201873D01*
X422373Y201856D01*
X422350Y201843D01*
X422097Y201628D01*
X419592Y199123D01*
X419575Y199103D01*
X419555Y199085D01*
X419448Y198947D01*
X419337Y198812D01*
X419325Y198788D01*
X419308Y198767D01*
X419230Y198610D01*
X419148Y198456D01*
X419141Y198431D01*
X419129Y198407D01*
X419083Y198237D01*
X419034Y198070D01*
X419031Y198044D01*
X419024Y198018D01*
X418997Y197687D01*
X418997Y87998D01*
X418307Y86332D01*
X410682Y78707D01*
X409016Y78017D01*
X203219Y78017D01*
X203192Y78015D01*
X203166Y78017D01*
X202992Y77995D01*
X202818Y77977D01*
X202793Y77970D01*
X202766Y77966D01*
X202600Y77911D01*
X202433Y77859D01*
X202410Y77846D01*
X202384Y77838D01*
X202233Y77751D01*
X202079Y77667D01*
X202059Y77650D01*
X202036Y77637D01*
X201783Y77422D01*
X195628Y71267D01*
X195611Y71247D01*
X195590Y71229D01*
X195483Y71091D01*
X195373Y70956D01*
X195360Y70932D01*
X195344Y70911D01*
X195266Y70754D01*
X195184Y70600D01*
X195176Y70575D01*
X195164Y70551D01*
X195119Y70381D01*
X195069Y70214D01*
X195067Y70188D01*
X195060Y70162D01*
X195033Y69831D01*
X195033Y67202D01*
X195035Y67175D01*
X195033Y67149D01*
X195055Y66975D01*
X195073Y66801D01*
X195080Y66776D01*
X195084Y66749D01*
X195140Y66583D01*
X195191Y66416D01*
X195204Y66393D01*
X195212Y66367D01*
X195299Y66216D01*
X195383Y66062D01*
X195400Y66042D01*
X195413Y66019D01*
X195628Y65766D01*
X198434Y62959D01*
X199859Y59520D01*
X199859Y42080D01*
X198434Y38641D01*
X195801Y36008D01*
X192362Y34583D01*
X188638Y34583D01*
X185199Y36008D01*
X182566Y38641D01*
X181141Y42080D01*
X181141Y59520D01*
X182566Y62959D01*
X185372Y65766D01*
X185389Y65786D01*
X185410Y65804D01*
X185517Y65942D01*
X185627Y66077D01*
X185640Y66101D01*
X185656Y66122D01*
X185734Y66278D01*
X185816Y66433D01*
X185824Y66458D01*
X185836Y66482D01*
X185881Y66651D01*
X185931Y66819D01*
X185933Y66845D01*
X185940Y66871D01*
X185967Y67202D01*
X185967Y73452D01*
X186657Y75118D01*
X188218Y76678D01*
X193646Y82106D01*
X193652Y82113D01*
X193658Y82119D01*
X193779Y82268D01*
X193901Y82418D01*
X193905Y82426D01*
X193911Y82433D01*
X193999Y82603D01*
X194090Y82773D01*
X194092Y82782D01*
X194096Y82790D01*
X194149Y82973D01*
X194204Y83159D01*
X194205Y83168D01*
X194208Y83177D01*
X194223Y83368D01*
X194241Y83560D01*
X194240Y83569D01*
X194241Y83578D01*
X194218Y83767D01*
X194197Y83961D01*
X194195Y83969D01*
X194194Y83978D01*
X194134Y84160D01*
X194076Y84344D01*
X194072Y84352D01*
X194069Y84361D01*
X193974Y84529D01*
X193881Y84697D01*
X193875Y84703D01*
X193871Y84711D01*
X193745Y84857D01*
X193621Y85004D01*
X193614Y85009D01*
X193608Y85016D01*
X193456Y85133D01*
X193305Y85253D01*
X193297Y85257D01*
X193290Y85263D01*
X193118Y85348D01*
X192946Y85436D01*
X192937Y85438D01*
X192929Y85442D01*
X192743Y85492D01*
X192558Y85544D01*
X192549Y85544D01*
X192540Y85547D01*
X192210Y85574D01*
X110669Y85574D01*
X110642Y85571D01*
X110616Y85573D01*
X110442Y85551D01*
X110268Y85534D01*
X110243Y85526D01*
X110216Y85523D01*
X110050Y85467D01*
X109883Y85416D01*
X109860Y85403D01*
X109834Y85394D01*
X109683Y85307D01*
X109529Y85224D01*
X109509Y85207D01*
X109486Y85194D01*
X109233Y84979D01*
X100378Y76124D01*
X100361Y76103D01*
X100340Y76086D01*
X100233Y75948D01*
X100123Y75812D01*
X100110Y75789D01*
X100094Y75768D01*
X100016Y75611D01*
X99934Y75457D01*
X99926Y75431D01*
X99914Y75407D01*
X99869Y75238D01*
X99819Y75071D01*
X99817Y75044D01*
X99810Y75018D01*
X99783Y74688D01*
X99783Y67202D01*
X99785Y67175D01*
X99783Y67149D01*
X99805Y66975D01*
X99823Y66801D01*
X99830Y66776D01*
X99834Y66749D01*
X99889Y66583D01*
X99941Y66416D01*
X99954Y66393D01*
X99962Y66367D01*
X100049Y66216D01*
X100133Y66062D01*
X100150Y66042D01*
X100163Y66019D01*
X100378Y65766D01*
X103184Y62959D01*
X104609Y59520D01*
X104609Y42080D01*
X103184Y38641D01*
X100551Y36008D01*
X97112Y34583D01*
X93388Y34583D01*
X89949Y36008D01*
X87316Y38641D01*
X85891Y42080D01*
X85891Y59520D01*
X87316Y62959D01*
X90122Y65766D01*
X90139Y65786D01*
X90160Y65804D01*
X90267Y65942D01*
X90377Y66077D01*
X90390Y66101D01*
X90406Y66122D01*
X90484Y66279D01*
X90566Y66433D01*
X90574Y66458D01*
X90586Y66482D01*
X90631Y66652D01*
X90681Y66819D01*
X90683Y66845D01*
X90690Y66871D01*
X90717Y67202D01*
X90717Y78308D01*
X91407Y79974D01*
X105382Y93949D01*
X107048Y94639D01*
X144820Y94639D01*
X144838Y94641D01*
X144856Y94640D01*
X145038Y94661D01*
X145221Y94679D01*
X145238Y94684D01*
X145255Y94686D01*
X145430Y94743D01*
X145606Y94797D01*
X145621Y94806D01*
X145638Y94811D01*
X145798Y94902D01*
X145960Y94989D01*
X145973Y95000D01*
X145989Y95009D01*
X146128Y95129D01*
X146269Y95247D01*
X146280Y95261D01*
X146294Y95272D01*
X146406Y95417D01*
X146521Y95561D01*
X146529Y95576D01*
X146540Y95590D01*
X146622Y95755D01*
X146707Y95918D01*
X146712Y95935D01*
X146720Y95951D01*
X146767Y96129D01*
X146818Y96305D01*
X146820Y96323D01*
X146824Y96340D01*
X146851Y96670D01*
X146851Y102255D01*
X148316Y103720D01*
X156484Y103720D01*
X156905Y103299D01*
X156926Y103282D01*
X156943Y103261D01*
X157081Y103154D01*
X157216Y103044D01*
X157240Y103031D01*
X157261Y103015D01*
X157418Y102937D01*
X157572Y102855D01*
X157598Y102847D01*
X157622Y102835D01*
X157791Y102790D01*
X157958Y102740D01*
X157985Y102738D01*
X158010Y102731D01*
X158341Y102704D01*
X287968Y102704D01*
X287976Y102705D01*
X287985Y102704D01*
X288177Y102725D01*
X288368Y102744D01*
X288377Y102746D01*
X288386Y102747D01*
X288568Y102805D01*
X288753Y102862D01*
X288761Y102866D01*
X288770Y102869D01*
X288938Y102962D01*
X289107Y103054D01*
X289114Y103059D01*
X289122Y103064D01*
X289269Y103188D01*
X289416Y103311D01*
X289422Y103318D01*
X289429Y103324D01*
X289548Y103475D01*
X289669Y103625D01*
X289673Y103633D01*
X289678Y103640D01*
X289766Y103813D01*
X289854Y103982D01*
X289857Y103991D01*
X289861Y103999D01*
X289913Y104185D01*
X289966Y104369D01*
X289966Y104378D01*
X289969Y104387D01*
X289983Y104580D01*
X289999Y104771D01*
X289998Y104779D01*
X289998Y104788D01*
X289974Y104981D01*
X289952Y105170D01*
X289949Y105179D01*
X289948Y105188D01*
X289886Y105371D01*
X289827Y105553D01*
X289822Y105561D01*
X289820Y105569D01*
X289724Y105736D01*
X289629Y105904D01*
X289623Y105911D01*
X289619Y105918D01*
X289404Y106171D01*
X283468Y112107D01*
X281907Y113668D01*
X281217Y115334D01*
X281217Y120743D01*
X281217Y120748D01*
X281217Y120752D01*
X281197Y120942D01*
X281177Y121144D01*
X281176Y121148D01*
X281176Y121153D01*
X281117Y121340D01*
X281059Y121529D01*
X281057Y121533D01*
X281056Y121537D01*
X280960Y121711D01*
X280867Y121883D01*
X280865Y121886D01*
X280862Y121890D01*
X280734Y122043D01*
X280610Y122192D01*
X280606Y122195D01*
X280603Y122198D01*
X280447Y122323D01*
X280296Y122444D01*
X280292Y122446D01*
X280289Y122449D01*
X280108Y122542D01*
X279939Y122630D01*
X279934Y122631D01*
X279930Y122633D01*
X279740Y122687D01*
X279552Y122741D01*
X279547Y122742D01*
X279543Y122743D01*
X279351Y122758D01*
X279150Y122774D01*
X279146Y122774D01*
X279142Y122774D01*
X278948Y122750D01*
X278751Y122727D01*
X278746Y122726D01*
X278742Y122725D01*
X278557Y122664D01*
X278368Y122602D01*
X278364Y122600D01*
X278360Y122599D01*
X278191Y122502D01*
X278017Y122404D01*
X278014Y122401D01*
X278010Y122399D01*
X277863Y122271D01*
X277713Y122141D01*
X277710Y122138D01*
X277706Y122135D01*
X277586Y121978D01*
X277466Y121823D01*
X277464Y121819D01*
X277461Y121816D01*
X277309Y121520D01*
X276787Y120260D01*
X273440Y116913D01*
X269067Y115101D01*
X264333Y115101D01*
X259906Y116935D01*
X259904Y116937D01*
X259769Y117047D01*
X259745Y117060D01*
X259724Y117076D01*
X259567Y117154D01*
X259413Y117236D01*
X259388Y117244D01*
X259364Y117256D01*
X259194Y117301D01*
X259027Y117351D01*
X259001Y117353D01*
X258975Y117360D01*
X258644Y117387D01*
X135056Y117387D01*
X135029Y117385D01*
X135003Y117387D01*
X134829Y117365D01*
X134655Y117347D01*
X134630Y117340D01*
X134603Y117336D01*
X134438Y117281D01*
X134270Y117229D01*
X134247Y117216D01*
X134222Y117208D01*
X134070Y117121D01*
X133916Y117037D01*
X133896Y117020D01*
X133873Y117007D01*
X133782Y116930D01*
X129367Y115101D01*
X124633Y115101D01*
X120206Y116935D01*
X120204Y116937D01*
X120069Y117047D01*
X120045Y117060D01*
X120024Y117076D01*
X119867Y117154D01*
X119713Y117236D01*
X119688Y117244D01*
X119664Y117256D01*
X119494Y117301D01*
X119327Y117351D01*
X119301Y117353D01*
X119275Y117360D01*
X118944Y117387D01*
X87373Y117387D01*
X87347Y117385D01*
X87320Y117387D01*
X87146Y117365D01*
X86972Y117347D01*
X86947Y117340D01*
X86920Y117336D01*
X86755Y117281D01*
X86588Y117229D01*
X86564Y117216D01*
X86539Y117208D01*
X86387Y117121D01*
X86234Y117037D01*
X86213Y117020D01*
X86190Y117007D01*
X85937Y116792D01*
X80058Y110913D01*
X80041Y110892D01*
X80020Y110875D01*
X79913Y110737D01*
X79803Y110602D01*
X79790Y110578D01*
X79774Y110557D01*
X79696Y110400D01*
X79614Y110246D01*
X79606Y110220D01*
X79594Y110196D01*
X79549Y110027D01*
X79499Y109860D01*
X79497Y109833D01*
X79490Y109808D01*
X79463Y109477D01*
X79463Y30223D01*
X79465Y30197D01*
X79463Y30170D01*
X79485Y29996D01*
X79503Y29822D01*
X79510Y29797D01*
X79514Y29770D01*
X79569Y29605D01*
X79621Y29438D01*
X79634Y29414D01*
X79642Y29389D01*
X79729Y29237D01*
X79813Y29084D01*
X79830Y29063D01*
X79843Y29040D01*
X80058Y28787D01*
X85937Y22908D01*
X85958Y22891D01*
X85975Y22870D01*
X86113Y22763D01*
X86248Y22653D01*
X86272Y22640D01*
X86293Y22624D01*
X86450Y22546D01*
X86604Y22464D01*
X86630Y22456D01*
X86654Y22444D01*
X86823Y22399D01*
X86990Y22349D01*
X87017Y22347D01*
X87042Y22340D01*
X87373Y22313D01*
X833377Y22313D01*
X833403Y22315D01*
X833430Y22313D01*
X833604Y22335D01*
X833778Y22353D01*
X833803Y22360D01*
X833830Y22364D01*
X833995Y22419D01*
X834162Y22471D01*
X834186Y22484D01*
X834211Y22492D01*
X834363Y22579D01*
X834516Y22663D01*
X834537Y22680D01*
X834560Y22693D01*
X834813Y22908D01*
X840692Y28787D01*
X840709Y28808D01*
X840730Y28825D01*
X840837Y28963D01*
X840947Y29098D01*
X840960Y29122D01*
X840976Y29143D01*
X841054Y29300D01*
X841136Y29454D01*
X841144Y29480D01*
X841156Y29504D01*
X841201Y29673D01*
X841251Y29840D01*
X841253Y29867D01*
X841260Y29892D01*
X841287Y30223D01*
X841287Y165795D01*
X841285Y165821D01*
X841287Y165848D01*
X841265Y166022D01*
X841247Y166195D01*
X841240Y166221D01*
X841236Y166248D01*
X841180Y166413D01*
X841129Y166580D01*
X841116Y166604D01*
X841108Y166629D01*
X841021Y166781D01*
X840937Y166934D01*
X840920Y166955D01*
X840907Y166978D01*
X840692Y167231D01*
X834369Y173554D01*
X834369Y194746D01*
X841454Y201831D01*
X841471Y201852D01*
X841492Y201869D01*
X841599Y202007D01*
X841709Y202142D01*
X841722Y202166D01*
X841738Y202187D01*
X841816Y202344D01*
X841898Y202498D01*
X841906Y202524D01*
X841918Y202548D01*
X841963Y202717D01*
X842013Y202884D01*
X842015Y202911D01*
X842022Y202937D01*
X842049Y203267D01*
X842049Y230443D01*
X842047Y230469D01*
X842049Y230496D01*
X842027Y230670D01*
X842009Y230843D01*
X842002Y230869D01*
X841998Y230895D01*
X841943Y231061D01*
X841891Y231228D01*
X841878Y231252D01*
X841870Y231277D01*
X841783Y231429D01*
X841699Y231582D01*
X841682Y231603D01*
X841669Y231626D01*
X841454Y231879D01*
X835129Y238204D01*
X835108Y238221D01*
X835091Y238242D01*
X834953Y238349D01*
X834817Y238459D01*
X834794Y238472D01*
X834773Y238488D01*
X834616Y238566D01*
X834462Y238648D01*
X834436Y238656D01*
X834412Y238668D01*
X834243Y238713D01*
X834076Y238763D01*
X834049Y238765D01*
X834023Y238772D01*
X833693Y238799D01*
X770801Y238799D01*
X770792Y238798D01*
X770783Y238799D01*
X770591Y238778D01*
X770401Y238759D01*
X770392Y238757D01*
X770383Y238756D01*
X770201Y238698D01*
X770016Y238641D01*
X770008Y238637D01*
X769999Y238634D01*
X769831Y238541D01*
X769662Y238449D01*
X769655Y238444D01*
X769647Y238439D01*
X769499Y238314D01*
X769352Y238192D01*
X769347Y238185D01*
X769340Y238179D01*
X769220Y238027D01*
X769100Y237878D01*
X769096Y237870D01*
X769090Y237863D01*
X769003Y237690D01*
X768914Y237521D01*
X768912Y237512D01*
X768908Y237504D01*
X768856Y237319D01*
X768803Y237134D01*
X768802Y237125D01*
X768800Y237116D01*
X768786Y236924D01*
X768770Y236732D01*
X768771Y236724D01*
X768771Y236715D01*
X768795Y236523D01*
X768817Y236333D01*
X768820Y236324D01*
X768821Y236315D01*
X768882Y236133D01*
X768942Y235950D01*
X768946Y235942D01*
X768949Y235934D01*
X769045Y235766D01*
X769140Y235599D01*
X769146Y235592D01*
X769150Y235585D01*
X769365Y235332D01*
X769681Y235016D01*
X769681Y194784D01*
X768216Y193319D01*
X727984Y193319D01*
X726519Y194784D01*
X726519Y235016D01*
X727984Y236481D01*
X730349Y236481D01*
X730357Y236482D01*
X730366Y236481D01*
X730558Y236502D01*
X730749Y236521D01*
X730758Y236523D01*
X730767Y236524D01*
X730949Y236582D01*
X731134Y236639D01*
X731142Y236643D01*
X731151Y236646D01*
X731319Y236739D01*
X731488Y236831D01*
X731495Y236836D01*
X731503Y236841D01*
X731650Y236965D01*
X731797Y237088D01*
X731803Y237095D01*
X731810Y237101D01*
X731929Y237252D01*
X732050Y237402D01*
X732054Y237410D01*
X732059Y237417D01*
X732146Y237588D01*
X732235Y237759D01*
X732238Y237768D01*
X732242Y237776D01*
X732294Y237962D01*
X732347Y238146D01*
X732347Y238155D01*
X732350Y238164D01*
X732364Y238357D01*
X732380Y238548D01*
X732379Y238556D01*
X732379Y238565D01*
X732355Y238758D01*
X732333Y238947D01*
X732330Y238956D01*
X732329Y238965D01*
X732267Y239148D01*
X732208Y239330D01*
X732203Y239338D01*
X732201Y239346D01*
X732105Y239512D01*
X732010Y239681D01*
X732004Y239688D01*
X732000Y239695D01*
X731785Y239948D01*
X729097Y242636D01*
X727749Y245889D01*
X727749Y367473D01*
X727747Y367499D01*
X727749Y367526D01*
X727727Y367700D01*
X727709Y367873D01*
X727702Y367899D01*
X727698Y367926D01*
X727643Y368091D01*
X727591Y368258D01*
X727578Y368282D01*
X727570Y368307D01*
X727483Y368459D01*
X727399Y368612D01*
X727382Y368633D01*
X727369Y368656D01*
X727154Y368909D01*
X725099Y370964D01*
X725099Y391036D01*
X726564Y392501D01*
X746636Y392501D01*
X748101Y391036D01*
X748101Y370964D01*
X746046Y368909D01*
X746029Y368888D01*
X746008Y368871D01*
X745901Y368733D01*
X745791Y368598D01*
X745778Y368574D01*
X745762Y368553D01*
X745684Y368396D01*
X745602Y368242D01*
X745594Y368216D01*
X745582Y368192D01*
X745537Y368023D01*
X745487Y367856D01*
X745485Y367829D01*
X745478Y367804D01*
X745451Y367473D01*
X745451Y258532D01*
X745453Y258514D01*
X745451Y258496D01*
X745472Y258314D01*
X745491Y258131D01*
X745496Y258114D01*
X745498Y258097D01*
X745555Y257921D01*
X745609Y257746D01*
X745617Y257731D01*
X745623Y257714D01*
X745713Y257554D01*
X745801Y257392D01*
X745812Y257379D01*
X745821Y257363D01*
X745941Y257224D01*
X746058Y257083D01*
X746072Y257072D01*
X746084Y257058D01*
X746229Y256946D01*
X746372Y256831D01*
X746388Y256823D01*
X746402Y256812D01*
X746567Y256730D01*
X746729Y256645D01*
X746746Y256640D01*
X746762Y256632D01*
X746941Y256585D01*
X747116Y256534D01*
X747134Y256532D01*
X747151Y256528D01*
X747482Y256501D01*
X839961Y256501D01*
X843214Y255153D01*
X845989Y252378D01*
X855628Y242739D01*
X858403Y239964D01*
X859751Y236711D01*
X859751Y211762D01*
X859753Y211744D01*
X859751Y211726D01*
X859772Y211544D01*
X859791Y211361D01*
X859796Y211344D01*
X859798Y211327D01*
X859855Y211152D01*
X859909Y210976D01*
X859917Y210961D01*
X859923Y210944D01*
X860013Y210784D01*
X860101Y210622D01*
X860112Y210609D01*
X860121Y210593D01*
X860241Y210454D01*
X860358Y210313D01*
X860372Y210302D01*
X860384Y210288D01*
X860529Y210176D01*
X860672Y210061D01*
X860688Y210053D01*
X860702Y210042D01*
X860867Y209960D01*
X861029Y209875D01*
X861046Y209870D01*
X861062Y209862D01*
X861241Y209815D01*
X861416Y209764D01*
X861434Y209762D01*
X861451Y209758D01*
X861782Y209731D01*
X870546Y209731D01*
X885531Y194746D01*
X885531Y173554D01*
X870546Y158569D01*
X862544Y158569D01*
X862526Y158567D01*
X862508Y158569D01*
X862326Y158548D01*
X862143Y158529D01*
X862126Y158524D01*
X862109Y158522D01*
X861934Y158465D01*
X861758Y158411D01*
X861743Y158403D01*
X861726Y158397D01*
X861566Y158307D01*
X861404Y158219D01*
X861391Y158208D01*
X861375Y158199D01*
X861236Y158079D01*
X861095Y157962D01*
X861084Y157948D01*
X861070Y157936D01*
X860958Y157791D01*
X860843Y157648D01*
X860835Y157632D01*
X860824Y157618D01*
X860742Y157453D01*
X860657Y157291D01*
X860652Y157274D01*
X860644Y157258D01*
X860597Y157079D01*
X860546Y156904D01*
X860544Y156886D01*
X860540Y156869D01*
X860513Y156538D01*
X860513Y23488D01*
X859049Y19955D01*
X856059Y16965D01*
X847135Y8040D01*
X847129Y8033D01*
X847122Y8028D01*
X847002Y7878D01*
X846880Y7729D01*
X846875Y7721D01*
X846870Y7714D01*
X846781Y7544D01*
X846691Y7373D01*
X846688Y7364D01*
X846684Y7357D01*
X846631Y7172D01*
X846576Y6987D01*
X846575Y6978D01*
X846573Y6970D01*
X846557Y6778D01*
X846540Y6586D01*
X846541Y6577D01*
X846540Y6568D01*
X846562Y6379D01*
X846583Y6186D01*
X846586Y6177D01*
X846587Y6169D01*
X846646Y5987D01*
X846705Y5802D01*
X846709Y5794D01*
X846712Y5786D01*
X846807Y5617D01*
X846900Y5450D01*
X846905Y5443D01*
X846910Y5435D01*
X847036Y5289D01*
X847160Y5143D01*
X847167Y5137D01*
X847173Y5130D01*
X847324Y5013D01*
X847476Y4893D01*
X847484Y4889D01*
X847491Y4884D01*
X847663Y4798D01*
X847835Y4711D01*
X847844Y4708D01*
X847852Y4704D01*
X848038Y4654D01*
X848223Y4603D01*
X848232Y4602D01*
X848240Y4600D01*
X848571Y4573D01*
X983996Y4573D01*
X984014Y4575D01*
X984032Y4573D01*
X984214Y4594D01*
X984397Y4613D01*
X984414Y4618D01*
X984431Y4620D01*
X984606Y4677D01*
X984782Y4731D01*
X984797Y4739D01*
X984814Y4745D01*
X984974Y4835D01*
X985136Y4923D01*
X985149Y4934D01*
X985165Y4943D01*
X985304Y5063D01*
X985445Y5180D01*
X985456Y5194D01*
X985470Y5206D01*
X985582Y5351D01*
X985697Y5494D01*
X985705Y5510D01*
X985716Y5524D01*
X985798Y5689D01*
X985883Y5851D01*
X985888Y5868D01*
X985896Y5884D01*
X985943Y6063D01*
X985994Y6238D01*
X985996Y6256D01*
X986000Y6273D01*
X986027Y6604D01*
X986027Y628396D01*
X986025Y628414D01*
X986027Y628432D01*
X986006Y628614D01*
X985987Y628797D01*
X985982Y628814D01*
X985980Y628831D01*
X985923Y629006D01*
X985869Y629182D01*
X985861Y629197D01*
X985855Y629214D01*
X985765Y629374D01*
X985677Y629536D01*
X985666Y629549D01*
X985657Y629565D01*
X985537Y629704D01*
X985420Y629845D01*
X985406Y629856D01*
X985394Y629870D01*
X985249Y629982D01*
X985106Y630097D01*
X985090Y630105D01*
X985076Y630116D01*
X984911Y630198D01*
X984749Y630283D01*
X984732Y630288D01*
X984716Y630296D01*
X984537Y630343D01*
X984362Y630394D01*
X984344Y630396D01*
X984327Y630400D01*
X983996Y630427D01*
X6604Y630427D01*
X6586Y630425D01*
X6568Y630427D01*
X6386Y630406D01*
X6203Y630387D01*
X6186Y630382D01*
X6169Y630380D01*
X5994Y630323D01*
X5818Y630269D01*
X5803Y630261D01*
X5786Y630255D01*
X5626Y630165D01*
X5464Y630077D01*
X5451Y630066D01*
X5435Y630057D01*
X5296Y629937D01*
X5155Y629820D01*
X5144Y629806D01*
X5130Y629794D01*
X5018Y629649D01*
X4903Y629506D01*
X4895Y629490D01*
X4884Y629476D01*
X4802Y629311D01*
X4717Y629149D01*
X4712Y629132D01*
X4704Y629116D01*
X4657Y628937D01*
X4606Y628762D01*
X4604Y628744D01*
X4600Y628727D01*
X4573Y628396D01*
X4573Y6604D01*
X4575Y6586D01*
X4573Y6568D01*
X4594Y6386D01*
X4613Y6203D01*
X4618Y6186D01*
X4620Y6169D01*
X4677Y5994D01*
X4731Y5818D01*
X4739Y5803D01*
X4745Y5786D01*
X4835Y5626D01*
X4923Y5464D01*
X4934Y5451D01*
X4943Y5435D01*
X5063Y5296D01*
X5180Y5155D01*
X5194Y5144D01*
X5206Y5130D01*
X5351Y5018D01*
X5494Y4903D01*
X5510Y4895D01*
X5524Y4884D01*
X5689Y4802D01*
X5851Y4717D01*
X5868Y4712D01*
X5884Y4704D01*
X6063Y4657D01*
X6238Y4606D01*
X6256Y4604D01*
X6273Y4600D01*
X6604Y4573D01*
X72179Y4573D01*
X72188Y4574D01*
G37*
%LPC*%
G36*
X673047Y130170D02*
X673047Y130170D01*
X672884Y130255D01*
X672867Y130260D01*
X672851Y130268D01*
X672673Y130315D01*
X672498Y130366D01*
X672480Y130368D01*
X672463Y130372D01*
X672132Y130399D01*
X661559Y130399D01*
X661559Y136735D01*
X661732Y137381D01*
X662067Y137960D01*
X662599Y138492D01*
X662610Y138506D01*
X662624Y138517D01*
X662737Y138661D01*
X662854Y138803D01*
X662862Y138819D01*
X662873Y138833D01*
X662956Y138996D01*
X663043Y139159D01*
X663048Y139176D01*
X663056Y139192D01*
X663105Y139369D01*
X663157Y139545D01*
X663159Y139563D01*
X663164Y139580D01*
X663177Y139763D01*
X663194Y139946D01*
X663192Y139964D01*
X663193Y139982D01*
X663170Y140164D01*
X663150Y140346D01*
X663145Y140363D01*
X663143Y140381D01*
X663084Y140555D01*
X663029Y140730D01*
X663020Y140746D01*
X663014Y140763D01*
X662923Y140922D01*
X662834Y141082D01*
X662822Y141096D01*
X662814Y141112D01*
X662599Y141365D01*
X661599Y142364D01*
X661599Y162436D01*
X662627Y163464D01*
X662638Y163478D01*
X662652Y163489D01*
X662766Y163633D01*
X662882Y163775D01*
X662891Y163791D01*
X662902Y163805D01*
X662985Y163969D01*
X663071Y164131D01*
X663076Y164148D01*
X663084Y164164D01*
X663133Y164341D01*
X663186Y164517D01*
X663187Y164535D01*
X663192Y164552D01*
X663205Y164735D01*
X663222Y164918D01*
X663220Y164936D01*
X663221Y164953D01*
X663198Y165135D01*
X663179Y165318D01*
X663173Y165335D01*
X663171Y165353D01*
X663113Y165527D01*
X663057Y165702D01*
X663048Y165718D01*
X663043Y165734D01*
X662951Y165893D01*
X662862Y166054D01*
X662851Y166068D01*
X662842Y166083D01*
X662627Y166336D01*
X661599Y167364D01*
X661599Y187436D01*
X663064Y188901D01*
X683136Y188901D01*
X684612Y187425D01*
X684618Y187364D01*
X684630Y187193D01*
X684638Y187165D01*
X684641Y187135D01*
X684691Y186971D01*
X684737Y186805D01*
X684750Y186778D01*
X684759Y186750D01*
X684840Y186599D01*
X684918Y186446D01*
X684936Y186422D01*
X684951Y186396D01*
X685060Y186264D01*
X685166Y186129D01*
X685189Y186110D01*
X685208Y186087D01*
X685342Y185979D01*
X685473Y185868D01*
X685499Y185853D01*
X685522Y185834D01*
X685674Y185755D01*
X685824Y185672D01*
X685853Y185663D01*
X685879Y185649D01*
X686044Y185601D01*
X686208Y185549D01*
X686237Y185546D01*
X686266Y185537D01*
X686438Y185523D01*
X686608Y185504D01*
X686638Y185507D01*
X686668Y185505D01*
X686838Y185525D01*
X687009Y185540D01*
X687038Y185548D01*
X687067Y185551D01*
X687231Y185605D01*
X687395Y185653D01*
X687422Y185667D01*
X687450Y185676D01*
X687600Y185761D01*
X687752Y185841D01*
X687778Y185861D01*
X687801Y185874D01*
X687865Y185930D01*
X688013Y186046D01*
X690396Y188254D01*
X690439Y188303D01*
X690489Y188346D01*
X690572Y188453D01*
X690662Y188555D01*
X690695Y188612D01*
X690735Y188664D01*
X690796Y188786D01*
X690864Y188904D01*
X690885Y188965D01*
X690915Y189024D01*
X690950Y189156D01*
X690994Y189285D01*
X691002Y189350D01*
X691019Y189413D01*
X691034Y189600D01*
X691045Y189684D01*
X691044Y189710D01*
X691046Y189744D01*
X691046Y363705D01*
X691044Y363729D01*
X691046Y363754D01*
X691024Y363930D01*
X691006Y364106D01*
X690999Y364129D01*
X690996Y364153D01*
X690940Y364321D01*
X690888Y364491D01*
X690877Y364512D01*
X690869Y364535D01*
X690781Y364689D01*
X690696Y364845D01*
X690681Y364863D01*
X690669Y364885D01*
X690455Y365138D01*
X684327Y371297D01*
X684308Y371312D01*
X684293Y371331D01*
X684153Y371440D01*
X684016Y371553D01*
X683995Y371564D01*
X683976Y371579D01*
X683818Y371659D01*
X683661Y371742D01*
X683638Y371749D01*
X683616Y371760D01*
X683445Y371807D01*
X683275Y371858D01*
X683251Y371860D01*
X683228Y371867D01*
X682897Y371895D01*
X364133Y373496D01*
X364131Y373496D01*
X364128Y373496D01*
X363234Y373499D01*
X362407Y373846D01*
X362405Y373846D01*
X362403Y373848D01*
X361570Y374195D01*
X360943Y374829D01*
X360941Y374830D01*
X360939Y374833D01*
X350994Y384828D01*
X350992Y384830D01*
X350990Y384832D01*
X350356Y385465D01*
X350015Y386295D01*
X350014Y386297D01*
X350013Y386300D01*
X349668Y387133D01*
X349670Y388028D01*
X349670Y388030D01*
X349670Y388033D01*
X349670Y432209D01*
X349668Y432235D01*
X349670Y432262D01*
X349648Y432436D01*
X349630Y432609D01*
X349623Y432635D01*
X349619Y432662D01*
X349564Y432827D01*
X349512Y432994D01*
X349499Y433018D01*
X349491Y433043D01*
X349404Y433195D01*
X349320Y433348D01*
X349303Y433369D01*
X349290Y433392D01*
X349075Y433645D01*
X348654Y434066D01*
X348654Y442234D01*
X350119Y443699D01*
X358287Y443699D01*
X359752Y442234D01*
X359752Y438110D01*
X359754Y438092D01*
X359752Y438074D01*
X359773Y437892D01*
X359792Y437709D01*
X359797Y437692D01*
X359799Y437675D01*
X359856Y437500D01*
X359910Y437324D01*
X359918Y437309D01*
X359924Y437292D01*
X360014Y437132D01*
X360102Y436970D01*
X360113Y436957D01*
X360122Y436941D01*
X360242Y436802D01*
X360359Y436661D01*
X360373Y436650D01*
X360385Y436636D01*
X360530Y436524D01*
X360673Y436409D01*
X360689Y436401D01*
X360703Y436390D01*
X360868Y436308D01*
X361030Y436223D01*
X361047Y436218D01*
X361063Y436210D01*
X361242Y436163D01*
X361417Y436112D01*
X361435Y436110D01*
X361452Y436106D01*
X361783Y436079D01*
X370479Y436079D01*
X371944Y434614D01*
X371944Y430676D01*
X371945Y430667D01*
X371944Y430658D01*
X371964Y430468D01*
X371984Y430276D01*
X371986Y430267D01*
X371987Y430258D01*
X372045Y430075D01*
X372102Y429891D01*
X372106Y429883D01*
X372109Y429874D01*
X372202Y429706D01*
X372294Y429537D01*
X372299Y429530D01*
X372304Y429522D01*
X372429Y429374D01*
X372551Y429227D01*
X372558Y429222D01*
X372564Y429215D01*
X372716Y429095D01*
X372865Y428975D01*
X372873Y428971D01*
X372880Y428965D01*
X373053Y428878D01*
X373222Y428789D01*
X373231Y428787D01*
X373239Y428783D01*
X373424Y428731D01*
X373609Y428678D01*
X373618Y428677D01*
X373627Y428675D01*
X373819Y428661D01*
X374011Y428645D01*
X374019Y428646D01*
X374028Y428646D01*
X374220Y428670D01*
X374410Y428692D01*
X374419Y428695D01*
X374428Y428696D01*
X374610Y428757D01*
X374793Y428817D01*
X374801Y428821D01*
X374809Y428824D01*
X374977Y428920D01*
X375144Y429015D01*
X375151Y429021D01*
X375158Y429025D01*
X375411Y429240D01*
X376126Y429955D01*
X376143Y429976D01*
X376164Y429993D01*
X376270Y430131D01*
X376381Y430266D01*
X376394Y430290D01*
X376410Y430311D01*
X376488Y430468D01*
X376570Y430622D01*
X376578Y430648D01*
X376590Y430672D01*
X376635Y430841D01*
X376685Y431008D01*
X376687Y431035D01*
X376694Y431060D01*
X376721Y431391D01*
X376721Y468502D01*
X377411Y470168D01*
X388686Y481443D01*
X390352Y482133D01*
X882362Y482133D01*
X882389Y482135D01*
X882416Y482133D01*
X882590Y482155D01*
X882763Y482173D01*
X882789Y482180D01*
X882815Y482184D01*
X882981Y482239D01*
X883148Y482291D01*
X883172Y482304D01*
X883197Y482312D01*
X883349Y482399D01*
X883502Y482483D01*
X883522Y482500D01*
X883546Y482513D01*
X883799Y482728D01*
X886302Y485230D01*
X887974Y485923D01*
X887982Y485928D01*
X887991Y485930D01*
X888159Y486022D01*
X888329Y486114D01*
X888336Y486119D01*
X888344Y486124D01*
X888490Y486246D01*
X888640Y486370D01*
X888645Y486377D01*
X888652Y486383D01*
X888771Y486532D01*
X888893Y486683D01*
X888898Y486691D01*
X888903Y486698D01*
X888990Y486866D01*
X889080Y487039D01*
X889083Y487048D01*
X889087Y487056D01*
X889139Y487239D01*
X889193Y487426D01*
X889194Y487435D01*
X889197Y487443D01*
X889212Y487634D01*
X889228Y487827D01*
X889227Y487836D01*
X889228Y487844D01*
X889205Y488035D01*
X889183Y488227D01*
X889180Y488235D01*
X889179Y488244D01*
X889119Y488425D01*
X889060Y488610D01*
X889055Y488618D01*
X889053Y488626D01*
X888958Y488793D01*
X888863Y488962D01*
X888858Y488968D01*
X888853Y488976D01*
X888726Y489122D01*
X888602Y489267D01*
X888595Y489273D01*
X888589Y489280D01*
X888437Y489396D01*
X888285Y489516D01*
X888277Y489520D01*
X888270Y489525D01*
X887974Y489677D01*
X886302Y490370D01*
X883770Y492902D01*
X882399Y496210D01*
X882399Y499790D01*
X883770Y503098D01*
X886302Y505630D01*
X889610Y507001D01*
X893190Y507001D01*
X896498Y505630D01*
X899030Y503098D01*
X900401Y499790D01*
X900401Y496210D01*
X899030Y492902D01*
X896498Y490370D01*
X895325Y489883D01*
X894826Y489677D01*
X894818Y489672D01*
X894809Y489670D01*
X894640Y489577D01*
X894471Y489486D01*
X894464Y489481D01*
X894456Y489477D01*
X894308Y489352D01*
X894160Y489230D01*
X894155Y489223D01*
X894148Y489217D01*
X894027Y489066D01*
X893907Y488917D01*
X893903Y488910D01*
X893897Y488903D01*
X893808Y488730D01*
X893720Y488561D01*
X893717Y488552D01*
X893713Y488544D01*
X893661Y488359D01*
X893607Y488174D01*
X893606Y488166D01*
X893603Y488157D01*
X893588Y487966D01*
X893572Y487773D01*
X893573Y487764D01*
X893572Y487756D01*
X893596Y487563D01*
X893617Y487373D01*
X893620Y487365D01*
X893621Y487356D01*
X893682Y487171D01*
X893740Y486990D01*
X893745Y486982D01*
X893747Y486974D01*
X893843Y486806D01*
X893937Y486638D01*
X893942Y486632D01*
X893947Y486624D01*
X894073Y486480D01*
X894198Y486333D01*
X894206Y486327D01*
X894211Y486320D01*
X894362Y486204D01*
X894515Y486084D01*
X894523Y486080D01*
X894530Y486075D01*
X894826Y485923D01*
X896498Y485230D01*
X899030Y482698D01*
X900401Y479390D01*
X900401Y475810D01*
X899030Y472502D01*
X896498Y469970D01*
X894826Y469277D01*
X894818Y469272D01*
X894809Y469270D01*
X894641Y469178D01*
X894471Y469086D01*
X894464Y469081D01*
X894456Y469076D01*
X894310Y468954D01*
X894160Y468830D01*
X894155Y468823D01*
X894148Y468817D01*
X894029Y468668D01*
X893907Y468517D01*
X893902Y468509D01*
X893897Y468502D01*
X893810Y468334D01*
X893720Y468161D01*
X893717Y468152D01*
X893713Y468144D01*
X893661Y467961D01*
X893607Y467774D01*
X893606Y467765D01*
X893603Y467757D01*
X893588Y467566D01*
X893572Y467373D01*
X893573Y467364D01*
X893572Y467356D01*
X893595Y467165D01*
X893617Y466973D01*
X893620Y466965D01*
X893621Y466956D01*
X893681Y466775D01*
X893740Y466590D01*
X893745Y466582D01*
X893747Y466574D01*
X893842Y466407D01*
X893937Y466238D01*
X893942Y466232D01*
X893947Y466224D01*
X894074Y466078D01*
X894198Y465933D01*
X894205Y465927D01*
X894211Y465920D01*
X894363Y465804D01*
X894515Y465684D01*
X894523Y465680D01*
X894530Y465675D01*
X894826Y465523D01*
X896498Y464830D01*
X899030Y462298D01*
X900401Y458990D01*
X900401Y455410D01*
X899030Y452102D01*
X896498Y449570D01*
X893190Y448199D01*
X889610Y448199D01*
X886302Y449570D01*
X883770Y452102D01*
X882399Y455410D01*
X882399Y458990D01*
X883770Y462298D01*
X886302Y464830D01*
X887974Y465523D01*
X887982Y465528D01*
X887991Y465530D01*
X888160Y465623D01*
X888329Y465714D01*
X888336Y465719D01*
X888344Y465723D01*
X888492Y465848D01*
X888640Y465970D01*
X888645Y465977D01*
X888652Y465983D01*
X888773Y466134D01*
X888893Y466283D01*
X888897Y466290D01*
X888903Y466297D01*
X888992Y466470D01*
X889080Y466639D01*
X889083Y466648D01*
X889087Y466656D01*
X889139Y466841D01*
X889193Y467026D01*
X889194Y467034D01*
X889197Y467043D01*
X889212Y467234D01*
X889228Y467427D01*
X889227Y467436D01*
X889228Y467444D01*
X889204Y467637D01*
X889183Y467827D01*
X889180Y467835D01*
X889179Y467844D01*
X889118Y468029D01*
X889060Y468210D01*
X889055Y468218D01*
X889053Y468226D01*
X888957Y468394D01*
X888863Y468562D01*
X888858Y468568D01*
X888853Y468576D01*
X888727Y468720D01*
X888602Y468867D01*
X888594Y468873D01*
X888589Y468880D01*
X888438Y468996D01*
X888285Y469116D01*
X888277Y469120D01*
X888270Y469125D01*
X887974Y469277D01*
X886302Y469970D01*
X883799Y472472D01*
X883778Y472489D01*
X883761Y472510D01*
X883623Y472617D01*
X883487Y472727D01*
X883464Y472740D01*
X883442Y472756D01*
X883286Y472834D01*
X883132Y472916D01*
X883106Y472924D01*
X883082Y472936D01*
X882913Y472981D01*
X882746Y473031D01*
X882719Y473033D01*
X882693Y473040D01*
X882362Y473067D01*
X876514Y473067D01*
X876496Y473065D01*
X876478Y473067D01*
X876296Y473046D01*
X876113Y473027D01*
X876096Y473022D01*
X876079Y473020D01*
X875904Y472963D01*
X875728Y472909D01*
X875713Y472901D01*
X875696Y472895D01*
X875536Y472805D01*
X875374Y472717D01*
X875361Y472706D01*
X875345Y472697D01*
X875206Y472577D01*
X875065Y472460D01*
X875054Y472446D01*
X875040Y472434D01*
X874928Y472289D01*
X874813Y472146D01*
X874805Y472130D01*
X874794Y472116D01*
X874712Y471951D01*
X874627Y471789D01*
X874622Y471772D01*
X874614Y471756D01*
X874567Y471577D01*
X874516Y471402D01*
X874514Y471384D01*
X874510Y471367D01*
X874483Y471036D01*
X874483Y450869D01*
X874485Y450842D01*
X874483Y450816D01*
X874505Y450642D01*
X874523Y450468D01*
X874530Y450443D01*
X874534Y450416D01*
X874589Y450250D01*
X874641Y450083D01*
X874654Y450060D01*
X874662Y450034D01*
X874749Y449883D01*
X874833Y449729D01*
X874850Y449709D01*
X874863Y449686D01*
X875078Y449433D01*
X881233Y443278D01*
X881253Y443261D01*
X881271Y443240D01*
X881409Y443133D01*
X881544Y443023D01*
X881568Y443010D01*
X881589Y442994D01*
X881746Y442916D01*
X881900Y442834D01*
X881925Y442826D01*
X881949Y442814D01*
X882119Y442769D01*
X882286Y442719D01*
X882312Y442717D01*
X882338Y442710D01*
X882669Y442683D01*
X904081Y442683D01*
X904108Y442685D01*
X904134Y442683D01*
X904308Y442705D01*
X904482Y442723D01*
X904507Y442730D01*
X904534Y442734D01*
X904700Y442789D01*
X904867Y442841D01*
X904890Y442854D01*
X904916Y442862D01*
X905067Y442949D01*
X905221Y443033D01*
X905241Y443050D01*
X905264Y443063D01*
X905517Y443278D01*
X911672Y449433D01*
X911689Y449453D01*
X911710Y449471D01*
X911817Y449609D01*
X911927Y449744D01*
X911940Y449768D01*
X911956Y449789D01*
X912034Y449946D01*
X912116Y450100D01*
X912124Y450125D01*
X912136Y450149D01*
X912181Y450319D01*
X912231Y450486D01*
X912233Y450512D01*
X912240Y450538D01*
X912267Y450869D01*
X912267Y458162D01*
X912265Y458189D01*
X912267Y458216D01*
X912245Y458390D01*
X912227Y458563D01*
X912220Y458589D01*
X912216Y458615D01*
X912161Y458781D01*
X912109Y458948D01*
X912096Y458972D01*
X912088Y458997D01*
X912001Y459149D01*
X911917Y459302D01*
X911900Y459322D01*
X911887Y459346D01*
X911672Y459599D01*
X909170Y462102D01*
X907799Y465410D01*
X907799Y468990D01*
X909170Y472298D01*
X911702Y474830D01*
X913283Y475485D01*
X913398Y475547D01*
X913517Y475601D01*
X913575Y475642D01*
X913637Y475676D01*
X913738Y475759D01*
X913845Y475835D01*
X913893Y475887D01*
X913948Y475932D01*
X914030Y476034D01*
X914119Y476129D01*
X914157Y476189D01*
X914201Y476245D01*
X914262Y476360D01*
X914331Y476472D01*
X914356Y476538D01*
X914389Y476601D01*
X914425Y476726D01*
X914471Y476849D01*
X914482Y476919D01*
X914502Y476987D01*
X914513Y477118D01*
X914533Y477247D01*
X914530Y477318D01*
X914536Y477389D01*
X914522Y477518D01*
X914516Y477649D01*
X914499Y477718D01*
X914491Y477789D01*
X914451Y477913D01*
X914420Y478040D01*
X914390Y478104D01*
X914368Y478172D01*
X914304Y478286D01*
X914249Y478404D01*
X914206Y478462D01*
X914172Y478523D01*
X914087Y478623D01*
X914009Y478728D01*
X913956Y478775D01*
X913910Y478829D01*
X913807Y478910D01*
X913710Y478998D01*
X913640Y479041D01*
X913593Y479078D01*
X913525Y479112D01*
X913427Y479172D01*
X912062Y479868D01*
X910910Y480704D01*
X909904Y481710D01*
X909068Y482862D01*
X908422Y484130D01*
X907982Y485483D01*
X907968Y485569D01*
X916800Y485569D01*
X925632Y485569D01*
X925618Y485483D01*
X925178Y484130D01*
X924532Y482862D01*
X923696Y481710D01*
X922690Y480704D01*
X921538Y479868D01*
X920173Y479172D01*
X920062Y479101D01*
X919948Y479038D01*
X919894Y478993D01*
X919834Y478954D01*
X919740Y478863D01*
X919640Y478779D01*
X919595Y478724D01*
X919544Y478674D01*
X919470Y478567D01*
X919389Y478464D01*
X919356Y478401D01*
X919316Y478343D01*
X919265Y478223D01*
X919205Y478106D01*
X919186Y478038D01*
X919158Y477973D01*
X919131Y477845D01*
X919095Y477719D01*
X919090Y477648D01*
X919075Y477579D01*
X919074Y477448D01*
X919064Y477318D01*
X919073Y477247D01*
X919072Y477176D01*
X919097Y477048D01*
X919113Y476918D01*
X919135Y476850D01*
X919148Y476781D01*
X919198Y476660D01*
X919239Y476536D01*
X919274Y476474D01*
X919301Y476408D01*
X919374Y476299D01*
X919439Y476186D01*
X919485Y476132D01*
X919525Y476073D01*
X919617Y475981D01*
X919703Y475882D01*
X919760Y475839D01*
X919810Y475789D01*
X919919Y475717D01*
X920022Y475637D01*
X920095Y475599D01*
X920145Y475566D01*
X920216Y475538D01*
X920317Y475485D01*
X921898Y474830D01*
X924430Y472298D01*
X925801Y468990D01*
X925801Y465410D01*
X924430Y462102D01*
X921928Y459599D01*
X921911Y459578D01*
X921890Y459561D01*
X921783Y459423D01*
X921673Y459287D01*
X921660Y459264D01*
X921644Y459242D01*
X921566Y459086D01*
X921484Y458932D01*
X921476Y458906D01*
X921464Y458882D01*
X921419Y458713D01*
X921369Y458546D01*
X921367Y458519D01*
X921360Y458493D01*
X921333Y458162D01*
X921333Y447248D01*
X920643Y445582D01*
X909368Y434307D01*
X907702Y433617D01*
X879048Y433617D01*
X877382Y434307D01*
X866107Y445582D01*
X865417Y447248D01*
X865417Y463336D01*
X865415Y463354D01*
X865417Y463372D01*
X865396Y463554D01*
X865377Y463737D01*
X865372Y463754D01*
X865370Y463771D01*
X865313Y463946D01*
X865259Y464122D01*
X865251Y464137D01*
X865245Y464154D01*
X865155Y464314D01*
X865067Y464476D01*
X865056Y464489D01*
X865047Y464505D01*
X864927Y464644D01*
X864810Y464785D01*
X864796Y464796D01*
X864784Y464810D01*
X864639Y464922D01*
X864496Y465037D01*
X864480Y465045D01*
X864466Y465056D01*
X864301Y465138D01*
X864139Y465223D01*
X864122Y465228D01*
X864106Y465236D01*
X863927Y465283D01*
X863752Y465334D01*
X863734Y465336D01*
X863717Y465340D01*
X863386Y465367D01*
X403625Y465367D01*
X403598Y465365D01*
X403572Y465367D01*
X403398Y465345D01*
X403224Y465327D01*
X403199Y465320D01*
X403172Y465316D01*
X403006Y465261D01*
X402839Y465209D01*
X402816Y465196D01*
X402790Y465188D01*
X402639Y465101D01*
X402485Y465017D01*
X402465Y465000D01*
X402442Y464987D01*
X402189Y464772D01*
X396034Y458617D01*
X396017Y458597D01*
X395996Y458579D01*
X395889Y458441D01*
X395779Y458306D01*
X395766Y458282D01*
X395750Y458261D01*
X395672Y458104D01*
X395590Y457950D01*
X395582Y457925D01*
X395570Y457901D01*
X395525Y457731D01*
X395475Y457564D01*
X395473Y457538D01*
X395466Y457512D01*
X395439Y457181D01*
X395439Y420342D01*
X395441Y420316D01*
X395439Y420289D01*
X395461Y420115D01*
X395479Y419942D01*
X395486Y419916D01*
X395490Y419889D01*
X395545Y419724D01*
X395597Y419557D01*
X395610Y419533D01*
X395618Y419508D01*
X395705Y419356D01*
X395789Y419203D01*
X395806Y419182D01*
X395819Y419159D01*
X396034Y418906D01*
X396455Y418485D01*
X396455Y410317D01*
X394990Y408852D01*
X386822Y408852D01*
X385357Y410317D01*
X385357Y417870D01*
X385355Y417888D01*
X385357Y417906D01*
X385336Y418088D01*
X385317Y418271D01*
X385312Y418288D01*
X385310Y418305D01*
X385253Y418480D01*
X385199Y418656D01*
X385191Y418671D01*
X385185Y418688D01*
X385095Y418848D01*
X385007Y419010D01*
X384996Y419023D01*
X384987Y419039D01*
X384867Y419178D01*
X384750Y419319D01*
X384736Y419330D01*
X384724Y419344D01*
X384579Y419456D01*
X384436Y419571D01*
X384420Y419579D01*
X384406Y419590D01*
X384241Y419672D01*
X384079Y419757D01*
X384062Y419762D01*
X384046Y419770D01*
X383867Y419817D01*
X383692Y419868D01*
X383674Y419870D01*
X383657Y419874D01*
X383326Y419901D01*
X377170Y419901D01*
X375705Y421366D01*
X375705Y425304D01*
X375704Y425313D01*
X375705Y425322D01*
X375684Y425513D01*
X375665Y425704D01*
X375663Y425713D01*
X375662Y425722D01*
X375604Y425904D01*
X375547Y426089D01*
X375543Y426097D01*
X375540Y426106D01*
X375447Y426274D01*
X375355Y426443D01*
X375350Y426450D01*
X375345Y426458D01*
X375220Y426606D01*
X375098Y426753D01*
X375091Y426758D01*
X375085Y426765D01*
X374933Y426885D01*
X374784Y427005D01*
X374776Y427009D01*
X374769Y427015D01*
X374597Y427102D01*
X374427Y427191D01*
X374418Y427193D01*
X374410Y427197D01*
X374224Y427249D01*
X374040Y427302D01*
X374031Y427303D01*
X374022Y427305D01*
X373830Y427319D01*
X373638Y427335D01*
X373630Y427334D01*
X373621Y427334D01*
X373428Y427310D01*
X373239Y427288D01*
X373230Y427285D01*
X373221Y427284D01*
X373038Y427223D01*
X372856Y427163D01*
X372848Y427159D01*
X372840Y427156D01*
X372674Y427060D01*
X372505Y426965D01*
X372498Y426959D01*
X372491Y426955D01*
X372238Y426740D01*
X370380Y424882D01*
X370363Y424861D01*
X370342Y424844D01*
X370236Y424706D01*
X370125Y424571D01*
X370112Y424547D01*
X370096Y424526D01*
X370018Y424370D01*
X369936Y424215D01*
X369928Y424189D01*
X369916Y424165D01*
X369871Y423996D01*
X369821Y423829D01*
X369819Y423802D01*
X369812Y423777D01*
X369785Y423446D01*
X369785Y398672D01*
X369787Y398645D01*
X369785Y398619D01*
X369807Y398445D01*
X369825Y398271D01*
X369832Y398246D01*
X369836Y398219D01*
X369891Y398053D01*
X369943Y397886D01*
X369956Y397863D01*
X369964Y397837D01*
X370051Y397686D01*
X370135Y397532D01*
X370152Y397512D01*
X370165Y397489D01*
X370380Y397236D01*
X376535Y391081D01*
X376544Y391073D01*
X376548Y391068D01*
X376558Y391060D01*
X376573Y391043D01*
X376711Y390936D01*
X376846Y390826D01*
X376870Y390813D01*
X376891Y390797D01*
X377048Y390719D01*
X377202Y390637D01*
X377227Y390629D01*
X377251Y390617D01*
X377421Y390572D01*
X377588Y390522D01*
X377614Y390520D01*
X377640Y390513D01*
X377971Y390486D01*
X396026Y390486D01*
X396044Y390488D01*
X396062Y390486D01*
X396244Y390507D01*
X396427Y390526D01*
X396444Y390531D01*
X396461Y390533D01*
X396636Y390590D01*
X396812Y390644D01*
X396827Y390652D01*
X396844Y390658D01*
X397004Y390748D01*
X397166Y390836D01*
X397179Y390847D01*
X397195Y390856D01*
X397334Y390976D01*
X397475Y391093D01*
X397486Y391107D01*
X397500Y391119D01*
X397612Y391264D01*
X397727Y391407D01*
X397735Y391423D01*
X397746Y391437D01*
X397828Y391602D01*
X397913Y391764D01*
X397918Y391781D01*
X397926Y391797D01*
X397973Y391976D01*
X398024Y392151D01*
X398026Y392169D01*
X398030Y392186D01*
X398057Y392517D01*
X398057Y393474D01*
X398055Y393500D01*
X398057Y393527D01*
X398035Y393701D01*
X398017Y393874D01*
X398010Y393900D01*
X398006Y393927D01*
X397951Y394092D01*
X397899Y394259D01*
X397886Y394283D01*
X397878Y394308D01*
X397791Y394460D01*
X397707Y394613D01*
X397690Y394634D01*
X397677Y394657D01*
X397462Y394910D01*
X397041Y395331D01*
X397041Y403499D01*
X398506Y404964D01*
X406674Y404964D01*
X408139Y403499D01*
X408139Y400264D01*
X408141Y400246D01*
X408139Y400228D01*
X408160Y400046D01*
X408179Y399863D01*
X408184Y399846D01*
X408186Y399829D01*
X408243Y399654D01*
X408297Y399478D01*
X408305Y399463D01*
X408311Y399446D01*
X408401Y399286D01*
X408489Y399124D01*
X408500Y399111D01*
X408509Y399095D01*
X408629Y398956D01*
X408746Y398815D01*
X408760Y398804D01*
X408772Y398790D01*
X408917Y398678D01*
X409060Y398563D01*
X409076Y398555D01*
X409090Y398544D01*
X409255Y398462D01*
X409417Y398377D01*
X409434Y398372D01*
X409450Y398364D01*
X409629Y398317D01*
X409804Y398266D01*
X409822Y398264D01*
X409839Y398260D01*
X410170Y398233D01*
X705023Y398233D01*
X706689Y397543D01*
X717964Y386268D01*
X718654Y384602D01*
X718654Y190519D01*
X718656Y190492D01*
X718654Y190466D01*
X718676Y190292D01*
X718694Y190118D01*
X718701Y190093D01*
X718705Y190066D01*
X718760Y189900D01*
X718812Y189733D01*
X718825Y189710D01*
X718833Y189684D01*
X718920Y189533D01*
X719004Y189379D01*
X719021Y189359D01*
X719034Y189336D01*
X719249Y189083D01*
X725404Y182928D01*
X725424Y182911D01*
X725442Y182890D01*
X725580Y182783D01*
X725715Y182673D01*
X725739Y182660D01*
X725760Y182644D01*
X725917Y182566D01*
X726071Y182484D01*
X726096Y182476D01*
X726120Y182464D01*
X726290Y182419D01*
X726457Y182369D01*
X726483Y182367D01*
X726509Y182360D01*
X726840Y182333D01*
X804568Y182333D01*
X804586Y182335D01*
X804604Y182333D01*
X804786Y182354D01*
X804969Y182373D01*
X804986Y182378D01*
X805003Y182380D01*
X805178Y182437D01*
X805354Y182491D01*
X805369Y182499D01*
X805386Y182505D01*
X805546Y182595D01*
X805708Y182683D01*
X805721Y182694D01*
X805737Y182703D01*
X805876Y182823D01*
X806017Y182940D01*
X806028Y182954D01*
X806042Y182966D01*
X806154Y183111D01*
X806269Y183254D01*
X806277Y183270D01*
X806288Y183284D01*
X806370Y183449D01*
X806455Y183611D01*
X806460Y183628D01*
X806468Y183644D01*
X806515Y183823D01*
X806566Y183998D01*
X806568Y184016D01*
X806572Y184033D01*
X806599Y184364D01*
X806599Y187436D01*
X808064Y188901D01*
X828136Y188901D01*
X829601Y187436D01*
X829601Y167364D01*
X828136Y165899D01*
X808064Y165899D01*
X806599Y167364D01*
X806599Y171236D01*
X806597Y171254D01*
X806599Y171272D01*
X806578Y171454D01*
X806559Y171637D01*
X806554Y171654D01*
X806552Y171671D01*
X806495Y171846D01*
X806441Y172022D01*
X806433Y172037D01*
X806427Y172054D01*
X806337Y172214D01*
X806249Y172376D01*
X806238Y172389D01*
X806229Y172405D01*
X806109Y172544D01*
X805992Y172685D01*
X805978Y172696D01*
X805966Y172710D01*
X805821Y172822D01*
X805678Y172937D01*
X805662Y172945D01*
X805648Y172956D01*
X805483Y173038D01*
X805321Y173123D01*
X805304Y173128D01*
X805288Y173136D01*
X805109Y173183D01*
X804934Y173234D01*
X804916Y173236D01*
X804899Y173240D01*
X804568Y173267D01*
X723219Y173267D01*
X721553Y173957D01*
X719993Y175518D01*
X712850Y182660D01*
X712843Y182666D01*
X712838Y182673D01*
X712688Y182793D01*
X712539Y182916D01*
X712531Y182920D01*
X712524Y182925D01*
X712354Y183014D01*
X712183Y183104D01*
X712174Y183107D01*
X712167Y183111D01*
X711982Y183164D01*
X711797Y183219D01*
X711788Y183220D01*
X711780Y183222D01*
X711588Y183238D01*
X711396Y183255D01*
X711387Y183254D01*
X711378Y183255D01*
X711189Y183233D01*
X710996Y183212D01*
X710987Y183209D01*
X710979Y183208D01*
X710797Y183149D01*
X710612Y183090D01*
X710604Y183086D01*
X710596Y183083D01*
X710427Y182988D01*
X710260Y182896D01*
X710253Y182890D01*
X710245Y182885D01*
X710099Y182759D01*
X709953Y182635D01*
X709947Y182628D01*
X709940Y182622D01*
X709823Y182471D01*
X709703Y182319D01*
X709699Y182311D01*
X709694Y182304D01*
X709608Y182132D01*
X709521Y181960D01*
X709518Y181952D01*
X709514Y181944D01*
X709464Y181757D01*
X709413Y181572D01*
X709412Y181564D01*
X709410Y181555D01*
X709383Y181224D01*
X709383Y161498D01*
X708693Y159832D01*
X697418Y148557D01*
X695752Y147867D01*
X686632Y147867D01*
X686614Y147865D01*
X686596Y147867D01*
X686414Y147846D01*
X686231Y147827D01*
X686214Y147822D01*
X686197Y147820D01*
X686022Y147763D01*
X685846Y147709D01*
X685831Y147701D01*
X685814Y147695D01*
X685654Y147605D01*
X685492Y147517D01*
X685479Y147506D01*
X685463Y147497D01*
X685324Y147377D01*
X685183Y147260D01*
X685172Y147246D01*
X685158Y147234D01*
X685046Y147089D01*
X684931Y146946D01*
X684923Y146930D01*
X684912Y146916D01*
X684830Y146751D01*
X684745Y146589D01*
X684740Y146572D01*
X684732Y146556D01*
X684685Y146377D01*
X684634Y146202D01*
X684632Y146184D01*
X684628Y146167D01*
X684601Y145836D01*
X684601Y142364D01*
X683601Y141365D01*
X683590Y141351D01*
X683576Y141339D01*
X683462Y141194D01*
X683346Y141053D01*
X683338Y141037D01*
X683327Y141023D01*
X683243Y140859D01*
X683157Y140697D01*
X683152Y140680D01*
X683144Y140664D01*
X683095Y140488D01*
X683043Y140312D01*
X683041Y140294D01*
X683036Y140276D01*
X683023Y140094D01*
X683006Y139911D01*
X683008Y139893D01*
X683007Y139875D01*
X683030Y139693D01*
X683050Y139510D01*
X683055Y139493D01*
X683057Y139475D01*
X683116Y139302D01*
X683171Y139126D01*
X683180Y139111D01*
X683186Y139094D01*
X683277Y138935D01*
X683366Y138774D01*
X683378Y138760D01*
X683386Y138745D01*
X683601Y138492D01*
X684133Y137960D01*
X684468Y137381D01*
X684641Y136735D01*
X684641Y130399D01*
X674068Y130399D01*
X674050Y130397D01*
X674033Y130399D01*
X673850Y130378D01*
X673668Y130359D01*
X673651Y130354D01*
X673633Y130352D01*
X673458Y130295D01*
X673283Y130241D01*
X673267Y130233D01*
X673250Y130227D01*
X673101Y130143D01*
X673047Y130170D01*
G37*
%LPD*%
%LPC*%
G36*
X239438Y34583D02*
X239438Y34583D01*
X235999Y36008D01*
X233366Y38641D01*
X231941Y42080D01*
X231941Y59520D01*
X233366Y62959D01*
X235999Y65592D01*
X239438Y67017D01*
X243162Y67017D01*
X246601Y65592D01*
X249234Y62959D01*
X250659Y59520D01*
X250659Y57364D01*
X250660Y57356D01*
X250659Y57350D01*
X250660Y57341D01*
X250659Y57328D01*
X250680Y57146D01*
X250699Y56963D01*
X250704Y56946D01*
X250706Y56929D01*
X250763Y56754D01*
X250817Y56578D01*
X250825Y56563D01*
X250831Y56546D01*
X250921Y56386D01*
X251009Y56224D01*
X251020Y56211D01*
X251029Y56195D01*
X251149Y56056D01*
X251266Y55915D01*
X251280Y55904D01*
X251292Y55890D01*
X251437Y55778D01*
X251580Y55663D01*
X251596Y55655D01*
X251610Y55644D01*
X251775Y55562D01*
X251937Y55477D01*
X251954Y55472D01*
X251970Y55464D01*
X252149Y55417D01*
X252324Y55366D01*
X252342Y55364D01*
X252359Y55360D01*
X252690Y55333D01*
X450831Y55333D01*
X450858Y55335D01*
X450884Y55333D01*
X451058Y55355D01*
X451232Y55373D01*
X451257Y55380D01*
X451284Y55384D01*
X451450Y55439D01*
X451617Y55491D01*
X451640Y55504D01*
X451666Y55512D01*
X451817Y55599D01*
X451971Y55683D01*
X451991Y55700D01*
X452014Y55713D01*
X452267Y55928D01*
X458422Y62083D01*
X458439Y62103D01*
X458460Y62121D01*
X458567Y62259D01*
X458677Y62394D01*
X458690Y62418D01*
X458706Y62439D01*
X458784Y62596D01*
X458866Y62750D01*
X458874Y62775D01*
X458886Y62799D01*
X458931Y62969D01*
X458981Y63136D01*
X458983Y63162D01*
X458990Y63188D01*
X459017Y63519D01*
X459017Y184559D01*
X459015Y184585D01*
X459017Y184612D01*
X458995Y184786D01*
X458977Y184959D01*
X458970Y184985D01*
X458966Y185012D01*
X458911Y185177D01*
X458859Y185344D01*
X458846Y185368D01*
X458838Y185393D01*
X458751Y185545D01*
X458667Y185698D01*
X458650Y185719D01*
X458637Y185742D01*
X458422Y185995D01*
X458001Y186416D01*
X458001Y194584D01*
X459466Y196049D01*
X467634Y196049D01*
X469099Y194584D01*
X469099Y186416D01*
X468678Y185995D01*
X468661Y185974D01*
X468640Y185957D01*
X468533Y185819D01*
X468423Y185684D01*
X468410Y185660D01*
X468394Y185639D01*
X468316Y185482D01*
X468234Y185328D01*
X468226Y185302D01*
X468214Y185278D01*
X468169Y185109D01*
X468119Y184942D01*
X468117Y184915D01*
X468110Y184890D01*
X468083Y184559D01*
X468083Y59898D01*
X467393Y58232D01*
X456118Y46957D01*
X454452Y46267D01*
X252690Y46267D01*
X252672Y46265D01*
X252654Y46267D01*
X252472Y46246D01*
X252289Y46227D01*
X252272Y46222D01*
X252255Y46220D01*
X252080Y46163D01*
X251904Y46109D01*
X251889Y46101D01*
X251872Y46095D01*
X251712Y46005D01*
X251550Y45917D01*
X251537Y45906D01*
X251521Y45897D01*
X251382Y45777D01*
X251241Y45660D01*
X251230Y45646D01*
X251216Y45634D01*
X251104Y45489D01*
X250989Y45346D01*
X250981Y45330D01*
X250970Y45316D01*
X250888Y45151D01*
X250803Y44989D01*
X250798Y44972D01*
X250790Y44956D01*
X250743Y44777D01*
X250692Y44602D01*
X250690Y44584D01*
X250686Y44567D01*
X250659Y44236D01*
X250659Y42080D01*
X249234Y38641D01*
X246601Y36008D01*
X243162Y34583D01*
X239438Y34583D01*
G37*
%LPD*%
%LPC*%
G36*
X74509Y518549D02*
X74509Y518549D01*
X71385Y519843D01*
X68993Y522235D01*
X67699Y525359D01*
X67699Y528741D01*
X68993Y531865D01*
X71072Y533944D01*
X71089Y533965D01*
X71110Y533982D01*
X71217Y534120D01*
X71327Y534256D01*
X71340Y534279D01*
X71356Y534300D01*
X71434Y534457D01*
X71516Y534611D01*
X71524Y534637D01*
X71536Y534661D01*
X71581Y534830D01*
X71631Y534997D01*
X71633Y535024D01*
X71640Y535050D01*
X71667Y535380D01*
X71667Y537002D01*
X72357Y538668D01*
X83632Y549943D01*
X85298Y550633D01*
X210681Y550633D01*
X210708Y550635D01*
X210734Y550633D01*
X210908Y550655D01*
X211082Y550673D01*
X211107Y550680D01*
X211134Y550684D01*
X211300Y550739D01*
X211467Y550791D01*
X211490Y550804D01*
X211516Y550812D01*
X211667Y550899D01*
X211821Y550983D01*
X211841Y551000D01*
X211864Y551013D01*
X212117Y551228D01*
X220972Y560083D01*
X220989Y560103D01*
X221010Y560121D01*
X221117Y560259D01*
X221227Y560394D01*
X221240Y560418D01*
X221256Y560439D01*
X221334Y560596D01*
X221416Y560750D01*
X221424Y560775D01*
X221436Y560799D01*
X221481Y560969D01*
X221531Y561136D01*
X221533Y561162D01*
X221540Y561188D01*
X221567Y561519D01*
X221567Y576366D01*
X221565Y576388D01*
X221567Y576410D01*
X221545Y576588D01*
X221527Y576766D01*
X221521Y576788D01*
X221518Y576810D01*
X221462Y576980D01*
X221409Y577151D01*
X221399Y577171D01*
X221392Y577192D01*
X221303Y577348D01*
X221217Y577505D01*
X221203Y577522D01*
X221192Y577542D01*
X221074Y577677D01*
X220960Y577814D01*
X220942Y577828D01*
X220928Y577845D01*
X220785Y577955D01*
X220646Y578067D01*
X220626Y578077D01*
X220609Y578091D01*
X220378Y578209D01*
X217520Y581067D01*
X215979Y584787D01*
X215979Y588813D01*
X217520Y592533D01*
X220367Y595380D01*
X224087Y596921D01*
X228113Y596921D01*
X231833Y595380D01*
X234680Y592533D01*
X236221Y588813D01*
X236221Y584787D01*
X234680Y581067D01*
X231827Y578214D01*
X231690Y578137D01*
X231532Y578052D01*
X231515Y578038D01*
X231495Y578027D01*
X231360Y577910D01*
X231221Y577796D01*
X231207Y577778D01*
X231190Y577764D01*
X231081Y577622D01*
X230968Y577483D01*
X230957Y577463D01*
X230944Y577446D01*
X230864Y577285D01*
X230781Y577127D01*
X230774Y577105D01*
X230764Y577085D01*
X230718Y576911D01*
X230668Y576740D01*
X230666Y576718D01*
X230660Y576696D01*
X230633Y576366D01*
X230633Y557898D01*
X229943Y556232D01*
X215968Y542257D01*
X214302Y541567D01*
X88919Y541567D01*
X88892Y541565D01*
X88866Y541567D01*
X88692Y541545D01*
X88518Y541527D01*
X88493Y541520D01*
X88466Y541516D01*
X88301Y541461D01*
X88133Y541409D01*
X88110Y541396D01*
X88084Y541388D01*
X87933Y541301D01*
X87779Y541217D01*
X87759Y541200D01*
X87736Y541187D01*
X87483Y540972D01*
X82327Y535817D01*
X82316Y535803D01*
X82302Y535792D01*
X82189Y535648D01*
X82072Y535506D01*
X82064Y535490D01*
X82053Y535476D01*
X81970Y535312D01*
X81884Y535150D01*
X81879Y535133D01*
X81870Y535117D01*
X81821Y534940D01*
X81769Y534764D01*
X81767Y534746D01*
X81762Y534729D01*
X81749Y534546D01*
X81732Y534363D01*
X81734Y534345D01*
X81733Y534327D01*
X81756Y534145D01*
X81776Y533963D01*
X81781Y533946D01*
X81783Y533928D01*
X81842Y533754D01*
X81897Y533579D01*
X81906Y533563D01*
X81912Y533546D01*
X82003Y533387D01*
X82092Y533227D01*
X82104Y533213D01*
X82113Y533197D01*
X82327Y532944D01*
X83407Y531865D01*
X84701Y528741D01*
X84701Y525359D01*
X83407Y522235D01*
X81015Y519843D01*
X77891Y518549D01*
X74509Y518549D01*
G37*
%LPD*%
%LPC*%
G36*
X727984Y68319D02*
X727984Y68319D01*
X726519Y69784D01*
X726519Y110016D01*
X727984Y111481D01*
X768216Y111481D01*
X769681Y110016D01*
X769681Y69784D01*
X768216Y68319D01*
X727984Y68319D01*
G37*
%LPD*%
%LPC*%
G36*
X880183Y113569D02*
X880183Y113569D01*
X866369Y127383D01*
X866369Y146917D01*
X880183Y160731D01*
X899717Y160731D01*
X913531Y146917D01*
X913531Y127383D01*
X899717Y113569D01*
X880183Y113569D01*
G37*
%LPD*%
%LPC*%
G36*
X40573Y422441D02*
X40573Y422441D01*
X35091Y427923D01*
X35091Y435677D01*
X39322Y439908D01*
X39339Y439928D01*
X39360Y439946D01*
X39467Y440084D01*
X39577Y440219D01*
X39590Y440243D01*
X39606Y440264D01*
X39684Y440421D01*
X39766Y440575D01*
X39774Y440600D01*
X39786Y440624D01*
X39831Y440794D01*
X39881Y440961D01*
X39883Y440987D01*
X39890Y441013D01*
X39917Y441344D01*
X39917Y451752D01*
X40607Y453418D01*
X54582Y467393D01*
X56248Y468083D01*
X159159Y468083D01*
X159185Y468085D01*
X159212Y468083D01*
X159386Y468105D01*
X159559Y468123D01*
X159585Y468131D01*
X159612Y468134D01*
X159777Y468189D01*
X159944Y468241D01*
X159968Y468254D01*
X159993Y468262D01*
X160145Y468349D01*
X160298Y468433D01*
X160319Y468450D01*
X160342Y468463D01*
X160595Y468678D01*
X161016Y469099D01*
X169184Y469099D01*
X170649Y467634D01*
X170649Y459466D01*
X169184Y458001D01*
X161016Y458001D01*
X160595Y458422D01*
X160574Y458439D01*
X160557Y458460D01*
X160419Y458566D01*
X160284Y458677D01*
X160260Y458690D01*
X160239Y458706D01*
X160082Y458784D01*
X159928Y458866D01*
X159902Y458874D01*
X159878Y458886D01*
X159709Y458931D01*
X159542Y458981D01*
X159515Y458983D01*
X159490Y458990D01*
X159159Y459017D01*
X59869Y459017D01*
X59842Y459015D01*
X59816Y459017D01*
X59642Y458995D01*
X59468Y458977D01*
X59443Y458970D01*
X59416Y458966D01*
X59250Y458911D01*
X59083Y458859D01*
X59060Y458846D01*
X59034Y458838D01*
X58883Y458751D01*
X58729Y458667D01*
X58709Y458650D01*
X58686Y458637D01*
X58433Y458422D01*
X49578Y449567D01*
X49561Y449547D01*
X49540Y449529D01*
X49433Y449391D01*
X49323Y449256D01*
X49310Y449232D01*
X49294Y449211D01*
X49216Y449054D01*
X49134Y448900D01*
X49126Y448875D01*
X49114Y448851D01*
X49069Y448681D01*
X49019Y448514D01*
X49017Y448488D01*
X49010Y448462D01*
X48983Y448131D01*
X48983Y441344D01*
X48985Y441317D01*
X48983Y441291D01*
X49005Y441117D01*
X49023Y440943D01*
X49030Y440918D01*
X49034Y440891D01*
X49089Y440725D01*
X49141Y440558D01*
X49154Y440535D01*
X49162Y440509D01*
X49249Y440358D01*
X49333Y440204D01*
X49350Y440184D01*
X49363Y440161D01*
X49578Y439908D01*
X53809Y435677D01*
X53809Y427923D01*
X48327Y422441D01*
X40573Y422441D01*
G37*
%LPD*%
%LPC*%
G36*
X103866Y310237D02*
X103866Y310237D01*
X102401Y311702D01*
X102401Y319869D01*
X102822Y320290D01*
X102839Y320311D01*
X102860Y320329D01*
X102967Y320467D01*
X103077Y320602D01*
X103090Y320626D01*
X103106Y320647D01*
X103184Y320804D01*
X103266Y320958D01*
X103274Y320983D01*
X103286Y321007D01*
X103331Y321177D01*
X103381Y321344D01*
X103383Y321370D01*
X103390Y321396D01*
X103417Y321727D01*
X103417Y399836D01*
X103415Y399854D01*
X103417Y399872D01*
X103396Y400054D01*
X103377Y400237D01*
X103372Y400254D01*
X103370Y400271D01*
X103313Y400446D01*
X103259Y400622D01*
X103251Y400637D01*
X103245Y400654D01*
X103155Y400814D01*
X103067Y400976D01*
X103056Y400989D01*
X103047Y401005D01*
X102927Y401144D01*
X102810Y401285D01*
X102796Y401296D01*
X102784Y401310D01*
X102639Y401422D01*
X102496Y401537D01*
X102480Y401545D01*
X102466Y401556D01*
X102301Y401638D01*
X102139Y401723D01*
X102122Y401728D01*
X102106Y401736D01*
X101927Y401783D01*
X101752Y401834D01*
X101734Y401836D01*
X101717Y401840D01*
X101386Y401867D01*
X79394Y401867D01*
X79367Y401865D01*
X79341Y401867D01*
X79167Y401845D01*
X78993Y401827D01*
X78968Y401820D01*
X78941Y401816D01*
X78775Y401760D01*
X78608Y401709D01*
X78585Y401696D01*
X78559Y401688D01*
X78408Y401601D01*
X78254Y401517D01*
X78234Y401500D01*
X78211Y401487D01*
X77958Y401272D01*
X73727Y397041D01*
X65973Y397041D01*
X60491Y402523D01*
X60491Y410277D01*
X65973Y415759D01*
X73727Y415759D01*
X77958Y411528D01*
X77978Y411511D01*
X77996Y411490D01*
X78134Y411383D01*
X78269Y411273D01*
X78293Y411260D01*
X78314Y411244D01*
X78470Y411166D01*
X78625Y411084D01*
X78650Y411076D01*
X78674Y411064D01*
X78844Y411019D01*
X79011Y410969D01*
X79037Y410967D01*
X79063Y410960D01*
X79394Y410933D01*
X102009Y410933D01*
X102035Y410935D01*
X102062Y410933D01*
X102236Y410955D01*
X102409Y410973D01*
X102435Y410980D01*
X102462Y410984D01*
X102627Y411039D01*
X102794Y411091D01*
X102818Y411104D01*
X102843Y411112D01*
X102995Y411199D01*
X103148Y411283D01*
X103169Y411300D01*
X103192Y411313D01*
X103445Y411528D01*
X103866Y411949D01*
X112034Y411949D01*
X113499Y410484D01*
X113499Y402316D01*
X113078Y401895D01*
X113061Y401874D01*
X113040Y401857D01*
X112933Y401719D01*
X112823Y401584D01*
X112810Y401560D01*
X112794Y401539D01*
X112716Y401382D01*
X112634Y401228D01*
X112626Y401202D01*
X112614Y401178D01*
X112569Y401008D01*
X112519Y400842D01*
X112517Y400815D01*
X112510Y400790D01*
X112483Y400459D01*
X112483Y321727D01*
X112485Y321700D01*
X112483Y321673D01*
X112505Y321499D01*
X112523Y321326D01*
X112530Y321301D01*
X112534Y321274D01*
X112589Y321108D01*
X112641Y320941D01*
X112654Y320918D01*
X112662Y320892D01*
X112749Y320741D01*
X112833Y320587D01*
X112850Y320567D01*
X112863Y320543D01*
X113078Y320290D01*
X113499Y319869D01*
X113499Y311702D01*
X112034Y310237D01*
X103866Y310237D01*
G37*
%LPD*%
%LPC*%
G36*
X920750Y527049D02*
X920750Y527049D01*
X920749Y527050D01*
X920749Y565150D01*
X920750Y565151D01*
X958850Y565151D01*
X958851Y565150D01*
X958851Y527050D01*
X958850Y527049D01*
X920750Y527049D01*
G37*
%LPD*%
%LPC*%
G36*
X920750Y400049D02*
X920750Y400049D01*
X920749Y400050D01*
X920749Y438150D01*
X920750Y438151D01*
X958850Y438151D01*
X958851Y438150D01*
X958851Y400050D01*
X958850Y400049D01*
X920750Y400049D01*
G37*
%LPD*%
%LPC*%
G36*
X948812Y578359D02*
X948812Y578359D01*
X941998Y581182D01*
X936782Y586398D01*
X933959Y593212D01*
X933959Y600588D01*
X936782Y607402D01*
X941998Y612618D01*
X948812Y615441D01*
X956188Y615441D01*
X963002Y612618D01*
X968218Y607402D01*
X971041Y600588D01*
X971041Y593212D01*
X968218Y586398D01*
X963002Y581182D01*
X956188Y578359D01*
X948812Y578359D01*
G37*
%LPD*%
%LPC*%
G36*
X115612Y568259D02*
X115612Y568259D01*
X108798Y571082D01*
X103582Y576298D01*
X100759Y583112D01*
X100759Y590488D01*
X103582Y597302D01*
X108798Y602518D01*
X115612Y605341D01*
X122988Y605341D01*
X129802Y602518D01*
X135018Y597302D01*
X137841Y590488D01*
X137841Y583112D01*
X135018Y576298D01*
X129802Y571082D01*
X122988Y568259D01*
X115612Y568259D01*
G37*
%LPD*%
%LPC*%
G36*
X115612Y258259D02*
X115612Y258259D01*
X108798Y261082D01*
X103582Y266298D01*
X100759Y273112D01*
X100759Y280488D01*
X103582Y287302D01*
X108798Y292518D01*
X115612Y295341D01*
X122988Y295341D01*
X129802Y292518D01*
X135018Y287302D01*
X137841Y280488D01*
X137841Y273112D01*
X135018Y266298D01*
X129802Y261082D01*
X122988Y258259D01*
X115612Y258259D01*
G37*
%LPD*%
%LPC*%
G36*
X867612Y258259D02*
X867612Y258259D01*
X860798Y261082D01*
X855582Y266298D01*
X852759Y273112D01*
X852759Y280488D01*
X855582Y287302D01*
X860798Y292518D01*
X867612Y295341D01*
X874988Y295341D01*
X881802Y292518D01*
X887018Y287302D01*
X889841Y280488D01*
X889841Y273112D01*
X887018Y266298D01*
X881802Y261082D01*
X874988Y258259D01*
X867612Y258259D01*
G37*
%LPD*%
%LPC*%
G36*
X34412Y578359D02*
X34412Y578359D01*
X27598Y581182D01*
X22382Y586398D01*
X19559Y593212D01*
X19559Y600588D01*
X22382Y607402D01*
X27598Y612618D01*
X34412Y615441D01*
X41788Y615441D01*
X48602Y612618D01*
X53818Y607402D01*
X56641Y600588D01*
X56641Y593212D01*
X53818Y586398D01*
X48602Y581182D01*
X41788Y578359D01*
X34412Y578359D01*
G37*
%LPD*%
%LPC*%
G36*
X867612Y568259D02*
X867612Y568259D01*
X860798Y571082D01*
X855582Y576298D01*
X852759Y583112D01*
X852759Y590488D01*
X855582Y597302D01*
X860798Y602518D01*
X867612Y605341D01*
X874988Y605341D01*
X881802Y602518D01*
X887018Y597302D01*
X889841Y590488D01*
X889841Y583112D01*
X887018Y576298D01*
X881802Y571082D01*
X874988Y568259D01*
X867612Y568259D01*
G37*
%LPD*%
%LPC*%
G36*
X948812Y19559D02*
X948812Y19559D01*
X941998Y22382D01*
X936782Y27598D01*
X933959Y34412D01*
X933959Y41788D01*
X936782Y48602D01*
X941998Y53818D01*
X948812Y56641D01*
X956188Y56641D01*
X963002Y53818D01*
X968218Y48602D01*
X971041Y41788D01*
X971041Y34412D01*
X968218Y27598D01*
X963002Y22382D01*
X956188Y19559D01*
X948812Y19559D01*
G37*
%LPD*%
%LPC*%
G36*
X144188Y34583D02*
X144188Y34583D01*
X140749Y36008D01*
X138116Y38641D01*
X136691Y42080D01*
X136691Y59520D01*
X138116Y62959D01*
X140749Y65592D01*
X144188Y67017D01*
X147912Y67017D01*
X151351Y65592D01*
X153984Y62959D01*
X155409Y59520D01*
X155409Y42080D01*
X153984Y38641D01*
X151351Y36008D01*
X147912Y34583D01*
X144188Y34583D01*
G37*
%LPD*%
%LPC*%
G36*
X249487Y576679D02*
X249487Y576679D01*
X245767Y578220D01*
X242920Y581067D01*
X241379Y584787D01*
X241379Y588813D01*
X242920Y592533D01*
X245767Y595380D01*
X249487Y596921D01*
X253513Y596921D01*
X257233Y595380D01*
X260080Y592533D01*
X261621Y588813D01*
X261621Y584787D01*
X260080Y581067D01*
X257233Y578220D01*
X253513Y576679D01*
X249487Y576679D01*
G37*
%LPD*%
%LPC*%
G36*
X198687Y576679D02*
X198687Y576679D01*
X194967Y578220D01*
X192120Y581067D01*
X190579Y584787D01*
X190579Y588813D01*
X192120Y592533D01*
X194967Y595380D01*
X198687Y596921D01*
X202713Y596921D01*
X206433Y595380D01*
X209280Y592533D01*
X210821Y588813D01*
X210821Y584787D01*
X209280Y581067D01*
X206433Y578220D01*
X202713Y576679D01*
X198687Y576679D01*
G37*
%LPD*%
%LPC*%
G36*
X528887Y576679D02*
X528887Y576679D01*
X525167Y578220D01*
X522320Y581067D01*
X520779Y584787D01*
X520779Y588813D01*
X522320Y592533D01*
X525167Y595380D01*
X528887Y596921D01*
X532913Y596921D01*
X536633Y595380D01*
X539480Y592533D01*
X541021Y588813D01*
X541021Y584787D01*
X539480Y581067D01*
X536633Y578220D01*
X532913Y576679D01*
X528887Y576679D01*
G37*
%LPD*%
%LPC*%
G36*
X300287Y576679D02*
X300287Y576679D01*
X296567Y578220D01*
X293720Y581067D01*
X292179Y584787D01*
X292179Y588813D01*
X293720Y592533D01*
X296567Y595380D01*
X300287Y596921D01*
X304313Y596921D01*
X308033Y595380D01*
X310880Y592533D01*
X312421Y588813D01*
X312421Y584787D01*
X310880Y581067D01*
X308033Y578220D01*
X304313Y576679D01*
X300287Y576679D01*
G37*
%LPD*%
%LPC*%
G36*
X325687Y576679D02*
X325687Y576679D01*
X321967Y578220D01*
X319120Y581067D01*
X317579Y584787D01*
X317579Y588813D01*
X319120Y592533D01*
X321967Y595380D01*
X325687Y596921D01*
X329713Y596921D01*
X333433Y595380D01*
X336280Y592533D01*
X337821Y588813D01*
X337821Y584787D01*
X336280Y581067D01*
X333433Y578220D01*
X329713Y576679D01*
X325687Y576679D01*
G37*
%LPD*%
%LPC*%
G36*
X452687Y576679D02*
X452687Y576679D01*
X448967Y578220D01*
X446120Y581067D01*
X444579Y584787D01*
X444579Y588813D01*
X446120Y592533D01*
X448967Y595380D01*
X452687Y596921D01*
X456713Y596921D01*
X460433Y595380D01*
X463280Y592533D01*
X464821Y588813D01*
X464821Y584787D01*
X463280Y581067D01*
X460433Y578220D01*
X456713Y576679D01*
X452687Y576679D01*
G37*
%LPD*%
%LPC*%
G36*
X351087Y576679D02*
X351087Y576679D01*
X347367Y578220D01*
X344520Y581067D01*
X342979Y584787D01*
X342979Y588813D01*
X344520Y592533D01*
X347367Y595380D01*
X351087Y596921D01*
X355113Y596921D01*
X358833Y595380D01*
X361680Y592533D01*
X363221Y588813D01*
X363221Y584787D01*
X361680Y581067D01*
X358833Y578220D01*
X355113Y576679D01*
X351087Y576679D01*
G37*
%LPD*%
%LPC*%
G36*
X503487Y576679D02*
X503487Y576679D01*
X499767Y578220D01*
X496920Y581067D01*
X495379Y584787D01*
X495379Y588813D01*
X496920Y592533D01*
X499767Y595380D01*
X503487Y596921D01*
X507513Y596921D01*
X511233Y595380D01*
X514080Y592533D01*
X515621Y588813D01*
X515621Y584787D01*
X514080Y581067D01*
X511233Y578220D01*
X507513Y576679D01*
X503487Y576679D01*
G37*
%LPD*%
%LPC*%
G36*
X376487Y576679D02*
X376487Y576679D01*
X372767Y578220D01*
X369920Y581067D01*
X368379Y584787D01*
X368379Y588813D01*
X369920Y592533D01*
X372767Y595380D01*
X376487Y596921D01*
X380513Y596921D01*
X384233Y595380D01*
X387080Y592533D01*
X388621Y588813D01*
X388621Y584787D01*
X387080Y581067D01*
X384233Y578220D01*
X380513Y576679D01*
X376487Y576679D01*
G37*
%LPD*%
%LPC*%
G36*
X401887Y576679D02*
X401887Y576679D01*
X398167Y578220D01*
X395320Y581067D01*
X393779Y584787D01*
X393779Y588813D01*
X395320Y592533D01*
X398167Y595380D01*
X401887Y596921D01*
X405913Y596921D01*
X409633Y595380D01*
X412480Y592533D01*
X414021Y588813D01*
X414021Y584787D01*
X412480Y581067D01*
X409633Y578220D01*
X405913Y576679D01*
X401887Y576679D01*
G37*
%LPD*%
%LPC*%
G36*
X478087Y576679D02*
X478087Y576679D01*
X474367Y578220D01*
X471520Y581067D01*
X469979Y584787D01*
X469979Y588813D01*
X471520Y592533D01*
X474367Y595380D01*
X478087Y596921D01*
X482113Y596921D01*
X485833Y595380D01*
X488680Y592533D01*
X490221Y588813D01*
X490221Y584787D01*
X488680Y581067D01*
X485833Y578220D01*
X482113Y576679D01*
X478087Y576679D01*
G37*
%LPD*%
%LPC*%
G36*
X427287Y576679D02*
X427287Y576679D01*
X423567Y578220D01*
X420720Y581067D01*
X419179Y584787D01*
X419179Y588813D01*
X420720Y592533D01*
X423567Y595380D01*
X427287Y596921D01*
X431313Y596921D01*
X435033Y595380D01*
X437880Y592533D01*
X439421Y588813D01*
X439421Y584787D01*
X437880Y581067D01*
X435033Y578220D01*
X431313Y576679D01*
X427287Y576679D01*
G37*
%LPD*%
%LPC*%
G36*
X40573Y397041D02*
X40573Y397041D01*
X35091Y402523D01*
X35091Y410277D01*
X40573Y415759D01*
X48327Y415759D01*
X53809Y410277D01*
X53809Y402523D01*
X48327Y397041D01*
X40573Y397041D01*
G37*
%LPD*%
%LPC*%
G36*
X65973Y371641D02*
X65973Y371641D01*
X60491Y377123D01*
X60491Y384877D01*
X65973Y390359D01*
X73727Y390359D01*
X79209Y384877D01*
X79209Y377123D01*
X73727Y371641D01*
X65973Y371641D01*
G37*
%LPD*%
%LPC*%
G36*
X42588Y371641D02*
X42588Y371641D01*
X39149Y373066D01*
X36516Y375699D01*
X35091Y379138D01*
X35091Y382862D01*
X36516Y386301D01*
X39149Y388934D01*
X42588Y390359D01*
X46312Y390359D01*
X49751Y388934D01*
X52384Y386301D01*
X53809Y382862D01*
X53809Y379138D01*
X52384Y375699D01*
X49751Y373066D01*
X46312Y371641D01*
X42588Y371641D01*
G37*
%LPD*%
%LPC*%
G36*
X46009Y543949D02*
X46009Y543949D01*
X42885Y545243D01*
X40493Y547635D01*
X39199Y550759D01*
X39199Y554141D01*
X40493Y557265D01*
X42885Y559657D01*
X46009Y560951D01*
X49391Y560951D01*
X52515Y559657D01*
X54907Y557265D01*
X56201Y554141D01*
X56201Y550759D01*
X54907Y547635D01*
X52515Y545243D01*
X49391Y543949D01*
X46009Y543949D01*
G37*
%LPD*%
%LPC*%
G36*
X938400Y345159D02*
X938400Y345159D01*
X935812Y346231D01*
X933831Y348212D01*
X932759Y350800D01*
X932759Y353600D01*
X933831Y356188D01*
X935812Y358169D01*
X938400Y359241D01*
X941200Y359241D01*
X943788Y358169D01*
X945769Y356188D01*
X946841Y353600D01*
X946841Y350800D01*
X945769Y348212D01*
X943788Y346231D01*
X941200Y345159D01*
X938400Y345159D01*
G37*
%LPD*%
%LPC*%
G36*
X938400Y301159D02*
X938400Y301159D01*
X935812Y302231D01*
X933831Y304212D01*
X932759Y306800D01*
X932759Y309600D01*
X933831Y312188D01*
X935812Y314169D01*
X938400Y315241D01*
X941200Y315241D01*
X943788Y314169D01*
X945769Y312188D01*
X946841Y309600D01*
X946841Y306800D01*
X945769Y304212D01*
X943788Y302231D01*
X941200Y301159D01*
X938400Y301159D01*
G37*
%LPD*%
%LPC*%
G36*
X258960Y268604D02*
X258960Y268604D01*
X256393Y269668D01*
X254428Y271633D01*
X253364Y274200D01*
X253364Y276980D01*
X254428Y279547D01*
X256393Y281512D01*
X258960Y282576D01*
X261740Y282576D01*
X264307Y281512D01*
X266272Y279547D01*
X267336Y276980D01*
X267336Y274200D01*
X266272Y271633D01*
X264307Y269668D01*
X262189Y268791D01*
X262186Y268789D01*
X262181Y268787D01*
X262009Y268694D01*
X261842Y268604D01*
X258960Y268604D01*
G37*
%LPD*%
%LPC*%
G36*
X258960Y288924D02*
X258960Y288924D01*
X256393Y289988D01*
X254428Y291953D01*
X253364Y294520D01*
X253364Y297300D01*
X254428Y299867D01*
X256393Y301832D01*
X258960Y302896D01*
X261740Y302896D01*
X264307Y301832D01*
X266272Y299867D01*
X267336Y297300D01*
X267336Y294520D01*
X266272Y291953D01*
X264307Y289988D01*
X261740Y288924D01*
X258960Y288924D01*
G37*
%LPD*%
%LPC*%
G36*
X122935Y53085D02*
X122935Y53085D01*
X122935Y66798D01*
X124258Y66368D01*
X125576Y65697D01*
X126773Y64827D01*
X127819Y63781D01*
X128689Y62584D01*
X129360Y61266D01*
X129817Y59859D01*
X130049Y58398D01*
X130049Y53085D01*
X122935Y53085D01*
G37*
%LPD*%
%LPC*%
G36*
X218185Y53085D02*
X218185Y53085D01*
X218185Y66798D01*
X219508Y66368D01*
X220826Y65697D01*
X222023Y64827D01*
X223069Y63781D01*
X223939Y62584D01*
X224610Y61266D01*
X225067Y59859D01*
X225299Y58398D01*
X225299Y53085D01*
X218185Y53085D01*
G37*
%LPD*%
%LPC*%
G36*
X122935Y48515D02*
X122935Y48515D01*
X130049Y48515D01*
X130049Y43202D01*
X129817Y41741D01*
X129360Y40334D01*
X128689Y39016D01*
X127819Y37819D01*
X126773Y36773D01*
X125576Y35903D01*
X124258Y35232D01*
X122935Y34802D01*
X122935Y48515D01*
G37*
%LPD*%
%LPC*%
G36*
X218185Y48515D02*
X218185Y48515D01*
X225299Y48515D01*
X225299Y43202D01*
X225067Y41741D01*
X224610Y40334D01*
X223939Y39016D01*
X223069Y37819D01*
X222023Y36773D01*
X220826Y35903D01*
X219508Y35232D01*
X218185Y34802D01*
X218185Y48515D01*
G37*
%LPD*%
%LPC*%
G36*
X206501Y53085D02*
X206501Y53085D01*
X206501Y58398D01*
X206733Y59859D01*
X207190Y61266D01*
X207861Y62584D01*
X208731Y63781D01*
X209777Y64827D01*
X210974Y65697D01*
X212292Y66368D01*
X213615Y66798D01*
X213615Y53085D01*
X206501Y53085D01*
G37*
%LPD*%
%LPC*%
G36*
X111251Y53085D02*
X111251Y53085D01*
X111251Y58398D01*
X111483Y59859D01*
X111940Y61266D01*
X112611Y62584D01*
X113481Y63781D01*
X114527Y64827D01*
X115724Y65697D01*
X117042Y66368D01*
X118365Y66798D01*
X118365Y53085D01*
X111251Y53085D01*
G37*
%LPD*%
%LPC*%
G36*
X212292Y35232D02*
X212292Y35232D01*
X210974Y35903D01*
X209777Y36773D01*
X208731Y37819D01*
X207861Y39016D01*
X207190Y40334D01*
X206733Y41741D01*
X206501Y43202D01*
X206501Y48515D01*
X213615Y48515D01*
X213615Y34802D01*
X212292Y35232D01*
G37*
%LPD*%
%LPC*%
G36*
X117042Y35232D02*
X117042Y35232D01*
X115724Y35903D01*
X114527Y36773D01*
X113481Y37819D01*
X112611Y39016D01*
X111940Y40334D01*
X111483Y41741D01*
X111251Y43202D01*
X111251Y48515D01*
X118365Y48515D01*
X118365Y34802D01*
X117042Y35232D01*
G37*
%LPD*%
%LPC*%
G36*
X821099Y130399D02*
X821099Y130399D01*
X821099Y138941D01*
X827435Y138941D01*
X828081Y138768D01*
X828660Y138433D01*
X829133Y137960D01*
X829468Y137381D01*
X829641Y136735D01*
X829641Y130399D01*
X821099Y130399D01*
G37*
%LPD*%
%LPC*%
G36*
X806559Y130399D02*
X806559Y130399D01*
X806559Y136735D01*
X806732Y137381D01*
X807067Y137960D01*
X807540Y138433D01*
X808119Y138768D01*
X808765Y138941D01*
X815101Y138941D01*
X815101Y130399D01*
X806559Y130399D01*
G37*
%LPD*%
%LPC*%
G36*
X676099Y115859D02*
X676099Y115859D01*
X676099Y124401D01*
X684641Y124401D01*
X684641Y118065D01*
X684468Y117419D01*
X684133Y116840D01*
X683660Y116367D01*
X683081Y116032D01*
X682435Y115859D01*
X676099Y115859D01*
G37*
%LPD*%
%LPC*%
G36*
X821099Y115859D02*
X821099Y115859D01*
X821099Y124401D01*
X829641Y124401D01*
X829641Y118065D01*
X829468Y117419D01*
X829133Y116840D01*
X828660Y116367D01*
X828081Y116032D01*
X827435Y115859D01*
X821099Y115859D01*
G37*
%LPD*%
%LPC*%
G36*
X663765Y115859D02*
X663765Y115859D01*
X663119Y116032D01*
X662540Y116367D01*
X662067Y116840D01*
X661732Y117419D01*
X661559Y118065D01*
X661559Y124401D01*
X670101Y124401D01*
X670101Y115859D01*
X663765Y115859D01*
G37*
%LPD*%
%LPC*%
G36*
X808765Y115859D02*
X808765Y115859D01*
X808119Y116032D01*
X807540Y116367D01*
X807067Y116840D01*
X806732Y117419D01*
X806559Y118065D01*
X806559Y124401D01*
X815101Y124401D01*
X815101Y115859D01*
X808765Y115859D01*
G37*
%LPD*%
%LPC*%
G36*
X918831Y489631D02*
X918831Y489631D01*
X918831Y505969D01*
X925632Y505969D01*
X925618Y505883D01*
X925178Y504530D01*
X924532Y503262D01*
X923696Y502110D01*
X922690Y501104D01*
X921538Y500268D01*
X920247Y499610D01*
X920204Y499582D01*
X920158Y499561D01*
X920035Y499474D01*
X919908Y499392D01*
X919872Y499357D01*
X919830Y499327D01*
X919727Y499217D01*
X919619Y499112D01*
X919590Y499070D01*
X919555Y499033D01*
X919476Y498905D01*
X919391Y498781D01*
X919371Y498734D01*
X919344Y498690D01*
X919292Y498549D01*
X919232Y498411D01*
X919222Y498361D01*
X919204Y498313D01*
X919181Y498164D01*
X919150Y498017D01*
X919149Y497966D01*
X919141Y497915D01*
X919148Y497764D01*
X919147Y497614D01*
X919156Y497564D01*
X919159Y497513D01*
X919195Y497366D01*
X919223Y497219D01*
X919243Y497172D01*
X919255Y497122D01*
X919319Y496986D01*
X919376Y496846D01*
X919404Y496804D01*
X919426Y496758D01*
X919516Y496636D01*
X919599Y496511D01*
X919635Y496475D01*
X919666Y496434D01*
X919778Y496333D01*
X919884Y496227D01*
X919927Y496199D01*
X919965Y496164D01*
X920161Y496043D01*
X920220Y496004D01*
X920233Y495999D01*
X920247Y495990D01*
X921538Y495332D01*
X922690Y494496D01*
X923696Y493490D01*
X924532Y492338D01*
X925178Y491070D01*
X925618Y489717D01*
X925632Y489631D01*
X918831Y489631D01*
G37*
%LPD*%
%LPC*%
G36*
X907968Y489631D02*
X907968Y489631D01*
X907982Y489717D01*
X908422Y491070D01*
X909068Y492338D01*
X909904Y493490D01*
X910910Y494496D01*
X912062Y495332D01*
X913353Y495990D01*
X913396Y496018D01*
X913442Y496039D01*
X913565Y496126D01*
X913692Y496208D01*
X913728Y496243D01*
X913770Y496273D01*
X913873Y496383D01*
X913981Y496488D01*
X914010Y496530D01*
X914045Y496567D01*
X914124Y496695D01*
X914209Y496819D01*
X914229Y496866D01*
X914256Y496910D01*
X914308Y497051D01*
X914368Y497189D01*
X914378Y497239D01*
X914396Y497287D01*
X914419Y497436D01*
X914450Y497583D01*
X914451Y497634D01*
X914459Y497685D01*
X914452Y497836D01*
X914453Y497986D01*
X914444Y498036D01*
X914441Y498087D01*
X914405Y498234D01*
X914377Y498381D01*
X914357Y498428D01*
X914345Y498478D01*
X914281Y498615D01*
X914224Y498754D01*
X914196Y498796D01*
X914174Y498843D01*
X914084Y498964D01*
X914001Y499089D01*
X913965Y499125D01*
X913934Y499166D01*
X913822Y499267D01*
X913716Y499373D01*
X913673Y499401D01*
X913635Y499436D01*
X913439Y499557D01*
X913380Y499596D01*
X913367Y499601D01*
X913353Y499610D01*
X912062Y500268D01*
X910910Y501104D01*
X909904Y502110D01*
X909068Y503262D01*
X908422Y504530D01*
X907982Y505883D01*
X907968Y505969D01*
X914769Y505969D01*
X914769Y489631D01*
X907968Y489631D01*
G37*
%LPD*%
%LPC*%
G36*
X177839Y589339D02*
X177839Y589339D01*
X177839Y596961D01*
X183255Y596961D01*
X183901Y596788D01*
X184480Y596453D01*
X184953Y595980D01*
X185288Y595401D01*
X185461Y594755D01*
X185461Y589339D01*
X177839Y589339D01*
G37*
%LPD*%
%LPC*%
G36*
X165139Y589339D02*
X165139Y589339D01*
X165139Y594755D01*
X165312Y595401D01*
X165647Y595980D01*
X166120Y596453D01*
X166699Y596788D01*
X167345Y596961D01*
X172761Y596961D01*
X172761Y589339D01*
X165139Y589339D01*
G37*
%LPD*%
%LPC*%
G36*
X177839Y576639D02*
X177839Y576639D01*
X177839Y584261D01*
X185461Y584261D01*
X185461Y578845D01*
X185288Y578199D01*
X184953Y577620D01*
X184480Y577147D01*
X183901Y576812D01*
X183255Y576639D01*
X177839Y576639D01*
G37*
%LPD*%
%LPC*%
G36*
X167345Y576639D02*
X167345Y576639D01*
X166699Y576812D01*
X166120Y577147D01*
X165647Y577620D01*
X165312Y578199D01*
X165139Y578845D01*
X165139Y584261D01*
X172761Y584261D01*
X172761Y576639D01*
X167345Y576639D01*
G37*
%LPD*%
%LPC*%
G36*
X558839Y589339D02*
X558839Y589339D01*
X558839Y596659D01*
X560200Y596216D01*
X561625Y595490D01*
X562919Y594550D01*
X564050Y593419D01*
X564990Y592125D01*
X565716Y590700D01*
X566159Y589339D01*
X558839Y589339D01*
G37*
%LPD*%
%LPC*%
G36*
X279439Y589339D02*
X279439Y589339D01*
X279439Y596659D01*
X280800Y596216D01*
X282225Y595490D01*
X283519Y594550D01*
X284650Y593419D01*
X285590Y592125D01*
X286316Y590700D01*
X286759Y589339D01*
X279439Y589339D01*
G37*
%LPD*%
%LPC*%
G36*
X546441Y589339D02*
X546441Y589339D01*
X546884Y590700D01*
X547610Y592125D01*
X548550Y593419D01*
X549681Y594550D01*
X550975Y595490D01*
X552400Y596216D01*
X553761Y596659D01*
X553761Y589339D01*
X546441Y589339D01*
G37*
%LPD*%
%LPC*%
G36*
X558839Y584261D02*
X558839Y584261D01*
X566159Y584261D01*
X565716Y582900D01*
X564990Y581475D01*
X564050Y580181D01*
X562919Y579050D01*
X561625Y578110D01*
X560200Y577384D01*
X558839Y576941D01*
X558839Y584261D01*
G37*
%LPD*%
%LPC*%
G36*
X279439Y584261D02*
X279439Y584261D01*
X286759Y584261D01*
X286316Y582900D01*
X285590Y581475D01*
X284650Y580181D01*
X283519Y579050D01*
X282225Y578110D01*
X280800Y577384D01*
X279439Y576941D01*
X279439Y584261D01*
G37*
%LPD*%
%LPC*%
G36*
X267041Y589339D02*
X267041Y589339D01*
X267484Y590700D01*
X268210Y592125D01*
X269150Y593419D01*
X270281Y594550D01*
X271575Y595490D01*
X273000Y596216D01*
X274361Y596659D01*
X274361Y589339D01*
X267041Y589339D01*
G37*
%LPD*%
%LPC*%
G36*
X552400Y577384D02*
X552400Y577384D01*
X550975Y578110D01*
X549681Y579050D01*
X548550Y580181D01*
X547610Y581475D01*
X546884Y582900D01*
X546441Y584261D01*
X553761Y584261D01*
X553761Y576941D01*
X552400Y577384D01*
G37*
%LPD*%
%LPC*%
G36*
X273000Y577384D02*
X273000Y577384D01*
X271575Y578110D01*
X270281Y579050D01*
X269150Y580181D01*
X268210Y581475D01*
X267484Y582900D01*
X267041Y584261D01*
X274361Y584261D01*
X274361Y576941D01*
X273000Y577384D01*
G37*
%LPD*%
%LPC*%
G36*
X72135Y434085D02*
X72135Y434085D01*
X72135Y441199D01*
X73743Y441199D01*
X79249Y435693D01*
X79249Y434085D01*
X72135Y434085D01*
G37*
%LPD*%
%LPC*%
G36*
X60451Y434085D02*
X60451Y434085D01*
X60451Y435693D01*
X65957Y441199D01*
X67565Y441199D01*
X67565Y434085D01*
X60451Y434085D01*
G37*
%LPD*%
%LPC*%
G36*
X72135Y422401D02*
X72135Y422401D01*
X72135Y429515D01*
X79249Y429515D01*
X79249Y427907D01*
X73743Y422401D01*
X72135Y422401D01*
G37*
%LPD*%
%LPC*%
G36*
X65957Y422401D02*
X65957Y422401D01*
X60451Y427907D01*
X60451Y429515D01*
X67565Y429515D01*
X67565Y422401D01*
X65957Y422401D01*
G37*
%LPD*%
%LPC*%
G36*
X918831Y510031D02*
X918831Y510031D01*
X918831Y516832D01*
X918917Y516818D01*
X920270Y516378D01*
X921538Y515732D01*
X922690Y514896D01*
X923696Y513890D01*
X924532Y512738D01*
X925178Y511470D01*
X925618Y510117D01*
X925632Y510031D01*
X918831Y510031D01*
G37*
%LPD*%
%LPC*%
G36*
X907968Y510031D02*
X907968Y510031D01*
X907982Y510117D01*
X908422Y511470D01*
X909068Y512738D01*
X909904Y513890D01*
X910910Y514896D01*
X912062Y515732D01*
X913330Y516378D01*
X914683Y516818D01*
X914769Y516832D01*
X914769Y510031D01*
X907968Y510031D01*
G37*
%LPD*%
%LPC*%
G36*
X49731Y503681D02*
X49731Y503681D01*
X49731Y509970D01*
X50979Y509565D01*
X52176Y508955D01*
X53264Y508165D01*
X54215Y507214D01*
X55005Y506126D01*
X55615Y504929D01*
X56020Y503681D01*
X49731Y503681D01*
G37*
%LPD*%
%LPC*%
G36*
X39380Y503681D02*
X39380Y503681D01*
X39785Y504929D01*
X40395Y506126D01*
X41185Y507214D01*
X42136Y508165D01*
X43224Y508955D01*
X44421Y509565D01*
X45669Y509970D01*
X45669Y503681D01*
X39380Y503681D01*
G37*
%LPD*%
%LPC*%
G36*
X49731Y499619D02*
X49731Y499619D01*
X56020Y499619D01*
X55615Y498371D01*
X55005Y497174D01*
X54215Y496086D01*
X53264Y495135D01*
X52176Y494345D01*
X50979Y493735D01*
X49731Y493330D01*
X49731Y499619D01*
G37*
%LPD*%
%LPC*%
G36*
X44421Y493735D02*
X44421Y493735D01*
X43224Y494345D01*
X42136Y495135D01*
X41185Y496086D01*
X40395Y497174D01*
X39785Y498371D01*
X39380Y499619D01*
X45669Y499619D01*
X45669Y493330D01*
X44421Y493735D01*
G37*
%LPD*%
D10*
X748100Y89900D03*
X748100Y214900D03*
D11*
X673100Y177400D03*
X673100Y152400D03*
X673100Y127400D03*
X818100Y127400D03*
X818100Y177400D03*
D12*
X175300Y586800D03*
D13*
X200700Y586800D03*
X226100Y586800D03*
X251500Y586800D03*
X276900Y586800D03*
X302300Y586800D03*
X327700Y586800D03*
X353100Y586800D03*
X378500Y586800D03*
X403900Y586800D03*
X429300Y586800D03*
X454700Y586800D03*
X480100Y586800D03*
X505500Y586800D03*
X530900Y586800D03*
X556300Y586800D03*
D14*
X916800Y508000D03*
X891400Y498000D03*
X916800Y487600D03*
X891400Y477600D03*
X916800Y467200D03*
X891400Y457200D03*
D15*
X44450Y381000D03*
D16*
X69850Y381000D03*
X44450Y406400D03*
X69850Y406400D03*
X44450Y431800D03*
X69850Y431800D03*
D17*
X47700Y552450D03*
X47700Y501650D03*
X76200Y527050D03*
D18*
X859950Y184150D03*
D19*
X919950Y184150D03*
D20*
X889950Y137150D03*
D21*
X266700Y127000D03*
X266700Y152400D03*
X127000Y127000D03*
X127000Y152400D03*
D22*
X146050Y57658D02*
X146050Y43942D01*
X120650Y43942D02*
X120650Y57658D01*
X95250Y57658D02*
X95250Y43942D01*
X241300Y43942D02*
X241300Y57658D01*
X215900Y57658D02*
X215900Y43942D01*
X190500Y43942D02*
X190500Y57658D01*
D23*
X882650Y304800D03*
X444500Y368300D03*
X447650Y438400D03*
X212471Y441071D03*
X292227Y390398D03*
X270764Y307848D03*
D24*
X469900Y495300D03*
D25*
X374650Y285750D03*
D23*
X214186Y371729D03*
D26*
X647700Y444500D03*
X644500Y499660D03*
D24*
X383731Y269939D03*
X501650Y114300D03*
D11*
X527050Y158750D03*
D24*
X317500Y476250D03*
D27*
X609600Y234950D03*
D11*
X304800Y152400D03*
D23*
X488950Y248857D03*
D28*
X361950Y248857D01*
X361950Y247650D01*
D23*
X361950Y247650D03*
X273050Y247650D03*
D28*
X304800Y247650D01*
X304800Y266700D01*
D23*
X304800Y266700D03*
X488950Y258636D03*
D28*
X349250Y248890D02*
X349250Y233236D01*
X349250Y248890D02*
X359250Y258890D01*
X488950Y258890D01*
X349250Y233236D02*
X314800Y233236D01*
X304800Y243236D01*
X304800Y266700D01*
D23*
X349250Y233236D03*
D28*
X488950Y258636D02*
X488950Y258890D01*
D23*
X285750Y316103D03*
D28*
X336550Y316103D01*
D23*
X336550Y316103D03*
D28*
X107950Y406400D02*
X69850Y406400D01*
X222250Y316103D02*
X285750Y316103D01*
X222250Y316103D02*
X222250Y315786D01*
D23*
X222250Y315786D03*
D28*
X107950Y315786D02*
X107950Y406400D01*
D23*
X107950Y315786D03*
X107950Y406400D03*
D28*
X336550Y316103D02*
X336550Y241300D01*
X330200Y241300D01*
D23*
X330200Y241300D03*
X212471Y203200D03*
D28*
X212471Y336550D01*
X225171Y349250D01*
X304800Y349250D01*
D23*
X304800Y349250D03*
X571500Y361950D03*
D28*
X571500Y230315D01*
X565150Y223965D01*
X491871Y223965D01*
D23*
X491871Y223965D03*
X580771Y361950D03*
D28*
X581257Y221062D01*
X574907Y214694D01*
X412750Y214694D01*
X406400Y208344D01*
X406400Y96457D01*
X400050Y90107D01*
X107950Y90107D01*
X95250Y77407D01*
X95250Y50800D01*
X391254Y477600D02*
X891400Y477600D01*
X391254Y477600D02*
X381254Y467600D01*
X381254Y425450D01*
D23*
X381254Y425450D03*
D28*
X390906Y414401D02*
X390906Y459900D01*
X400906Y469900D01*
X869950Y469900D01*
D23*
X390906Y414401D03*
D28*
X916800Y448150D02*
X916800Y467200D01*
X916800Y448150D02*
X906800Y438150D01*
X879950Y438150D01*
X869950Y448150D01*
X869950Y469900D01*
D23*
X354203Y438150D03*
D28*
X354203Y388029D01*
X364153Y378029D01*
X685629Y376414D01*
X695579Y366415D01*
X695579Y186877D01*
X684819Y176906D01*
X673100Y177800D01*
X673100Y177400D01*
D23*
X366395Y430530D03*
D28*
X365252Y430530D01*
X365252Y395953D01*
X375252Y385953D01*
X694850Y385953D01*
X704850Y375953D01*
X704850Y162400D01*
X694850Y152400D01*
X673100Y152400D01*
X402590Y393700D02*
X402590Y399415D01*
D23*
X402590Y399415D03*
D28*
X402590Y393700D02*
X704121Y393700D01*
X714121Y383700D01*
X714121Y187800D01*
X724121Y177800D01*
X818100Y177800D01*
X818100Y177400D01*
D23*
X590042Y361950D03*
D28*
X590995Y361950D01*
X590995Y213106D01*
X584645Y206756D01*
X420815Y206756D01*
X414465Y200406D01*
X414465Y88900D01*
X408115Y82550D01*
X200500Y82550D01*
X190500Y72550D01*
X190500Y50800D01*
X165100Y463550D02*
X57150Y463550D01*
X44450Y450850D01*
X44450Y431800D01*
D23*
X165100Y463550D03*
D28*
X76200Y527050D02*
X76200Y536100D01*
X86200Y546100D01*
X213400Y546100D01*
X226100Y558800D01*
X226100Y586800D01*
X241300Y50800D02*
X453550Y50800D01*
X463550Y60800D01*
X463550Y190500D01*
D23*
X463550Y190500D03*
X463550Y266700D03*
D28*
X466344Y266700D01*
X466344Y333629D01*
X465544Y333629D01*
X465544Y336550D01*
D23*
X465544Y336550D03*
X317500Y304800D03*
X254000Y234950D03*
D28*
X295750Y304800D02*
X317500Y304800D01*
X295750Y304800D02*
X285750Y294800D01*
X285750Y270350D01*
X275750Y260350D01*
X264000Y260350D01*
X254000Y250350D01*
X254000Y234950D01*
D29*
X266700Y127000D02*
X127000Y127000D01*
X82550Y127000D01*
X69850Y114300D01*
X69850Y25400D01*
X82550Y12700D01*
X838200Y12700D01*
X850900Y25400D01*
X850900Y184150D01*
X859950Y184150D01*
D30*
X850900Y184150D02*
X850900Y234950D01*
X838200Y247650D01*
X736600Y247650D01*
X736600Y381000D01*
D11*
X736600Y381000D03*
D23*
X552450Y361950D03*
D28*
X552450Y247142D01*
X546100Y240792D01*
X398255Y240792D01*
X391906Y234523D01*
X390351Y112504D01*
X384001Y106236D01*
X295750Y106236D01*
X285750Y116236D01*
X285750Y175070D01*
D23*
X285750Y175070D03*
X562356Y362077D03*
D28*
X562356Y239014D01*
X556006Y232664D01*
X406320Y232664D01*
X399970Y226396D01*
X398415Y104439D01*
X392066Y98171D01*
X152400Y98171D01*
D23*
X152400Y98171D03*
M02*
