G04 EAGLE Gerber RS-274X export*
G75*
%MOMM*%
%FSLAX34Y34*%
%LPD*%
%INEAGLE Copper Layer 15*%
%IPPOS*%
%AMOC8*
5,1,8,0,0,1.08239X$1,22.5*%
G01*
%ADD10C,3.816000*%
%ADD11C,1.800000*%
%ADD12C,1.524000*%
%ADD13C,1.200000*%
%ADD14C,1.371600*%
%ADD15C,4.616000*%
%ADD16C,4.216000*%
%ADD17C,0.609600*%
%ADD18C,0.904800*%
%ADD19C,0.804800*%
%ADD20C,1.050000*%


D10*
X748100Y89900D03*
X748100Y214900D03*
D11*
X673100Y177400D03*
X673100Y152400D03*
X673100Y127400D03*
X818100Y127400D03*
X818100Y177400D03*
D12*
X175300Y586800D03*
X200700Y586800D03*
X226100Y586800D03*
X251500Y586800D03*
X276900Y586800D03*
X302300Y586800D03*
X327700Y586800D03*
X353100Y586800D03*
X378500Y586800D03*
X403900Y586800D03*
X429300Y586800D03*
X454700Y586800D03*
X480100Y586800D03*
X505500Y586800D03*
X530900Y586800D03*
X556300Y586800D03*
D13*
X916800Y508000D03*
X891400Y498000D03*
X916800Y487600D03*
X891400Y477600D03*
X916800Y467200D03*
X891400Y457200D03*
D14*
X44450Y381000D03*
X69850Y381000D03*
X44450Y406400D03*
X69850Y406400D03*
X44450Y431800D03*
X69850Y431800D03*
D13*
X47700Y552450D03*
X47700Y501650D03*
X76200Y527050D03*
D15*
X859950Y184150D03*
D16*
X919950Y184150D03*
X889950Y137150D03*
D12*
X266700Y127000D03*
X266700Y152400D03*
X127000Y127000D03*
X127000Y152400D03*
D14*
X146050Y50800D03*
X120650Y50800D03*
X95250Y50800D03*
X241300Y50800D03*
X215900Y50800D03*
X190500Y50800D03*
D17*
X882650Y304800D03*
X444500Y368300D03*
X447650Y438400D03*
X212471Y441071D03*
X292227Y390398D03*
X270764Y307848D03*
D18*
X469900Y495300D03*
D19*
X374650Y285750D03*
D17*
X214186Y371729D03*
D20*
X647700Y444500D03*
X644500Y499660D03*
D18*
X383731Y269939D03*
X501650Y114300D03*
D11*
X527050Y158750D03*
D18*
X317500Y476250D03*
D13*
X609600Y234950D03*
D11*
X304800Y152400D03*
D17*
X488950Y248857D03*
X361950Y247650D03*
X273050Y247650D03*
X304800Y266700D03*
X488950Y258636D03*
X349250Y233236D03*
X285750Y316103D03*
X336550Y316103D03*
X222250Y315786D03*
X107950Y315786D03*
X107950Y406400D03*
X330200Y241300D03*
X212471Y203200D03*
X304800Y349250D03*
X571500Y361950D03*
X491871Y223965D03*
X580771Y361950D03*
X381254Y425450D03*
X390906Y414401D03*
X354203Y438150D03*
X366395Y430530D03*
X402590Y399415D03*
X590042Y361950D03*
X165100Y463550D03*
X463550Y190500D03*
X463550Y266700D03*
X465544Y336550D03*
X317500Y304800D03*
X254000Y234950D03*
D11*
X736600Y381000D03*
D17*
X552450Y361950D03*
X285750Y175070D03*
X562356Y362077D03*
X152400Y98171D03*
M02*
