G04 EAGLE Gerber RS-274X export*
G75*
%MOMM*%
%FSLAX34Y34*%
%LPD*%
%IN*%
%IPPOS*%
%AMOC8*
5,1,8,0,0,1.08239X$1,22.5*%
G01*
%ADD10C,0.254000*%


D10*
X0Y0D02*
X990600Y0D01*
X990600Y635000D01*
X0Y635000D01*
X0Y0D01*
X54100Y596376D02*
X54032Y595331D01*
X53895Y594292D01*
X53690Y593265D01*
X53419Y592253D01*
X53083Y591261D01*
X52682Y590293D01*
X52218Y589354D01*
X51695Y588446D01*
X51113Y587575D01*
X50475Y586744D01*
X49784Y585957D01*
X49043Y585216D01*
X48256Y584525D01*
X47425Y583888D01*
X46554Y583306D01*
X45646Y582782D01*
X44707Y582318D01*
X43739Y581917D01*
X42747Y581581D01*
X41735Y581310D01*
X40708Y581105D01*
X39669Y580969D01*
X38624Y580900D01*
X37576Y580900D01*
X36531Y580969D01*
X35492Y581105D01*
X34465Y581310D01*
X33453Y581581D01*
X32461Y581917D01*
X31493Y582318D01*
X30554Y582782D01*
X29646Y583306D01*
X28775Y583888D01*
X27944Y584525D01*
X27157Y585216D01*
X26416Y585957D01*
X25725Y586744D01*
X25088Y587575D01*
X24506Y588446D01*
X23982Y589354D01*
X23518Y590293D01*
X23117Y591261D01*
X22781Y592253D01*
X22510Y593265D01*
X22305Y594292D01*
X22169Y595331D01*
X22100Y596376D01*
X22100Y597424D01*
X22169Y598469D01*
X22305Y599508D01*
X22510Y600535D01*
X22781Y601547D01*
X23117Y602539D01*
X23518Y603507D01*
X23982Y604446D01*
X24506Y605354D01*
X25088Y606225D01*
X25725Y607056D01*
X26416Y607843D01*
X27157Y608584D01*
X27944Y609275D01*
X28775Y609913D01*
X29646Y610495D01*
X30554Y611018D01*
X31493Y611482D01*
X32461Y611883D01*
X33453Y612219D01*
X34465Y612490D01*
X35492Y612695D01*
X36531Y612832D01*
X37576Y612900D01*
X38624Y612900D01*
X39669Y612832D01*
X40708Y612695D01*
X41735Y612490D01*
X42747Y612219D01*
X43739Y611883D01*
X44707Y611482D01*
X45646Y611018D01*
X46554Y610495D01*
X47425Y609913D01*
X48256Y609275D01*
X49043Y608584D01*
X49784Y607843D01*
X50475Y607056D01*
X51113Y606225D01*
X51695Y605354D01*
X52218Y604446D01*
X52682Y603507D01*
X53083Y602539D01*
X53419Y601547D01*
X53690Y600535D01*
X53895Y599508D01*
X54032Y598469D01*
X54100Y597424D01*
X54100Y596376D01*
X54100Y37576D02*
X54032Y36531D01*
X53895Y35492D01*
X53690Y34465D01*
X53419Y33453D01*
X53083Y32461D01*
X52682Y31493D01*
X52218Y30554D01*
X51695Y29646D01*
X51113Y28775D01*
X50475Y27944D01*
X49784Y27157D01*
X49043Y26416D01*
X48256Y25725D01*
X47425Y25088D01*
X46554Y24506D01*
X45646Y23982D01*
X44707Y23518D01*
X43739Y23117D01*
X42747Y22781D01*
X41735Y22510D01*
X40708Y22305D01*
X39669Y22169D01*
X38624Y22100D01*
X37576Y22100D01*
X36531Y22169D01*
X35492Y22305D01*
X34465Y22510D01*
X33453Y22781D01*
X32461Y23117D01*
X31493Y23518D01*
X30554Y23982D01*
X29646Y24506D01*
X28775Y25088D01*
X27944Y25725D01*
X27157Y26416D01*
X26416Y27157D01*
X25725Y27944D01*
X25088Y28775D01*
X24506Y29646D01*
X23982Y30554D01*
X23518Y31493D01*
X23117Y32461D01*
X22781Y33453D01*
X22510Y34465D01*
X22305Y35492D01*
X22169Y36531D01*
X22100Y37576D01*
X22100Y38624D01*
X22169Y39669D01*
X22305Y40708D01*
X22510Y41735D01*
X22781Y42747D01*
X23117Y43739D01*
X23518Y44707D01*
X23982Y45646D01*
X24506Y46554D01*
X25088Y47425D01*
X25725Y48256D01*
X26416Y49043D01*
X27157Y49784D01*
X27944Y50475D01*
X28775Y51113D01*
X29646Y51695D01*
X30554Y52218D01*
X31493Y52682D01*
X32461Y53083D01*
X33453Y53419D01*
X34465Y53690D01*
X35492Y53895D01*
X36531Y54032D01*
X37576Y54100D01*
X38624Y54100D01*
X39669Y54032D01*
X40708Y53895D01*
X41735Y53690D01*
X42747Y53419D01*
X43739Y53083D01*
X44707Y52682D01*
X45646Y52218D01*
X46554Y51695D01*
X47425Y51113D01*
X48256Y50475D01*
X49043Y49784D01*
X49784Y49043D01*
X50475Y48256D01*
X51113Y47425D01*
X51695Y46554D01*
X52218Y45646D01*
X52682Y44707D01*
X53083Y43739D01*
X53419Y42747D01*
X53690Y41735D01*
X53895Y40708D01*
X54032Y39669D01*
X54100Y38624D01*
X54100Y37576D01*
X968500Y596376D02*
X968432Y595331D01*
X968295Y594292D01*
X968090Y593265D01*
X967819Y592253D01*
X967483Y591261D01*
X967082Y590293D01*
X966618Y589354D01*
X966095Y588446D01*
X965513Y587575D01*
X964875Y586744D01*
X964184Y585957D01*
X963443Y585216D01*
X962656Y584525D01*
X961825Y583888D01*
X960954Y583306D01*
X960046Y582782D01*
X959107Y582318D01*
X958139Y581917D01*
X957147Y581581D01*
X956135Y581310D01*
X955108Y581105D01*
X954069Y580969D01*
X953024Y580900D01*
X951976Y580900D01*
X950931Y580969D01*
X949892Y581105D01*
X948865Y581310D01*
X947853Y581581D01*
X946861Y581917D01*
X945893Y582318D01*
X944954Y582782D01*
X944046Y583306D01*
X943175Y583888D01*
X942344Y584525D01*
X941557Y585216D01*
X940816Y585957D01*
X940125Y586744D01*
X939488Y587575D01*
X938906Y588446D01*
X938382Y589354D01*
X937918Y590293D01*
X937517Y591261D01*
X937181Y592253D01*
X936910Y593265D01*
X936705Y594292D01*
X936569Y595331D01*
X936500Y596376D01*
X936500Y597424D01*
X936569Y598469D01*
X936705Y599508D01*
X936910Y600535D01*
X937181Y601547D01*
X937517Y602539D01*
X937918Y603507D01*
X938382Y604446D01*
X938906Y605354D01*
X939488Y606225D01*
X940125Y607056D01*
X940816Y607843D01*
X941557Y608584D01*
X942344Y609275D01*
X943175Y609913D01*
X944046Y610495D01*
X944954Y611018D01*
X945893Y611482D01*
X946861Y611883D01*
X947853Y612219D01*
X948865Y612490D01*
X949892Y612695D01*
X950931Y612832D01*
X951976Y612900D01*
X953024Y612900D01*
X954069Y612832D01*
X955108Y612695D01*
X956135Y612490D01*
X957147Y612219D01*
X958139Y611883D01*
X959107Y611482D01*
X960046Y611018D01*
X960954Y610495D01*
X961825Y609913D01*
X962656Y609275D01*
X963443Y608584D01*
X964184Y607843D01*
X964875Y607056D01*
X965513Y606225D01*
X966095Y605354D01*
X966618Y604446D01*
X967082Y603507D01*
X967483Y602539D01*
X967819Y601547D01*
X968090Y600535D01*
X968295Y599508D01*
X968432Y598469D01*
X968500Y597424D01*
X968500Y596376D01*
X968500Y37576D02*
X968432Y36531D01*
X968295Y35492D01*
X968090Y34465D01*
X967819Y33453D01*
X967483Y32461D01*
X967082Y31493D01*
X966618Y30554D01*
X966095Y29646D01*
X965513Y28775D01*
X964875Y27944D01*
X964184Y27157D01*
X963443Y26416D01*
X962656Y25725D01*
X961825Y25088D01*
X960954Y24506D01*
X960046Y23982D01*
X959107Y23518D01*
X958139Y23117D01*
X957147Y22781D01*
X956135Y22510D01*
X955108Y22305D01*
X954069Y22169D01*
X953024Y22100D01*
X951976Y22100D01*
X950931Y22169D01*
X949892Y22305D01*
X948865Y22510D01*
X947853Y22781D01*
X946861Y23117D01*
X945893Y23518D01*
X944954Y23982D01*
X944046Y24506D01*
X943175Y25088D01*
X942344Y25725D01*
X941557Y26416D01*
X940816Y27157D01*
X940125Y27944D01*
X939488Y28775D01*
X938906Y29646D01*
X938382Y30554D01*
X937918Y31493D01*
X937517Y32461D01*
X937181Y33453D01*
X936910Y34465D01*
X936705Y35492D01*
X936569Y36531D01*
X936500Y37576D01*
X936500Y38624D01*
X936569Y39669D01*
X936705Y40708D01*
X936910Y41735D01*
X937181Y42747D01*
X937517Y43739D01*
X937918Y44707D01*
X938382Y45646D01*
X938906Y46554D01*
X939488Y47425D01*
X940125Y48256D01*
X940816Y49043D01*
X941557Y49784D01*
X942344Y50475D01*
X943175Y51113D01*
X944046Y51695D01*
X944954Y52218D01*
X945893Y52682D01*
X946861Y53083D01*
X947853Y53419D01*
X948865Y53690D01*
X949892Y53895D01*
X950931Y54032D01*
X951976Y54100D01*
X953024Y54100D01*
X954069Y54032D01*
X955108Y53895D01*
X956135Y53690D01*
X957147Y53419D01*
X958139Y53083D01*
X959107Y52682D01*
X960046Y52218D01*
X960954Y51695D01*
X961825Y51113D01*
X962656Y50475D01*
X963443Y49784D01*
X964184Y49043D01*
X964875Y48256D01*
X965513Y47425D01*
X966095Y46554D01*
X966618Y45646D01*
X967082Y44707D01*
X967483Y43739D01*
X967819Y42747D01*
X968090Y41735D01*
X968295Y40708D01*
X968432Y39669D01*
X968500Y38624D01*
X968500Y37576D01*
X306705Y285459D02*
X306781Y284881D01*
X306932Y284318D01*
X307155Y283780D01*
X307446Y283275D01*
X307801Y282813D01*
X308213Y282401D01*
X308675Y282046D01*
X309180Y281755D01*
X309718Y281532D01*
X310281Y281381D01*
X310859Y281305D01*
X311441Y281305D01*
X312019Y281381D01*
X312582Y281532D01*
X313120Y281755D01*
X313625Y282046D01*
X314087Y282401D01*
X314499Y282813D01*
X314854Y283275D01*
X315145Y283780D01*
X315368Y284318D01*
X315519Y284881D01*
X315595Y285459D01*
X315595Y286041D01*
X315519Y286619D01*
X315368Y287182D01*
X315145Y287720D01*
X314854Y288225D01*
X314499Y288687D01*
X314087Y289099D01*
X313625Y289454D01*
X313120Y289745D01*
X312582Y289968D01*
X312019Y290119D01*
X311441Y290195D01*
X310859Y290195D01*
X310281Y290119D01*
X309718Y289968D01*
X309180Y289745D01*
X308675Y289454D01*
X308213Y289099D01*
X307801Y288687D01*
X307446Y288225D01*
X307155Y287720D01*
X306932Y287182D01*
X306781Y286619D01*
X306705Y286041D01*
X306705Y285459D01*
X255905Y275299D02*
X255981Y274721D01*
X256132Y274158D01*
X256355Y273620D01*
X256646Y273115D01*
X257001Y272653D01*
X257413Y272241D01*
X257875Y271886D01*
X258380Y271595D01*
X258918Y271372D01*
X259481Y271221D01*
X260059Y271145D01*
X260641Y271145D01*
X261219Y271221D01*
X261782Y271372D01*
X262320Y271595D01*
X262825Y271886D01*
X263287Y272241D01*
X263699Y272653D01*
X264054Y273115D01*
X264345Y273620D01*
X264568Y274158D01*
X264719Y274721D01*
X264795Y275299D01*
X264795Y275881D01*
X264719Y276459D01*
X264568Y277022D01*
X264345Y277560D01*
X264054Y278065D01*
X263699Y278527D01*
X263287Y278939D01*
X262825Y279294D01*
X262320Y279585D01*
X261782Y279808D01*
X261219Y279959D01*
X260641Y280035D01*
X260059Y280035D01*
X259481Y279959D01*
X258918Y279808D01*
X258380Y279585D01*
X257875Y279294D01*
X257413Y278939D01*
X257001Y278527D01*
X256646Y278065D01*
X256355Y277560D01*
X256132Y277022D01*
X255981Y276459D01*
X255905Y275881D01*
X255905Y275299D01*
X255905Y295619D02*
X255981Y295041D01*
X256132Y294478D01*
X256355Y293940D01*
X256646Y293435D01*
X257001Y292973D01*
X257413Y292561D01*
X257875Y292206D01*
X258380Y291915D01*
X258918Y291692D01*
X259481Y291541D01*
X260059Y291465D01*
X260641Y291465D01*
X261219Y291541D01*
X261782Y291692D01*
X262320Y291915D01*
X262825Y292206D01*
X263287Y292561D01*
X263699Y292973D01*
X264054Y293435D01*
X264345Y293940D01*
X264568Y294478D01*
X264719Y295041D01*
X264795Y295619D01*
X264795Y296201D01*
X264719Y296779D01*
X264568Y297342D01*
X264345Y297880D01*
X264054Y298385D01*
X263699Y298847D01*
X263287Y299259D01*
X262825Y299614D01*
X262320Y299905D01*
X261782Y300128D01*
X261219Y300279D01*
X260641Y300355D01*
X260059Y300355D01*
X259481Y300279D01*
X258918Y300128D01*
X258380Y299905D01*
X257875Y299614D01*
X257413Y299259D01*
X257001Y298847D01*
X256646Y298385D01*
X256355Y297880D01*
X256132Y297342D01*
X255981Y296779D01*
X255905Y296201D01*
X255905Y295619D01*
X935300Y351905D02*
X935377Y351320D01*
X935530Y350750D01*
X935755Y350205D01*
X936050Y349695D01*
X936409Y349227D01*
X936827Y348809D01*
X937295Y348450D01*
X937805Y348155D01*
X938350Y347930D01*
X938920Y347777D01*
X939505Y347700D01*
X940095Y347700D01*
X940680Y347777D01*
X941250Y347930D01*
X941795Y348155D01*
X942305Y348450D01*
X942773Y348809D01*
X943191Y349227D01*
X943550Y349695D01*
X943845Y350205D01*
X944070Y350750D01*
X944223Y351320D01*
X944300Y351905D01*
X944300Y352495D01*
X944223Y353080D01*
X944070Y353650D01*
X943845Y354195D01*
X943550Y354705D01*
X943191Y355173D01*
X942773Y355591D01*
X942305Y355950D01*
X941795Y356245D01*
X941250Y356470D01*
X940680Y356623D01*
X940095Y356700D01*
X939505Y356700D01*
X938920Y356623D01*
X938350Y356470D01*
X937805Y356245D01*
X937295Y355950D01*
X936827Y355591D01*
X936409Y355173D01*
X936050Y354705D01*
X935755Y354195D01*
X935530Y353650D01*
X935377Y353080D01*
X935300Y352495D01*
X935300Y351905D01*
X935300Y307905D02*
X935377Y307320D01*
X935530Y306750D01*
X935755Y306205D01*
X936050Y305695D01*
X936409Y305227D01*
X936827Y304809D01*
X937295Y304450D01*
X937805Y304155D01*
X938350Y303930D01*
X938920Y303777D01*
X939505Y303700D01*
X940095Y303700D01*
X940680Y303777D01*
X941250Y303930D01*
X941795Y304155D01*
X942305Y304450D01*
X942773Y304809D01*
X943191Y305227D01*
X943550Y305695D01*
X943845Y306205D01*
X944070Y306750D01*
X944223Y307320D01*
X944300Y307905D01*
X944300Y308495D01*
X944223Y309080D01*
X944070Y309650D01*
X943845Y310195D01*
X943550Y310705D01*
X943191Y311173D01*
X942773Y311591D01*
X942305Y311950D01*
X941795Y312245D01*
X941250Y312470D01*
X940680Y312623D01*
X940095Y312700D01*
X939505Y312700D01*
X938920Y312623D01*
X938350Y312470D01*
X937805Y312245D01*
X937295Y311950D01*
X936827Y311591D01*
X936409Y311173D01*
X936050Y310705D01*
X935755Y310195D01*
X935530Y309650D01*
X935377Y309080D01*
X935300Y308495D01*
X935300Y307905D01*
X135300Y586276D02*
X135232Y585231D01*
X135095Y584192D01*
X134890Y583165D01*
X134619Y582153D01*
X134283Y581161D01*
X133882Y580193D01*
X133418Y579254D01*
X132895Y578346D01*
X132313Y577475D01*
X131675Y576644D01*
X130984Y575857D01*
X130243Y575116D01*
X129456Y574425D01*
X128625Y573788D01*
X127754Y573206D01*
X126846Y572682D01*
X125907Y572218D01*
X124939Y571817D01*
X123947Y571481D01*
X122935Y571210D01*
X121908Y571005D01*
X120869Y570869D01*
X119824Y570800D01*
X118776Y570800D01*
X117731Y570869D01*
X116692Y571005D01*
X115665Y571210D01*
X114653Y571481D01*
X113661Y571817D01*
X112693Y572218D01*
X111754Y572682D01*
X110846Y573206D01*
X109975Y573788D01*
X109144Y574425D01*
X108357Y575116D01*
X107616Y575857D01*
X106925Y576644D01*
X106288Y577475D01*
X105706Y578346D01*
X105182Y579254D01*
X104718Y580193D01*
X104317Y581161D01*
X103981Y582153D01*
X103710Y583165D01*
X103505Y584192D01*
X103369Y585231D01*
X103300Y586276D01*
X103300Y587324D01*
X103369Y588369D01*
X103505Y589408D01*
X103710Y590435D01*
X103981Y591447D01*
X104317Y592439D01*
X104718Y593407D01*
X105182Y594346D01*
X105706Y595254D01*
X106288Y596125D01*
X106925Y596956D01*
X107616Y597743D01*
X108357Y598484D01*
X109144Y599175D01*
X109975Y599813D01*
X110846Y600395D01*
X111754Y600918D01*
X112693Y601382D01*
X113661Y601783D01*
X114653Y602119D01*
X115665Y602390D01*
X116692Y602595D01*
X117731Y602732D01*
X118776Y602800D01*
X119824Y602800D01*
X120869Y602732D01*
X121908Y602595D01*
X122935Y602390D01*
X123947Y602119D01*
X124939Y601783D01*
X125907Y601382D01*
X126846Y600918D01*
X127754Y600395D01*
X128625Y599813D01*
X129456Y599175D01*
X130243Y598484D01*
X130984Y597743D01*
X131675Y596956D01*
X132313Y596125D01*
X132895Y595254D01*
X133418Y594346D01*
X133882Y593407D01*
X134283Y592439D01*
X134619Y591447D01*
X134890Y590435D01*
X135095Y589408D01*
X135232Y588369D01*
X135300Y587324D01*
X135300Y586276D01*
X135300Y276276D02*
X135232Y275231D01*
X135095Y274192D01*
X134890Y273165D01*
X134619Y272153D01*
X134283Y271161D01*
X133882Y270193D01*
X133418Y269254D01*
X132895Y268346D01*
X132313Y267475D01*
X131675Y266644D01*
X130984Y265857D01*
X130243Y265116D01*
X129456Y264425D01*
X128625Y263788D01*
X127754Y263206D01*
X126846Y262682D01*
X125907Y262218D01*
X124939Y261817D01*
X123947Y261481D01*
X122935Y261210D01*
X121908Y261005D01*
X120869Y260869D01*
X119824Y260800D01*
X118776Y260800D01*
X117731Y260869D01*
X116692Y261005D01*
X115665Y261210D01*
X114653Y261481D01*
X113661Y261817D01*
X112693Y262218D01*
X111754Y262682D01*
X110846Y263206D01*
X109975Y263788D01*
X109144Y264425D01*
X108357Y265116D01*
X107616Y265857D01*
X106925Y266644D01*
X106288Y267475D01*
X105706Y268346D01*
X105182Y269254D01*
X104718Y270193D01*
X104317Y271161D01*
X103981Y272153D01*
X103710Y273165D01*
X103505Y274192D01*
X103369Y275231D01*
X103300Y276276D01*
X103300Y277324D01*
X103369Y278369D01*
X103505Y279408D01*
X103710Y280435D01*
X103981Y281447D01*
X104317Y282439D01*
X104718Y283407D01*
X105182Y284346D01*
X105706Y285254D01*
X106288Y286125D01*
X106925Y286956D01*
X107616Y287743D01*
X108357Y288484D01*
X109144Y289175D01*
X109975Y289813D01*
X110846Y290395D01*
X111754Y290918D01*
X112693Y291382D01*
X113661Y291783D01*
X114653Y292119D01*
X115665Y292390D01*
X116692Y292595D01*
X117731Y292732D01*
X118776Y292800D01*
X119824Y292800D01*
X120869Y292732D01*
X121908Y292595D01*
X122935Y292390D01*
X123947Y292119D01*
X124939Y291783D01*
X125907Y291382D01*
X126846Y290918D01*
X127754Y290395D01*
X128625Y289813D01*
X129456Y289175D01*
X130243Y288484D01*
X130984Y287743D01*
X131675Y286956D01*
X132313Y286125D01*
X132895Y285254D01*
X133418Y284346D01*
X133882Y283407D01*
X134283Y282439D01*
X134619Y281447D01*
X134890Y280435D01*
X135095Y279408D01*
X135232Y278369D01*
X135300Y277324D01*
X135300Y276276D01*
X887300Y276276D02*
X887232Y275231D01*
X887095Y274192D01*
X886890Y273165D01*
X886619Y272153D01*
X886283Y271161D01*
X885882Y270193D01*
X885418Y269254D01*
X884895Y268346D01*
X884313Y267475D01*
X883675Y266644D01*
X882984Y265857D01*
X882243Y265116D01*
X881456Y264425D01*
X880625Y263788D01*
X879754Y263206D01*
X878846Y262682D01*
X877907Y262218D01*
X876939Y261817D01*
X875947Y261481D01*
X874935Y261210D01*
X873908Y261005D01*
X872869Y260869D01*
X871824Y260800D01*
X870776Y260800D01*
X869731Y260869D01*
X868692Y261005D01*
X867665Y261210D01*
X866653Y261481D01*
X865661Y261817D01*
X864693Y262218D01*
X863754Y262682D01*
X862846Y263206D01*
X861975Y263788D01*
X861144Y264425D01*
X860357Y265116D01*
X859616Y265857D01*
X858925Y266644D01*
X858288Y267475D01*
X857706Y268346D01*
X857182Y269254D01*
X856718Y270193D01*
X856317Y271161D01*
X855981Y272153D01*
X855710Y273165D01*
X855505Y274192D01*
X855369Y275231D01*
X855300Y276276D01*
X855300Y277324D01*
X855369Y278369D01*
X855505Y279408D01*
X855710Y280435D01*
X855981Y281447D01*
X856317Y282439D01*
X856718Y283407D01*
X857182Y284346D01*
X857706Y285254D01*
X858288Y286125D01*
X858925Y286956D01*
X859616Y287743D01*
X860357Y288484D01*
X861144Y289175D01*
X861975Y289813D01*
X862846Y290395D01*
X863754Y290918D01*
X864693Y291382D01*
X865661Y291783D01*
X866653Y292119D01*
X867665Y292390D01*
X868692Y292595D01*
X869731Y292732D01*
X870776Y292800D01*
X871824Y292800D01*
X872869Y292732D01*
X873908Y292595D01*
X874935Y292390D01*
X875947Y292119D01*
X876939Y291783D01*
X877907Y291382D01*
X878846Y290918D01*
X879754Y290395D01*
X880625Y289813D01*
X881456Y289175D01*
X882243Y288484D01*
X882984Y287743D01*
X883675Y286956D01*
X884313Y286125D01*
X884895Y285254D01*
X885418Y284346D01*
X885882Y283407D01*
X886283Y282439D01*
X886619Y281447D01*
X886890Y280435D01*
X887095Y279408D01*
X887232Y278369D01*
X887300Y277324D01*
X887300Y276276D01*
X887300Y586276D02*
X887232Y585231D01*
X887095Y584192D01*
X886890Y583165D01*
X886619Y582153D01*
X886283Y581161D01*
X885882Y580193D01*
X885418Y579254D01*
X884895Y578346D01*
X884313Y577475D01*
X883675Y576644D01*
X882984Y575857D01*
X882243Y575116D01*
X881456Y574425D01*
X880625Y573788D01*
X879754Y573206D01*
X878846Y572682D01*
X877907Y572218D01*
X876939Y571817D01*
X875947Y571481D01*
X874935Y571210D01*
X873908Y571005D01*
X872869Y570869D01*
X871824Y570800D01*
X870776Y570800D01*
X869731Y570869D01*
X868692Y571005D01*
X867665Y571210D01*
X866653Y571481D01*
X865661Y571817D01*
X864693Y572218D01*
X863754Y572682D01*
X862846Y573206D01*
X861975Y573788D01*
X861144Y574425D01*
X860357Y575116D01*
X859616Y575857D01*
X858925Y576644D01*
X858288Y577475D01*
X857706Y578346D01*
X857182Y579254D01*
X856718Y580193D01*
X856317Y581161D01*
X855981Y582153D01*
X855710Y583165D01*
X855505Y584192D01*
X855369Y585231D01*
X855300Y586276D01*
X855300Y587324D01*
X855369Y588369D01*
X855505Y589408D01*
X855710Y590435D01*
X855981Y591447D01*
X856317Y592439D01*
X856718Y593407D01*
X857182Y594346D01*
X857706Y595254D01*
X858288Y596125D01*
X858925Y596956D01*
X859616Y597743D01*
X860357Y598484D01*
X861144Y599175D01*
X861975Y599813D01*
X862846Y600395D01*
X863754Y600918D01*
X864693Y601382D01*
X865661Y601783D01*
X866653Y602119D01*
X867665Y602390D01*
X868692Y602595D01*
X869731Y602732D01*
X870776Y602800D01*
X871824Y602800D01*
X872869Y602732D01*
X873908Y602595D01*
X874935Y602390D01*
X875947Y602119D01*
X876939Y601783D01*
X877907Y601382D01*
X878846Y600918D01*
X879754Y600395D01*
X880625Y599813D01*
X881456Y599175D01*
X882243Y598484D01*
X882984Y597743D01*
X883675Y596956D01*
X884313Y596125D01*
X884895Y595254D01*
X885418Y594346D01*
X885882Y593407D01*
X886283Y592439D01*
X886619Y591447D01*
X886890Y590435D01*
X887095Y589408D01*
X887232Y588369D01*
X887300Y587324D01*
X887300Y586276D01*
X940264Y530800D02*
X941188Y530873D01*
X942104Y531018D01*
X943005Y531234D01*
X943887Y531521D01*
X944744Y531876D01*
X945570Y532297D01*
X946361Y532781D01*
X947111Y533326D01*
X947816Y533928D01*
X948472Y534584D01*
X949074Y535289D01*
X949619Y536039D01*
X950103Y536830D01*
X950524Y537656D01*
X950879Y538513D01*
X951166Y539395D01*
X951382Y540296D01*
X951527Y541212D01*
X951600Y542136D01*
X951600Y543064D01*
X951527Y543988D01*
X951382Y544904D01*
X951166Y545805D01*
X950879Y546687D01*
X950524Y547544D01*
X950103Y548370D01*
X949619Y549161D01*
X949074Y549911D01*
X948472Y550616D01*
X947816Y551272D01*
X947111Y551874D01*
X946361Y552419D01*
X945570Y552903D01*
X944744Y553324D01*
X943887Y553679D01*
X943005Y553966D01*
X942104Y554182D01*
X941188Y554327D01*
X940264Y554400D01*
X939336Y554400D01*
X938412Y554327D01*
X937496Y554182D01*
X936595Y553966D01*
X935713Y553679D01*
X934856Y553324D01*
X934030Y552903D01*
X933239Y552419D01*
X932489Y551874D01*
X931784Y551272D01*
X931128Y550616D01*
X930526Y549911D01*
X929981Y549161D01*
X929497Y548370D01*
X929076Y547544D01*
X928721Y546687D01*
X928434Y545805D01*
X928218Y544904D01*
X928073Y543988D01*
X928000Y543064D01*
X928000Y542136D01*
X928073Y541212D01*
X928218Y540296D01*
X928434Y539395D01*
X928721Y538513D01*
X929076Y537656D01*
X929497Y536830D01*
X929981Y536039D01*
X930526Y535289D01*
X931128Y534584D01*
X931784Y533928D01*
X932489Y533326D01*
X933239Y532781D01*
X934030Y532297D01*
X934856Y531876D01*
X935713Y531521D01*
X936595Y531234D01*
X937496Y531018D01*
X938412Y530873D01*
X939336Y530800D01*
X940264Y530800D01*
X940264Y410800D02*
X941188Y410873D01*
X942104Y411018D01*
X943005Y411234D01*
X943887Y411521D01*
X944744Y411876D01*
X945570Y412297D01*
X946361Y412781D01*
X947111Y413326D01*
X947816Y413928D01*
X948472Y414584D01*
X949074Y415289D01*
X949619Y416039D01*
X950103Y416830D01*
X950524Y417656D01*
X950879Y418513D01*
X951166Y419395D01*
X951382Y420296D01*
X951527Y421212D01*
X951600Y422136D01*
X951600Y423064D01*
X951527Y423988D01*
X951382Y424904D01*
X951166Y425805D01*
X950879Y426687D01*
X950524Y427544D01*
X950103Y428370D01*
X949619Y429161D01*
X949074Y429911D01*
X948472Y430616D01*
X947816Y431272D01*
X947111Y431874D01*
X946361Y432419D01*
X945570Y432903D01*
X944744Y433324D01*
X943887Y433679D01*
X943005Y433966D01*
X942104Y434182D01*
X941188Y434327D01*
X940264Y434400D01*
X939336Y434400D01*
X938412Y434327D01*
X937496Y434182D01*
X936595Y433966D01*
X935713Y433679D01*
X934856Y433324D01*
X934030Y432903D01*
X933239Y432419D01*
X932489Y431874D01*
X931784Y431272D01*
X931128Y430616D01*
X930526Y429911D01*
X929981Y429161D01*
X929497Y428370D01*
X929076Y427544D01*
X928721Y426687D01*
X928434Y425805D01*
X928218Y424904D01*
X928073Y423988D01*
X928000Y423064D01*
X928000Y422136D01*
X928073Y421212D01*
X928218Y420296D01*
X928434Y419395D01*
X928721Y418513D01*
X929076Y417656D01*
X929497Y416830D01*
X929981Y416039D01*
X930526Y415289D01*
X931128Y414584D01*
X931784Y413928D01*
X932489Y413326D01*
X933239Y412781D01*
X934030Y412297D01*
X934856Y411876D01*
X935713Y411521D01*
X936595Y411234D01*
X937496Y411018D01*
X938412Y410873D01*
X939336Y410800D01*
X940264Y410800D01*
M02*
