G04 EAGLE Gerber RS-274X export*
G75*
%MOMM*%
%FSLAX34Y34*%
%LPD*%
%INSilkscreen Top*%
%IPPOS*%
%AMOC8*
5,1,8,0,0,1.08239X$1,22.5*%
G01*
%ADD10C,0.076200*%
%ADD11C,0.152400*%
%ADD12C,0.203200*%
%ADD13C,0.127000*%


D10*
X233234Y325662D02*
X228319Y325662D01*
X228319Y321976D01*
X230776Y323205D01*
X232005Y323205D01*
X233234Y321976D01*
X233234Y319519D01*
X232005Y318290D01*
X229548Y318290D01*
X228319Y319519D01*
X235803Y320747D02*
X235803Y325662D01*
X235803Y320747D02*
X238261Y318290D01*
X240718Y320747D01*
X240718Y325662D01*
X150893Y596399D02*
X150893Y603771D01*
X154579Y603771D01*
X155808Y602542D01*
X155808Y601314D01*
X154579Y600085D01*
X155808Y598856D01*
X155808Y597627D01*
X154579Y596399D01*
X150893Y596399D01*
X150893Y600085D02*
X154579Y600085D01*
X158377Y603771D02*
X158377Y596399D01*
X163292Y596399D01*
X165861Y596399D02*
X165861Y603771D01*
X165861Y598856D02*
X170776Y603771D01*
X167090Y600085D02*
X170776Y596399D01*
X411715Y391865D02*
X411715Y384492D01*
X415402Y384492D01*
X416630Y385721D01*
X416630Y390636D01*
X415402Y391865D01*
X411715Y391865D01*
X419200Y389407D02*
X421657Y391865D01*
X421657Y384492D01*
X419200Y384492D02*
X424114Y384492D01*
X426684Y389407D02*
X429141Y391865D01*
X429141Y384492D01*
X426684Y384492D02*
X431599Y384492D01*
D11*
X639892Y421011D02*
X650738Y421011D01*
X639892Y421011D02*
X639892Y404741D01*
X650738Y404741D01*
X645315Y412876D02*
X639892Y412876D01*
X664398Y421011D02*
X667110Y418299D01*
X664398Y421011D02*
X658975Y421011D01*
X656263Y418299D01*
X656263Y407452D01*
X658975Y404741D01*
X664398Y404741D01*
X667110Y407452D01*
X672635Y415587D02*
X678058Y421011D01*
X678058Y404741D01*
X672635Y404741D02*
X683481Y404741D01*
X689006Y415587D02*
X694430Y421011D01*
X694430Y404741D01*
X699853Y404741D02*
X689006Y404741D01*
X705378Y421011D02*
X716224Y421011D01*
X705378Y421011D02*
X705378Y404741D01*
X716224Y404741D01*
X710801Y412876D02*
X705378Y412876D01*
X650738Y394341D02*
X639892Y394341D01*
X639892Y378071D01*
X650738Y378071D01*
X645315Y386206D02*
X639892Y386206D01*
X656263Y388917D02*
X656263Y378071D01*
X656263Y388917D02*
X664398Y388917D01*
X667110Y386206D01*
X667110Y378071D01*
X675346Y388917D02*
X683481Y388917D01*
X675346Y388917D02*
X672635Y386206D01*
X672635Y380782D01*
X675346Y378071D01*
X683481Y378071D01*
X691718Y378071D02*
X697141Y378071D01*
X699853Y380782D01*
X699853Y386206D01*
X697141Y388917D01*
X691718Y388917D01*
X689006Y386206D01*
X689006Y380782D01*
X691718Y378071D01*
X716224Y378071D02*
X716224Y394341D01*
X716224Y378071D02*
X708089Y378071D01*
X705378Y380782D01*
X705378Y386206D01*
X708089Y388917D01*
X716224Y388917D01*
X724461Y378071D02*
X729884Y378071D01*
X724461Y378071D02*
X721749Y380782D01*
X721749Y386206D01*
X724461Y388917D01*
X729884Y388917D01*
X732596Y386206D01*
X732596Y383494D01*
X721749Y383494D01*
X738121Y378071D02*
X738121Y388917D01*
X738121Y383494D02*
X743544Y388917D01*
X746256Y388917D01*
X83402Y691473D02*
X77979Y686050D01*
X83402Y691473D02*
X83402Y675203D01*
X77979Y675203D02*
X88825Y675203D01*
D12*
X95300Y611800D02*
X895300Y611800D01*
X895300Y251800D01*
X95300Y251800D01*
X95300Y611800D01*
X138800Y563300D02*
X851800Y563300D01*
X851800Y300300D01*
X138800Y300300D01*
X138800Y563300D01*
X254000Y133350D02*
X254000Y120650D01*
X254000Y133350D02*
X260350Y139700D01*
X273050Y139700D02*
X279400Y133350D01*
X260350Y139700D02*
X254000Y146050D01*
X254000Y158750D01*
X260350Y165100D01*
X273050Y165100D02*
X279400Y158750D01*
X279400Y146050D01*
X273050Y139700D01*
X273050Y114300D02*
X260350Y114300D01*
X254000Y120650D01*
X273050Y114300D02*
X279400Y120650D01*
X279400Y133350D01*
X273050Y165100D02*
X260350Y165100D01*
D13*
X247777Y116080D02*
X245870Y114173D01*
X247777Y116080D02*
X247777Y117986D01*
X245870Y119893D01*
X236337Y119893D01*
X236337Y117986D02*
X236337Y121800D01*
X236337Y125867D02*
X247777Y125867D01*
X236337Y125867D02*
X236337Y131587D01*
X238244Y133493D01*
X242057Y133493D01*
X243964Y131587D01*
X243964Y125867D01*
X240151Y137561D02*
X236337Y141374D01*
X247777Y141374D01*
X247777Y137561D02*
X247777Y145187D01*
D12*
X114300Y133350D02*
X114300Y120650D01*
X114300Y133350D02*
X120650Y139700D01*
X133350Y139700D02*
X139700Y133350D01*
X120650Y139700D02*
X114300Y146050D01*
X114300Y158750D01*
X120650Y165100D01*
X133350Y165100D02*
X139700Y158750D01*
X139700Y146050D01*
X133350Y139700D01*
X133350Y114300D02*
X120650Y114300D01*
X114300Y120650D01*
X133350Y114300D02*
X139700Y120650D01*
X139700Y133350D01*
X133350Y165100D02*
X120650Y165100D01*
D13*
X108077Y116080D02*
X106170Y114173D01*
X108077Y116080D02*
X108077Y117986D01*
X106170Y119893D01*
X96637Y119893D01*
X96637Y117986D02*
X96637Y121800D01*
X96637Y125867D02*
X108077Y125867D01*
X96637Y125867D02*
X96637Y131587D01*
X98544Y133493D01*
X102357Y133493D01*
X104264Y131587D01*
X104264Y125867D01*
X108077Y137561D02*
X108077Y145187D01*
X108077Y137561D02*
X100451Y145187D01*
X98544Y145187D01*
X96637Y143281D01*
X96637Y139468D01*
X98544Y137561D01*
M02*
