G04 EAGLE Gerber RS-274X export*
G75*
%MOMM*%
%FSLAX34Y34*%
%LPD*%
%INSoldermask Top*%
%IPPOS*%
%AMOC8*
5,1,8,0,0,1.08239X$1,22.5*%
G01*
%ADD10C,3.301600*%
%ADD11C,0.990600*%
%ADD12C,1.001600*%
%ADD13R,3.917600X3.917600*%
%ADD14R,1.901600X1.901600*%
%ADD15R,1.625600X1.625600*%
%ADD16C,1.625600*%
%ADD17C,1.401600*%
%ADD18C,2.461600*%
%ADD19C,1.473200*%
%ADD20P,1.594577X8X112.500000*%
%ADD21C,1.301600*%
%ADD22P,5.106283X8X292.500000*%
%ADD23P,4.673327X8X112.500000*%
%ADD24P,4.673327X8X22.500000*%
%ADD25C,1.981200*%
%ADD26C,1.473200*%
%ADD27R,1.151600X1.151600*%
%ADD28R,1.301600X1.301600*%


D10*
X38100Y596900D03*
X38100Y38100D03*
X952500Y596900D03*
X952500Y38100D03*
D11*
X311150Y285750D03*
X260350Y275590D03*
X260350Y295910D03*
D12*
X939800Y352200D03*
X939800Y308200D03*
D13*
X748100Y89900D03*
X748100Y214900D03*
D14*
X673100Y177400D03*
X673100Y152400D03*
X673100Y127400D03*
X818100Y127400D03*
X818100Y177400D03*
D15*
X175300Y586800D03*
D16*
X200700Y586800D03*
X226100Y586800D03*
X251500Y586800D03*
X276900Y586800D03*
X302300Y586800D03*
X327700Y586800D03*
X353100Y586800D03*
X378500Y586800D03*
X403900Y586800D03*
X429300Y586800D03*
X454700Y586800D03*
X480100Y586800D03*
X505500Y586800D03*
X530900Y586800D03*
X556300Y586800D03*
D10*
X119300Y586800D03*
X119300Y276800D03*
X871300Y276800D03*
X871300Y586800D03*
D17*
X916800Y508000D03*
X891400Y498000D03*
X916800Y487600D03*
X891400Y477600D03*
X916800Y467200D03*
X891400Y457200D03*
D18*
X939800Y542600D03*
X939800Y422600D03*
D19*
X44450Y381000D03*
D20*
X69850Y381000D03*
X44450Y406400D03*
X69850Y406400D03*
X44450Y431800D03*
X69850Y431800D03*
D21*
X47700Y552450D03*
X47700Y501650D03*
X76200Y527050D03*
D22*
X859950Y184150D03*
D23*
X919950Y184150D03*
D24*
X889950Y137150D03*
D25*
X266700Y127000D03*
X266700Y152400D03*
X127000Y127000D03*
X127000Y152400D03*
D26*
X146050Y57658D02*
X146050Y43942D01*
X120650Y43942D02*
X120650Y57658D01*
X95250Y57658D02*
X95250Y43942D01*
X241300Y43942D02*
X241300Y57658D01*
X215900Y57658D02*
X215900Y43942D01*
X190500Y43942D02*
X190500Y57658D01*
D27*
X647700Y444500D03*
X644500Y499660D03*
D14*
X527050Y158750D03*
D28*
X609600Y234950D03*
D14*
X304800Y152400D03*
X736600Y381000D03*
M02*
